<?xml version="1.0" encoding="UTF-8" standalone="no"?>
<!DOCTYPE svg PUBLIC "-//W3C//DTD SVG 1.1//EN"
 "http://www.w3.org/Graphics/SVG/1.1/DTD/svg11.dtd">
<!-- Generated by graphviz version 2.49.0 (20210828.1703)
 -->
<!-- Title: imdf_net_1655279245.214782 Pages: 1 -->
<svg width="2984pt" height="316pt"
 viewBox="0.00 0.00 2984.00 316.00" xmlns="http://www.w3.org/2000/svg" xmlns:xlink="http://www.w3.org/1999/xlink">
<g id="graph0" class="graph" transform="scale(1 1) rotate(0) translate(4 312)">
<title>imdf_net_1655279245.214782</title>
<!-- 2146546341248 -->
<g id="node1" class="node">
<title>2146546341248</title>
<polygon fill="none" stroke="black" points="2088,-158 1938,-158 1938,-122 2088,-122 2088,-158"/>
<text text-anchor="middle" x="2013" y="-136.9" font-family="Times New Roman,serif" font-size="12.00">Send_home_insurance_quote</text>
</g>
<!-- 2146546340720 -->
<g id="node31" class="node">
<title>2146546340720</title>
<ellipse fill="none" stroke="black" cx="2151" cy="-113" rx="27" ry="27"/>
</g>
<!-- 2146546341248&#45;&gt;2146546340720 -->
<g id="edge11" class="edge">
<title>2146546341248&#45;&gt;2146546340720</title>
<path fill="none" stroke="black" d="M2088.37,-125.24C2097.34,-123.46 2106.15,-121.7 2114.19,-120.11"/>
<polygon fill="black" stroke="black" points="2115.13,-123.49 2124.26,-118.11 2113.77,-116.62 2115.13,-123.49"/>
</g>
<!-- 2146546342016 -->
<g id="node2" class="node">
<title>2146546342016</title>
<polygon fill="none" stroke="black" points="2597.5,-109 2494.5,-109 2494.5,-73 2597.5,-73 2597.5,-109"/>
<text text-anchor="middle" x="2546" y="-87.9" font-family="Times New Roman,serif" font-size="12.00">Cancel_application</text>
</g>
<!-- 2146546341824 -->
<g id="node33" class="node">
<title>2146546341824</title>
<ellipse fill="none" stroke="black" cx="2665" cy="-82" rx="27" ry="27"/>
</g>
<!-- 2146546342016&#45;&gt;2146546341824 -->
<g id="edge4" class="edge">
<title>2146546342016&#45;&gt;2146546341824</title>
<path fill="none" stroke="black" d="M2597.64,-87.1C2607.69,-86.33 2618.06,-85.53 2627.52,-84.81"/>
<polygon fill="black" stroke="black" points="2628.06,-88.28 2637.76,-84.02 2627.52,-81.3 2628.06,-88.28"/>
</g>
<!-- 2146546285968 -->
<g id="node3" class="node">
<title>2146546285968</title>
<polygon fill="none" stroke="black" points="890,-199 683,-199 683,-163 890,-163 890,-199"/>
<text text-anchor="middle" x="786.5" y="-177.9" font-family="Times New Roman,serif" font-size="12.00">Check__application__form_completeness</text>
</g>
<!-- 2146546285776 -->
<g id="node36" class="node">
<title>2146546285776</title>
<ellipse fill="none" stroke="black" cx="27" cy="-154" rx="27" ry="27"/>
</g>
<!-- 2146546285968&#45;&gt;2146546285776 -->
<g id="edge12" class="edge">
<title>2146546285968&#45;&gt;2146546285776</title>
<path fill="none" stroke="black" d="M682.79,-167.26C624.34,-160.59 549.7,-154 483,-154 343,-154 343,-154 343,-154 242.09,-154 123,-154 64.36,-154"/>
<polygon fill="black" stroke="black" points="64.14,-150.5 54.14,-154 64.14,-157.5 64.14,-150.5"/>
</g>
<!-- 2146546319760 -->
<g id="node4" class="node">
<title>2146546319760</title>
<polygon fill="black" stroke="black" points="212.5,-117 158.5,-117 158.5,-81 212.5,-81 212.5,-117"/>
</g>
<!-- 2146546320720 -->
<g id="node22" class="node">
<title>2146546320720</title>
<ellipse fill="none" stroke="black" cx="344" cy="-27" rx="27" ry="27"/>
</g>
<!-- 2146546319760&#45;&gt;2146546320720 -->
<g id="edge40" class="edge">
<title>2146546319760&#45;&gt;2146546320720</title>
<path fill="none" stroke="black" d="M212.69,-86.95C239.43,-74.65 281.01,-55.52 309.98,-42.19"/>
<polygon fill="black" stroke="black" points="311.66,-45.27 319.29,-37.91 308.74,-38.91 311.66,-45.27"/>
</g>
<!-- 2146546321392 -->
<g id="node24" class="node">
<title>2146546321392</title>
<ellipse fill="none" stroke="black" cx="344" cy="-99" rx="27" ry="27"/>
</g>
<!-- 2146546319760&#45;&gt;2146546321392 -->
<g id="edge41" class="edge">
<title>2146546319760&#45;&gt;2146546321392</title>
<path fill="none" stroke="black" d="M212.69,-99C238.5,-99 278.13,-99 306.91,-99"/>
<polygon fill="black" stroke="black" points="306.98,-102.5 316.98,-99 306.98,-95.5 306.98,-102.5"/>
</g>
<!-- 2146546284960 -->
<g id="node5" class="node">
<title>2146546284960</title>
<polygon fill="none" stroke="black" points="554.5,-227 409.5,-227 409.5,-191 554.5,-191 554.5,-227"/>
<text text-anchor="middle" x="482" y="-205.9" font-family="Times New Roman,serif" font-size="12.00">Loan__application_received</text>
</g>
<!-- 2146546285248 -->
<g id="node35" class="node">
<title>2146546285248</title>
<ellipse fill="none" stroke="black" cx="620" cy="-209" rx="27" ry="27"/>
</g>
<!-- 2146546284960&#45;&gt;2146546285248 -->
<g id="edge16" class="edge">
<title>2146546284960&#45;&gt;2146546285248</title>
<path fill="none" stroke="black" d="M554.58,-209C564.32,-209 573.96,-209 582.7,-209"/>
<polygon fill="black" stroke="black" points="582.85,-212.5 592.85,-209 582.85,-205.5 582.85,-212.5"/>
</g>
<!-- 2146546322592 -->
<g id="node6" class="node">
<title>2146546322592</title>
<polygon fill="none" stroke="black" points="1108,-81 1016,-81 1016,-45 1108,-45 1108,-81"/>
<text text-anchor="middle" x="1062" y="-59.9" font-family="Times New Roman,serif" font-size="12.00">Assess_eligibility</text>
</g>
<!-- 2146546320672 -->
<g id="node27" class="node">
<title>2146546320672</title>
<ellipse fill="none" stroke="black" cx="1171" cy="-63" rx="27" ry="27"/>
</g>
<!-- 2146546322592&#45;&gt;2146546320672 -->
<g id="edge13" class="edge">
<title>2146546322592&#45;&gt;2146546320672</title>
<path fill="none" stroke="black" d="M1108.07,-63C1116.66,-63 1125.55,-63 1133.83,-63"/>
<polygon fill="black" stroke="black" points="1133.9,-66.5 1143.9,-63 1133.9,-59.5 1133.9,-66.5"/>
</g>
<!-- 2146546342304 -->
<g id="node7" class="node">
<title>2146546342304</title>
<polygon fill="none" stroke="black" points="2876,-100 2730,-100 2730,-64 2876,-64 2876,-100"/>
<text text-anchor="middle" x="2803" y="-78.9" font-family="Times New Roman,serif" font-size="12.00">Loan__application_canceled</text>
</g>
<!-- 2146546283904 -->
<g id="node38" class="node">
<title>2146546283904</title>
<ellipse fill="none" stroke="black" cx="2945" cy="-82" rx="27" ry="27"/>
<ellipse fill="none" stroke="black" cx="2945" cy="-82" rx="31" ry="31"/>
<text text-anchor="start" x="2935" y="-73.9" font-family="Times New Roman,serif" font-size="32.00">■</text>
</g>
<!-- 2146546342304&#45;&gt;2146546283904 -->
<g id="edge7" class="edge">
<title>2146546342304&#45;&gt;2146546283904</title>
<path fill="none" stroke="black" d="M2876.05,-82C2885.58,-82 2895.05,-82 2903.77,-82"/>
<polygon fill="black" stroke="black" points="2903.98,-85.5 2913.98,-82 2903.98,-78.5 2903.98,-85.5"/>
</g>
<!-- 2146546340528 -->
<g id="node8" class="node">
<title>2146546340528</title>
<polygon fill="none" stroke="black" points="1729,-117 1498,-117 1498,-81 1729,-81 1729,-117"/>
<text text-anchor="middle" x="1613.5" y="-95.9" font-family="Times New Roman,serif" font-size="12.00">Check_if_home_insurance_quote_is_requested</text>
</g>
<!-- 2146546340336 -->
<g id="node30" class="node">
<title>2146546340336</title>
<ellipse fill="none" stroke="black" cx="1833.5" cy="-99" rx="27" ry="27"/>
</g>
<!-- 2146546340528&#45;&gt;2146546340336 -->
<g id="edge10" class="edge">
<title>2146546340528&#45;&gt;2146546340336</title>
<path fill="none" stroke="black" d="M1729.25,-99C1753.54,-99 1777.45,-99 1796.14,-99"/>
<polygon fill="black" stroke="black" points="1796.22,-102.5 1806.22,-99 1796.22,-95.5 1796.22,-102.5"/>
</g>
<!-- 2146546321200 -->
<g id="node9" class="node">
<title>2146546321200</title>
<polygon fill="none" stroke="black" points="533.5,-45 430.5,-45 430.5,-9 533.5,-9 533.5,-45"/>
<text text-anchor="middle" x="482" y="-23.9" font-family="Times New Roman,serif" font-size="12.00">Appraise_property</text>
</g>
<!-- 2146546320912 -->
<g id="node23" class="node">
<title>2146546320912</title>
<ellipse fill="none" stroke="black" cx="953" cy="-27" rx="27" ry="27"/>
</g>
<!-- 2146546321200&#45;&gt;2146546320912 -->
<g id="edge18" class="edge">
<title>2146546321200&#45;&gt;2146546320912</title>
<path fill="none" stroke="black" d="M533.64,-27C628.94,-27 832.83,-27 915.78,-27"/>
<polygon fill="black" stroke="black" points="915.97,-30.5 925.97,-27 915.97,-23.5 915.97,-30.5"/>
</g>
<!-- 2146546321968 -->
<g id="node10" class="node">
<title>2146546321968</title>
<polygon fill="none" stroke="black" points="539,-117 425,-117 425,-81 539,-81 539,-117"/>
<text text-anchor="middle" x="482" y="-95.9" font-family="Times New Roman,serif" font-size="12.00">Check_credit_history</text>
</g>
<!-- 2146546321776 -->
<g id="node26" class="node">
<title>2146546321776</title>
<ellipse fill="none" stroke="black" cx="620" cy="-99" rx="27" ry="27"/>
</g>
<!-- 2146546321968&#45;&gt;2146546321776 -->
<g id="edge17" class="edge">
<title>2146546321968&#45;&gt;2146546321776</title>
<path fill="none" stroke="black" d="M539.1,-99C553.77,-99 569.19,-99 582.54,-99"/>
<polygon fill="black" stroke="black" points="582.74,-102.5 592.74,-99 582.74,-95.5 582.74,-102.5"/>
</g>
<!-- 2146546340144 -->
<g id="node11" class="node">
<title>2146546340144</title>
<polygon fill="none" stroke="black" points="1372,-112 1234,-112 1234,-76 1372,-76 1372,-112"/>
<text text-anchor="middle" x="1303" y="-90.9" font-family="Times New Roman,serif" font-size="12.00">Prepare_acceptance_pack</text>
</g>
<!-- 2146546339952 -->
<g id="node29" class="node">
<title>2146546339952</title>
<ellipse fill="none" stroke="black" cx="1435" cy="-99" rx="27" ry="27"/>
</g>
<!-- 2146546340144&#45;&gt;2146546339952 -->
<g id="edge2" class="edge">
<title>2146546340144&#45;&gt;2146546339952</title>
<path fill="none" stroke="black" d="M1372.05,-96.62C1380.93,-96.96 1389.74,-97.3 1397.81,-97.61"/>
<polygon fill="black" stroke="black" points="1397.8,-101.11 1407.93,-98 1398.07,-94.12 1397.8,-101.11"/>
</g>
<!-- 2146546319568 -->
<g id="node12" class="node">
<title>2146546319568</title>
<polygon fill="none" stroke="black" points="557,-290 407,-290 407,-254 557,-254 557,-290"/>
<text text-anchor="middle" x="482" y="-268.9" font-family="Times New Roman,serif" font-size="12.00">Receive_updated_application</text>
</g>
<!-- 2146546319568&#45;&gt;2146546285248 -->
<g id="edge6" class="edge">
<title>2146546319568&#45;&gt;2146546285248</title>
<path fill="none" stroke="black" d="M521.97,-253.95C542.12,-244.62 566.44,-233.35 585.7,-224.43"/>
<polygon fill="black" stroke="black" points="587.38,-227.51 594.98,-220.13 584.44,-221.15 587.38,-227.51"/>
</g>
<!-- 2146546322256 -->
<g id="node13" class="node">
<title>2146546322256</title>
<polygon fill="none" stroke="black" points="834,-117 739,-117 739,-81 834,-81 834,-117"/>
<text text-anchor="middle" x="786.5" y="-95.9" font-family="Times New Roman,serif" font-size="12.00">Assess_loan_risk</text>
</g>
<!-- 2146546321584 -->
<g id="node25" class="node">
<title>2146546321584</title>
<ellipse fill="none" stroke="black" cx="953" cy="-99" rx="27" ry="27"/>
</g>
<!-- 2146546322256&#45;&gt;2146546321584 -->
<g id="edge19" class="edge">
<title>2146546322256&#45;&gt;2146546321584</title>
<path fill="none" stroke="black" d="M834.2,-99C860.01,-99 891.62,-99 915.59,-99"/>
<polygon fill="black" stroke="black" points="915.68,-102.5 925.68,-99 915.68,-95.5 915.68,-102.5"/>
</g>
<!-- 2146546323024 -->
<g id="node14" class="node">
<title>2146546323024</title>
<polygon fill="none" stroke="black" points="1353.5,-54 1252.5,-54 1252.5,-18 1353.5,-18 1353.5,-54"/>
<text text-anchor="middle" x="1303" y="-32.9" font-family="Times New Roman,serif" font-size="12.00">Reject_application</text>
</g>
<!-- 2146546322832 -->
<g id="node28" class="node">
<title>2146546322832</title>
<ellipse fill="none" stroke="black" cx="1435" cy="-27" rx="27" ry="27"/>
</g>
<!-- 2146546323024&#45;&gt;2146546322832 -->
<g id="edge9" class="edge">
<title>2146546323024&#45;&gt;2146546322832</title>
<path fill="none" stroke="black" d="M1353.52,-32.57C1368.27,-31.55 1384.15,-30.45 1397.88,-29.5"/>
<polygon fill="black" stroke="black" points="1398.16,-32.99 1407.9,-28.81 1397.68,-26.01 1398.16,-32.99"/>
</g>
<!-- 2146546341584 -->
<g id="node15" class="node">
<title>2146546341584</title>
<polygon fill="none" stroke="black" points="2364,-131 2214,-131 2214,-95 2364,-95 2364,-131"/>
<text text-anchor="middle" x="2289" y="-109.9" font-family="Times New Roman,serif" font-size="12.00">Verify_repayment_agreement</text>
</g>
<!-- 2146546340816 -->
<g id="node32" class="node">
<title>2146546340816</title>
<ellipse fill="none" stroke="black" cx="2427" cy="-113" rx="27" ry="27"/>
</g>
<!-- 2146546341584&#45;&gt;2146546340816 -->
<g id="edge8" class="edge">
<title>2146546341584&#45;&gt;2146546340816</title>
<path fill="none" stroke="black" d="M2364.37,-113C2373.15,-113 2381.79,-113 2389.69,-113"/>
<polygon fill="black" stroke="black" points="2389.96,-116.5 2399.96,-113 2389.96,-109.5 2389.96,-116.5"/>
</g>
<!-- 2146546340960 -->
<g id="node16" class="node">
<title>2146546340960</title>
<polygon fill="none" stroke="black" points="2075.5,-104 1950.5,-104 1950.5,-68 2075.5,-68 2075.5,-104"/>
<text text-anchor="middle" x="2013" y="-82.9" font-family="Times New Roman,serif" font-size="12.00">Send_acceptance_pack</text>
</g>
<!-- 2146546340960&#45;&gt;2146546340720 -->
<g id="edge14" class="edge">
<title>2146546340960&#45;&gt;2146546340720</title>
<path fill="none" stroke="black" d="M2075.63,-98.24C2088.9,-100.87 2102.49,-103.57 2114.36,-105.92"/>
<polygon fill="black" stroke="black" points="2113.81,-109.38 2124.3,-107.9 2115.17,-102.52 2113.81,-109.38"/>
</g>
<!-- 2146546343264 -->
<g id="node17" class="node">
<title>2146546343264</title>
<polygon fill="#ff0000" stroke="black" points="2878,-163 2728,-163 2728,-127 2878,-127 2878,-163"/>
<text text-anchor="middle" x="2803" y="-141.9" font-family="Times New Roman,serif" font-size="12.00">Loan__application_approved</text>
</g>
<!-- 2146546343264&#45;&gt;2146546283904 -->
<g id="edge15" class="edge">
<title>2146546343264&#45;&gt;2146546283904</title>
<path fill="none" stroke="black" d="M2844.12,-126.95C2863.98,-118.01 2887.79,-107.3 2907.18,-98.57"/>
<polygon fill="black" stroke="black" points="2908.62,-101.76 2916.31,-94.46 2905.75,-95.37 2908.62,-101.76"/>
</g>
<!-- 2146546286448 -->
<g id="node18" class="node">
<title>2146546286448</title>
<polygon fill="none" stroke="black" points="281,-258 90,-258 90,-222 281,-222 281,-258"/>
<text text-anchor="middle" x="185.5" y="-236.9" font-family="Times New Roman,serif" font-size="12.00">Return_application_back_to_applicant</text>
</g>
<!-- 2146546286256 -->
<g id="node37" class="node">
<title>2146546286256</title>
<ellipse fill="none" stroke="black" cx="344" cy="-281" rx="27" ry="27"/>
</g>
<!-- 2146546286448&#45;&gt;2146546286256 -->
<g id="edge5" class="edge">
<title>2146546286448&#45;&gt;2146546286256</title>
<path fill="none" stroke="black" d="M255.6,-258.1C273.56,-262.81 292.18,-267.69 307.59,-271.72"/>
<polygon fill="black" stroke="black" points="307.14,-275.22 317.7,-274.37 308.91,-268.45 307.14,-275.22"/>
</g>
<!-- 2146546323312 -->
<g id="node19" class="node">
<title>2146546323312</title>
<polygon fill="none" stroke="black" points="1902,-45 1765,-45 1765,-9 1902,-9 1902,-45"/>
<text text-anchor="middle" x="1833.5" y="-23.9" font-family="Times New Roman,serif" font-size="12.00">Loan_application_rejected</text>
</g>
<!-- 2146546323312&#45;&gt;2146546283904 -->
<g id="edge3" class="edge">
<title>2146546323312&#45;&gt;2146546283904</title>
<path fill="none" stroke="black" d="M1902.2,-27C1966.09,-27 2064.55,-27 2150,-27 2150,-27 2150,-27 2666,-27 2761.04,-27 2786.15,-30.58 2878,-55 2887.68,-57.57 2897.83,-61.22 2907.19,-65"/>
<polygon fill="black" stroke="black" points="2906.03,-68.3 2916.61,-68.95 2908.74,-61.85 2906.03,-68.3"/>
</g>
<!-- 2146546343024 -->
<g id="node20" class="node">
<title>2146546343024</title>
<polygon fill="#ff0000" stroke="black" points="2602,-167 2490,-167 2490,-131 2602,-131 2602,-167"/>
<text text-anchor="middle" x="2546" y="-145.9" font-family="Times New Roman,serif" font-size="12.00">Approve_application</text>
</g>
<!-- 2146546342496 -->
<g id="node34" class="node">
<title>2146546342496</title>
<ellipse fill="none" stroke="black" cx="2665" cy="-154" rx="27" ry="27"/>
</g>
<!-- 2146546343024&#45;&gt;2146546342496 -->
<g id="edge1" class="edge">
<title>2146546343024&#45;&gt;2146546342496</title>
<path fill="none" stroke="black" d="M2602.07,-151.35C2610.73,-151.72 2619.48,-152.1 2627.58,-152.44"/>
<polygon fill="black" stroke="black" points="2627.63,-155.95 2637.77,-152.88 2627.93,-148.96 2627.63,-155.95"/>
</g>
<!-- 2146546234704 -->
<g id="node21" class="node">
<title>2146546234704</title>
<ellipse fill="none" stroke="black" cx="344" cy="-209" rx="27" ry="27"/>
<text text-anchor="start" x="333" y="-200.3" font-family="Times New Roman,serif" font-size="34.00">●</text>
</g>
<!-- 2146546234704&#45;&gt;2146546284960 -->
<g id="edge42" class="edge">
<title>2146546234704&#45;&gt;2146546284960</title>
<path fill="none" stroke="black" d="M371.22,-209C379.5,-209 389.13,-209 399.18,-209"/>
<polygon fill="black" stroke="black" points="399.33,-212.5 409.33,-209 399.33,-205.5 399.33,-212.5"/>
</g>
<!-- 2146546320720&#45;&gt;2146546321200 -->
<g id="edge20" class="edge">
<title>2146546320720&#45;&gt;2146546321200</title>
<path fill="none" stroke="black" d="M371.22,-27C385.22,-27 403.08,-27 420.31,-27"/>
<polygon fill="black" stroke="black" points="420.35,-30.5 430.35,-27 420.35,-23.5 420.35,-30.5"/>
</g>
<!-- 2146546320912&#45;&gt;2146546322592 -->
<g id="edge21" class="edge">
<title>2146546320912&#45;&gt;2146546322592</title>
<path fill="none" stroke="black" d="M978.82,-35.35C987.06,-38.12 996.59,-41.33 1006.18,-44.56"/>
<polygon fill="black" stroke="black" points="1005.14,-47.9 1015.74,-47.77 1007.38,-41.27 1005.14,-47.9"/>
</g>
<!-- 2146546321392&#45;&gt;2146546321968 -->
<g id="edge22" class="edge">
<title>2146546321392&#45;&gt;2146546321968</title>
<path fill="none" stroke="black" d="M371.22,-99C383.7,-99 399.23,-99 414.65,-99"/>
<polygon fill="black" stroke="black" points="414.74,-102.5 424.74,-99 414.74,-95.5 414.74,-102.5"/>
</g>
<!-- 2146546321584&#45;&gt;2146546322592 -->
<g id="edge23" class="edge">
<title>2146546321584&#45;&gt;2146546322592</title>
<path fill="none" stroke="black" d="M978.82,-90.65C987.06,-87.88 996.59,-84.67 1006.18,-81.44"/>
<polygon fill="black" stroke="black" points="1007.38,-84.73 1015.74,-78.23 1005.14,-78.1 1007.38,-84.73"/>
</g>
<!-- 2146546321776&#45;&gt;2146546322256 -->
<g id="edge24" class="edge">
<title>2146546321776&#45;&gt;2146546322256</title>
<path fill="none" stroke="black" d="M647.07,-99C668.84,-99 700.66,-99 728.32,-99"/>
<polygon fill="black" stroke="black" points="728.68,-102.5 738.68,-99 728.68,-95.5 728.68,-102.5"/>
</g>
<!-- 2146546320672&#45;&gt;2146546340144 -->
<g id="edge25" class="edge">
<title>2146546320672&#45;&gt;2146546340144</title>
<path fill="none" stroke="black" d="M1197.37,-69.05C1205.22,-70.92 1214.3,-73.09 1223.78,-75.35"/>
<polygon fill="black" stroke="black" points="1223.23,-78.81 1233.76,-77.73 1224.85,-72 1223.23,-78.81"/>
</g>
<!-- 2146546320672&#45;&gt;2146546323024 -->
<g id="edge26" class="edge">
<title>2146546320672&#45;&gt;2146546323024</title>
<path fill="none" stroke="black" d="M1197.68,-57.67C1210.49,-55.01 1226.56,-51.67 1242.22,-48.42"/>
<polygon fill="black" stroke="black" points="1243.34,-51.76 1252.42,-46.3 1241.92,-44.9 1243.34,-51.76"/>
</g>
<!-- 2146546322832&#45;&gt;2146546323312 -->
<g id="edge27" class="edge">
<title>2146546322832&#45;&gt;2146546323312</title>
<path fill="none" stroke="black" d="M1462.02,-27C1520.49,-27 1664.26,-27 1754.53,-27"/>
<polygon fill="black" stroke="black" points="1754.72,-30.5 1764.72,-27 1754.72,-23.5 1754.72,-30.5"/>
</g>
<!-- 2146546339952&#45;&gt;2146546340528 -->
<g id="edge28" class="edge">
<title>2146546339952&#45;&gt;2146546340528</title>
<path fill="none" stroke="black" d="M1462.04,-99C1469.59,-99 1478.37,-99 1487.82,-99"/>
<polygon fill="black" stroke="black" points="1487.89,-102.5 1497.89,-99 1487.89,-95.5 1487.89,-102.5"/>
</g>
<!-- 2146546340336&#45;&gt;2146546341248 -->
<g id="edge29" class="edge">
<title>2146546340336&#45;&gt;2146546341248</title>
<path fill="none" stroke="black" d="M1859.93,-104.87C1877.96,-109.04 1903.25,-114.88 1928.05,-120.61"/>
<polygon fill="black" stroke="black" points="1927.35,-124.04 1937.88,-122.88 1928.92,-117.22 1927.35,-124.04"/>
</g>
<!-- 2146546340336&#45;&gt;2146546340960 -->
<g id="edge30" class="edge">
<title>2146546340336&#45;&gt;2146546340960</title>
<path fill="none" stroke="black" d="M1860.69,-97.08C1881.65,-95.55 1912.07,-93.32 1940.15,-91.26"/>
<polygon fill="black" stroke="black" points="1940.65,-94.73 1950.37,-90.51 1940.14,-87.75 1940.65,-94.73"/>
</g>
<!-- 2146546340720&#45;&gt;2146546341584 -->
<g id="edge31" class="edge">
<title>2146546340720&#45;&gt;2146546341584</title>
<path fill="none" stroke="black" d="M2178.22,-113C2185.82,-113 2194.55,-113 2203.7,-113"/>
<polygon fill="black" stroke="black" points="2203.76,-116.5 2213.76,-113 2203.76,-109.5 2203.76,-116.5"/>
</g>
<!-- 2146546340816&#45;&gt;2146546342016 -->
<g id="edge33" class="edge">
<title>2146546340816&#45;&gt;2146546342016</title>
<path fill="none" stroke="black" d="M2453.68,-108.17C2462.84,-106.45 2473.6,-104.43 2484.45,-102.39"/>
<polygon fill="black" stroke="black" points="2485.22,-105.8 2494.4,-100.51 2483.93,-98.92 2485.22,-105.8"/>
</g>
<!-- 2146546340816&#45;&gt;2146546343024 -->
<g id="edge32" class="edge">
<title>2146546340816&#45;&gt;2146546343024</title>
<path fill="none" stroke="black" d="M2453.1,-120.72C2461.16,-123.2 2470.49,-126.07 2480.05,-129.01"/>
<polygon fill="black" stroke="black" points="2479.06,-132.37 2489.65,-131.97 2481.12,-125.68 2479.06,-132.37"/>
</g>
<!-- 2146546341824&#45;&gt;2146546342304 -->
<g id="edge34" class="edge">
<title>2146546341824&#45;&gt;2146546342304</title>
<path fill="none" stroke="black" d="M2692.22,-82C2700.38,-82 2709.86,-82 2719.75,-82"/>
<polygon fill="black" stroke="black" points="2719.76,-85.5 2729.76,-82 2719.76,-78.5 2719.76,-85.5"/>
</g>
<!-- 2146546342496&#45;&gt;2146546343264 -->
<g id="edge35" class="edge">
<title>2146546342496&#45;&gt;2146546343264</title>
<path fill="none" stroke="black" d="M2692.22,-152.26C2699.82,-151.76 2708.55,-151.18 2717.7,-150.58"/>
<polygon fill="black" stroke="black" points="2718.01,-154.07 2727.76,-149.91 2717.55,-147.08 2718.01,-154.07"/>
</g>
<!-- 2146546285248&#45;&gt;2146546285968 -->
<g id="edge36" class="edge">
<title>2146546285248&#45;&gt;2146546285968</title>
<path fill="none" stroke="black" d="M646.7,-204.62C654.35,-203.32 663.26,-201.81 672.8,-200.18"/>
<polygon fill="black" stroke="black" points="673.69,-203.58 682.96,-198.45 672.51,-196.68 673.69,-203.58"/>
</g>
<!-- 2146546285776&#45;&gt;2146546319760 -->
<g id="edge38" class="edge">
<title>2146546285776&#45;&gt;2146546319760</title>
<path fill="none" stroke="black" d="M52.8,-145.29C78.66,-136.2 119.45,-121.86 148.78,-111.55"/>
<polygon fill="black" stroke="black" points="149.98,-114.84 158.25,-108.22 147.66,-108.24 149.98,-114.84"/>
</g>
<!-- 2146546285776&#45;&gt;2146546286448 -->
<g id="edge37" class="edge">
<title>2146546285776&#45;&gt;2146546286448</title>
<path fill="none" stroke="black" d="M51.09,-166.69C75.13,-179.9 113.31,-200.88 142.67,-217.01"/>
<polygon fill="black" stroke="black" points="141.03,-220.1 151.48,-221.85 144.4,-213.97 141.03,-220.1"/>
</g>
<!-- 2146546286256&#45;&gt;2146546319568 -->
<g id="edge39" class="edge">
<title>2146546286256&#45;&gt;2146546319568</title>
<path fill="none" stroke="black" d="M371.22,-279.26C378.82,-278.76 387.55,-278.18 396.7,-277.58"/>
<polygon fill="black" stroke="black" points="397.01,-281.07 406.76,-276.91 396.55,-274.08 397.01,-281.07"/>
</g>
</g>
</svg>
