<?xml version="1.0" encoding="UTF-8" standalone="no"?>
<!DOCTYPE svg PUBLIC "-//W3C//DTD SVG 1.1//EN"
 "http://www.w3.org/Graphics/SVG/1.1/DTD/svg11.dtd">
<!-- Generated by graphviz version 2.49.0 (20210828.1703)
 -->
<!-- Title: imdf_net_1655279318.099605 Pages: 1 -->
<svg width="4361pt" height="201pt"
 viewBox="0.00 0.00 4361.00 201.00" xmlns="http://www.w3.org/2000/svg" xmlns:xlink="http://www.w3.org/1999/xlink">
<g id="graph0" class="graph" transform="scale(1 1) rotate(0) translate(4 197)">
<title>imdf_net_1655279318.099605</title>
<!-- 2631953228416 -->
<g id="node1" class="node">
<title>2631953228416</title>
<polygon fill="none" stroke="black" points="191,-144 0,-144 0,-108 191,-108 191,-144"/>
<text text-anchor="middle" x="95.5" y="-122.9" font-family="Times New Roman,serif" font-size="12.00">Return_application_back_to_applicant</text>
</g>
<!-- 2631953228272 -->
<g id="node45" class="node">
<title>2631953228272</title>
<ellipse fill="none" stroke="black" cx="254" cy="-99" rx="27" ry="27"/>
</g>
<!-- 2631953228416&#45;&gt;2631953228272 -->
<g id="edge8" class="edge">
<title>2631953228416&#45;&gt;2631953228272</title>
<path fill="none" stroke="black" d="M191.15,-109.67C200.37,-108.08 209.27,-106.54 217.31,-105.16"/>
<polygon fill="black" stroke="black" points="218.08,-108.58 227.34,-103.43 216.89,-101.68 218.08,-108.58"/>
</g>
<!-- 2631952383616 -->
<g id="node2" class="node">
<title>2631952383616</title>
<polygon fill="none" stroke="black" points="1220,-114 1106,-114 1106,-78 1220,-78 1220,-114"/>
<text text-anchor="middle" x="1163" y="-92.9" font-family="Times New Roman,serif" font-size="12.00">Check_credit_history</text>
</g>
<!-- 2631952383568 -->
<g id="node30" class="node">
<title>2631952383568</title>
<ellipse fill="none" stroke="black" cx="1283" cy="-98" rx="27" ry="27"/>
</g>
<!-- 2631952383616&#45;&gt;2631952383568 -->
<g id="edge12" class="edge">
<title>2631952383616&#45;&gt;2631952383568</title>
<path fill="none" stroke="black" d="M1220.24,-96.95C1228.9,-97.1 1237.65,-97.25 1245.73,-97.39"/>
<polygon fill="black" stroke="black" points="1245.84,-100.89 1255.89,-97.56 1245.96,-93.89 1245.84,-100.89"/>
</g>
<!-- 2631952389888 -->
<g id="node3" class="node">
<title>2631952389888</title>
<polygon fill="none" stroke="black" points="2276,-184 2139,-184 2139,-148 2276,-148 2276,-184"/>
<text text-anchor="middle" x="2207.5" y="-162.9" font-family="Times New Roman,serif" font-size="12.00">Loan_application_rejected</text>
</g>
<!-- 2631952796064 -->
<g id="node46" class="node">
<title>2631952796064</title>
<ellipse fill="none" stroke="black" cx="4322" cy="-111" rx="27" ry="27"/>
<ellipse fill="none" stroke="black" cx="4322" cy="-111" rx="31" ry="31"/>
<text text-anchor="start" x="4312" y="-102.9" font-family="Times New Roman,serif" font-size="32.00">■</text>
</g>
<!-- 2631952389888&#45;&gt;2631952796064 -->
<g id="edge14" class="edge">
<title>2631952389888&#45;&gt;2631952796064</title>
<path fill="none" stroke="black" d="M2276.2,-166C2355.14,-166 2489.53,-166 2605,-166 2605,-166 2605,-166 4043,-166 4138.04,-166 4163.15,-162.42 4255,-138 4264.68,-135.43 4274.83,-131.78 4284.19,-128"/>
<polygon fill="black" stroke="black" points="4285.74,-131.15 4293.61,-124.05 4283.03,-124.7 4285.74,-131.15"/>
</g>
<!-- 2631953963904 -->
<g id="node4" class="node">
<title>2631953963904</title>
<polygon fill="#ff0000" stroke="black" points="3561,-129 3411,-129 3411,-93 3561,-93 3561,-129"/>
<text text-anchor="middle" x="3486" y="-107.9" font-family="Times New Roman,serif" font-size="12.00">Verify_repayment_agreement</text>
</g>
<!-- 2631953962272 -->
<g id="node36" class="node">
<title>2631953962272</title>
<ellipse fill="none" stroke="black" cx="3624" cy="-111" rx="27" ry="27"/>
</g>
<!-- 2631953963904&#45;&gt;2631953962272 -->
<g id="edge16" class="edge">
<title>2631953963904&#45;&gt;2631953962272</title>
<path fill="none" stroke="black" d="M3561.37,-111C3570.15,-111 3578.79,-111 3586.69,-111"/>
<polygon fill="black" stroke="black" points="3586.96,-114.5 3596.96,-111 3586.96,-107.5 3586.96,-114.5"/>
</g>
<!-- 2631953230624 -->
<g id="node5" class="node">
<title>2631953230624</title>
<polygon fill="black" stroke="black" points="980,-146 926,-146 926,-110 980,-110 980,-146"/>
</g>
<!-- 2631952411040 -->
<g id="node26" class="node">
<title>2631952411040</title>
<ellipse fill="none" stroke="black" cx="1043" cy="-164" rx="27" ry="27"/>
</g>
<!-- 2631953230624&#45;&gt;2631952411040 -->
<g id="edge47" class="edge">
<title>2631953230624&#45;&gt;2631952411040</title>
<path fill="none" stroke="black" d="M980.4,-138.8C989.2,-142.4 999.11,-146.45 1008.37,-150.24"/>
<polygon fill="black" stroke="black" points="1007.14,-153.52 1017.72,-154.07 1009.79,-147.04 1007.14,-153.52"/>
</g>
<!-- 2631952412000 -->
<g id="node28" class="node">
<title>2631952412000</title>
<ellipse fill="none" stroke="black" cx="1043" cy="-92" rx="27" ry="27"/>
</g>
<!-- 2631953230624&#45;&gt;2631952412000 -->
<g id="edge48" class="edge">
<title>2631953230624&#45;&gt;2631952412000</title>
<path fill="none" stroke="black" d="M980.4,-117.2C989.2,-113.6 999.11,-109.55 1008.37,-105.76"/>
<polygon fill="black" stroke="black" points="1009.79,-108.96 1017.72,-101.93 1007.14,-102.48 1009.79,-108.96"/>
</g>
<!-- 2631952240544 -->
<g id="node6" class="node">
<title>2631952240544</title>
<polygon fill="none" stroke="black" points="1659,-148 1567,-148 1567,-112 1659,-112 1659,-148"/>
<text text-anchor="middle" x="1613" y="-126.9" font-family="Times New Roman,serif" font-size="12.00">Assess_eligibility</text>
</g>
<!-- 2631952409024 -->
<g id="node31" class="node">
<title>2631952409024</title>
<ellipse fill="none" stroke="black" cx="1722" cy="-130" rx="27" ry="27"/>
</g>
<!-- 2631952240544&#45;&gt;2631952409024 -->
<g id="edge4" class="edge">
<title>2631952240544&#45;&gt;2631952409024</title>
<path fill="none" stroke="black" d="M1659.07,-130C1667.66,-130 1676.55,-130 1684.83,-130"/>
<polygon fill="black" stroke="black" points="1684.9,-133.5 1694.9,-130 1684.9,-126.5 1684.9,-133.5"/>
</g>
<!-- 2631953964192 -->
<g id="node7" class="node">
<title>2631953964192</title>
<polygon fill="black" stroke="black" points="3741,-75 3687,-75 3687,-39 3741,-39 3741,-75"/>
</g>
<!-- 2631953858176 -->
<g id="node35" class="node">
<title>2631953858176</title>
<ellipse fill="none" stroke="black" cx="2207.5" cy="-94" rx="27" ry="27"/>
</g>
<!-- 2631953964192&#45;&gt;2631953858176 -->
<g id="edge49" class="edge">
<title>2631953964192&#45;&gt;2631953858176</title>
<path fill="none" stroke="black" d="M3686.9,-56.81C3644.82,-56.52 3559.39,-56 3487,-56 2605,-56 2605,-56 2605,-56 2471.48,-56 2313.81,-77.62 2244.38,-88.24"/>
<polygon fill="black" stroke="black" points="2243.74,-84.8 2234.4,-89.79 2244.81,-91.72 2243.74,-84.8"/>
</g>
<!-- 2631953994656 -->
<g id="node8" class="node">
<title>2631953994656</title>
<polygon fill="none" stroke="black" points="3974.5,-66 3871.5,-66 3871.5,-30 3974.5,-30 3974.5,-66"/>
<text text-anchor="middle" x="3923" y="-44.9" font-family="Times New Roman,serif" font-size="12.00">Cancel_application</text>
</g>
<!-- 2631953994416 -->
<g id="node42" class="node">
<title>2631953994416</title>
<ellipse fill="none" stroke="black" cx="4042" cy="-39" rx="27" ry="27"/>
</g>
<!-- 2631953994656&#45;&gt;2631953994416 -->
<g id="edge17" class="edge">
<title>2631953994656&#45;&gt;2631953994416</title>
<path fill="none" stroke="black" d="M3974.64,-44.1C3984.69,-43.33 3995.06,-42.53 4004.52,-41.81"/>
<polygon fill="black" stroke="black" points="4005.06,-45.28 4014.76,-41.02 4004.52,-38.3 4005.06,-45.28"/>
</g>
<!-- 2631953230912 -->
<g id="node9" class="node">
<title>2631953230912</title>
<polygon fill="none" stroke="black" points="467,-117 317,-117 317,-81 467,-81 467,-117"/>
<text text-anchor="middle" x="392" y="-95.9" font-family="Times New Roman,serif" font-size="12.00">Receive_updated_application</text>
</g>
<!-- 2631953228896 -->
<g id="node43" class="node">
<title>2631953228896</title>
<ellipse fill="none" stroke="black" cx="530" cy="-99" rx="27" ry="27"/>
</g>
<!-- 2631953230912&#45;&gt;2631953228896 -->
<g id="edge11" class="edge">
<title>2631953230912&#45;&gt;2631953228896</title>
<path fill="none" stroke="black" d="M467.37,-99C476.15,-99 484.79,-99 492.69,-99"/>
<polygon fill="black" stroke="black" points="492.96,-102.5 502.96,-99 492.96,-95.5 492.96,-102.5"/>
</g>
<!-- 2631953964480 -->
<g id="node10" class="node">
<title>2631953964480</title>
<polygon fill="black" stroke="black" points="3741,-129 3687,-129 3687,-93 3741,-93 3741,-129"/>
</g>
<!-- 2631953857840 -->
<g id="node34" class="node">
<title>2631953857840</title>
<ellipse fill="none" stroke="black" cx="3804" cy="-111" rx="27" ry="27"/>
</g>
<!-- 2631953964480&#45;&gt;2631953857840 -->
<g id="edge46" class="edge">
<title>2631953964480&#45;&gt;2631953857840</title>
<path fill="none" stroke="black" d="M3741.4,-111C3749.39,-111 3758.31,-111 3766.82,-111"/>
<polygon fill="black" stroke="black" points="3766.92,-114.5 3776.92,-111 3766.92,-107.5 3766.92,-114.5"/>
</g>
<!-- 2631953385936 -->
<g id="node11" class="node">
<title>2631953385936</title>
<polygon fill="none" stroke="black" points="1441,-117 1346,-117 1346,-81 1441,-81 1441,-117"/>
<text text-anchor="middle" x="1393.5" y="-95.9" font-family="Times New Roman,serif" font-size="12.00">Assess_loan_risk</text>
</g>
<!-- 2631952408976 -->
<g id="node29" class="node">
<title>2631952408976</title>
<ellipse fill="none" stroke="black" cx="1504" cy="-103" rx="27" ry="27"/>
</g>
<!-- 2631953385936&#45;&gt;2631952408976 -->
<g id="edge5" class="edge">
<title>2631953385936&#45;&gt;2631952408976</title>
<path fill="none" stroke="black" d="M1441.14,-100.72C1449.61,-101.03 1458.33,-101.35 1466.45,-101.65"/>
<polygon fill="black" stroke="black" points="1466.6,-105.16 1476.72,-102.03 1466.85,-98.16 1466.6,-105.16"/>
</g>
<!-- 2631953857744 -->
<g id="node12" class="node">
<title>2631953857744</title>
<polygon fill="black" stroke="black" points="2103,-112 2049,-112 2049,-76 2103,-76 2103,-112"/>
</g>
<!-- 2631953857744&#45;&gt;2631953858176 -->
<g id="edge21" class="edge">
<title>2631953857744&#45;&gt;2631953858176</title>
<path fill="none" stroke="black" d="M2103.21,-94C2122.43,-94 2148.77,-94 2170.04,-94"/>
<polygon fill="black" stroke="black" points="2170.33,-97.5 2180.33,-94 2170.33,-90.5 2170.33,-97.5"/>
</g>
<!-- 2631953993936 -->
<g id="node13" class="node">
<title>2631953993936</title>
<polygon fill="none" stroke="black" points="3979,-129 3867,-129 3867,-93 3979,-93 3979,-129"/>
<text text-anchor="middle" x="3923" y="-107.9" font-family="Times New Roman,serif" font-size="12.00">Approve_application</text>
</g>
<!-- 2631953962416 -->
<g id="node41" class="node">
<title>2631953962416</title>
<ellipse fill="none" stroke="black" cx="4042" cy="-111" rx="27" ry="27"/>
</g>
<!-- 2631953993936&#45;&gt;2631953962416 -->
<g id="edge18" class="edge">
<title>2631953993936&#45;&gt;2631953962416</title>
<path fill="none" stroke="black" d="M3979.07,-111C3987.73,-111 3996.48,-111 4004.58,-111"/>
<polygon fill="black" stroke="black" points="4004.77,-114.5 4014.77,-111 4004.77,-107.5 4004.77,-114.5"/>
</g>
<!-- 2631952389216 -->
<g id="node14" class="node">
<title>2631952389216</title>
<polygon fill="none" stroke="black" points="1904.5,-179 1803.5,-179 1803.5,-143 1904.5,-143 1904.5,-179"/>
<text text-anchor="middle" x="1854" y="-157.9" font-family="Times New Roman,serif" font-size="12.00">Reject_application</text>
</g>
<!-- 2631952389936 -->
<g id="node32" class="node">
<title>2631952389936</title>
<ellipse fill="none" stroke="black" cx="1986" cy="-166" rx="27" ry="27"/>
</g>
<!-- 2631952389216&#45;&gt;2631952389936 -->
<g id="edge3" class="edge">
<title>2631952389216&#45;&gt;2631952389936</title>
<path fill="none" stroke="black" d="M1904.52,-162.9C1919.27,-163.47 1935.15,-164.08 1948.88,-164.61"/>
<polygon fill="black" stroke="black" points="1948.77,-168.11 1958.9,-165 1949.04,-161.11 1948.77,-168.11"/>
</g>
<!-- 2631953857504 -->
<g id="node15" class="node">
<title>2631953857504</title>
<polygon fill="none" stroke="black" points="1923,-121 1785,-121 1785,-85 1923,-85 1923,-121"/>
<text text-anchor="middle" x="1854" y="-99.9" font-family="Times New Roman,serif" font-size="12.00">Prepare_acceptance_pack</text>
</g>
<!-- 2631953858224 -->
<g id="node33" class="node">
<title>2631953858224</title>
<ellipse fill="none" stroke="black" cx="1986" cy="-94" rx="27" ry="27"/>
</g>
<!-- 2631953857504&#45;&gt;2631953858224 -->
<g id="edge10" class="edge">
<title>2631953857504&#45;&gt;2631953858224</title>
<path fill="none" stroke="black" d="M1923.05,-98.29C1931.93,-97.67 1940.74,-97.06 1948.81,-96.51"/>
<polygon fill="black" stroke="black" points="1949.19,-99.99 1958.93,-95.81 1948.71,-93 1949.19,-99.99"/>
</g>
<!-- 2631953962464 -->
<g id="node16" class="node">
<title>2631953962464</title>
<polygon fill="#ff0000" stroke="black" points="2543,-125 2312,-125 2312,-89 2543,-89 2543,-125"/>
<text text-anchor="middle" x="2427.5" y="-103.9" font-family="Times New Roman,serif" font-size="12.00">Check_if_home_insurance_quote_is_requested</text>
</g>
<!-- 2631953962224 -->
<g id="node37" class="node">
<title>2631953962224</title>
<ellipse fill="none" stroke="black" cx="2606" cy="-111" rx="27" ry="27"/>
</g>
<!-- 2631953962464&#45;&gt;2631953962224 -->
<g id="edge7" class="edge">
<title>2631953962464&#45;&gt;2631953962224</title>
<path fill="none" stroke="black" d="M2543.27,-109.6C2552.32,-109.81 2560.97,-110 2568.76,-110.18"/>
<polygon fill="black" stroke="black" points="2568.76,-113.68 2578.84,-110.41 2568.92,-106.68 2568.76,-113.68"/>
</g>
<!-- 2631953962848 -->
<g id="node17" class="node">
<title>2631953962848</title>
<polygon fill="#ff0000" stroke="black" points="2819,-129 2669,-129 2669,-93 2819,-93 2819,-129"/>
<text text-anchor="middle" x="2744" y="-107.9" font-family="Times New Roman,serif" font-size="12.00">Send_home_insurance_quote</text>
</g>
<!-- 2631953962656 -->
<g id="node38" class="node">
<title>2631953962656</title>
<ellipse fill="none" stroke="black" cx="2882" cy="-111" rx="27" ry="27"/>
</g>
<!-- 2631953962848&#45;&gt;2631953962656 -->
<g id="edge15" class="edge">
<title>2631953962848&#45;&gt;2631953962656</title>
<path fill="none" stroke="black" d="M2819.37,-111C2828.15,-111 2836.79,-111 2844.69,-111"/>
<polygon fill="black" stroke="black" points="2844.96,-114.5 2854.96,-111 2844.96,-107.5 2844.96,-114.5"/>
</g>
<!-- 2631953963232 -->
<g id="node18" class="node">
<title>2631953963232</title>
<polygon fill="#ff0000" stroke="black" points="3034,-129 2945,-129 2945,-93 3034,-93 3034,-129"/>
<text text-anchor="middle" x="2989.5" y="-107.9" font-family="Times New Roman,serif" font-size="12.00">Added_Acitvity</text>
</g>
<!-- 2631953963040 -->
<g id="node39" class="node">
<title>2631953963040</title>
<ellipse fill="none" stroke="black" cx="3097" cy="-111" rx="27" ry="27"/>
</g>
<!-- 2631953963232&#45;&gt;2631953963040 -->
<g id="edge9" class="edge">
<title>2631953963232&#45;&gt;2631953963040</title>
<path fill="none" stroke="black" d="M3034.02,-111C3042.56,-111 3051.43,-111 3059.71,-111"/>
<polygon fill="black" stroke="black" points="3059.8,-114.5 3069.8,-111 3059.8,-107.5 3059.8,-114.5"/>
</g>
<!-- 2631953963616 -->
<g id="node19" class="node">
<title>2631953963616</title>
<polygon fill="#ff0000" stroke="black" points="3285,-129 3160,-129 3160,-93 3285,-93 3285,-129"/>
<text text-anchor="middle" x="3222.5" y="-107.9" font-family="Times New Roman,serif" font-size="12.00">Send_acceptance_pack</text>
</g>
<!-- 2631953963424 -->
<g id="node40" class="node">
<title>2631953963424</title>
<ellipse fill="none" stroke="black" cx="3348" cy="-111" rx="27" ry="27"/>
</g>
<!-- 2631953963616&#45;&gt;2631953963424 -->
<g id="edge1" class="edge">
<title>2631953963616&#45;&gt;2631953963424</title>
<path fill="none" stroke="black" d="M3285.25,-111C3293.97,-111 3302.69,-111 3310.72,-111"/>
<polygon fill="black" stroke="black" points="3310.81,-114.5 3320.81,-111 3310.81,-107.5 3310.81,-114.5"/>
</g>
<!-- 2631953996384 -->
<g id="node20" class="node">
<title>2631953996384</title>
<polygon fill="none" stroke="black" points="4253,-66 4107,-66 4107,-30 4253,-30 4253,-66"/>
<text text-anchor="middle" x="4180" y="-44.9" font-family="Times New Roman,serif" font-size="12.00">Loan__application_canceled</text>
</g>
<!-- 2631953996384&#45;&gt;2631952796064 -->
<g id="edge20" class="edge">
<title>2631953996384&#45;&gt;2631952796064</title>
<path fill="none" stroke="black" d="M4221.12,-66.05C4240.98,-74.99 4264.79,-85.7 4284.18,-94.43"/>
<polygon fill="black" stroke="black" points="4282.75,-97.63 4293.31,-98.54 4285.62,-91.24 4282.75,-97.63"/>
</g>
<!-- 2631952796784 -->
<g id="node21" class="node">
<title>2631952796784</title>
<polygon fill="none" stroke="black" points="464.5,-54 319.5,-54 319.5,-18 464.5,-18 464.5,-54"/>
<text text-anchor="middle" x="392" y="-32.9" font-family="Times New Roman,serif" font-size="12.00">Loan__application_received</text>
</g>
<!-- 2631952796784&#45;&gt;2631953228896 -->
<g id="edge2" class="edge">
<title>2631952796784&#45;&gt;2631953228896</title>
<path fill="none" stroke="black" d="M431.97,-54.05C452.12,-63.38 476.44,-74.65 495.7,-83.57"/>
<polygon fill="black" stroke="black" points="494.44,-86.85 504.98,-87.87 497.38,-80.49 494.44,-86.85"/>
</g>
<!-- 2631953229040 -->
<g id="node22" class="node">
<title>2631953229040</title>
<polygon fill="none" stroke="black" points="800,-121 593,-121 593,-85 800,-85 800,-121"/>
<text text-anchor="middle" x="696.5" y="-99.9" font-family="Times New Roman,serif" font-size="12.00">Check__application__form_completeness</text>
</g>
<!-- 2631953228944 -->
<g id="node44" class="node">
<title>2631953228944</title>
<ellipse fill="none" stroke="black" cx="863" cy="-128" rx="27" ry="27"/>
</g>
<!-- 2631953229040&#45;&gt;2631953228944 -->
<g id="edge13" class="edge">
<title>2631953229040&#45;&gt;2631953228944</title>
<path fill="none" stroke="black" d="M800.28,-118.62C809.49,-120.02 818.34,-121.36 826.31,-122.58"/>
<polygon fill="black" stroke="black" points="825.84,-126.04 836.25,-124.09 826.89,-119.12 825.84,-126.04"/>
</g>
<!-- 2631952409072 -->
<g id="node23" class="node">
<title>2631952409072</title>
<polygon fill="none" stroke="black" points="1214.5,-181 1111.5,-181 1111.5,-145 1214.5,-145 1214.5,-181"/>
<text text-anchor="middle" x="1163" y="-159.9" font-family="Times New Roman,serif" font-size="12.00">Appraise_property</text>
</g>
<!-- 2631952412528 -->
<g id="node27" class="node">
<title>2631952412528</title>
<ellipse fill="none" stroke="black" cx="1393.5" cy="-163" rx="27" ry="27"/>
</g>
<!-- 2631952409072&#45;&gt;2631952412528 -->
<g id="edge19" class="edge">
<title>2631952409072&#45;&gt;2631952412528</title>
<path fill="none" stroke="black" d="M1214.71,-163C1257.62,-163 1318.05,-163 1356.24,-163"/>
<polygon fill="black" stroke="black" points="1356.39,-166.5 1366.39,-163 1356.39,-159.5 1356.39,-166.5"/>
</g>
<!-- 2631953994224 -->
<g id="node24" class="node">
<title>2631953994224</title>
<polygon fill="none" stroke="black" points="4255,-129 4105,-129 4105,-93 4255,-93 4255,-129"/>
<text text-anchor="middle" x="4180" y="-107.9" font-family="Times New Roman,serif" font-size="12.00">Loan__application_approved</text>
</g>
<!-- 2631953994224&#45;&gt;2631952796064 -->
<g id="edge6" class="edge">
<title>2631953994224&#45;&gt;2631952796064</title>
<path fill="none" stroke="black" d="M4255.1,-111C4263.86,-111 4272.53,-111 4280.56,-111"/>
<polygon fill="black" stroke="black" points="4280.71,-114.5 4290.71,-111 4280.71,-107.5 4280.71,-114.5"/>
</g>
<!-- 2631952796592 -->
<g id="node25" class="node">
<title>2631952796592</title>
<ellipse fill="none" stroke="black" cx="254" cy="-27" rx="27" ry="27"/>
<text text-anchor="start" x="243" y="-18.3" font-family="Times New Roman,serif" font-size="34.00">●</text>
</g>
<!-- 2631952796592&#45;&gt;2631952796784 -->
<g id="edge50" class="edge">
<title>2631952796592&#45;&gt;2631952796784</title>
<path fill="none" stroke="black" d="M281.22,-28.74C289.5,-29.28 299.13,-29.92 309.18,-30.59"/>
<polygon fill="black" stroke="black" points="309.12,-34.09 319.33,-31.26 309.58,-27.1 309.12,-34.09"/>
</g>
<!-- 2631952411040&#45;&gt;2631952409072 -->
<g id="edge22" class="edge">
<title>2631952411040&#45;&gt;2631952409072</title>
<path fill="none" stroke="black" d="M1070.19,-163.78C1079.44,-163.7 1090.27,-163.61 1101.19,-163.52"/>
<polygon fill="black" stroke="black" points="1101.22,-167.02 1111.19,-163.43 1101.16,-160.02 1101.22,-167.02"/>
</g>
<!-- 2631952412528&#45;&gt;2631952240544 -->
<g id="edge23" class="edge">
<title>2631952412528&#45;&gt;2631952240544</title>
<path fill="none" stroke="black" d="M1420.3,-159.08C1453.81,-154 1513.2,-144.99 1557.02,-138.34"/>
<polygon fill="black" stroke="black" points="1557.59,-141.8 1566.95,-136.83 1556.54,-134.87 1557.59,-141.8"/>
</g>
<!-- 2631952412000&#45;&gt;2631952383616 -->
<g id="edge24" class="edge">
<title>2631952412000&#45;&gt;2631952383616</title>
<path fill="none" stroke="black" d="M1070.19,-92.89C1077.88,-93.15 1086.67,-93.45 1095.69,-93.75"/>
<polygon fill="black" stroke="black" points="1095.81,-97.26 1105.93,-94.1 1096.05,-90.26 1095.81,-97.26"/>
</g>
<!-- 2631952408976&#45;&gt;2631952240544 -->
<g id="edge25" class="edge">
<title>2631952408976&#45;&gt;2631952240544</title>
<path fill="none" stroke="black" d="M1530.36,-109.4C1538.35,-111.41 1547.5,-113.72 1556.73,-116.05"/>
<polygon fill="black" stroke="black" points="1556.17,-119.52 1566.72,-118.57 1557.88,-112.73 1556.17,-119.52"/>
</g>
<!-- 2631952383568&#45;&gt;2631953385936 -->
<g id="edge26" class="edge">
<title>2631952383568&#45;&gt;2631953385936</title>
<path fill="none" stroke="black" d="M1310.26,-98.24C1318.01,-98.31 1326.81,-98.39 1335.69,-98.48"/>
<polygon fill="black" stroke="black" points="1335.68,-101.98 1345.71,-98.57 1335.75,-94.98 1335.68,-101.98"/>
</g>
<!-- 2631952409024&#45;&gt;2631952389216 -->
<g id="edge27" class="edge">
<title>2631952409024&#45;&gt;2631952389216</title>
<path fill="none" stroke="black" d="M1748.37,-136.05C1761.35,-139.14 1777.72,-143.05 1793.65,-146.85"/>
<polygon fill="black" stroke="black" points="1792.93,-150.27 1803.47,-149.19 1794.55,-143.46 1792.93,-150.27"/>
</g>
<!-- 2631952409024&#45;&gt;2631953857504 -->
<g id="edge28" class="edge">
<title>2631952409024&#45;&gt;2631953857504</title>
<path fill="none" stroke="black" d="M1748.68,-124.67C1756.48,-123.05 1765.49,-121.18 1774.88,-119.23"/>
<polygon fill="black" stroke="black" points="1775.69,-122.63 1784.77,-117.17 1774.26,-115.78 1775.69,-122.63"/>
</g>
<!-- 2631952389936&#45;&gt;2631952389888 -->
<g id="edge29" class="edge">
<title>2631952389936&#45;&gt;2631952389888</title>
<path fill="none" stroke="black" d="M2013.04,-166C2041.41,-166 2088.16,-166 2128.59,-166"/>
<polygon fill="black" stroke="black" points="2128.72,-169.5 2138.72,-166 2128.72,-162.5 2128.72,-169.5"/>
</g>
<!-- 2631953858224&#45;&gt;2631953857744 -->
<g id="edge30" class="edge">
<title>2631953858224&#45;&gt;2631953857744</title>
<path fill="none" stroke="black" d="M2013.4,-94C2021.39,-94 2030.31,-94 2038.82,-94"/>
<polygon fill="black" stroke="black" points="2038.92,-97.5 2048.92,-94 2038.92,-90.5 2038.92,-97.5"/>
</g>
<!-- 2631953857840&#45;&gt;2631953994656 -->
<g id="edge31" class="edge">
<title>2631953857840&#45;&gt;2631953994656</title>
<path fill="none" stroke="black" d="M3828.12,-98.55C3842.75,-90.67 3862.11,-80.25 3879.45,-70.91"/>
<polygon fill="black" stroke="black" points="3881.15,-73.97 3888.29,-66.15 3877.83,-67.81 3881.15,-73.97"/>
</g>
<!-- 2631953857840&#45;&gt;2631953993936 -->
<g id="edge32" class="edge">
<title>2631953857840&#45;&gt;2631953993936</title>
<path fill="none" stroke="black" d="M3831.26,-111C3838.89,-111 3847.6,-111 3856.52,-111"/>
<polygon fill="black" stroke="black" points="3856.64,-114.5 3866.64,-111 3856.64,-107.5 3856.64,-114.5"/>
</g>
<!-- 2631953858176&#45;&gt;2631953962464 -->
<g id="edge33" class="edge">
<title>2631953858176&#45;&gt;2631953962464</title>
<path fill="none" stroke="black" d="M2234.8,-95.57C2252.19,-96.61 2276.4,-98.05 2301.78,-99.56"/>
<polygon fill="black" stroke="black" points="2301.74,-103.07 2311.93,-100.17 2302.16,-96.08 2301.74,-103.07"/>
</g>
<!-- 2631953962272&#45;&gt;2631953964192 -->
<g id="edge35" class="edge">
<title>2631953962272&#45;&gt;2631953964192</title>
<path fill="none" stroke="black" d="M3647.66,-97.09C3656.96,-91.39 3667.93,-84.66 3678.2,-78.35"/>
<polygon fill="black" stroke="black" points="3680.3,-81.18 3686.99,-72.96 3676.63,-75.21 3680.3,-81.18"/>
</g>
<!-- 2631953962272&#45;&gt;2631953964480 -->
<g id="edge34" class="edge">
<title>2631953962272&#45;&gt;2631953964480</title>
<path fill="none" stroke="black" d="M3651.4,-111C3659.39,-111 3668.31,-111 3676.82,-111"/>
<polygon fill="black" stroke="black" points="3676.92,-114.5 3686.92,-111 3676.92,-107.5 3676.92,-114.5"/>
</g>
<!-- 2631953962224&#45;&gt;2631953962848 -->
<g id="edge36" class="edge">
<title>2631953962224&#45;&gt;2631953962848</title>
<path fill="none" stroke="black" d="M2633.22,-111C2640.82,-111 2649.55,-111 2658.7,-111"/>
<polygon fill="black" stroke="black" points="2658.76,-114.5 2668.76,-111 2658.76,-107.5 2658.76,-114.5"/>
</g>
<!-- 2631953962656&#45;&gt;2631953963232 -->
<g id="edge37" class="edge">
<title>2631953962656&#45;&gt;2631953963232</title>
<path fill="none" stroke="black" d="M2909.08,-111C2916.88,-111 2925.74,-111 2934.64,-111"/>
<polygon fill="black" stroke="black" points="2934.66,-114.5 2944.66,-111 2934.66,-107.5 2934.66,-114.5"/>
</g>
<!-- 2631953963040&#45;&gt;2631953963616 -->
<g id="edge38" class="edge">
<title>2631953963040&#45;&gt;2631953963616</title>
<path fill="none" stroke="black" d="M3124.19,-111C3131.8,-111 3140.51,-111 3149.52,-111"/>
<polygon fill="black" stroke="black" points="3149.77,-114.5 3159.77,-111 3149.77,-107.5 3149.77,-114.5"/>
</g>
<!-- 2631953963424&#45;&gt;2631953963904 -->
<g id="edge39" class="edge">
<title>2631953963424&#45;&gt;2631953963904</title>
<path fill="none" stroke="black" d="M3375.22,-111C3382.82,-111 3391.55,-111 3400.7,-111"/>
<polygon fill="black" stroke="black" points="3400.76,-114.5 3410.76,-111 3400.76,-107.5 3400.76,-114.5"/>
</g>
<!-- 2631953962416&#45;&gt;2631953994224 -->
<g id="edge40" class="edge">
<title>2631953962416&#45;&gt;2631953994224</title>
<path fill="none" stroke="black" d="M4069.22,-111C4076.82,-111 4085.55,-111 4094.7,-111"/>
<polygon fill="black" stroke="black" points="4094.76,-114.5 4104.76,-111 4094.76,-107.5 4094.76,-114.5"/>
</g>
<!-- 2631953994416&#45;&gt;2631953996384 -->
<g id="edge41" class="edge">
<title>2631953994416&#45;&gt;2631953996384</title>
<path fill="none" stroke="black" d="M4069.22,-40.74C4077.38,-41.28 4086.86,-41.9 4096.75,-42.56"/>
<polygon fill="black" stroke="black" points="4096.55,-46.05 4106.76,-43.22 4097.01,-39.07 4096.55,-46.05"/>
</g>
<!-- 2631953228896&#45;&gt;2631953229040 -->
<g id="edge42" class="edge">
<title>2631953228896&#45;&gt;2631953229040</title>
<path fill="none" stroke="black" d="M557.07,-99.63C564.66,-99.82 573.49,-100.03 582.93,-100.26"/>
<polygon fill="black" stroke="black" points="582.89,-103.76 592.97,-100.51 583.06,-96.76 582.89,-103.76"/>
</g>
<!-- 2631953228944&#45;&gt;2631953228416 -->
<g id="edge43" class="edge">
<title>2631953228944&#45;&gt;2631953228416</title>
<path fill="none" stroke="black" d="M835.88,-131.45C780.04,-138.53 644.84,-154 531,-154 391,-154 391,-154 391,-154 327.77,-154 257.25,-147.52 201.07,-140.8"/>
<polygon fill="black" stroke="black" points="201.46,-137.32 191.11,-139.59 200.62,-144.27 201.46,-137.32"/>
</g>
<!-- 2631953228944&#45;&gt;2631953230624 -->
<g id="edge44" class="edge">
<title>2631953228944&#45;&gt;2631953230624</title>
<path fill="none" stroke="black" d="M890.4,-128C898.39,-128 907.31,-128 915.82,-128"/>
<polygon fill="black" stroke="black" points="915.92,-131.5 925.92,-128 915.92,-124.5 915.92,-131.5"/>
</g>
<!-- 2631953228272&#45;&gt;2631953230912 -->
<g id="edge45" class="edge">
<title>2631953228272&#45;&gt;2631953230912</title>
<path fill="none" stroke="black" d="M281.22,-99C288.82,-99 297.55,-99 306.7,-99"/>
<polygon fill="black" stroke="black" points="306.76,-102.5 316.76,-99 306.76,-95.5 306.76,-102.5"/>
</g>
</g>
</svg>
