<?xml version="1.0" encoding="UTF-8" standalone="no"?>
<!DOCTYPE svg PUBLIC "-//W3C//DTD SVG 1.1//EN"
 "http://www.w3.org/Graphics/SVG/1.1/DTD/svg11.dtd">
<!-- Generated by graphviz version 2.49.0 (20210828.1703)
 -->
<!-- Title: imdf_net_1656686588.9533136 Pages: 1 -->
<svg width="3810pt" height="371pt"
 viewBox="0.00 0.00 3810.00 371.00" xmlns="http://www.w3.org/2000/svg" xmlns:xlink="http://www.w3.org/1999/xlink">
<g id="graph0" class="graph" transform="scale(1 1) rotate(0) translate(4 367)">
<title>imdf_net_1656686588.9533136</title>
<!-- 1487279475200 -->
<g id="node1" class="node">
<title>1487279475200</title>
<polygon fill="black" stroke="black" points="212.5,-172 158.5,-172 158.5,-136 212.5,-136 212.5,-172"/>
</g>
<!-- 1487279476160 -->
<g id="node26" class="node">
<title>1487279476160</title>
<ellipse fill="none" stroke="black" cx="344" cy="-82" rx="27" ry="27"/>
</g>
<!-- 1487279475200&#45;&gt;1487279476160 -->
<g id="edge47" class="edge">
<title>1487279475200&#45;&gt;1487279476160</title>
<path fill="none" stroke="black" d="M212.69,-141.95C239.43,-129.65 281.01,-110.52 309.98,-97.19"/>
<polygon fill="black" stroke="black" points="311.66,-100.27 319.29,-92.91 308.74,-93.91 311.66,-100.27"/>
</g>
<!-- 1487279776144 -->
<g id="node28" class="node">
<title>1487279776144</title>
<ellipse fill="none" stroke="black" cx="344" cy="-154" rx="27" ry="27"/>
</g>
<!-- 1487279475200&#45;&gt;1487279776144 -->
<g id="edge48" class="edge">
<title>1487279475200&#45;&gt;1487279776144</title>
<path fill="none" stroke="black" d="M212.69,-154C238.5,-154 278.13,-154 306.91,-154"/>
<polygon fill="black" stroke="black" points="306.98,-157.5 316.98,-154 306.98,-150.5 306.98,-157.5"/>
</g>
<!-- 1487279476496 -->
<g id="node2" class="node">
<title>1487279476496</title>
<polygon fill="none" stroke="black" points="533.5,-100 430.5,-100 430.5,-64 533.5,-64 533.5,-100"/>
<text text-anchor="middle" x="482" y="-78.9" font-family="Times New Roman,serif" font-size="12.00">Appraise_property</text>
</g>
<!-- 1487279476352 -->
<g id="node27" class="node">
<title>1487279476352</title>
<ellipse fill="none" stroke="black" cx="953" cy="-82" rx="27" ry="27"/>
</g>
<!-- 1487279476496&#45;&gt;1487279476352 -->
<g id="edge3" class="edge">
<title>1487279476496&#45;&gt;1487279476352</title>
<path fill="none" stroke="black" d="M533.64,-82C628.94,-82 832.83,-82 915.78,-82"/>
<polygon fill="black" stroke="black" points="915.97,-85.5 925.97,-82 915.97,-78.5 915.97,-85.5"/>
</g>
<!-- 1487279470480 -->
<g id="node3" class="node">
<title>1487279470480</title>
<polygon fill="black" stroke="black" points="3190,-63 3136,-63 3136,-27 3190,-27 3190,-63"/>
</g>
<!-- 1487279779168 -->
<g id="node35" class="node">
<title>1487279779168</title>
<ellipse fill="none" stroke="black" cx="1656.5" cy="-82" rx="27" ry="27"/>
</g>
<!-- 1487279470480&#45;&gt;1487279779168 -->
<g id="edge49" class="edge">
<title>1487279470480&#45;&gt;1487279779168</title>
<path fill="none" stroke="black" d="M3135.9,-44.81C3093.82,-44.52 3008.39,-44 2936,-44 2054,-44 2054,-44 2054,-44 1920.48,-44 1762.81,-65.62 1693.38,-76.24"/>
<polygon fill="black" stroke="black" points="1692.74,-72.8 1683.4,-77.79 1693.81,-79.72 1692.74,-72.8"/>
</g>
<!-- 1487279472400 -->
<g id="node4" class="node">
<title>1487279472400</title>
<polygon fill="none" stroke="black" points="3702,-117 3556,-117 3556,-81 3702,-81 3702,-117"/>
<text text-anchor="middle" x="3629" y="-95.9" font-family="Times New Roman,serif" font-size="12.00">Loan__application_canceled</text>
</g>
<!-- 1487279472944 -->
<g id="node46" class="node">
<title>1487279472944</title>
<ellipse fill="none" stroke="black" cx="3771" cy="-99" rx="27" ry="27"/>
<ellipse fill="none" stroke="black" cx="3771" cy="-99" rx="31" ry="31"/>
<text text-anchor="start" x="3761" y="-90.9" font-family="Times New Roman,serif" font-size="32.00">■</text>
</g>
<!-- 1487279472400&#45;&gt;1487279472944 -->
<g id="edge20" class="edge">
<title>1487279472400&#45;&gt;1487279472944</title>
<path fill="none" stroke="black" d="M3702.05,-99C3711.58,-99 3721.05,-99 3729.77,-99"/>
<polygon fill="black" stroke="black" points="3729.98,-102.5 3739.98,-99 3729.98,-95.5 3729.98,-102.5"/>
</g>
<!-- 1487279474720 -->
<g id="node5" class="node">
<title>1487279474720</title>
<polygon fill="none" stroke="black" points="281,-313 90,-313 90,-277 281,-277 281,-313"/>
<text text-anchor="middle" x="185.5" y="-291.9" font-family="Times New Roman,serif" font-size="12.00">Return_application_back_to_applicant</text>
</g>
<!-- 1487279474528 -->
<g id="node45" class="node">
<title>1487279474528</title>
<ellipse fill="none" stroke="black" cx="344" cy="-336" rx="27" ry="27"/>
</g>
<!-- 1487279474720&#45;&gt;1487279474528 -->
<g id="edge1" class="edge">
<title>1487279474720&#45;&gt;1487279474528</title>
<path fill="none" stroke="black" d="M255.6,-313.1C273.56,-317.81 292.18,-322.69 307.59,-326.72"/>
<polygon fill="black" stroke="black" points="307.14,-330.22 317.7,-329.37 308.91,-323.45 307.14,-330.22"/>
</g>
<!-- 1487279777440 -->
<g id="node6" class="node">
<title>1487279777440</title>
<polygon fill="none" stroke="black" points="1108,-136 1016,-136 1016,-100 1108,-100 1108,-136"/>
<text text-anchor="middle" x="1062" y="-114.9" font-family="Times New Roman,serif" font-size="12.00">Assess_eligibility</text>
</g>
<!-- 1487279476112 -->
<g id="node31" class="node">
<title>1487279476112</title>
<ellipse fill="none" stroke="black" cx="1171" cy="-118" rx="27" ry="27"/>
</g>
<!-- 1487279777440&#45;&gt;1487279476112 -->
<g id="edge15" class="edge">
<title>1487279777440&#45;&gt;1487279476112</title>
<path fill="none" stroke="black" d="M1108.07,-118C1116.66,-118 1125.55,-118 1133.83,-118"/>
<polygon fill="black" stroke="black" points="1133.9,-121.5 1143.9,-118 1133.9,-114.5 1133.9,-121.5"/>
</g>
<!-- 1487279471392 -->
<g id="node7" class="node">
<title>1487279471392</title>
<polygon fill="none" stroke="black" points="3428,-54 3316,-54 3316,-18 3428,-18 3428,-54"/>
<text text-anchor="middle" x="3372" y="-32.9" font-family="Times New Roman,serif" font-size="12.00">Approve_application</text>
</g>
<!-- 1487279779648 -->
<g id="node41" class="node">
<title>1487279779648</title>
<ellipse fill="none" stroke="black" cx="3491" cy="-27" rx="27" ry="27"/>
</g>
<!-- 1487279471392&#45;&gt;1487279779648 -->
<g id="edge8" class="edge">
<title>1487279471392&#45;&gt;1487279779648</title>
<path fill="none" stroke="black" d="M3428.07,-31.76C3436.73,-31.1 3445.48,-30.42 3453.58,-29.8"/>
<polygon fill="black" stroke="black" points="3454.07,-33.27 3463.77,-29.02 3453.53,-26.29 3454.07,-33.27"/>
</g>
<!-- 1487279776816 -->
<g id="node8" class="node">
<title>1487279776816</title>
<polygon fill="none" stroke="black" points="539,-172 425,-172 425,-136 539,-136 539,-172"/>
<text text-anchor="middle" x="482" y="-150.9" font-family="Times New Roman,serif" font-size="12.00">Check_credit_history</text>
</g>
<!-- 1487279776384 -->
<g id="node30" class="node">
<title>1487279776384</title>
<ellipse fill="none" stroke="black" cx="620" cy="-154" rx="27" ry="27"/>
</g>
<!-- 1487279776816&#45;&gt;1487279776384 -->
<g id="edge9" class="edge">
<title>1487279776816&#45;&gt;1487279776384</title>
<path fill="none" stroke="black" d="M539.1,-154C553.77,-154 569.19,-154 582.54,-154"/>
<polygon fill="black" stroke="black" points="582.74,-157.5 592.74,-154 582.74,-150.5 582.74,-157.5"/>
</g>
<!-- 1487279470768 -->
<g id="node9" class="node">
<title>1487279470768</title>
<polygon fill="black" stroke="black" points="3190,-117 3136,-117 3136,-81 3190,-81 3190,-117"/>
</g>
<!-- 1487279778736 -->
<g id="node34" class="node">
<title>1487279778736</title>
<ellipse fill="none" stroke="black" cx="3253" cy="-99" rx="27" ry="27"/>
</g>
<!-- 1487279470768&#45;&gt;1487279778736 -->
<g id="edge46" class="edge">
<title>1487279470768&#45;&gt;1487279778736</title>
<path fill="none" stroke="black" d="M3190.4,-99C3198.39,-99 3207.31,-99 3215.82,-99"/>
<polygon fill="black" stroke="black" points="3215.92,-102.5 3225.92,-99 3215.92,-95.5 3215.92,-102.5"/>
</g>
<!-- 1487279474240 -->
<g id="node10" class="node">
<title>1487279474240</title>
<polygon fill="none" stroke="black" points="890,-254 683,-254 683,-218 890,-218 890,-254"/>
<text text-anchor="middle" x="786.5" y="-232.9" font-family="Times New Roman,serif" font-size="12.00">Check__application__form_completeness</text>
</g>
<!-- 1487279474048 -->
<g id="node44" class="node">
<title>1487279474048</title>
<ellipse fill="none" stroke="black" cx="27" cy="-209" rx="27" ry="27"/>
</g>
<!-- 1487279474240&#45;&gt;1487279474048 -->
<g id="edge7" class="edge">
<title>1487279474240&#45;&gt;1487279474048</title>
<path fill="none" stroke="black" d="M682.79,-222.26C624.34,-215.59 549.7,-209 483,-209 343,-209 343,-209 343,-209 242.09,-209 123,-209 64.36,-209"/>
<polygon fill="black" stroke="black" points="64.14,-205.5 54.14,-209 64.14,-212.5 64.14,-205.5"/>
</g>
<!-- 1487279475008 -->
<g id="node11" class="node">
<title>1487279475008</title>
<polygon fill="none" stroke="black" points="557,-345 407,-345 407,-309 557,-309 557,-345"/>
<text text-anchor="middle" x="482" y="-323.9" font-family="Times New Roman,serif" font-size="12.00">Receive_updated_application</text>
</g>
<!-- 1487279473520 -->
<g id="node43" class="node">
<title>1487279473520</title>
<ellipse fill="none" stroke="black" cx="620" cy="-264" rx="27" ry="27"/>
</g>
<!-- 1487279475008&#45;&gt;1487279473520 -->
<g id="edge16" class="edge">
<title>1487279475008&#45;&gt;1487279473520</title>
<path fill="none" stroke="black" d="M521.97,-308.95C542.12,-299.62 566.44,-288.35 585.7,-279.43"/>
<polygon fill="black" stroke="black" points="587.38,-282.51 594.98,-275.13 584.44,-276.15 587.38,-282.51"/>
</g>
<!-- 1487279779264 -->
<g id="node12" class="node">
<title>1487279779264</title>
<polygon fill="black" stroke="black" points="1552,-100 1498,-100 1498,-64 1552,-64 1552,-100"/>
</g>
<!-- 1487279779264&#45;&gt;1487279779168 -->
<g id="edge21" class="edge">
<title>1487279779264&#45;&gt;1487279779168</title>
<path fill="none" stroke="black" d="M1552.21,-82C1571.43,-82 1597.77,-82 1619.04,-82"/>
<polygon fill="black" stroke="black" points="1619.33,-85.5 1629.33,-82 1619.33,-78.5 1619.33,-85.5"/>
</g>
<!-- 1487279471680 -->
<g id="node13" class="node">
<title>1487279471680</title>
<polygon fill="none" stroke="black" points="3704,-54 3554,-54 3554,-18 3704,-18 3704,-54"/>
<text text-anchor="middle" x="3629" y="-32.9" font-family="Times New Roman,serif" font-size="12.00">Loan__application_approved</text>
</g>
<!-- 1487279471680&#45;&gt;1487279472944 -->
<g id="edge5" class="edge">
<title>1487279471680&#45;&gt;1487279472944</title>
<path fill="none" stroke="black" d="M3670.12,-54.05C3689.98,-62.99 3713.79,-73.7 3733.18,-82.43"/>
<polygon fill="black" stroke="black" points="3731.75,-85.63 3742.31,-86.54 3734.62,-79.24 3731.75,-85.63"/>
</g>
<!-- 1487279472064 -->
<g id="node14" class="node">
<title>1487279472064</title>
<polygon fill="none" stroke="black" points="3423.5,-117 3320.5,-117 3320.5,-81 3423.5,-81 3423.5,-117"/>
<text text-anchor="middle" x="3372" y="-95.9" font-family="Times New Roman,serif" font-size="12.00">Cancel_application</text>
</g>
<!-- 1487279471872 -->
<g id="node42" class="node">
<title>1487279471872</title>
<ellipse fill="none" stroke="black" cx="3491" cy="-99" rx="27" ry="27"/>
</g>
<!-- 1487279472064&#45;&gt;1487279471872 -->
<g id="edge11" class="edge">
<title>1487279472064&#45;&gt;1487279471872</title>
<path fill="none" stroke="black" d="M3423.64,-99C3433.69,-99 3444.06,-99 3453.52,-99"/>
<polygon fill="black" stroke="black" points="3453.76,-102.5 3463.76,-99 3453.76,-95.5 3453.76,-102.5"/>
</g>
<!-- 1487279473232 -->
<g id="node15" class="node">
<title>1487279473232</title>
<polygon fill="none" stroke="black" points="554.5,-282 409.5,-282 409.5,-246 554.5,-246 554.5,-282"/>
<text text-anchor="middle" x="482" y="-260.9" font-family="Times New Roman,serif" font-size="12.00">Loan__application_received</text>
</g>
<!-- 1487279473232&#45;&gt;1487279473520 -->
<g id="edge10" class="edge">
<title>1487279473232&#45;&gt;1487279473520</title>
<path fill="none" stroke="black" d="M554.58,-264C564.32,-264 573.96,-264 582.7,-264"/>
<polygon fill="black" stroke="black" points="582.85,-267.5 592.85,-264 582.85,-260.5 582.85,-267.5"/>
</g>
<!-- 1487279777104 -->
<g id="node16" class="node">
<title>1487279777104</title>
<polygon fill="none" stroke="black" points="834,-172 739,-172 739,-136 834,-136 834,-172"/>
<text text-anchor="middle" x="786.5" y="-150.9" font-family="Times New Roman,serif" font-size="12.00">Assess_loan_risk</text>
</g>
<!-- 1487279776288 -->
<g id="node29" class="node">
<title>1487279776288</title>
<ellipse fill="none" stroke="black" cx="953" cy="-154" rx="27" ry="27"/>
</g>
<!-- 1487279777104&#45;&gt;1487279776288 -->
<g id="edge6" class="edge">
<title>1487279777104&#45;&gt;1487279776288</title>
<path fill="none" stroke="black" d="M834.2,-154C860.01,-154 891.62,-154 915.59,-154"/>
<polygon fill="black" stroke="black" points="915.68,-157.5 925.68,-154 915.68,-150.5 915.68,-157.5"/>
</g>
<!-- 1487279777872 -->
<g id="node17" class="node">
<title>1487279777872</title>
<polygon fill="none" stroke="black" points="1353.5,-167 1252.5,-167 1252.5,-131 1353.5,-131 1353.5,-167"/>
<text text-anchor="middle" x="1303" y="-145.9" font-family="Times New Roman,serif" font-size="12.00">Reject_application</text>
</g>
<!-- 1487279777680 -->
<g id="node32" class="node">
<title>1487279777680</title>
<ellipse fill="none" stroke="black" cx="1435" cy="-154" rx="27" ry="27"/>
</g>
<!-- 1487279777872&#45;&gt;1487279777680 -->
<g id="edge14" class="edge">
<title>1487279777872&#45;&gt;1487279777680</title>
<path fill="none" stroke="black" d="M1353.52,-150.9C1368.27,-151.47 1384.15,-152.08 1397.88,-152.61"/>
<polygon fill="black" stroke="black" points="1397.77,-156.11 1407.9,-153 1398.04,-149.11 1397.77,-156.11"/>
</g>
<!-- 1487279468752 -->
<g id="node18" class="node">
<title>1487279468752</title>
<polygon fill="#ff0000" stroke="black" points="1992,-113 1761,-113 1761,-77 1992,-77 1992,-113"/>
<text text-anchor="middle" x="1876.5" y="-91.9" font-family="Times New Roman,serif" font-size="12.00">Check_if_home_insurance_quote_is_requested</text>
</g>
<!-- 1487279779792 -->
<g id="node37" class="node">
<title>1487279779792</title>
<ellipse fill="none" stroke="black" cx="2055" cy="-99" rx="27" ry="27"/>
</g>
<!-- 1487279468752&#45;&gt;1487279779792 -->
<g id="edge13" class="edge">
<title>1487279468752&#45;&gt;1487279779792</title>
<path fill="none" stroke="black" d="M1992.27,-97.6C2001.32,-97.81 2009.97,-98 2017.76,-98.18"/>
<polygon fill="black" stroke="black" points="2017.76,-101.68 2027.84,-98.41 2017.92,-94.68 2017.76,-101.68"/>
</g>
<!-- 1487279469136 -->
<g id="node19" class="node">
<title>1487279469136</title>
<polygon fill="#ff0000" stroke="black" points="2268,-117 2118,-117 2118,-81 2268,-81 2268,-117"/>
<text text-anchor="middle" x="2193" y="-95.9" font-family="Times New Roman,serif" font-size="12.00">Send_home_insurance_quote</text>
</g>
<!-- 1487279468944 -->
<g id="node38" class="node">
<title>1487279468944</title>
<ellipse fill="none" stroke="black" cx="2331" cy="-99" rx="27" ry="27"/>
</g>
<!-- 1487279469136&#45;&gt;1487279468944 -->
<g id="edge4" class="edge">
<title>1487279469136&#45;&gt;1487279468944</title>
<path fill="none" stroke="black" d="M2268.37,-99C2277.15,-99 2285.79,-99 2293.69,-99"/>
<polygon fill="black" stroke="black" points="2293.96,-102.5 2303.96,-99 2293.96,-95.5 2293.96,-102.5"/>
</g>
<!-- 1487279469520 -->
<g id="node20" class="node">
<title>1487279469520</title>
<polygon fill="#ff0000" stroke="black" points="2483,-117 2394,-117 2394,-81 2483,-81 2483,-117"/>
<text text-anchor="middle" x="2438.5" y="-95.9" font-family="Times New Roman,serif" font-size="12.00">Added_Acitvity</text>
</g>
<!-- 1487279469328 -->
<g id="node39" class="node">
<title>1487279469328</title>
<ellipse fill="none" stroke="black" cx="2546" cy="-99" rx="27" ry="27"/>
</g>
<!-- 1487279469520&#45;&gt;1487279469328 -->
<g id="edge17" class="edge">
<title>1487279469520&#45;&gt;1487279469328</title>
<path fill="none" stroke="black" d="M2483.02,-99C2491.56,-99 2500.43,-99 2508.71,-99"/>
<polygon fill="black" stroke="black" points="2508.8,-102.5 2518.8,-99 2508.8,-95.5 2508.8,-102.5"/>
</g>
<!-- 1487279469904 -->
<g id="node21" class="node">
<title>1487279469904</title>
<polygon fill="#ff0000" stroke="black" points="2734,-117 2609,-117 2609,-81 2734,-81 2734,-117"/>
<text text-anchor="middle" x="2671.5" y="-95.9" font-family="Times New Roman,serif" font-size="12.00">Send_acceptance_pack</text>
</g>
<!-- 1487279469712 -->
<g id="node40" class="node">
<title>1487279469712</title>
<ellipse fill="none" stroke="black" cx="2797" cy="-99" rx="27" ry="27"/>
</g>
<!-- 1487279469904&#45;&gt;1487279469712 -->
<g id="edge2" class="edge">
<title>1487279469904&#45;&gt;1487279469712</title>
<path fill="none" stroke="black" d="M2734.25,-99C2742.97,-99 2751.69,-99 2759.72,-99"/>
<polygon fill="black" stroke="black" points="2759.81,-102.5 2769.81,-99 2759.81,-95.5 2759.81,-102.5"/>
</g>
<!-- 1487279778544 -->
<g id="node22" class="node">
<title>1487279778544</title>
<polygon fill="none" stroke="black" points="1372,-109 1234,-109 1234,-73 1372,-73 1372,-109"/>
<text text-anchor="middle" x="1303" y="-87.9" font-family="Times New Roman,serif" font-size="12.00">Prepare_acceptance_pack</text>
</g>
<!-- 1487279778352 -->
<g id="node33" class="node">
<title>1487279778352</title>
<ellipse fill="none" stroke="black" cx="1435" cy="-82" rx="27" ry="27"/>
</g>
<!-- 1487279778544&#45;&gt;1487279778352 -->
<g id="edge19" class="edge">
<title>1487279778544&#45;&gt;1487279778352</title>
<path fill="none" stroke="black" d="M1372.05,-86.29C1380.93,-85.67 1389.74,-85.06 1397.81,-84.51"/>
<polygon fill="black" stroke="black" points="1398.19,-87.99 1407.93,-83.81 1397.71,-81 1398.19,-87.99"/>
</g>
<!-- 1487279778160 -->
<g id="node23" class="node">
<title>1487279778160</title>
<polygon fill="none" stroke="black" points="1725,-172 1588,-172 1588,-136 1725,-136 1725,-172"/>
<text text-anchor="middle" x="1656.5" y="-150.9" font-family="Times New Roman,serif" font-size="12.00">Loan_application_rejected</text>
</g>
<!-- 1487279778160&#45;&gt;1487279472944 -->
<g id="edge12" class="edge">
<title>1487279778160&#45;&gt;1487279472944</title>
<path fill="none" stroke="black" d="M1725.2,-154C1804.14,-154 1938.53,-154 2054,-154 2054,-154 2054,-154 3492,-154 3587.04,-154 3612.15,-150.42 3704,-126 3713.68,-123.43 3723.83,-119.78 3733.19,-116"/>
<polygon fill="black" stroke="black" points="3734.74,-119.15 3742.61,-112.05 3732.03,-112.7 3734.74,-119.15"/>
</g>
<!-- 1487279470192 -->
<g id="node24" class="node">
<title>1487279470192</title>
<polygon fill="#ff0000" stroke="black" points="3010,-117 2860,-117 2860,-81 3010,-81 3010,-117"/>
<text text-anchor="middle" x="2935" y="-95.9" font-family="Times New Roman,serif" font-size="12.00">Verify_repayment_agreement</text>
</g>
<!-- 1487279779696 -->
<g id="node36" class="node">
<title>1487279779696</title>
<ellipse fill="none" stroke="black" cx="3073" cy="-99" rx="27" ry="27"/>
</g>
<!-- 1487279470192&#45;&gt;1487279779696 -->
<g id="edge18" class="edge">
<title>1487279470192&#45;&gt;1487279779696</title>
<path fill="none" stroke="black" d="M3010.37,-99C3019.15,-99 3027.79,-99 3035.69,-99"/>
<polygon fill="black" stroke="black" points="3035.96,-102.5 3045.96,-99 3035.96,-95.5 3035.96,-102.5"/>
</g>
<!-- 1487279472848 -->
<g id="node25" class="node">
<title>1487279472848</title>
<ellipse fill="none" stroke="black" cx="344" cy="-264" rx="27" ry="27"/>
<text text-anchor="start" x="333" y="-255.3" font-family="Times New Roman,serif" font-size="34.00">●</text>
</g>
<!-- 1487279472848&#45;&gt;1487279473232 -->
<g id="edge50" class="edge">
<title>1487279472848&#45;&gt;1487279473232</title>
<path fill="none" stroke="black" d="M371.22,-264C379.5,-264 389.13,-264 399.18,-264"/>
<polygon fill="black" stroke="black" points="399.33,-267.5 409.33,-264 399.33,-260.5 399.33,-267.5"/>
</g>
<!-- 1487279476160&#45;&gt;1487279476496 -->
<g id="edge22" class="edge">
<title>1487279476160&#45;&gt;1487279476496</title>
<path fill="none" stroke="black" d="M371.22,-82C385.22,-82 403.08,-82 420.31,-82"/>
<polygon fill="black" stroke="black" points="420.35,-85.5 430.35,-82 420.35,-78.5 420.35,-85.5"/>
</g>
<!-- 1487279476352&#45;&gt;1487279777440 -->
<g id="edge23" class="edge">
<title>1487279476352&#45;&gt;1487279777440</title>
<path fill="none" stroke="black" d="M978.82,-90.35C987.06,-93.12 996.59,-96.33 1006.18,-99.56"/>
<polygon fill="black" stroke="black" points="1005.14,-102.9 1015.74,-102.77 1007.38,-96.27 1005.14,-102.9"/>
</g>
<!-- 1487279776144&#45;&gt;1487279776816 -->
<g id="edge24" class="edge">
<title>1487279776144&#45;&gt;1487279776816</title>
<path fill="none" stroke="black" d="M371.22,-154C383.7,-154 399.23,-154 414.65,-154"/>
<polygon fill="black" stroke="black" points="414.74,-157.5 424.74,-154 414.74,-150.5 414.74,-157.5"/>
</g>
<!-- 1487279776288&#45;&gt;1487279777440 -->
<g id="edge25" class="edge">
<title>1487279776288&#45;&gt;1487279777440</title>
<path fill="none" stroke="black" d="M978.82,-145.65C987.06,-142.88 996.59,-139.67 1006.18,-136.44"/>
<polygon fill="black" stroke="black" points="1007.38,-139.73 1015.74,-133.23 1005.14,-133.1 1007.38,-139.73"/>
</g>
<!-- 1487279776384&#45;&gt;1487279777104 -->
<g id="edge26" class="edge">
<title>1487279776384&#45;&gt;1487279777104</title>
<path fill="none" stroke="black" d="M647.07,-154C668.84,-154 700.66,-154 728.32,-154"/>
<polygon fill="black" stroke="black" points="728.68,-157.5 738.68,-154 728.68,-150.5 728.68,-157.5"/>
</g>
<!-- 1487279476112&#45;&gt;1487279777872 -->
<g id="edge27" class="edge">
<title>1487279476112&#45;&gt;1487279777872</title>
<path fill="none" stroke="black" d="M1197.37,-124.05C1210.35,-127.14 1226.72,-131.05 1242.65,-134.85"/>
<polygon fill="black" stroke="black" points="1241.93,-138.27 1252.47,-137.19 1243.55,-131.46 1241.93,-138.27"/>
</g>
<!-- 1487279476112&#45;&gt;1487279778544 -->
<g id="edge28" class="edge">
<title>1487279476112&#45;&gt;1487279778544</title>
<path fill="none" stroke="black" d="M1197.68,-112.67C1205.48,-111.05 1214.49,-109.18 1223.88,-107.23"/>
<polygon fill="black" stroke="black" points="1224.69,-110.63 1233.77,-105.17 1223.26,-103.78 1224.69,-110.63"/>
</g>
<!-- 1487279777680&#45;&gt;1487279778160 -->
<g id="edge29" class="edge">
<title>1487279777680&#45;&gt;1487279778160</title>
<path fill="none" stroke="black" d="M1462.04,-154C1490.41,-154 1537.16,-154 1577.59,-154"/>
<polygon fill="black" stroke="black" points="1577.72,-157.5 1587.72,-154 1577.72,-150.5 1577.72,-157.5"/>
</g>
<!-- 1487279778352&#45;&gt;1487279779264 -->
<g id="edge30" class="edge">
<title>1487279778352&#45;&gt;1487279779264</title>
<path fill="none" stroke="black" d="M1462.4,-82C1470.39,-82 1479.31,-82 1487.82,-82"/>
<polygon fill="black" stroke="black" points="1487.92,-85.5 1497.92,-82 1487.92,-78.5 1487.92,-85.5"/>
</g>
<!-- 1487279778736&#45;&gt;1487279471392 -->
<g id="edge31" class="edge">
<title>1487279778736&#45;&gt;1487279471392</title>
<path fill="none" stroke="black" d="M3277.12,-86.55C3291.75,-78.67 3311.11,-68.25 3328.45,-58.91"/>
<polygon fill="black" stroke="black" points="3330.15,-61.97 3337.29,-54.15 3326.83,-55.81 3330.15,-61.97"/>
</g>
<!-- 1487279778736&#45;&gt;1487279472064 -->
<g id="edge32" class="edge">
<title>1487279778736&#45;&gt;1487279472064</title>
<path fill="none" stroke="black" d="M3280.26,-99C3289.24,-99 3299.71,-99 3310.26,-99"/>
<polygon fill="black" stroke="black" points="3310.37,-102.5 3320.37,-99 3310.37,-95.5 3310.37,-102.5"/>
</g>
<!-- 1487279779168&#45;&gt;1487279468752 -->
<g id="edge33" class="edge">
<title>1487279779168&#45;&gt;1487279468752</title>
<path fill="none" stroke="black" d="M1683.8,-83.57C1701.19,-84.61 1725.4,-86.05 1750.78,-87.56"/>
<polygon fill="black" stroke="black" points="1750.74,-91.07 1760.93,-88.17 1751.16,-84.08 1750.74,-91.07"/>
</g>
<!-- 1487279779696&#45;&gt;1487279470480 -->
<g id="edge35" class="edge">
<title>1487279779696&#45;&gt;1487279470480</title>
<path fill="none" stroke="black" d="M3096.66,-85.09C3105.96,-79.39 3116.93,-72.66 3127.2,-66.35"/>
<polygon fill="black" stroke="black" points="3129.3,-69.18 3135.99,-60.96 3125.63,-63.21 3129.3,-69.18"/>
</g>
<!-- 1487279779696&#45;&gt;1487279470768 -->
<g id="edge34" class="edge">
<title>1487279779696&#45;&gt;1487279470768</title>
<path fill="none" stroke="black" d="M3100.4,-99C3108.39,-99 3117.31,-99 3125.82,-99"/>
<polygon fill="black" stroke="black" points="3125.92,-102.5 3135.92,-99 3125.92,-95.5 3125.92,-102.5"/>
</g>
<!-- 1487279779792&#45;&gt;1487279469136 -->
<g id="edge36" class="edge">
<title>1487279779792&#45;&gt;1487279469136</title>
<path fill="none" stroke="black" d="M2082.22,-99C2089.82,-99 2098.55,-99 2107.7,-99"/>
<polygon fill="black" stroke="black" points="2107.76,-102.5 2117.76,-99 2107.76,-95.5 2107.76,-102.5"/>
</g>
<!-- 1487279468944&#45;&gt;1487279469520 -->
<g id="edge37" class="edge">
<title>1487279468944&#45;&gt;1487279469520</title>
<path fill="none" stroke="black" d="M2358.08,-99C2365.88,-99 2374.74,-99 2383.64,-99"/>
<polygon fill="black" stroke="black" points="2383.66,-102.5 2393.66,-99 2383.66,-95.5 2383.66,-102.5"/>
</g>
<!-- 1487279469328&#45;&gt;1487279469904 -->
<g id="edge38" class="edge">
<title>1487279469328&#45;&gt;1487279469904</title>
<path fill="none" stroke="black" d="M2573.19,-99C2580.8,-99 2589.51,-99 2598.52,-99"/>
<polygon fill="black" stroke="black" points="2598.77,-102.5 2608.77,-99 2598.77,-95.5 2598.77,-102.5"/>
</g>
<!-- 1487279469712&#45;&gt;1487279470192 -->
<g id="edge39" class="edge">
<title>1487279469712&#45;&gt;1487279470192</title>
<path fill="none" stroke="black" d="M2824.22,-99C2831.82,-99 2840.55,-99 2849.7,-99"/>
<polygon fill="black" stroke="black" points="2849.76,-102.5 2859.76,-99 2849.76,-95.5 2849.76,-102.5"/>
</g>
<!-- 1487279779648&#45;&gt;1487279471680 -->
<g id="edge40" class="edge">
<title>1487279779648&#45;&gt;1487279471680</title>
<path fill="none" stroke="black" d="M3518.22,-28.74C3525.82,-29.24 3534.55,-29.82 3543.7,-30.42"/>
<polygon fill="black" stroke="black" points="3543.55,-33.92 3553.76,-31.09 3544.01,-26.93 3543.55,-33.92"/>
</g>
<!-- 1487279471872&#45;&gt;1487279472400 -->
<g id="edge41" class="edge">
<title>1487279471872&#45;&gt;1487279472400</title>
<path fill="none" stroke="black" d="M3518.22,-99C3526.38,-99 3535.86,-99 3545.75,-99"/>
<polygon fill="black" stroke="black" points="3545.76,-102.5 3555.76,-99 3545.76,-95.5 3545.76,-102.5"/>
</g>
<!-- 1487279473520&#45;&gt;1487279474240 -->
<g id="edge42" class="edge">
<title>1487279473520&#45;&gt;1487279474240</title>
<path fill="none" stroke="black" d="M646.7,-259.62C654.35,-258.32 663.26,-256.81 672.8,-255.18"/>
<polygon fill="black" stroke="black" points="673.69,-258.58 682.96,-253.45 672.51,-251.68 673.69,-258.58"/>
</g>
<!-- 1487279474048&#45;&gt;1487279475200 -->
<g id="edge44" class="edge">
<title>1487279474048&#45;&gt;1487279475200</title>
<path fill="none" stroke="black" d="M52.8,-200.29C78.66,-191.2 119.45,-176.86 148.78,-166.55"/>
<polygon fill="black" stroke="black" points="149.98,-169.84 158.25,-163.22 147.66,-163.24 149.98,-169.84"/>
</g>
<!-- 1487279474048&#45;&gt;1487279474720 -->
<g id="edge43" class="edge">
<title>1487279474048&#45;&gt;1487279474720</title>
<path fill="none" stroke="black" d="M51.09,-221.69C75.13,-234.9 113.31,-255.88 142.67,-272.01"/>
<polygon fill="black" stroke="black" points="141.03,-275.1 151.48,-276.85 144.4,-268.97 141.03,-275.1"/>
</g>
<!-- 1487279474528&#45;&gt;1487279475008 -->
<g id="edge45" class="edge">
<title>1487279474528&#45;&gt;1487279475008</title>
<path fill="none" stroke="black" d="M371.22,-334.26C378.82,-333.76 387.55,-333.18 396.7,-332.58"/>
<polygon fill="black" stroke="black" points="397.01,-336.07 406.76,-331.91 396.55,-329.08 397.01,-336.07"/>
</g>
</g>
</svg>
