<?xml version="1.0" encoding="UTF-8" standalone="no"?>
<!DOCTYPE svg PUBLIC "-//W3C//DTD SVG 1.1//EN"
 "http://www.w3.org/Graphics/SVG/1.1/DTD/svg11.dtd">
<!-- Generated by graphviz version 2.49.0 (20210828.1703)
 -->
<!-- Title: imdf_net_1656686587.348866 Pages: 1 -->
<svg width="4361pt" height="255pt"
 viewBox="0.00 0.00 4361.00 255.00" xmlns="http://www.w3.org/2000/svg" xmlns:xlink="http://www.w3.org/1999/xlink">
<g id="graph0" class="graph" transform="scale(1 1) rotate(0) translate(4 251)">
<title>imdf_net_1656686587.348866</title>
<!-- 1487279042816 -->
<g id="node1" class="node">
<title>1487279042816</title>
<polygon fill="none" stroke="black" points="191,-144 0,-144 0,-108 191,-108 191,-144"/>
<text text-anchor="middle" x="95.5" y="-122.9" font-family="Times New Roman,serif" font-size="12.00">Return_application_back_to_applicant</text>
</g>
<!-- 1487279042624 -->
<g id="node45" class="node">
<title>1487279042624</title>
<ellipse fill="none" stroke="black" cx="254" cy="-99" rx="27" ry="27"/>
</g>
<!-- 1487279042816&#45;&gt;1487279042624 -->
<g id="edge6" class="edge">
<title>1487279042816&#45;&gt;1487279042624</title>
<path fill="none" stroke="black" d="M191.15,-109.67C200.37,-108.08 209.27,-106.54 217.31,-105.16"/>
<polygon fill="black" stroke="black" points="218.08,-108.58 227.34,-103.43 216.89,-101.68 218.08,-108.58"/>
</g>
<!-- 1487279046272 -->
<g id="node2" class="node">
<title>1487279046272</title>
<polygon fill="none" stroke="black" points="1659,-147 1567,-147 1567,-111 1659,-111 1659,-147"/>
<text text-anchor="middle" x="1613" y="-125.9" font-family="Times New Roman,serif" font-size="12.00">Assess_eligibility</text>
</g>
<!-- 1487279044208 -->
<g id="node31" class="node">
<title>1487279044208</title>
<ellipse fill="none" stroke="black" cx="1722" cy="-129" rx="27" ry="27"/>
</g>
<!-- 1487279046272&#45;&gt;1487279044208 -->
<g id="edge18" class="edge">
<title>1487279046272&#45;&gt;1487279044208</title>
<path fill="none" stroke="black" d="M1659.07,-129C1667.66,-129 1676.55,-129 1684.83,-129"/>
<polygon fill="black" stroke="black" points="1684.9,-132.5 1694.9,-129 1684.9,-125.5 1684.9,-132.5"/>
</g>
<!-- 1487279321728 -->
<g id="node3" class="node">
<title>1487279321728</title>
<polygon fill="none" stroke="black" points="1923,-178 1785,-178 1785,-142 1923,-142 1923,-178"/>
<text text-anchor="middle" x="1854" y="-156.9" font-family="Times New Roman,serif" font-size="12.00">Prepare_acceptance_pack</text>
</g>
<!-- 1487279323552 -->
<g id="node33" class="node">
<title>1487279323552</title>
<ellipse fill="none" stroke="black" cx="1986" cy="-165" rx="27" ry="27"/>
</g>
<!-- 1487279321728&#45;&gt;1487279323552 -->
<g id="edge20" class="edge">
<title>1487279321728&#45;&gt;1487279323552</title>
<path fill="none" stroke="black" d="M1923.05,-162.62C1931.93,-162.96 1940.74,-163.3 1948.81,-163.61"/>
<polygon fill="black" stroke="black" points="1948.8,-167.11 1958.93,-164 1949.07,-160.12 1948.8,-167.11"/>
</g>
<!-- 1487279322496 -->
<g id="node4" class="node">
<title>1487279322496</title>
<polygon fill="#ff0000" stroke="black" points="2819,-222 2669,-222 2669,-186 2819,-186 2819,-222"/>
<text text-anchor="middle" x="2744" y="-200.9" font-family="Times New Roman,serif" font-size="12.00">Send_home_insurance_quote</text>
</g>
<!-- 1487279321536 -->
<g id="node38" class="node">
<title>1487279321536</title>
<ellipse fill="none" stroke="black" cx="2882" cy="-204" rx="27" ry="27"/>
</g>
<!-- 1487279322496&#45;&gt;1487279321536 -->
<g id="edge14" class="edge">
<title>1487279322496&#45;&gt;1487279321536</title>
<path fill="none" stroke="black" d="M2819.37,-204C2828.15,-204 2836.79,-204 2844.69,-204"/>
<polygon fill="black" stroke="black" points="2844.96,-207.5 2854.96,-204 2844.96,-200.5 2844.96,-207.5"/>
</g>
<!-- 1487279324032 -->
<g id="node5" class="node">
<title>1487279324032</title>
<polygon fill="#ff0000" stroke="black" points="3034,-222 2945,-222 2945,-186 3034,-186 3034,-222"/>
<text text-anchor="middle" x="2989.5" y="-200.9" font-family="Times New Roman,serif" font-size="12.00">Added_Acitvity</text>
</g>
<!-- 1487279323456 -->
<g id="node39" class="node">
<title>1487279323456</title>
<ellipse fill="none" stroke="black" cx="3097" cy="-204" rx="27" ry="27"/>
</g>
<!-- 1487279324032&#45;&gt;1487279323456 -->
<g id="edge7" class="edge">
<title>1487279324032&#45;&gt;1487279323456</title>
<path fill="none" stroke="black" d="M3034.02,-204C3042.56,-204 3051.43,-204 3059.71,-204"/>
<polygon fill="black" stroke="black" points="3059.8,-207.5 3069.8,-204 3059.8,-200.5 3059.8,-207.5"/>
</g>
<!-- 1487279117312 -->
<g id="node6" class="node">
<title>1487279117312</title>
<polygon fill="none" stroke="black" points="3979,-175 3867,-175 3867,-139 3979,-139 3979,-175"/>
<text text-anchor="middle" x="3923" y="-153.9" font-family="Times New Roman,serif" font-size="12.00">Approve_application</text>
</g>
<!-- 1487279321872 -->
<g id="node41" class="node">
<title>1487279321872</title>
<ellipse fill="none" stroke="black" cx="4042" cy="-148" rx="27" ry="27"/>
</g>
<!-- 1487279117312&#45;&gt;1487279321872 -->
<g id="edge17" class="edge">
<title>1487279117312&#45;&gt;1487279321872</title>
<path fill="none" stroke="black" d="M3979.07,-152.76C3987.73,-152.1 3996.48,-151.42 4004.58,-150.8"/>
<polygon fill="black" stroke="black" points="4005.07,-154.27 4014.77,-150.02 4004.53,-147.29 4005.07,-154.27"/>
</g>
<!-- 1487279044880 -->
<g id="node7" class="node">
<title>1487279044880</title>
<polygon fill="none" stroke="black" points="1904.5,-120 1803.5,-120 1803.5,-84 1904.5,-84 1904.5,-120"/>
<text text-anchor="middle" x="1854" y="-98.9" font-family="Times New Roman,serif" font-size="12.00">Reject_application</text>
</g>
<!-- 1487279045888 -->
<g id="node32" class="node">
<title>1487279045888</title>
<ellipse fill="none" stroke="black" cx="1986" cy="-93" rx="27" ry="27"/>
</g>
<!-- 1487279044880&#45;&gt;1487279045888 -->
<g id="edge11" class="edge">
<title>1487279044880&#45;&gt;1487279045888</title>
<path fill="none" stroke="black" d="M1904.52,-98.57C1919.27,-97.55 1935.15,-96.45 1948.88,-95.5"/>
<polygon fill="black" stroke="black" points="1949.16,-98.99 1958.9,-94.81 1948.68,-92.01 1949.16,-98.99"/>
</g>
<!-- 1487279324944 -->
<g id="node8" class="node">
<title>1487279324944</title>
<polygon fill="#ff0000" stroke="black" points="3561,-222 3411,-222 3411,-186 3561,-186 3561,-222"/>
<text text-anchor="middle" x="3486" y="-200.9" font-family="Times New Roman,serif" font-size="12.00">Verify_repayment_agreement</text>
</g>
<!-- 1487279321920 -->
<g id="node36" class="node">
<title>1487279321920</title>
<ellipse fill="none" stroke="black" cx="3624" cy="-204" rx="27" ry="27"/>
</g>
<!-- 1487279324944&#45;&gt;1487279321920 -->
<g id="edge5" class="edge">
<title>1487279324944&#45;&gt;1487279321920</title>
<path fill="none" stroke="black" d="M3561.37,-204C3570.15,-204 3578.79,-204 3586.69,-204"/>
<polygon fill="black" stroke="black" points="3586.96,-207.5 3596.96,-204 3586.96,-200.5 3586.96,-207.5"/>
</g>
<!-- 1487279116688 -->
<g id="node9" class="node">
<title>1487279116688</title>
<polygon fill="black" stroke="black" points="3741,-222 3687,-222 3687,-186 3741,-186 3741,-222"/>
</g>
<!-- 1487279322688 -->
<g id="node34" class="node">
<title>1487279322688</title>
<ellipse fill="none" stroke="black" cx="3804" cy="-204" rx="27" ry="27"/>
</g>
<!-- 1487279116688&#45;&gt;1487279322688 -->
<g id="edge46" class="edge">
<title>1487279116688&#45;&gt;1487279322688</title>
<path fill="none" stroke="black" d="M3741.4,-204C3749.39,-204 3758.31,-204 3766.82,-204"/>
<polygon fill="black" stroke="black" points="3766.92,-207.5 3776.92,-204 3766.92,-200.5 3766.92,-207.5"/>
</g>
<!-- 1487279043104 -->
<g id="node10" class="node">
<title>1487279043104</title>
<polygon fill="none" stroke="black" points="467,-117 317,-117 317,-81 467,-81 467,-117"/>
<text text-anchor="middle" x="392" y="-95.9" font-family="Times New Roman,serif" font-size="12.00">Receive_updated_application</text>
</g>
<!-- 1487278733344 -->
<g id="node43" class="node">
<title>1487278733344</title>
<ellipse fill="none" stroke="black" cx="530" cy="-99" rx="27" ry="27"/>
</g>
<!-- 1487279043104&#45;&gt;1487278733344 -->
<g id="edge12" class="edge">
<title>1487279043104&#45;&gt;1487278733344</title>
<path fill="none" stroke="black" d="M467.37,-99C476.15,-99 484.79,-99 492.69,-99"/>
<polygon fill="black" stroke="black" points="492.96,-102.5 502.96,-99 492.96,-95.5 492.96,-102.5"/>
</g>
<!-- 1487279117600 -->
<g id="node11" class="node">
<title>1487279117600</title>
<polygon fill="none" stroke="black" points="4255,-166 4105,-166 4105,-130 4255,-130 4255,-166"/>
<text text-anchor="middle" x="4180" y="-144.9" font-family="Times New Roman,serif" font-size="12.00">Loan__application_approved</text>
</g>
<!-- 1487278898720 -->
<g id="node46" class="node">
<title>1487278898720</title>
<ellipse fill="none" stroke="black" cx="4322" cy="-148" rx="27" ry="27"/>
<ellipse fill="none" stroke="black" cx="4322" cy="-148" rx="31" ry="31"/>
<text text-anchor="start" x="4312" y="-139.9" font-family="Times New Roman,serif" font-size="32.00">■</text>
</g>
<!-- 1487279117600&#45;&gt;1487278898720 -->
<g id="edge2" class="edge">
<title>1487279117600&#45;&gt;1487278898720</title>
<path fill="none" stroke="black" d="M4255.1,-148C4263.86,-148 4272.53,-148 4280.56,-148"/>
<polygon fill="black" stroke="black" points="4280.71,-151.5 4290.71,-148 4280.71,-144.5 4280.71,-151.5"/>
</g>
<!-- 1487279117984 -->
<g id="node12" class="node">
<title>1487279117984</title>
<polygon fill="none" stroke="black" points="3974.5,-233 3871.5,-233 3871.5,-197 3974.5,-197 3974.5,-233"/>
<text text-anchor="middle" x="3923" y="-211.9" font-family="Times New Roman,serif" font-size="12.00">Cancel_application</text>
</g>
<!-- 1487279117792 -->
<g id="node42" class="node">
<title>1487279117792</title>
<ellipse fill="none" stroke="black" cx="4042" cy="-220" rx="27" ry="27"/>
</g>
<!-- 1487279117984&#45;&gt;1487279117792 -->
<g id="edge9" class="edge">
<title>1487279117984&#45;&gt;1487279117792</title>
<path fill="none" stroke="black" d="M3974.64,-217.16C3984.69,-217.59 3995.06,-218.04 4004.52,-218.44"/>
<polygon fill="black" stroke="black" points="4004.62,-221.95 4014.76,-218.88 4004.92,-214.95 4004.62,-221.95"/>
</g>
<!-- 1487279045168 -->
<g id="node13" class="node">
<title>1487279045168</title>
<polygon fill="none" stroke="black" points="1220,-113 1106,-113 1106,-77 1220,-77 1220,-113"/>
<text text-anchor="middle" x="1163" y="-91.9" font-family="Times New Roman,serif" font-size="12.00">Check_credit_history</text>
</g>
<!-- 1487279046080 -->
<g id="node30" class="node">
<title>1487279046080</title>
<ellipse fill="none" stroke="black" cx="1283" cy="-97" rx="27" ry="27"/>
</g>
<!-- 1487279045168&#45;&gt;1487279046080 -->
<g id="edge3" class="edge">
<title>1487279045168&#45;&gt;1487279046080</title>
<path fill="none" stroke="black" d="M1220.24,-95.95C1228.9,-96.1 1237.65,-96.25 1245.73,-96.39"/>
<polygon fill="black" stroke="black" points="1245.84,-99.89 1255.89,-96.56 1245.96,-92.89 1245.84,-99.89"/>
</g>
<!-- 1487279118272 -->
<g id="node14" class="node">
<title>1487279118272</title>
<polygon fill="none" stroke="black" points="4253,-229 4107,-229 4107,-193 4253,-193 4253,-229"/>
<text text-anchor="middle" x="4180" y="-207.9" font-family="Times New Roman,serif" font-size="12.00">Loan__application_canceled</text>
</g>
<!-- 1487279118272&#45;&gt;1487278898720 -->
<g id="edge8" class="edge">
<title>1487279118272&#45;&gt;1487278898720</title>
<path fill="none" stroke="black" d="M4221.12,-192.95C4240.98,-184.01 4264.79,-173.3 4284.18,-164.57"/>
<polygon fill="black" stroke="black" points="4285.62,-167.76 4293.31,-160.46 4282.75,-161.37 4285.62,-167.76"/>
</g>
<!-- 1487278733392 -->
<g id="node15" class="node">
<title>1487278733392</title>
<polygon fill="none" stroke="black" points="800,-122 593,-122 593,-86 800,-86 800,-122"/>
<text text-anchor="middle" x="696.5" y="-100.9" font-family="Times New Roman,serif" font-size="12.00">Check__application__form_completeness</text>
</g>
<!-- 1487278734640 -->
<g id="node44" class="node">
<title>1487278734640</title>
<ellipse fill="none" stroke="black" cx="863" cy="-127" rx="27" ry="27"/>
</g>
<!-- 1487278733392&#45;&gt;1487278734640 -->
<g id="edge1" class="edge">
<title>1487278733392&#45;&gt;1487278734640</title>
<path fill="none" stroke="black" d="M800.28,-118.37C809.3,-119.63 817.96,-120.84 825.81,-121.94"/>
<polygon fill="black" stroke="black" points="825.56,-125.44 835.95,-123.36 826.53,-118.51 825.56,-125.44"/>
</g>
<!-- 1487279045456 -->
<g id="node16" class="node">
<title>1487279045456</title>
<polygon fill="none" stroke="black" points="1214.5,-180 1111.5,-180 1111.5,-144 1214.5,-144 1214.5,-180"/>
<text text-anchor="middle" x="1163" y="-158.9" font-family="Times New Roman,serif" font-size="12.00">Appraise_property</text>
</g>
<!-- 1487279044448 -->
<g id="node27" class="node">
<title>1487279044448</title>
<ellipse fill="none" stroke="black" cx="1393.5" cy="-162" rx="27" ry="27"/>
</g>
<!-- 1487279045456&#45;&gt;1487279044448 -->
<g id="edge10" class="edge">
<title>1487279045456&#45;&gt;1487279044448</title>
<path fill="none" stroke="black" d="M1214.71,-162C1257.62,-162 1318.05,-162 1356.24,-162"/>
<polygon fill="black" stroke="black" points="1356.39,-165.5 1366.39,-162 1356.39,-158.5 1356.39,-165.5"/>
</g>
<!-- 1487279046608 -->
<g id="node17" class="node">
<title>1487279046608</title>
<polygon fill="none" stroke="black" points="1441,-116 1346,-116 1346,-80 1441,-80 1441,-116"/>
<text text-anchor="middle" x="1393.5" y="-94.9" font-family="Times New Roman,serif" font-size="12.00">Assess_loan_risk</text>
</g>
<!-- 1487279045120 -->
<g id="node29" class="node">
<title>1487279045120</title>
<ellipse fill="none" stroke="black" cx="1504" cy="-102" rx="27" ry="27"/>
</g>
<!-- 1487279046608&#45;&gt;1487279045120 -->
<g id="edge19" class="edge">
<title>1487279046608&#45;&gt;1487279045120</title>
<path fill="none" stroke="black" d="M1441.14,-99.72C1449.61,-100.03 1458.33,-100.35 1466.45,-100.65"/>
<polygon fill="black" stroke="black" points="1466.6,-104.16 1476.72,-101.03 1466.85,-97.16 1466.6,-104.16"/>
</g>
<!-- 1487279043296 -->
<g id="node18" class="node">
<title>1487279043296</title>
<polygon fill="black" stroke="black" points="980,-145 926,-145 926,-109 980,-109 980,-145"/>
</g>
<!-- 1487279044256 -->
<g id="node26" class="node">
<title>1487279044256</title>
<ellipse fill="none" stroke="black" cx="1043" cy="-163" rx="27" ry="27"/>
</g>
<!-- 1487279043296&#45;&gt;1487279044256 -->
<g id="edge47" class="edge">
<title>1487279043296&#45;&gt;1487279044256</title>
<path fill="none" stroke="black" d="M980.4,-137.8C989.2,-141.4 999.11,-145.45 1008.37,-149.24"/>
<polygon fill="black" stroke="black" points="1007.14,-152.52 1017.72,-153.07 1009.79,-146.04 1007.14,-152.52"/>
</g>
<!-- 1487279046416 -->
<g id="node28" class="node">
<title>1487279046416</title>
<ellipse fill="none" stroke="black" cx="1043" cy="-91" rx="27" ry="27"/>
</g>
<!-- 1487279043296&#45;&gt;1487279046416 -->
<g id="edge48" class="edge">
<title>1487279043296&#45;&gt;1487279046416</title>
<path fill="none" stroke="black" d="M980.4,-116.2C989.2,-112.6 999.11,-108.55 1008.37,-104.76"/>
<polygon fill="black" stroke="black" points="1009.79,-107.96 1017.72,-100.93 1007.14,-101.48 1009.79,-107.96"/>
</g>
<!-- 1487279322592 -->
<g id="node19" class="node">
<title>1487279322592</title>
<polygon fill="none" stroke="black" points="2276,-111 2139,-111 2139,-75 2276,-75 2276,-111"/>
<text text-anchor="middle" x="2207.5" y="-89.9" font-family="Times New Roman,serif" font-size="12.00">Loan_application_rejected</text>
</g>
<!-- 1487279322592&#45;&gt;1487278898720 -->
<g id="edge15" class="edge">
<title>1487279322592&#45;&gt;1487278898720</title>
<path fill="none" stroke="black" d="M2276.2,-93C2355.14,-93 2489.53,-93 2605,-93 2605,-93 2605,-93 4043,-93 4138.04,-93 4163.15,-96.58 4255,-121 4264.68,-123.57 4274.83,-127.22 4284.19,-131"/>
<polygon fill="black" stroke="black" points="4283.03,-134.3 4293.61,-134.95 4285.74,-127.85 4283.03,-134.3"/>
</g>
<!-- 1487279323360 -->
<g id="node20" class="node">
<title>1487279323360</title>
<polygon fill="#ff0000" stroke="black" points="2543,-217 2312,-217 2312,-181 2543,-181 2543,-217"/>
<text text-anchor="middle" x="2427.5" y="-195.9" font-family="Times New Roman,serif" font-size="12.00">Check_if_home_insurance_quote_is_requested</text>
</g>
<!-- 1487279322400 -->
<g id="node37" class="node">
<title>1487279322400</title>
<ellipse fill="none" stroke="black" cx="2606" cy="-204" rx="27" ry="27"/>
</g>
<!-- 1487279323360&#45;&gt;1487279322400 -->
<g id="edge4" class="edge">
<title>1487279323360&#45;&gt;1487279322400</title>
<path fill="none" stroke="black" d="M2543.27,-202.25C2552.32,-202.51 2560.97,-202.75 2568.76,-202.97"/>
<polygon fill="black" stroke="black" points="2568.74,-206.47 2578.84,-203.26 2568.94,-199.48 2568.74,-206.47"/>
</g>
<!-- 1487279322736 -->
<g id="node21" class="node">
<title>1487279322736</title>
<polygon fill="black" stroke="black" points="2103,-183 2049,-183 2049,-147 2103,-147 2103,-183"/>
</g>
<!-- 1487279322256 -->
<g id="node35" class="node">
<title>1487279322256</title>
<ellipse fill="none" stroke="black" cx="2207.5" cy="-165" rx="27" ry="27"/>
</g>
<!-- 1487279322736&#45;&gt;1487279322256 -->
<g id="edge21" class="edge">
<title>1487279322736&#45;&gt;1487279322256</title>
<path fill="none" stroke="black" d="M2103.21,-165C2122.43,-165 2148.77,-165 2170.04,-165"/>
<polygon fill="black" stroke="black" points="2170.33,-168.5 2180.33,-165 2170.33,-161.5 2170.33,-168.5"/>
</g>
<!-- 1487278899056 -->
<g id="node22" class="node">
<title>1487278899056</title>
<polygon fill="none" stroke="black" points="464.5,-54 319.5,-54 319.5,-18 464.5,-18 464.5,-54"/>
<text text-anchor="middle" x="392" y="-32.9" font-family="Times New Roman,serif" font-size="12.00">Loan__application_received</text>
</g>
<!-- 1487278899056&#45;&gt;1487278733344 -->
<g id="edge13" class="edge">
<title>1487278899056&#45;&gt;1487278733344</title>
<path fill="none" stroke="black" d="M431.97,-54.05C452.12,-63.38 476.44,-74.65 495.7,-83.57"/>
<polygon fill="black" stroke="black" points="494.44,-86.85 504.98,-87.87 497.38,-80.49 494.44,-86.85"/>
</g>
<!-- 1487279324656 -->
<g id="node23" class="node">
<title>1487279324656</title>
<polygon fill="#ff0000" stroke="black" points="3285,-222 3160,-222 3160,-186 3285,-186 3285,-222"/>
<text text-anchor="middle" x="3222.5" y="-200.9" font-family="Times New Roman,serif" font-size="12.00">Send_acceptance_pack</text>
</g>
<!-- 1487279324464 -->
<g id="node40" class="node">
<title>1487279324464</title>
<ellipse fill="none" stroke="black" cx="3348" cy="-204" rx="27" ry="27"/>
</g>
<!-- 1487279324656&#45;&gt;1487279324464 -->
<g id="edge16" class="edge">
<title>1487279324656&#45;&gt;1487279324464</title>
<path fill="none" stroke="black" d="M3285.25,-204C3293.97,-204 3302.69,-204 3310.72,-204"/>
<polygon fill="black" stroke="black" points="3310.81,-207.5 3320.81,-204 3310.81,-200.5 3310.81,-207.5"/>
</g>
<!-- 1487279116400 -->
<g id="node24" class="node">
<title>1487279116400</title>
<polygon fill="black" stroke="black" points="3741,-168 3687,-168 3687,-132 3741,-132 3741,-168"/>
</g>
<!-- 1487279116400&#45;&gt;1487279322256 -->
<g id="edge49" class="edge">
<title>1487279116400&#45;&gt;1487279322256</title>
<path fill="none" stroke="black" d="M3686.9,-149.81C3644.82,-149.52 3559.39,-149 3487,-149 2605,-149 2605,-149 2605,-149 2471.98,-149 2314.05,-158.1 2244.47,-162.58"/>
<polygon fill="black" stroke="black" points="2244.22,-159.08 2234.46,-163.23 2244.67,-166.07 2244.22,-159.08"/>
</g>
<!-- 1487278898672 -->
<g id="node25" class="node">
<title>1487278898672</title>
<ellipse fill="none" stroke="black" cx="254" cy="-27" rx="27" ry="27"/>
<text text-anchor="start" x="243" y="-18.3" font-family="Times New Roman,serif" font-size="34.00">●</text>
</g>
<!-- 1487278898672&#45;&gt;1487278899056 -->
<g id="edge50" class="edge">
<title>1487278898672&#45;&gt;1487278899056</title>
<path fill="none" stroke="black" d="M281.22,-28.74C289.5,-29.28 299.13,-29.92 309.18,-30.59"/>
<polygon fill="black" stroke="black" points="309.12,-34.09 319.33,-31.26 309.58,-27.1 309.12,-34.09"/>
</g>
<!-- 1487279044256&#45;&gt;1487279045456 -->
<g id="edge22" class="edge">
<title>1487279044256&#45;&gt;1487279045456</title>
<path fill="none" stroke="black" d="M1070.19,-162.78C1079.44,-162.7 1090.27,-162.61 1101.19,-162.52"/>
<polygon fill="black" stroke="black" points="1101.22,-166.02 1111.19,-162.43 1101.16,-159.02 1101.22,-166.02"/>
</g>
<!-- 1487279044448&#45;&gt;1487279046272 -->
<g id="edge23" class="edge">
<title>1487279044448&#45;&gt;1487279046272</title>
<path fill="none" stroke="black" d="M1420.3,-158.08C1453.81,-153 1513.2,-143.99 1557.02,-137.34"/>
<polygon fill="black" stroke="black" points="1557.59,-140.8 1566.95,-135.83 1556.54,-133.87 1557.59,-140.8"/>
</g>
<!-- 1487279046416&#45;&gt;1487279045168 -->
<g id="edge24" class="edge">
<title>1487279046416&#45;&gt;1487279045168</title>
<path fill="none" stroke="black" d="M1070.19,-91.89C1077.88,-92.15 1086.67,-92.45 1095.69,-92.75"/>
<polygon fill="black" stroke="black" points="1095.81,-96.26 1105.93,-93.1 1096.05,-89.26 1095.81,-96.26"/>
</g>
<!-- 1487279045120&#45;&gt;1487279046272 -->
<g id="edge25" class="edge">
<title>1487279045120&#45;&gt;1487279046272</title>
<path fill="none" stroke="black" d="M1530.36,-108.4C1538.35,-110.41 1547.5,-112.72 1556.73,-115.05"/>
<polygon fill="black" stroke="black" points="1556.17,-118.52 1566.72,-117.57 1557.88,-111.73 1556.17,-118.52"/>
</g>
<!-- 1487279046080&#45;&gt;1487279046608 -->
<g id="edge26" class="edge">
<title>1487279046080&#45;&gt;1487279046608</title>
<path fill="none" stroke="black" d="M1310.26,-97.24C1318.01,-97.31 1326.81,-97.39 1335.69,-97.48"/>
<polygon fill="black" stroke="black" points="1335.68,-100.98 1345.71,-97.57 1335.75,-93.98 1335.68,-100.98"/>
</g>
<!-- 1487279044208&#45;&gt;1487279321728 -->
<g id="edge28" class="edge">
<title>1487279044208&#45;&gt;1487279321728</title>
<path fill="none" stroke="black" d="M1748.37,-135.05C1756.22,-136.92 1765.3,-139.09 1774.78,-141.35"/>
<polygon fill="black" stroke="black" points="1774.23,-144.81 1784.76,-143.73 1775.85,-138 1774.23,-144.81"/>
</g>
<!-- 1487279044208&#45;&gt;1487279044880 -->
<g id="edge27" class="edge">
<title>1487279044208&#45;&gt;1487279044880</title>
<path fill="none" stroke="black" d="M1748.68,-123.67C1761.49,-121.01 1777.56,-117.67 1793.22,-114.42"/>
<polygon fill="black" stroke="black" points="1794.34,-117.76 1803.42,-112.3 1792.92,-110.9 1794.34,-117.76"/>
</g>
<!-- 1487279045888&#45;&gt;1487279322592 -->
<g id="edge29" class="edge">
<title>1487279045888&#45;&gt;1487279322592</title>
<path fill="none" stroke="black" d="M2013.04,-93C2041.41,-93 2088.16,-93 2128.59,-93"/>
<polygon fill="black" stroke="black" points="2128.72,-96.5 2138.72,-93 2128.72,-89.5 2128.72,-96.5"/>
</g>
<!-- 1487279323552&#45;&gt;1487279322736 -->
<g id="edge30" class="edge">
<title>1487279323552&#45;&gt;1487279322736</title>
<path fill="none" stroke="black" d="M2013.4,-165C2021.39,-165 2030.31,-165 2038.82,-165"/>
<polygon fill="black" stroke="black" points="2038.92,-168.5 2048.92,-165 2038.92,-161.5 2038.92,-168.5"/>
</g>
<!-- 1487279322688&#45;&gt;1487279117312 -->
<g id="edge32" class="edge">
<title>1487279322688&#45;&gt;1487279117312</title>
<path fill="none" stroke="black" d="M3829.24,-194.26C3840.34,-189.8 3853.97,-184.33 3867.34,-178.96"/>
<polygon fill="black" stroke="black" points="3869.01,-182.06 3876.98,-175.08 3866.4,-175.56 3869.01,-182.06"/>
</g>
<!-- 1487279322688&#45;&gt;1487279117984 -->
<g id="edge31" class="edge">
<title>1487279322688&#45;&gt;1487279117984</title>
<path fill="none" stroke="black" d="M3830.97,-206.44C3839.95,-207.29 3850.42,-208.27 3861.01,-209.27"/>
<polygon fill="black" stroke="black" points="3860.87,-212.77 3871.15,-210.22 3861.52,-205.8 3860.87,-212.77"/>
</g>
<!-- 1487279322256&#45;&gt;1487279323360 -->
<g id="edge33" class="edge">
<title>1487279322256&#45;&gt;1487279323360</title>
<path fill="none" stroke="black" d="M2234.36,-169.03C2251.74,-171.74 2276.05,-175.54 2301.55,-179.51"/>
<polygon fill="black" stroke="black" points="2301.34,-183.02 2311.76,-181.1 2302.42,-176.11 2301.34,-183.02"/>
</g>
<!-- 1487279321920&#45;&gt;1487279116688 -->
<g id="edge34" class="edge">
<title>1487279321920&#45;&gt;1487279116688</title>
<path fill="none" stroke="black" d="M3651.4,-204C3659.39,-204 3668.31,-204 3676.82,-204"/>
<polygon fill="black" stroke="black" points="3676.92,-207.5 3686.92,-204 3676.92,-200.5 3676.92,-207.5"/>
</g>
<!-- 1487279321920&#45;&gt;1487279116400 -->
<g id="edge35" class="edge">
<title>1487279321920&#45;&gt;1487279116400</title>
<path fill="none" stroke="black" d="M3647.66,-190.09C3656.96,-184.39 3667.93,-177.66 3678.2,-171.35"/>
<polygon fill="black" stroke="black" points="3680.3,-174.18 3686.99,-165.96 3676.63,-168.21 3680.3,-174.18"/>
</g>
<!-- 1487279322400&#45;&gt;1487279322496 -->
<g id="edge36" class="edge">
<title>1487279322400&#45;&gt;1487279322496</title>
<path fill="none" stroke="black" d="M2633.22,-204C2640.82,-204 2649.55,-204 2658.7,-204"/>
<polygon fill="black" stroke="black" points="2658.76,-207.5 2668.76,-204 2658.76,-200.5 2658.76,-207.5"/>
</g>
<!-- 1487279321536&#45;&gt;1487279324032 -->
<g id="edge37" class="edge">
<title>1487279321536&#45;&gt;1487279324032</title>
<path fill="none" stroke="black" d="M2909.08,-204C2916.88,-204 2925.74,-204 2934.64,-204"/>
<polygon fill="black" stroke="black" points="2934.66,-207.5 2944.66,-204 2934.66,-200.5 2934.66,-207.5"/>
</g>
<!-- 1487279323456&#45;&gt;1487279324656 -->
<g id="edge38" class="edge">
<title>1487279323456&#45;&gt;1487279324656</title>
<path fill="none" stroke="black" d="M3124.19,-204C3131.8,-204 3140.51,-204 3149.52,-204"/>
<polygon fill="black" stroke="black" points="3149.77,-207.5 3159.77,-204 3149.77,-200.5 3149.77,-207.5"/>
</g>
<!-- 1487279324464&#45;&gt;1487279324944 -->
<g id="edge39" class="edge">
<title>1487279324464&#45;&gt;1487279324944</title>
<path fill="none" stroke="black" d="M3375.22,-204C3382.82,-204 3391.55,-204 3400.7,-204"/>
<polygon fill="black" stroke="black" points="3400.76,-207.5 3410.76,-204 3400.76,-200.5 3400.76,-207.5"/>
</g>
<!-- 1487279321872&#45;&gt;1487279117600 -->
<g id="edge40" class="edge">
<title>1487279321872&#45;&gt;1487279117600</title>
<path fill="none" stroke="black" d="M4069.22,-148C4076.82,-148 4085.55,-148 4094.7,-148"/>
<polygon fill="black" stroke="black" points="4094.76,-151.5 4104.76,-148 4094.76,-144.5 4094.76,-151.5"/>
</g>
<!-- 1487279117792&#45;&gt;1487279118272 -->
<g id="edge41" class="edge">
<title>1487279117792&#45;&gt;1487279118272</title>
<path fill="none" stroke="black" d="M4069.22,-218.26C4077.38,-217.72 4086.86,-217.1 4096.75,-216.44"/>
<polygon fill="black" stroke="black" points="4097.01,-219.93 4106.76,-215.78 4096.55,-212.95 4097.01,-219.93"/>
</g>
<!-- 1487278733344&#45;&gt;1487278733392 -->
<g id="edge42" class="edge">
<title>1487278733344&#45;&gt;1487278733392</title>
<path fill="none" stroke="black" d="M557.07,-99.79C564.66,-100.02 573.49,-100.29 582.93,-100.58"/>
<polygon fill="black" stroke="black" points="582.87,-104.08 592.97,-100.88 583.08,-97.08 582.87,-104.08"/>
</g>
<!-- 1487278734640&#45;&gt;1487279042816 -->
<g id="edge43" class="edge">
<title>1487278734640&#45;&gt;1487279042816</title>
<path fill="none" stroke="black" d="M835.88,-130.59C780.05,-137.93 644.87,-154 531,-154 391,-154 391,-154 391,-154 327.77,-154 257.25,-147.52 201.07,-140.8"/>
<polygon fill="black" stroke="black" points="201.46,-137.32 191.11,-139.59 200.62,-144.27 201.46,-137.32"/>
</g>
<!-- 1487278734640&#45;&gt;1487279043296 -->
<g id="edge44" class="edge">
<title>1487278734640&#45;&gt;1487279043296</title>
<path fill="none" stroke="black" d="M890.4,-127C898.39,-127 907.31,-127 915.82,-127"/>
<polygon fill="black" stroke="black" points="915.92,-130.5 925.92,-127 915.92,-123.5 915.92,-130.5"/>
</g>
<!-- 1487279042624&#45;&gt;1487279043104 -->
<g id="edge45" class="edge">
<title>1487279042624&#45;&gt;1487279043104</title>
<path fill="none" stroke="black" d="M281.22,-99C288.82,-99 297.55,-99 306.7,-99"/>
<polygon fill="black" stroke="black" points="306.76,-102.5 316.76,-99 306.76,-95.5 306.76,-102.5"/>
</g>
</g>
</svg>
