<?xml version="1.0" encoding="UTF-8" standalone="no"?>
<!DOCTYPE svg PUBLIC "-//W3C//DTD SVG 1.1//EN"
 "http://www.w3.org/Graphics/SVG/1.1/DTD/svg11.dtd">
<!-- Generated by graphviz version 2.49.0 (20210828.1703)
 -->
<!-- Title: imdf_net_1655279246.048521 Pages: 1 -->
<svg width="3761pt" height="463pt"
 viewBox="0.00 0.00 3761.00 463.00" xmlns="http://www.w3.org/2000/svg" xmlns:xlink="http://www.w3.org/1999/xlink">
<g id="graph0" class="graph" transform="scale(1 1) rotate(0) translate(4 459)">
<title>imdf_net_1655279246.048521</title>
<!-- 2146545986432 -->
<g id="node1" class="node">
<title>2146545986432</title>
<polygon fill="none" stroke="black" points="533.5,-192 430.5,-192 430.5,-156 533.5,-156 533.5,-192"/>
<text text-anchor="middle" x="482" y="-170.9" font-family="Times New Roman,serif" font-size="12.00">Appraise_property</text>
</g>
<!-- 2146545985856 -->
<g id="node28" class="node">
<title>2146545985856</title>
<ellipse fill="none" stroke="black" cx="953" cy="-174" rx="27" ry="27"/>
</g>
<!-- 2146545986432&#45;&gt;2146545985856 -->
<g id="edge15" class="edge">
<title>2146545986432&#45;&gt;2146545985856</title>
<path fill="none" stroke="black" d="M533.64,-174C628.94,-174 832.83,-174 915.78,-174"/>
<polygon fill="black" stroke="black" points="915.97,-177.5 925.97,-174 915.97,-170.5 915.97,-177.5"/>
</g>
<!-- 2146545943168 -->
<g id="node2" class="node">
<title>2146545943168</title>
<polygon fill="none" stroke="black" points="2364,-173 2214,-173 2214,-137 2364,-137 2364,-173"/>
<text text-anchor="middle" x="2289" y="-151.9" font-family="Times New Roman,serif" font-size="12.00">Verify_repayment_agreement</text>
</g>
<!-- 2146545944848 -->
<g id="node37" class="node">
<title>2146545944848</title>
<ellipse fill="none" stroke="black" cx="2427" cy="-155" rx="27" ry="27"/>
</g>
<!-- 2146545943168&#45;&gt;2146545944848 -->
<g id="edge12" class="edge">
<title>2146545943168&#45;&gt;2146545944848</title>
<path fill="none" stroke="black" d="M2364.37,-155C2373.15,-155 2381.79,-155 2389.69,-155"/>
<polygon fill="black" stroke="black" points="2389.96,-158.5 2399.96,-155 2389.96,-151.5 2389.96,-158.5"/>
</g>
<!-- 2146546390016 -->
<g id="node3" class="node">
<title>2146546390016</title>
<polygon fill="#ff0000" stroke="black" points="3107,-117 2957,-117 2957,-81 3107,-81 3107,-117"/>
<text text-anchor="middle" x="3032" y="-95.9" font-family="Times New Roman,serif" font-size="12.00">Verify_repayment_agreement</text>
</g>
<!-- 2146546389728 -->
<g id="node43" class="node">
<title>2146546389728</title>
<ellipse fill="none" stroke="black" cx="3170" cy="-99" rx="27" ry="27"/>
</g>
<!-- 2146546390016&#45;&gt;2146546389728 -->
<g id="edge7" class="edge">
<title>2146546390016&#45;&gt;2146546389728</title>
<path fill="none" stroke="black" d="M3107.37,-99C3116.15,-99 3124.79,-99 3132.69,-99"/>
<polygon fill="black" stroke="black" points="3132.96,-102.5 3142.96,-99 3132.96,-95.5 3132.96,-102.5"/>
</g>
<!-- 2146546391936 -->
<g id="node4" class="node">
<title>2146546391936</title>
<polygon fill="none" stroke="black" points="3379,-218 3233,-218 3233,-182 3379,-182 3379,-218"/>
<text text-anchor="middle" x="3306" y="-196.9" font-family="Times New Roman,serif" font-size="12.00">Loan__application_canceled</text>
</g>
<!-- 2146546001568 -->
<g id="node48" class="node">
<title>2146546001568</title>
<ellipse fill="none" stroke="black" cx="3722" cy="-200" rx="27" ry="27"/>
<ellipse fill="none" stroke="black" cx="3722" cy="-200" rx="31" ry="31"/>
<text text-anchor="start" x="3712" y="-191.9" font-family="Times New Roman,serif" font-size="32.00">■</text>
</g>
<!-- 2146546391936&#45;&gt;2146546001568 -->
<g id="edge22" class="edge">
<title>2146546391936&#45;&gt;2146546001568</title>
<path fill="none" stroke="black" d="M3379.11,-200C3466.59,-200 3611.01,-200 3680.79,-200"/>
<polygon fill="black" stroke="black" points="3680.92,-203.5 3690.92,-200 3680.92,-196.5 3680.92,-203.5"/>
</g>
<!-- 2146545986960 -->
<g id="node5" class="node">
<title>2146545986960</title>
<polygon fill="none" stroke="black" points="1372,-201 1234,-201 1234,-165 1372,-165 1372,-201"/>
<text text-anchor="middle" x="1303" y="-179.9" font-family="Times New Roman,serif" font-size="12.00">Prepare_acceptance_pack</text>
</g>
<!-- 2146545987104 -->
<g id="node34" class="node">
<title>2146545987104</title>
<ellipse fill="none" stroke="black" cx="1435" cy="-174" rx="27" ry="27"/>
</g>
<!-- 2146545986960&#45;&gt;2146545987104 -->
<g id="edge18" class="edge">
<title>2146545986960&#45;&gt;2146545987104</title>
<path fill="none" stroke="black" d="M1372.05,-178.29C1380.93,-177.67 1389.74,-177.06 1397.81,-176.51"/>
<polygon fill="black" stroke="black" points="1398.19,-179.99 1407.93,-175.81 1397.71,-173 1398.19,-179.99"/>
</g>
<!-- 2146545886112 -->
<g id="node6" class="node">
<title>2146545886112</title>
<polygon fill="none" stroke="black" points="890,-346 683,-346 683,-310 890,-310 890,-346"/>
<text text-anchor="middle" x="786.5" y="-324.9" font-family="Times New Roman,serif" font-size="12.00">Check__application__form_completeness</text>
</g>
<!-- 2146546003824 -->
<g id="node46" class="node">
<title>2146546003824</title>
<ellipse fill="none" stroke="black" cx="27" cy="-301" rx="27" ry="27"/>
</g>
<!-- 2146545886112&#45;&gt;2146546003824 -->
<g id="edge23" class="edge">
<title>2146545886112&#45;&gt;2146546003824</title>
<path fill="none" stroke="black" d="M682.79,-314.26C624.34,-307.59 549.7,-301 483,-301 343,-301 343,-301 343,-301 242.09,-301 123,-301 64.36,-301"/>
<polygon fill="black" stroke="black" points="64.14,-297.5 54.14,-301 64.14,-304.5 64.14,-297.5"/>
</g>
<!-- 2146545985184 -->
<g id="node7" class="node">
<title>2146545985184</title>
<polygon fill="none" stroke="black" points="834,-264 739,-264 739,-228 834,-228 834,-264"/>
<text text-anchor="middle" x="786.5" y="-242.9" font-family="Times New Roman,serif" font-size="12.00">Assess_loan_risk</text>
</g>
<!-- 2146545983840 -->
<g id="node30" class="node">
<title>2146545983840</title>
<ellipse fill="none" stroke="black" cx="953" cy="-246" rx="27" ry="27"/>
</g>
<!-- 2146545985184&#45;&gt;2146545983840 -->
<g id="edge9" class="edge">
<title>2146545985184&#45;&gt;2146545983840</title>
<path fill="none" stroke="black" d="M834.2,-246C860.01,-246 891.62,-246 915.59,-246"/>
<polygon fill="black" stroke="black" points="915.68,-249.5 925.68,-246 915.68,-242.5 915.68,-249.5"/>
</g>
<!-- 2146545986720 -->
<g id="node8" class="node">
<title>2146545986720</title>
<polygon fill="none" stroke="black" points="1353.5,-259 1252.5,-259 1252.5,-223 1353.5,-223 1353.5,-259"/>
<text text-anchor="middle" x="1303" y="-237.9" font-family="Times New Roman,serif" font-size="12.00">Reject_application</text>
</g>
<!-- 2146545986336 -->
<g id="node33" class="node">
<title>2146545986336</title>
<ellipse fill="none" stroke="black" cx="1435" cy="-246" rx="27" ry="27"/>
</g>
<!-- 2146545986720&#45;&gt;2146545986336 -->
<g id="edge14" class="edge">
<title>2146545986720&#45;&gt;2146545986336</title>
<path fill="none" stroke="black" d="M1353.52,-242.9C1368.27,-243.47 1384.15,-244.08 1397.88,-244.61"/>
<polygon fill="black" stroke="black" points="1397.77,-248.11 1407.9,-245 1398.04,-241.11 1397.77,-248.11"/>
</g>
<!-- 2146545945520 -->
<g id="node9" class="node">
<title>2146545945520</title>
<polygon fill="black" stroke="black" points="2568.5,-142 2514.5,-142 2514.5,-106 2568.5,-106 2568.5,-142"/>
</g>
<!-- 2146545945232 -->
<g id="node38" class="node">
<title>2146545945232</title>
<ellipse fill="none" stroke="black" cx="2656" cy="-119" rx="27" ry="27"/>
</g>
<!-- 2146545945520&#45;&gt;2146545945232 -->
<g id="edge24" class="edge">
<title>2146545945520&#45;&gt;2146545945232</title>
<path fill="none" stroke="black" d="M2568.59,-122.84C2583.39,-122.18 2602.15,-121.35 2618.41,-120.63"/>
<polygon fill="black" stroke="black" points="2618.82,-124.11 2628.66,-120.17 2618.51,-117.12 2618.82,-124.11"/>
</g>
<!-- 2146545945904 -->
<g id="node10" class="node">
<title>2146545945904</title>
<polygon fill="#ff0000" stroke="black" points="3350.5,-117 3261.5,-117 3261.5,-81 3350.5,-81 3350.5,-117"/>
<text text-anchor="middle" x="3306" y="-95.9" font-family="Times New Roman,serif" font-size="12.00">Added_Acitvity</text>
</g>
<!-- 2146545943024 -->
<g id="node39" class="node">
<title>2146545943024</title>
<ellipse fill="none" stroke="black" cx="3442" cy="-99" rx="27" ry="27"/>
</g>
<!-- 2146545945904&#45;&gt;2146545943024 -->
<g id="edge21" class="edge">
<title>2146545945904&#45;&gt;2146545943024</title>
<path fill="none" stroke="black" d="M3350.51,-99C3367.93,-99 3387.79,-99 3404.45,-99"/>
<polygon fill="black" stroke="black" points="3404.88,-102.5 3414.88,-99 3404.88,-95.5 3404.88,-102.5"/>
</g>
<!-- 2146546390448 -->
<g id="node11" class="node">
<title>2146546390448</title>
<polygon fill="black" stroke="black" points="3607,-172 3553,-172 3553,-136 3607,-136 3607,-172"/>
</g>
<!-- 2146546390448&#45;&gt;2146545945232 -->
<g id="edge51" class="edge">
<title>2146546390448&#45;&gt;2146545945232</title>
<path fill="none" stroke="black" d="M3552.74,-154C3504.21,-154 3397.19,-154 3307,-154 2893,-154 2893,-154 2893,-154 2820.99,-154 2737.94,-137.86 2692.06,-127.5"/>
<polygon fill="black" stroke="black" points="2692.84,-124.09 2682.31,-125.26 2691.27,-130.91 2692.84,-124.09"/>
</g>
<!-- 2146545942832 -->
<g id="node12" class="node">
<title>2146545942832</title>
<polygon fill="none" stroke="black" points="3655,-118 3505,-118 3505,-82 3655,-82 3655,-118"/>
<text text-anchor="middle" x="3580" y="-96.9" font-family="Times New Roman,serif" font-size="12.00">Loan__application_approved</text>
</g>
<!-- 2146545942832&#45;&gt;2146546001568 -->
<g id="edge6" class="edge">
<title>2146545942832&#45;&gt;2146546001568</title>
<path fill="none" stroke="black" d="M3639.31,-118.15C3644.8,-120.77 3650.12,-123.71 3655,-127 3670.87,-137.69 3685.49,-153 3696.91,-166.85"/>
<polygon fill="black" stroke="black" points="3694.28,-169.15 3703.26,-174.78 3699.75,-164.78 3694.28,-169.15"/>
</g>
<!-- 2146545983552 -->
<g id="node13" class="node">
<title>2146545983552</title>
<polygon fill="black" stroke="black" points="212.5,-264 158.5,-264 158.5,-228 212.5,-228 212.5,-264"/>
</g>
<!-- 2146545985472 -->
<g id="node27" class="node">
<title>2146545985472</title>
<ellipse fill="none" stroke="black" cx="344" cy="-174" rx="27" ry="27"/>
</g>
<!-- 2146545983552&#45;&gt;2146545985472 -->
<g id="edge52" class="edge">
<title>2146545983552&#45;&gt;2146545985472</title>
<path fill="none" stroke="black" d="M212.69,-233.95C239.43,-221.65 281.01,-202.52 309.98,-189.19"/>
<polygon fill="black" stroke="black" points="311.66,-192.27 319.29,-184.91 308.74,-185.91 311.66,-192.27"/>
</g>
<!-- 2146545986816 -->
<g id="node29" class="node">
<title>2146545986816</title>
<ellipse fill="none" stroke="black" cx="344" cy="-246" rx="27" ry="27"/>
</g>
<!-- 2146545983552&#45;&gt;2146545986816 -->
<g id="edge53" class="edge">
<title>2146545983552&#45;&gt;2146545986816</title>
<path fill="none" stroke="black" d="M212.69,-246C238.5,-246 278.13,-246 306.91,-246"/>
<polygon fill="black" stroke="black" points="306.98,-249.5 316.98,-246 306.98,-242.5 306.98,-249.5"/>
</g>
<!-- 2146545943744 -->
<g id="node14" class="node">
<title>2146545943744</title>
<polygon fill="none" stroke="black" points="1729,-192 1498,-192 1498,-156 1729,-156 1729,-192"/>
<text text-anchor="middle" x="1613.5" y="-170.9" font-family="Times New Roman,serif" font-size="12.00">Check_if_home_insurance_quote_is_requested</text>
</g>
<!-- 2146545943600 -->
<g id="node35" class="node">
<title>2146545943600</title>
<ellipse fill="none" stroke="black" cx="1833.5" cy="-174" rx="27" ry="27"/>
</g>
<!-- 2146545943744&#45;&gt;2146545943600 -->
<g id="edge19" class="edge">
<title>2146545943744&#45;&gt;2146545943600</title>
<path fill="none" stroke="black" d="M1729.25,-174C1753.54,-174 1777.45,-174 1796.14,-174"/>
<polygon fill="black" stroke="black" points="1796.22,-177.5 1806.22,-174 1796.22,-170.5 1796.22,-177.5"/>
</g>
<!-- 2146545946048 -->
<g id="node15" class="node">
<title>2146545946048</title>
<polygon fill="none" stroke="black" points="2088,-151 1938,-151 1938,-115 2088,-115 2088,-151"/>
<text text-anchor="middle" x="2013" y="-129.9" font-family="Times New Roman,serif" font-size="12.00">Send_home_insurance_quote</text>
</g>
<!-- 2146545944752 -->
<g id="node36" class="node">
<title>2146545944752</title>
<ellipse fill="none" stroke="black" cx="2151" cy="-155" rx="27" ry="27"/>
</g>
<!-- 2146545946048&#45;&gt;2146545944752 -->
<g id="edge2" class="edge">
<title>2146545946048&#45;&gt;2146545944752</title>
<path fill="none" stroke="black" d="M2088.37,-145.03C2097.34,-146.48 2106.15,-147.91 2114.19,-149.21"/>
<polygon fill="black" stroke="black" points="2113.83,-152.69 2124.26,-150.84 2114.95,-145.78 2113.83,-152.69"/>
</g>
<!-- 2146545987392 -->
<g id="node16" class="node">
<title>2146545987392</title>
<polygon fill="none" stroke="black" points="1902,-264 1765,-264 1765,-228 1902,-228 1902,-264"/>
<text text-anchor="middle" x="1833.5" y="-242.9" font-family="Times New Roman,serif" font-size="12.00">Loan_application_rejected</text>
</g>
<!-- 2146545987392&#45;&gt;2146546001568 -->
<g id="edge8" class="edge">
<title>2146545987392&#45;&gt;2146546001568</title>
<path fill="none" stroke="black" d="M1902.2,-246C1966.09,-246 2064.55,-246 2150,-246 2150,-246 2150,-246 3443,-246 3529.4,-246 3628.91,-224.11 3682.31,-210.53"/>
<polygon fill="black" stroke="black" points="3683.24,-213.9 3692.04,-208.01 3681.49,-207.12 3683.24,-213.9"/>
</g>
<!-- 2146546002144 -->
<g id="node17" class="node">
<title>2146546002144</title>
<polygon fill="none" stroke="black" points="554.5,-374 409.5,-374 409.5,-338 554.5,-338 554.5,-374"/>
<text text-anchor="middle" x="482" y="-352.9" font-family="Times New Roman,serif" font-size="12.00">Loan__application_received</text>
</g>
<!-- 2146546002720 -->
<g id="node45" class="node">
<title>2146546002720</title>
<ellipse fill="none" stroke="black" cx="620" cy="-356" rx="27" ry="27"/>
</g>
<!-- 2146546002144&#45;&gt;2146546002720 -->
<g id="edge20" class="edge">
<title>2146546002144&#45;&gt;2146546002720</title>
<path fill="none" stroke="black" d="M554.58,-356C564.32,-356 573.96,-356 582.7,-356"/>
<polygon fill="black" stroke="black" points="582.85,-359.5 592.85,-356 582.85,-352.5 582.85,-359.5"/>
</g>
<!-- 2146545888224 -->
<g id="node18" class="node">
<title>2146545888224</title>
<polygon fill="none" stroke="black" points="281,-405 90,-405 90,-369 281,-369 281,-405"/>
<text text-anchor="middle" x="185.5" y="-383.9" font-family="Times New Roman,serif" font-size="12.00">Return_application_back_to_applicant</text>
</g>
<!-- 2146545885776 -->
<g id="node47" class="node">
<title>2146545885776</title>
<ellipse fill="none" stroke="black" cx="344" cy="-428" rx="27" ry="27"/>
</g>
<!-- 2146545888224&#45;&gt;2146545885776 -->
<g id="edge4" class="edge">
<title>2146545888224&#45;&gt;2146545885776</title>
<path fill="none" stroke="black" d="M255.6,-405.1C273.56,-409.81 292.18,-414.69 307.59,-418.72"/>
<polygon fill="black" stroke="black" points="307.14,-422.22 317.7,-421.37 308.91,-415.45 307.14,-422.22"/>
</g>
<!-- 2146545888992 -->
<g id="node19" class="node">
<title>2146545888992</title>
<polygon fill="none" stroke="black" points="557,-437 407,-437 407,-401 557,-401 557,-437"/>
<text text-anchor="middle" x="482" y="-415.9" font-family="Times New Roman,serif" font-size="12.00">Receive_updated_application</text>
</g>
<!-- 2146545888992&#45;&gt;2146546002720 -->
<g id="edge11" class="edge">
<title>2146545888992&#45;&gt;2146546002720</title>
<path fill="none" stroke="black" d="M521.97,-400.95C542.12,-391.62 566.44,-380.35 585.7,-371.43"/>
<polygon fill="black" stroke="black" points="587.38,-374.51 594.98,-367.13 584.44,-368.15 587.38,-374.51"/>
</g>
<!-- 2146545984608 -->
<g id="node20" class="node">
<title>2146545984608</title>
<polygon fill="none" stroke="black" points="539,-264 425,-264 425,-228 539,-228 539,-264"/>
<text text-anchor="middle" x="482" y="-242.9" font-family="Times New Roman,serif" font-size="12.00">Check_credit_history</text>
</g>
<!-- 2146545984224 -->
<g id="node31" class="node">
<title>2146545984224</title>
<ellipse fill="none" stroke="black" cx="620" cy="-246" rx="27" ry="27"/>
</g>
<!-- 2146545984608&#45;&gt;2146545984224 -->
<g id="edge10" class="edge">
<title>2146545984608&#45;&gt;2146545984224</title>
<path fill="none" stroke="black" d="M539.1,-246C553.77,-246 569.19,-246 582.54,-246"/>
<polygon fill="black" stroke="black" points="582.74,-249.5 592.74,-246 582.74,-242.5 582.74,-249.5"/>
</g>
<!-- 2146545945184 -->
<g id="node21" class="node">
<title>2146545945184</title>
<polygon fill="none" stroke="black" points="2075.5,-205 1950.5,-205 1950.5,-169 2075.5,-169 2075.5,-205"/>
<text text-anchor="middle" x="2013" y="-183.9" font-family="Times New Roman,serif" font-size="12.00">Send_acceptance_pack</text>
</g>
<!-- 2146545945184&#45;&gt;2146545944752 -->
<g id="edge13" class="edge">
<title>2146545945184&#45;&gt;2146545944752</title>
<path fill="none" stroke="black" d="M2075.63,-172.5C2089.01,-169.35 2102.71,-166.13 2114.65,-163.32"/>
<polygon fill="black" stroke="black" points="2115.71,-166.66 2124.64,-160.97 2114.1,-159.85 2115.71,-166.66"/>
</g>
<!-- 2146545944032 -->
<g id="node22" class="node">
<title>2146545944032</title>
<polygon fill="#ff0000" stroke="black" points="2831,-117 2719,-117 2719,-81 2831,-81 2831,-117"/>
<text text-anchor="middle" x="2775" y="-95.9" font-family="Times New Roman,serif" font-size="12.00">Approve_application</text>
</g>
<!-- 2146545945952 -->
<g id="node40" class="node">
<title>2146545945952</title>
<ellipse fill="none" stroke="black" cx="2894" cy="-27" rx="27" ry="27"/>
</g>
<!-- 2146545944032&#45;&gt;2146545945952 -->
<g id="edge16" class="edge">
<title>2146545944032&#45;&gt;2146545945952</title>
<path fill="none" stroke="black" d="M2805.52,-80.83C2822.7,-70.26 2844.34,-56.94 2861.8,-46.2"/>
<polygon fill="black" stroke="black" points="2863.82,-49.07 2870.5,-40.85 2860.15,-43.11 2863.82,-49.07"/>
</g>
<!-- 2146546389536 -->
<g id="node42" class="node">
<title>2146546389536</title>
<ellipse fill="none" stroke="black" cx="2894" cy="-99" rx="27" ry="27"/>
</g>
<!-- 2146545944032&#45;&gt;2146546389536 -->
<g id="edge17" class="edge">
<title>2146545944032&#45;&gt;2146546389536</title>
<path fill="none" stroke="black" d="M2831.07,-99C2839.73,-99 2848.48,-99 2856.58,-99"/>
<polygon fill="black" stroke="black" points="2856.77,-102.5 2866.77,-99 2856.77,-95.5 2856.77,-102.5"/>
</g>
<!-- 2146546389344 -->
<g id="node23" class="node">
<title>2146546389344</title>
<polygon fill="#ff0000" stroke="black" points="3101,-45 2963,-45 2963,-9 3101,-9 3101,-45"/>
<text text-anchor="middle" x="3032" y="-23.9" font-family="Times New Roman,serif" font-size="12.00">Prepare_acceptance_pack</text>
</g>
<!-- 2146545946528 -->
<g id="node41" class="node">
<title>2146545946528</title>
<ellipse fill="none" stroke="black" cx="3170" cy="-27" rx="27" ry="27"/>
</g>
<!-- 2146546389344&#45;&gt;2146545946528 -->
<g id="edge3" class="edge">
<title>2146546389344&#45;&gt;2146545946528</title>
<path fill="none" stroke="black" d="M3101.4,-27C3112.28,-27 3123.15,-27 3132.89,-27"/>
<polygon fill="black" stroke="black" points="3132.96,-30.5 3142.96,-27 3132.96,-23.5 3132.96,-30.5"/>
</g>
<!-- 2146546391648 -->
<g id="node24" class="node">
<title>2146546391648</title>
<polygon fill="none" stroke="black" points="2593,-200 2490,-200 2490,-164 2593,-164 2593,-200"/>
<text text-anchor="middle" x="2541.5" y="-178.9" font-family="Times New Roman,serif" font-size="12.00">Cancel_application</text>
</g>
<!-- 2146545943792 -->
<g id="node44" class="node">
<title>2146545943792</title>
<ellipse fill="none" stroke="black" cx="2656" cy="-191" rx="27" ry="27"/>
</g>
<!-- 2146546391648&#45;&gt;2146545943792 -->
<g id="edge5" class="edge">
<title>2146546391648&#45;&gt;2146545943792</title>
<path fill="none" stroke="black" d="M2593.16,-186.05C2601.85,-186.75 2610.72,-187.46 2618.93,-188.11"/>
<polygon fill="black" stroke="black" points="2618.67,-191.6 2628.92,-188.91 2619.23,-184.63 2618.67,-191.6"/>
</g>
<!-- 2146545985904 -->
<g id="node25" class="node">
<title>2146545985904</title>
<polygon fill="none" stroke="black" points="1108,-228 1016,-228 1016,-192 1108,-192 1108,-228"/>
<text text-anchor="middle" x="1062" y="-206.9" font-family="Times New Roman,serif" font-size="12.00">Assess_eligibility</text>
</g>
<!-- 2146545985424 -->
<g id="node32" class="node">
<title>2146545985424</title>
<ellipse fill="none" stroke="black" cx="1171" cy="-210" rx="27" ry="27"/>
</g>
<!-- 2146545985904&#45;&gt;2146545985424 -->
<g id="edge1" class="edge">
<title>2146545985904&#45;&gt;2146545985424</title>
<path fill="none" stroke="black" d="M1108.07,-210C1116.66,-210 1125.55,-210 1133.83,-210"/>
<polygon fill="black" stroke="black" points="1133.9,-213.5 1143.9,-210 1133.9,-206.5 1133.9,-213.5"/>
</g>
<!-- 2146546001376 -->
<g id="node26" class="node">
<title>2146546001376</title>
<ellipse fill="none" stroke="black" cx="344" cy="-356" rx="27" ry="27"/>
<text text-anchor="start" x="333" y="-347.3" font-family="Times New Roman,serif" font-size="34.00">●</text>
</g>
<!-- 2146546001376&#45;&gt;2146546002144 -->
<g id="edge54" class="edge">
<title>2146546001376&#45;&gt;2146546002144</title>
<path fill="none" stroke="black" d="M371.22,-356C379.5,-356 389.13,-356 399.18,-356"/>
<polygon fill="black" stroke="black" points="399.33,-359.5 409.33,-356 399.33,-352.5 399.33,-359.5"/>
</g>
<!-- 2146545985472&#45;&gt;2146545986432 -->
<g id="edge25" class="edge">
<title>2146545985472&#45;&gt;2146545986432</title>
<path fill="none" stroke="black" d="M371.22,-174C385.22,-174 403.08,-174 420.31,-174"/>
<polygon fill="black" stroke="black" points="420.35,-177.5 430.35,-174 420.35,-170.5 420.35,-177.5"/>
</g>
<!-- 2146545985856&#45;&gt;2146545985904 -->
<g id="edge26" class="edge">
<title>2146545985856&#45;&gt;2146545985904</title>
<path fill="none" stroke="black" d="M978.82,-182.35C987.06,-185.12 996.59,-188.33 1006.18,-191.56"/>
<polygon fill="black" stroke="black" points="1005.14,-194.9 1015.74,-194.77 1007.38,-188.27 1005.14,-194.9"/>
</g>
<!-- 2146545986816&#45;&gt;2146545984608 -->
<g id="edge27" class="edge">
<title>2146545986816&#45;&gt;2146545984608</title>
<path fill="none" stroke="black" d="M371.22,-246C383.7,-246 399.23,-246 414.65,-246"/>
<polygon fill="black" stroke="black" points="414.74,-249.5 424.74,-246 414.74,-242.5 414.74,-249.5"/>
</g>
<!-- 2146545983840&#45;&gt;2146545985904 -->
<g id="edge28" class="edge">
<title>2146545983840&#45;&gt;2146545985904</title>
<path fill="none" stroke="black" d="M978.82,-237.65C987.06,-234.88 996.59,-231.67 1006.18,-228.44"/>
<polygon fill="black" stroke="black" points="1007.38,-231.73 1015.74,-225.23 1005.14,-225.1 1007.38,-231.73"/>
</g>
<!-- 2146545984224&#45;&gt;2146545985184 -->
<g id="edge29" class="edge">
<title>2146545984224&#45;&gt;2146545985184</title>
<path fill="none" stroke="black" d="M647.07,-246C668.84,-246 700.66,-246 728.32,-246"/>
<polygon fill="black" stroke="black" points="728.68,-249.5 738.68,-246 728.68,-242.5 728.68,-249.5"/>
</g>
<!-- 2146545985424&#45;&gt;2146545986960 -->
<g id="edge31" class="edge">
<title>2146545985424&#45;&gt;2146545986960</title>
<path fill="none" stroke="black" d="M1197.68,-204.67C1205.48,-203.05 1214.49,-201.18 1223.88,-199.23"/>
<polygon fill="black" stroke="black" points="1224.69,-202.63 1233.77,-197.17 1223.26,-195.78 1224.69,-202.63"/>
</g>
<!-- 2146545985424&#45;&gt;2146545986720 -->
<g id="edge30" class="edge">
<title>2146545985424&#45;&gt;2146545986720</title>
<path fill="none" stroke="black" d="M1197.37,-216.05C1210.35,-219.14 1226.72,-223.05 1242.65,-226.85"/>
<polygon fill="black" stroke="black" points="1241.93,-230.27 1252.47,-229.19 1243.55,-223.46 1241.93,-230.27"/>
</g>
<!-- 2146545986336&#45;&gt;2146545987392 -->
<g id="edge32" class="edge">
<title>2146545986336&#45;&gt;2146545987392</title>
<path fill="none" stroke="black" d="M1462.02,-246C1520.49,-246 1664.26,-246 1754.53,-246"/>
<polygon fill="black" stroke="black" points="1754.72,-249.5 1764.72,-246 1754.72,-242.5 1754.72,-249.5"/>
</g>
<!-- 2146545987104&#45;&gt;2146545943744 -->
<g id="edge33" class="edge">
<title>2146545987104&#45;&gt;2146545943744</title>
<path fill="none" stroke="black" d="M1462.04,-174C1469.59,-174 1478.37,-174 1487.82,-174"/>
<polygon fill="black" stroke="black" points="1487.89,-177.5 1497.89,-174 1487.89,-170.5 1487.89,-177.5"/>
</g>
<!-- 2146545943600&#45;&gt;2146545946048 -->
<g id="edge34" class="edge">
<title>2146545943600&#45;&gt;2146545946048</title>
<path fill="none" stroke="black" d="M1859.93,-168.13C1877.96,-163.96 1903.25,-158.12 1928.05,-152.39"/>
<polygon fill="black" stroke="black" points="1928.92,-155.78 1937.88,-150.12 1927.35,-148.96 1928.92,-155.78"/>
</g>
<!-- 2146545943600&#45;&gt;2146545945184 -->
<g id="edge35" class="edge">
<title>2146545943600&#45;&gt;2146545945184</title>
<path fill="none" stroke="black" d="M1860.69,-175.92C1881.65,-177.45 1912.07,-179.68 1940.15,-181.74"/>
<polygon fill="black" stroke="black" points="1940.14,-185.25 1950.37,-182.49 1940.65,-178.27 1940.14,-185.25"/>
</g>
<!-- 2146545944752&#45;&gt;2146545943168 -->
<g id="edge36" class="edge">
<title>2146545944752&#45;&gt;2146545943168</title>
<path fill="none" stroke="black" d="M2178.22,-155C2185.82,-155 2194.55,-155 2203.7,-155"/>
<polygon fill="black" stroke="black" points="2203.76,-158.5 2213.76,-155 2203.76,-151.5 2203.76,-158.5"/>
</g>
<!-- 2146545944848&#45;&gt;2146545945520 -->
<g id="edge38" class="edge">
<title>2146545944848&#45;&gt;2146545945520</title>
<path fill="none" stroke="black" d="M2453.25,-148.04C2468.27,-143.9 2487.58,-138.58 2504.21,-134"/>
<polygon fill="black" stroke="black" points="2505.45,-137.29 2514.16,-131.26 2503.59,-130.54 2505.45,-137.29"/>
</g>
<!-- 2146545944848&#45;&gt;2146546391648 -->
<g id="edge37" class="edge">
<title>2146545944848&#45;&gt;2146546391648</title>
<path fill="none" stroke="black" d="M2453.53,-161.13C2461.52,-163.04 2470.69,-165.25 2480.03,-167.49"/>
<polygon fill="black" stroke="black" points="2479.23,-170.89 2489.77,-169.82 2480.86,-164.09 2479.23,-170.89"/>
</g>
<!-- 2146545945232&#45;&gt;2146545944032 -->
<g id="edge39" class="edge">
<title>2146545945232&#45;&gt;2146545944032</title>
<path fill="none" stroke="black" d="M2682.68,-114.61C2690.48,-113.28 2699.44,-111.75 2708.63,-110.18"/>
<polygon fill="black" stroke="black" points="2709.37,-113.6 2718.64,-108.46 2708.19,-106.7 2709.37,-113.6"/>
</g>
<!-- 2146545943024&#45;&gt;2146546390448 -->
<g id="edge41" class="edge">
<title>2146545943024&#45;&gt;2146546390448</title>
<path fill="none" stroke="black" d="M3466.67,-110.19C3478.15,-115.49 3492.2,-121.78 3505,-127 3517.39,-132.05 3531.12,-137.18 3543.35,-141.6"/>
<polygon fill="black" stroke="black" points="3542.2,-144.9 3552.79,-144.97 3544.55,-138.31 3542.2,-144.9"/>
</g>
<!-- 2146545943024&#45;&gt;2146545942832 -->
<g id="edge40" class="edge">
<title>2146545943024&#45;&gt;2146545942832</title>
<path fill="none" stroke="black" d="M3469.22,-99.19C3476.82,-99.25 3485.55,-99.31 3494.7,-99.38"/>
<polygon fill="black" stroke="black" points="3494.73,-102.88 3504.76,-99.45 3494.78,-95.88 3494.73,-102.88"/>
</g>
<!-- 2146545945952&#45;&gt;2146546389344 -->
<g id="edge42" class="edge">
<title>2146545945952&#45;&gt;2146546389344</title>
<path fill="none" stroke="black" d="M2921.22,-27C2930.48,-27 2941.41,-27 2952.74,-27"/>
<polygon fill="black" stroke="black" points="2952.76,-30.5 2962.76,-27 2952.76,-23.5 2952.76,-30.5"/>
</g>
<!-- 2146545946528&#45;&gt;2146545945904 -->
<g id="edge43" class="edge">
<title>2146545946528&#45;&gt;2146545945904</title>
<path fill="none" stroke="black" d="M3194.04,-39.38C3212.78,-49.45 3239.74,-63.94 3262.4,-76.11"/>
<polygon fill="black" stroke="black" points="3261.02,-79.34 3271.48,-80.99 3264.33,-73.17 3261.02,-79.34"/>
</g>
<!-- 2146546389536&#45;&gt;2146546390016 -->
<g id="edge44" class="edge">
<title>2146546389536&#45;&gt;2146546390016</title>
<path fill="none" stroke="black" d="M2921.22,-99C2928.82,-99 2937.55,-99 2946.7,-99"/>
<polygon fill="black" stroke="black" points="2946.76,-102.5 2956.76,-99 2946.76,-95.5 2946.76,-102.5"/>
</g>
<!-- 2146546389728&#45;&gt;2146545945904 -->
<g id="edge45" class="edge">
<title>2146546389728&#45;&gt;2146545945904</title>
<path fill="none" stroke="black" d="M3197.15,-99C3212.51,-99 3232.5,-99 3251.09,-99"/>
<polygon fill="black" stroke="black" points="3251.24,-102.5 3261.24,-99 3251.24,-95.5 3251.24,-102.5"/>
</g>
<!-- 2146545943792&#45;&gt;2146546391936 -->
<g id="edge46" class="edge">
<title>2146545943792&#45;&gt;2146546391936</title>
<path fill="none" stroke="black" d="M2683.19,-191.92C2726.73,-193.36 2816.77,-196 2893,-196 2893,-196 2893,-196 3033,-196 3096.67,-196 3168.71,-197.11 3222.65,-198.16"/>
<polygon fill="black" stroke="black" points="3222.78,-201.66 3232.85,-198.36 3222.92,-194.66 3222.78,-201.66"/>
</g>
<!-- 2146546002720&#45;&gt;2146545886112 -->
<g id="edge47" class="edge">
<title>2146546002720&#45;&gt;2146545886112</title>
<path fill="none" stroke="black" d="M646.7,-351.62C654.35,-350.32 663.26,-348.81 672.8,-347.18"/>
<polygon fill="black" stroke="black" points="673.69,-350.58 682.96,-345.45 672.51,-343.68 673.69,-350.58"/>
</g>
<!-- 2146546003824&#45;&gt;2146545983552 -->
<g id="edge49" class="edge">
<title>2146546003824&#45;&gt;2146545983552</title>
<path fill="none" stroke="black" d="M52.8,-292.29C78.66,-283.2 119.45,-268.86 148.78,-258.55"/>
<polygon fill="black" stroke="black" points="149.98,-261.84 158.25,-255.22 147.66,-255.24 149.98,-261.84"/>
</g>
<!-- 2146546003824&#45;&gt;2146545888224 -->
<g id="edge48" class="edge">
<title>2146546003824&#45;&gt;2146545888224</title>
<path fill="none" stroke="black" d="M51.09,-313.69C75.13,-326.9 113.31,-347.88 142.67,-364.01"/>
<polygon fill="black" stroke="black" points="141.03,-367.1 151.48,-368.85 144.4,-360.97 141.03,-367.1"/>
</g>
<!-- 2146545885776&#45;&gt;2146545888992 -->
<g id="edge50" class="edge">
<title>2146545885776&#45;&gt;2146545888992</title>
<path fill="none" stroke="black" d="M371.22,-426.26C378.82,-425.76 387.55,-425.18 396.7,-424.58"/>
<polygon fill="black" stroke="black" points="397.01,-428.07 406.76,-423.91 396.55,-421.08 397.01,-428.07"/>
</g>
</g>
</svg>
