<?xml version="1.0" encoding="UTF-8" standalone="no"?>
<!DOCTYPE svg PUBLIC "-//W3C//DTD SVG 1.1//EN"
 "http://www.w3.org/Graphics/SVG/1.1/DTD/svg11.dtd">
<!-- Generated by graphviz version 2.49.0 (20210828.1703)
 -->
<!-- Title: imdf_net_1656686592.2052078 Pages: 1 -->
<svg width="3810pt" height="316pt"
 viewBox="0.00 0.00 3810.00 316.00" xmlns="http://www.w3.org/2000/svg" xmlns:xlink="http://www.w3.org/1999/xlink">
<g id="graph0" class="graph" transform="scale(1 1) rotate(0) translate(4 312)">
<title>imdf_net_1656686592.2052078</title>
<!-- 1487279337728 -->
<g id="node1" class="node">
<title>1487279337728</title>
<polygon fill="none" stroke="black" points="539,-117 425,-117 425,-81 539,-81 539,-117"/>
<text text-anchor="middle" x="482" y="-95.9" font-family="Times New Roman,serif" font-size="12.00">Check_credit_history</text>
</g>
<!-- 1487279338880 -->
<g id="node30" class="node">
<title>1487279338880</title>
<ellipse fill="none" stroke="black" cx="620" cy="-99" rx="27" ry="27"/>
</g>
<!-- 1487279337728&#45;&gt;1487279338880 -->
<g id="edge12" class="edge">
<title>1487279337728&#45;&gt;1487279338880</title>
<path fill="none" stroke="black" d="M539.1,-99C553.77,-99 569.19,-99 582.54,-99"/>
<polygon fill="black" stroke="black" points="582.74,-102.5 592.74,-99 582.74,-95.5 582.74,-102.5"/>
</g>
<!-- 1487279338112 -->
<g id="node2" class="node">
<title>1487279338112</title>
<polygon fill="none" stroke="black" points="1725,-45 1588,-45 1588,-9 1725,-9 1725,-45"/>
<text text-anchor="middle" x="1656.5" y="-23.9" font-family="Times New Roman,serif" font-size="12.00">Loan_application_rejected</text>
</g>
<!-- 1487279224288 -->
<g id="node46" class="node">
<title>1487279224288</title>
<ellipse fill="none" stroke="black" cx="3771" cy="-82" rx="27" ry="27"/>
<ellipse fill="none" stroke="black" cx="3771" cy="-82" rx="31" ry="31"/>
<text text-anchor="start" x="3761" y="-73.9" font-family="Times New Roman,serif" font-size="32.00">■</text>
</g>
<!-- 1487279338112&#45;&gt;1487279224288 -->
<g id="edge16" class="edge">
<title>1487279338112&#45;&gt;1487279224288</title>
<path fill="none" stroke="black" d="M1725.2,-27C1804.14,-27 1938.53,-27 2054,-27 2054,-27 2054,-27 3492,-27 3587.04,-27 3612.15,-30.58 3704,-55 3713.68,-57.57 3723.83,-61.22 3733.19,-65"/>
<polygon fill="black" stroke="black" points="3732.03,-68.3 3742.61,-68.95 3734.74,-61.85 3732.03,-68.3"/>
</g>
<!-- 1487279283456 -->
<g id="node3" class="node">
<title>1487279283456</title>
<polygon fill="black" stroke="black" points="3190,-102 3136,-102 3136,-66 3190,-66 3190,-102"/>
</g>
<!-- 1487279340176 -->
<g id="node35" class="node">
<title>1487279340176</title>
<ellipse fill="none" stroke="black" cx="1656.5" cy="-99" rx="27" ry="27"/>
</g>
<!-- 1487279283456&#45;&gt;1487279340176 -->
<g id="edge49" class="edge">
<title>1487279283456&#45;&gt;1487279340176</title>
<path fill="none" stroke="black" d="M3135.9,-83.81C3093.82,-83.52 3008.39,-83 2936,-83 2054,-83 2054,-83 2054,-83 1920.98,-83 1763.05,-92.1 1693.47,-96.58"/>
<polygon fill="black" stroke="black" points="1693.22,-93.08 1683.46,-97.23 1693.67,-100.07 1693.22,-93.08"/>
</g>
<!-- 1487278178944 -->
<g id="node4" class="node">
<title>1487278178944</title>
<polygon fill="none" stroke="black" points="3702,-163 3556,-163 3556,-127 3702,-127 3702,-163"/>
<text text-anchor="middle" x="3629" y="-141.9" font-family="Times New Roman,serif" font-size="12.00">Loan__application_canceled</text>
</g>
<!-- 1487278178944&#45;&gt;1487279224288 -->
<g id="edge7" class="edge">
<title>1487278178944&#45;&gt;1487279224288</title>
<path fill="none" stroke="black" d="M3670.12,-126.95C3689.98,-118.01 3713.79,-107.3 3733.18,-98.57"/>
<polygon fill="black" stroke="black" points="3734.62,-101.76 3742.31,-94.46 3731.75,-95.37 3734.62,-101.76"/>
</g>
<!-- 1487279224336 -->
<g id="node5" class="node">
<title>1487279224336</title>
<polygon fill="black" stroke="black" points="212.5,-117 158.5,-117 158.5,-81 212.5,-81 212.5,-117"/>
</g>
<!-- 1487279340560 -->
<g id="node26" class="node">
<title>1487279340560</title>
<ellipse fill="none" stroke="black" cx="344" cy="-27" rx="27" ry="27"/>
</g>
<!-- 1487279224336&#45;&gt;1487279340560 -->
<g id="edge47" class="edge">
<title>1487279224336&#45;&gt;1487279340560</title>
<path fill="none" stroke="black" d="M212.69,-86.95C239.43,-74.65 281.01,-55.52 309.98,-42.19"/>
<polygon fill="black" stroke="black" points="311.66,-45.27 319.29,-37.91 308.74,-38.91 311.66,-45.27"/>
</g>
<!-- 1487279337872 -->
<g id="node28" class="node">
<title>1487279337872</title>
<ellipse fill="none" stroke="black" cx="344" cy="-99" rx="27" ry="27"/>
</g>
<!-- 1487279224336&#45;&gt;1487279337872 -->
<g id="edge48" class="edge">
<title>1487279224336&#45;&gt;1487279337872</title>
<path fill="none" stroke="black" d="M212.69,-99C238.5,-99 278.13,-99 306.91,-99"/>
<polygon fill="black" stroke="black" points="306.98,-102.5 316.98,-99 306.98,-95.5 306.98,-102.5"/>
</g>
<!-- 1487279339408 -->
<g id="node6" class="node">
<title>1487279339408</title>
<polygon fill="black" stroke="black" points="1552,-117 1498,-117 1498,-81 1552,-81 1552,-117"/>
</g>
<!-- 1487279339408&#45;&gt;1487279340176 -->
<g id="edge21" class="edge">
<title>1487279339408&#45;&gt;1487279340176</title>
<path fill="none" stroke="black" d="M1552.21,-99C1571.43,-99 1597.77,-99 1619.04,-99"/>
<polygon fill="black" stroke="black" points="1619.33,-102.5 1629.33,-99 1619.33,-95.5 1619.33,-102.5"/>
</g>
<!-- 1487279282064 -->
<g id="node7" class="node">
<title>1487279282064</title>
<polygon fill="#ff0000" stroke="black" points="2483,-156 2394,-156 2394,-120 2483,-120 2483,-156"/>
<text text-anchor="middle" x="2438.5" y="-134.9" font-family="Times New Roman,serif" font-size="12.00">Added_Acitvity</text>
</g>
<!-- 1487279283120 -->
<g id="node39" class="node">
<title>1487279283120</title>
<ellipse fill="none" stroke="black" cx="2546" cy="-138" rx="27" ry="27"/>
</g>
<!-- 1487279282064&#45;&gt;1487279283120 -->
<g id="edge17" class="edge">
<title>1487279282064&#45;&gt;1487279283120</title>
<path fill="none" stroke="black" d="M2483.02,-138C2491.56,-138 2500.43,-138 2508.71,-138"/>
<polygon fill="black" stroke="black" points="2508.8,-141.5 2518.8,-138 2508.8,-134.5 2508.8,-141.5"/>
</g>
<!-- 1487279281296 -->
<g id="node8" class="node">
<title>1487279281296</title>
<polygon fill="black" stroke="black" points="3190,-156 3136,-156 3136,-120 3190,-120 3190,-156"/>
</g>
<!-- 1487279339456 -->
<g id="node34" class="node">
<title>1487279339456</title>
<ellipse fill="none" stroke="black" cx="3253" cy="-138" rx="27" ry="27"/>
</g>
<!-- 1487279281296&#45;&gt;1487279339456 -->
<g id="edge46" class="edge">
<title>1487279281296&#45;&gt;1487279339456</title>
<path fill="none" stroke="black" d="M3190.4,-138C3198.39,-138 3207.31,-138 3215.82,-138"/>
<polygon fill="black" stroke="black" points="3215.92,-141.5 3225.92,-138 3215.92,-134.5 3215.92,-141.5"/>
</g>
<!-- 1487279222944 -->
<g id="node9" class="node">
<title>1487279222944</title>
<polygon fill="none" stroke="black" points="557,-290 407,-290 407,-254 557,-254 557,-290"/>
<text text-anchor="middle" x="482" y="-268.9" font-family="Times New Roman,serif" font-size="12.00">Receive_updated_application</text>
</g>
<!-- 1487279226592 -->
<g id="node43" class="node">
<title>1487279226592</title>
<ellipse fill="none" stroke="black" cx="620" cy="-209" rx="27" ry="27"/>
</g>
<!-- 1487279222944&#45;&gt;1487279226592 -->
<g id="edge14" class="edge">
<title>1487279222944&#45;&gt;1487279226592</title>
<path fill="none" stroke="black" d="M521.97,-253.95C542.12,-244.62 566.44,-233.35 585.7,-224.43"/>
<polygon fill="black" stroke="black" points="587.38,-227.51 594.98,-220.13 584.44,-221.15 587.38,-227.51"/>
</g>
<!-- 1487279341472 -->
<g id="node10" class="node">
<title>1487279341472</title>
<polygon fill="none" stroke="black" points="533.5,-45 430.5,-45 430.5,-9 533.5,-9 533.5,-45"/>
<text text-anchor="middle" x="482" y="-23.9" font-family="Times New Roman,serif" font-size="12.00">Appraise_property</text>
</g>
<!-- 1487279339552 -->
<g id="node27" class="node">
<title>1487279339552</title>
<ellipse fill="none" stroke="black" cx="953" cy="-27" rx="27" ry="27"/>
</g>
<!-- 1487279341472&#45;&gt;1487279339552 -->
<g id="edge3" class="edge">
<title>1487279341472&#45;&gt;1487279339552</title>
<path fill="none" stroke="black" d="M533.64,-27C628.94,-27 832.83,-27 915.78,-27"/>
<polygon fill="black" stroke="black" points="915.97,-30.5 925.97,-27 915.97,-23.5 915.97,-30.5"/>
</g>
<!-- 1487279340320 -->
<g id="node11" class="node">
<title>1487279340320</title>
<polygon fill="none" stroke="black" points="1372,-112 1234,-112 1234,-76 1372,-76 1372,-112"/>
<text text-anchor="middle" x="1303" y="-90.9" font-family="Times New Roman,serif" font-size="12.00">Prepare_acceptance_pack</text>
</g>
<!-- 1487279339072 -->
<g id="node33" class="node">
<title>1487279339072</title>
<ellipse fill="none" stroke="black" cx="1435" cy="-99" rx="27" ry="27"/>
</g>
<!-- 1487279340320&#45;&gt;1487279339072 -->
<g id="edge2" class="edge">
<title>1487279340320&#45;&gt;1487279339072</title>
<path fill="none" stroke="black" d="M1372.05,-96.62C1380.93,-96.96 1389.74,-97.3 1397.81,-97.61"/>
<polygon fill="black" stroke="black" points="1397.8,-101.11 1407.93,-98 1398.07,-94.12 1397.8,-101.11"/>
</g>
<!-- 1487279281824 -->
<g id="node12" class="node">
<title>1487279281824</title>
<polygon fill="#ff0000" stroke="black" points="3010,-156 2860,-156 2860,-120 3010,-120 3010,-156"/>
<text text-anchor="middle" x="2935" y="-134.9" font-family="Times New Roman,serif" font-size="12.00">Verify_repayment_agreement</text>
</g>
<!-- 1487279283600 -->
<g id="node36" class="node">
<title>1487279283600</title>
<ellipse fill="none" stroke="black" cx="3073" cy="-138" rx="27" ry="27"/>
</g>
<!-- 1487279281824&#45;&gt;1487279283600 -->
<g id="edge19" class="edge">
<title>1487279281824&#45;&gt;1487279283600</title>
<path fill="none" stroke="black" d="M3010.37,-138C3019.15,-138 3027.79,-138 3035.69,-138"/>
<polygon fill="black" stroke="black" points="3035.96,-141.5 3045.96,-138 3035.96,-134.5 3035.96,-141.5"/>
</g>
<!-- 1487279280288 -->
<g id="node13" class="node">
<title>1487279280288</title>
<polygon fill="none" stroke="black" points="3428,-109 3316,-109 3316,-73 3428,-73 3428,-109"/>
<text text-anchor="middle" x="3372" y="-87.9" font-family="Times New Roman,serif" font-size="12.00">Approve_application</text>
</g>
<!-- 1487279283936 -->
<g id="node41" class="node">
<title>1487279283936</title>
<ellipse fill="none" stroke="black" cx="3491" cy="-82" rx="27" ry="27"/>
</g>
<!-- 1487279280288&#45;&gt;1487279283936 -->
<g id="edge15" class="edge">
<title>1487279280288&#45;&gt;1487279283936</title>
<path fill="none" stroke="black" d="M3428.07,-86.76C3436.73,-86.1 3445.48,-85.42 3453.58,-84.8"/>
<polygon fill="black" stroke="black" points="3454.07,-88.27 3463.77,-84.02 3453.53,-81.29 3454.07,-88.27"/>
</g>
<!-- 1485709487648 -->
<g id="node14" class="node">
<title>1485709487648</title>
<polygon fill="none" stroke="black" points="3423.5,-167 3320.5,-167 3320.5,-131 3423.5,-131 3423.5,-167"/>
<text text-anchor="middle" x="3372" y="-145.9" font-family="Times New Roman,serif" font-size="12.00">Cancel_application</text>
</g>
<!-- 1487279280864 -->
<g id="node42" class="node">
<title>1487279280864</title>
<ellipse fill="none" stroke="black" cx="3491" cy="-154" rx="27" ry="27"/>
</g>
<!-- 1485709487648&#45;&gt;1487279280864 -->
<g id="edge18" class="edge">
<title>1485709487648&#45;&gt;1487279280864</title>
<path fill="none" stroke="black" d="M3423.64,-151.16C3433.69,-151.59 3444.06,-152.04 3453.52,-152.44"/>
<polygon fill="black" stroke="black" points="3453.62,-155.95 3463.76,-152.88 3453.92,-148.95 3453.62,-155.95"/>
</g>
<!-- 1487279341232 -->
<g id="node15" class="node">
<title>1487279341232</title>
<polygon fill="none" stroke="black" points="1353.5,-54 1252.5,-54 1252.5,-18 1353.5,-18 1353.5,-54"/>
<text text-anchor="middle" x="1303" y="-32.9" font-family="Times New Roman,serif" font-size="12.00">Reject_application</text>
</g>
<!-- 1487279338352 -->
<g id="node32" class="node">
<title>1487279338352</title>
<ellipse fill="none" stroke="black" cx="1435" cy="-27" rx="27" ry="27"/>
</g>
<!-- 1487279341232&#45;&gt;1487279338352 -->
<g id="edge5" class="edge">
<title>1487279341232&#45;&gt;1487279338352</title>
<path fill="none" stroke="black" d="M1353.52,-32.57C1368.27,-31.55 1384.15,-30.45 1397.88,-29.5"/>
<polygon fill="black" stroke="black" points="1398.16,-32.99 1407.9,-28.81 1397.68,-26.01 1398.16,-32.99"/>
</g>
<!-- 1487279338304 -->
<g id="node16" class="node">
<title>1487279338304</title>
<polygon fill="none" stroke="black" points="834,-117 739,-117 739,-81 834,-81 834,-117"/>
<text text-anchor="middle" x="786.5" y="-95.9" font-family="Times New Roman,serif" font-size="12.00">Assess_loan_risk</text>
</g>
<!-- 1487279340128 -->
<g id="node29" class="node">
<title>1487279340128</title>
<ellipse fill="none" stroke="black" cx="953" cy="-99" rx="27" ry="27"/>
</g>
<!-- 1487279338304&#45;&gt;1487279340128 -->
<g id="edge20" class="edge">
<title>1487279338304&#45;&gt;1487279340128</title>
<path fill="none" stroke="black" d="M834.2,-99C860.01,-99 891.62,-99 915.59,-99"/>
<polygon fill="black" stroke="black" points="915.68,-102.5 925.68,-99 915.68,-95.5 915.68,-102.5"/>
</g>
<!-- 1487279337536 -->
<g id="node17" class="node">
<title>1487279337536</title>
<polygon fill="none" stroke="black" points="1108,-81 1016,-81 1016,-45 1108,-45 1108,-81"/>
<text text-anchor="middle" x="1062" y="-59.9" font-family="Times New Roman,serif" font-size="12.00">Assess_eligibility</text>
</g>
<!-- 1487279339360 -->
<g id="node31" class="node">
<title>1487279339360</title>
<ellipse fill="none" stroke="black" cx="1171" cy="-63" rx="27" ry="27"/>
</g>
<!-- 1487279337536&#45;&gt;1487279339360 -->
<g id="edge11" class="edge">
<title>1487279337536&#45;&gt;1487279339360</title>
<path fill="none" stroke="black" d="M1108.07,-63C1116.66,-63 1125.55,-63 1133.83,-63"/>
<polygon fill="black" stroke="black" points="1133.9,-66.5 1143.9,-63 1133.9,-59.5 1133.9,-66.5"/>
</g>
<!-- 1487279282880 -->
<g id="node18" class="node">
<title>1487279282880</title>
<polygon fill="#ff0000" stroke="black" points="2268,-156 2118,-156 2118,-120 2268,-120 2268,-156"/>
<text text-anchor="middle" x="2193" y="-134.9" font-family="Times New Roman,serif" font-size="12.00">Send_home_insurance_quote</text>
</g>
<!-- 1487279281584 -->
<g id="node38" class="node">
<title>1487279281584</title>
<ellipse fill="none" stroke="black" cx="2331" cy="-138" rx="27" ry="27"/>
</g>
<!-- 1487279282880&#45;&gt;1487279281584 -->
<g id="edge4" class="edge">
<title>1487279282880&#45;&gt;1487279281584</title>
<path fill="none" stroke="black" d="M2268.37,-138C2277.15,-138 2285.79,-138 2293.69,-138"/>
<polygon fill="black" stroke="black" points="2293.96,-141.5 2303.96,-138 2293.96,-134.5 2293.96,-141.5"/>
</g>
<!-- 1487279281728 -->
<g id="node19" class="node">
<title>1487279281728</title>
<polygon fill="#ff0000" stroke="black" points="2734,-156 2609,-156 2609,-120 2734,-120 2734,-156"/>
<text text-anchor="middle" x="2671.5" y="-134.9" font-family="Times New Roman,serif" font-size="12.00">Send_acceptance_pack</text>
</g>
<!-- 1487279282016 -->
<g id="node40" class="node">
<title>1487279282016</title>
<ellipse fill="none" stroke="black" cx="2797" cy="-138" rx="27" ry="27"/>
</g>
<!-- 1487279281728&#45;&gt;1487279282016 -->
<g id="edge13" class="edge">
<title>1487279281728&#45;&gt;1487279282016</title>
<path fill="none" stroke="black" d="M2734.25,-138C2742.97,-138 2751.69,-138 2759.72,-138"/>
<polygon fill="black" stroke="black" points="2759.81,-141.5 2769.81,-138 2759.81,-134.5 2759.81,-141.5"/>
</g>
<!-- 1487279280960 -->
<g id="node20" class="node">
<title>1487279280960</title>
<polygon fill="none" stroke="black" points="3704,-100 3554,-100 3554,-64 3704,-64 3704,-100"/>
<text text-anchor="middle" x="3629" y="-78.9" font-family="Times New Roman,serif" font-size="12.00">Loan__application_approved</text>
</g>
<!-- 1487279280960&#45;&gt;1487279224288 -->
<g id="edge1" class="edge">
<title>1487279280960&#45;&gt;1487279224288</title>
<path fill="none" stroke="black" d="M3704.1,-82C3712.86,-82 3721.53,-82 3729.56,-82"/>
<polygon fill="black" stroke="black" points="3729.71,-85.5 3739.71,-82 3729.71,-78.5 3729.71,-85.5"/>
</g>
<!-- 1487279223760 -->
<g id="node21" class="node">
<title>1487279223760</title>
<polygon fill="none" stroke="black" points="554.5,-227 409.5,-227 409.5,-191 554.5,-191 554.5,-227"/>
<text text-anchor="middle" x="482" y="-205.9" font-family="Times New Roman,serif" font-size="12.00">Loan__application_received</text>
</g>
<!-- 1487279223760&#45;&gt;1487279226592 -->
<g id="edge9" class="edge">
<title>1487279223760&#45;&gt;1487279226592</title>
<path fill="none" stroke="black" d="M554.58,-209C564.32,-209 573.96,-209 582.7,-209"/>
<polygon fill="black" stroke="black" points="582.85,-212.5 592.85,-209 582.85,-205.5 582.85,-212.5"/>
</g>
<!-- 1487279283024 -->
<g id="node22" class="node">
<title>1487279283024</title>
<polygon fill="#ff0000" stroke="black" points="1992,-151 1761,-151 1761,-115 1992,-115 1992,-151"/>
<text text-anchor="middle" x="1876.5" y="-129.9" font-family="Times New Roman,serif" font-size="12.00">Check_if_home_insurance_quote_is_requested</text>
</g>
<!-- 1487279283312 -->
<g id="node37" class="node">
<title>1487279283312</title>
<ellipse fill="none" stroke="black" cx="2055" cy="-138" rx="27" ry="27"/>
</g>
<!-- 1487279283024&#45;&gt;1487279283312 -->
<g id="edge6" class="edge">
<title>1487279283024&#45;&gt;1487279283312</title>
<path fill="none" stroke="black" d="M1992.27,-136.25C2001.32,-136.51 2009.97,-136.75 2017.76,-136.97"/>
<polygon fill="black" stroke="black" points="2017.74,-140.47 2027.84,-137.26 2017.94,-133.48 2017.74,-140.47"/>
</g>
<!-- 1487279226352 -->
<g id="node23" class="node">
<title>1487279226352</title>
<polygon fill="none" stroke="black" points="281,-258 90,-258 90,-222 281,-222 281,-258"/>
<text text-anchor="middle" x="185.5" y="-236.9" font-family="Times New Roman,serif" font-size="12.00">Return_application_back_to_applicant</text>
</g>
<!-- 1487279225152 -->
<g id="node45" class="node">
<title>1487279225152</title>
<ellipse fill="none" stroke="black" cx="344" cy="-281" rx="27" ry="27"/>
</g>
<!-- 1487279226352&#45;&gt;1487279225152 -->
<g id="edge8" class="edge">
<title>1487279226352&#45;&gt;1487279225152</title>
<path fill="none" stroke="black" d="M255.6,-258.1C273.56,-262.81 292.18,-267.69 307.59,-271.72"/>
<polygon fill="black" stroke="black" points="307.14,-275.22 317.7,-274.37 308.91,-268.45 307.14,-275.22"/>
</g>
<!-- 1487279226736 -->
<g id="node24" class="node">
<title>1487279226736</title>
<polygon fill="none" stroke="black" points="890,-199 683,-199 683,-163 890,-163 890,-199"/>
<text text-anchor="middle" x="786.5" y="-177.9" font-family="Times New Roman,serif" font-size="12.00">Check__application__form_completeness</text>
</g>
<!-- 1487279223472 -->
<g id="node44" class="node">
<title>1487279223472</title>
<ellipse fill="none" stroke="black" cx="27" cy="-154" rx="27" ry="27"/>
</g>
<!-- 1487279226736&#45;&gt;1487279223472 -->
<g id="edge10" class="edge">
<title>1487279226736&#45;&gt;1487279223472</title>
<path fill="none" stroke="black" d="M682.79,-167.26C624.34,-160.59 549.7,-154 483,-154 343,-154 343,-154 343,-154 242.09,-154 123,-154 64.36,-154"/>
<polygon fill="black" stroke="black" points="64.14,-150.5 54.14,-154 64.14,-157.5 64.14,-150.5"/>
</g>
<!-- 1487279223184 -->
<g id="node25" class="node">
<title>1487279223184</title>
<ellipse fill="none" stroke="black" cx="344" cy="-209" rx="27" ry="27"/>
<text text-anchor="start" x="333" y="-200.3" font-family="Times New Roman,serif" font-size="34.00">●</text>
</g>
<!-- 1487279223184&#45;&gt;1487279223760 -->
<g id="edge50" class="edge">
<title>1487279223184&#45;&gt;1487279223760</title>
<path fill="none" stroke="black" d="M371.22,-209C379.5,-209 389.13,-209 399.18,-209"/>
<polygon fill="black" stroke="black" points="399.33,-212.5 409.33,-209 399.33,-205.5 399.33,-212.5"/>
</g>
<!-- 1487279340560&#45;&gt;1487279341472 -->
<g id="edge22" class="edge">
<title>1487279340560&#45;&gt;1487279341472</title>
<path fill="none" stroke="black" d="M371.22,-27C385.22,-27 403.08,-27 420.31,-27"/>
<polygon fill="black" stroke="black" points="420.35,-30.5 430.35,-27 420.35,-23.5 420.35,-30.5"/>
</g>
<!-- 1487279339552&#45;&gt;1487279337536 -->
<g id="edge23" class="edge">
<title>1487279339552&#45;&gt;1487279337536</title>
<path fill="none" stroke="black" d="M978.82,-35.35C987.06,-38.12 996.59,-41.33 1006.18,-44.56"/>
<polygon fill="black" stroke="black" points="1005.14,-47.9 1015.74,-47.77 1007.38,-41.27 1005.14,-47.9"/>
</g>
<!-- 1487279337872&#45;&gt;1487279337728 -->
<g id="edge24" class="edge">
<title>1487279337872&#45;&gt;1487279337728</title>
<path fill="none" stroke="black" d="M371.22,-99C383.7,-99 399.23,-99 414.65,-99"/>
<polygon fill="black" stroke="black" points="414.74,-102.5 424.74,-99 414.74,-95.5 414.74,-102.5"/>
</g>
<!-- 1487279340128&#45;&gt;1487279337536 -->
<g id="edge25" class="edge">
<title>1487279340128&#45;&gt;1487279337536</title>
<path fill="none" stroke="black" d="M978.82,-90.65C987.06,-87.88 996.59,-84.67 1006.18,-81.44"/>
<polygon fill="black" stroke="black" points="1007.38,-84.73 1015.74,-78.23 1005.14,-78.1 1007.38,-84.73"/>
</g>
<!-- 1487279338880&#45;&gt;1487279338304 -->
<g id="edge26" class="edge">
<title>1487279338880&#45;&gt;1487279338304</title>
<path fill="none" stroke="black" d="M647.07,-99C668.84,-99 700.66,-99 728.32,-99"/>
<polygon fill="black" stroke="black" points="728.68,-102.5 738.68,-99 728.68,-95.5 728.68,-102.5"/>
</g>
<!-- 1487279339360&#45;&gt;1487279340320 -->
<g id="edge27" class="edge">
<title>1487279339360&#45;&gt;1487279340320</title>
<path fill="none" stroke="black" d="M1197.37,-69.05C1205.22,-70.92 1214.3,-73.09 1223.78,-75.35"/>
<polygon fill="black" stroke="black" points="1223.23,-78.81 1233.76,-77.73 1224.85,-72 1223.23,-78.81"/>
</g>
<!-- 1487279339360&#45;&gt;1487279341232 -->
<g id="edge28" class="edge">
<title>1487279339360&#45;&gt;1487279341232</title>
<path fill="none" stroke="black" d="M1197.68,-57.67C1210.49,-55.01 1226.56,-51.67 1242.22,-48.42"/>
<polygon fill="black" stroke="black" points="1243.34,-51.76 1252.42,-46.3 1241.92,-44.9 1243.34,-51.76"/>
</g>
<!-- 1487279338352&#45;&gt;1487279338112 -->
<g id="edge29" class="edge">
<title>1487279338352&#45;&gt;1487279338112</title>
<path fill="none" stroke="black" d="M1462.04,-27C1490.41,-27 1537.16,-27 1577.59,-27"/>
<polygon fill="black" stroke="black" points="1577.72,-30.5 1587.72,-27 1577.72,-23.5 1577.72,-30.5"/>
</g>
<!-- 1487279339072&#45;&gt;1487279339408 -->
<g id="edge30" class="edge">
<title>1487279339072&#45;&gt;1487279339408</title>
<path fill="none" stroke="black" d="M1462.4,-99C1470.39,-99 1479.31,-99 1487.82,-99"/>
<polygon fill="black" stroke="black" points="1487.92,-102.5 1497.92,-99 1487.92,-95.5 1487.92,-102.5"/>
</g>
<!-- 1487279339456&#45;&gt;1487279280288 -->
<g id="edge31" class="edge">
<title>1487279339456&#45;&gt;1487279280288</title>
<path fill="none" stroke="black" d="M3278.24,-128.26C3289.34,-123.8 3302.97,-118.33 3316.34,-112.96"/>
<polygon fill="black" stroke="black" points="3318.01,-116.06 3325.98,-109.08 3315.4,-109.56 3318.01,-116.06"/>
</g>
<!-- 1487279339456&#45;&gt;1485709487648 -->
<g id="edge32" class="edge">
<title>1487279339456&#45;&gt;1485709487648</title>
<path fill="none" stroke="black" d="M3279.97,-140.44C3288.95,-141.29 3299.42,-142.27 3310.01,-143.27"/>
<polygon fill="black" stroke="black" points="3309.87,-146.77 3320.15,-144.22 3310.52,-139.8 3309.87,-146.77"/>
</g>
<!-- 1487279340176&#45;&gt;1487279283024 -->
<g id="edge33" class="edge">
<title>1487279340176&#45;&gt;1487279283024</title>
<path fill="none" stroke="black" d="M1683.36,-103.03C1700.74,-105.74 1725.05,-109.54 1750.55,-113.51"/>
<polygon fill="black" stroke="black" points="1750.34,-117.02 1760.76,-115.1 1751.42,-110.11 1750.34,-117.02"/>
</g>
<!-- 1487279283600&#45;&gt;1487279283456 -->
<g id="edge35" class="edge">
<title>1487279283600&#45;&gt;1487279283456</title>
<path fill="none" stroke="black" d="M3096.66,-124.09C3105.96,-118.39 3116.93,-111.66 3127.2,-105.35"/>
<polygon fill="black" stroke="black" points="3129.3,-108.18 3135.99,-99.96 3125.63,-102.21 3129.3,-108.18"/>
</g>
<!-- 1487279283600&#45;&gt;1487279281296 -->
<g id="edge34" class="edge">
<title>1487279283600&#45;&gt;1487279281296</title>
<path fill="none" stroke="black" d="M3100.4,-138C3108.39,-138 3117.31,-138 3125.82,-138"/>
<polygon fill="black" stroke="black" points="3125.92,-141.5 3135.92,-138 3125.92,-134.5 3125.92,-141.5"/>
</g>
<!-- 1487279283312&#45;&gt;1487279282880 -->
<g id="edge36" class="edge">
<title>1487279283312&#45;&gt;1487279282880</title>
<path fill="none" stroke="black" d="M2082.22,-138C2089.82,-138 2098.55,-138 2107.7,-138"/>
<polygon fill="black" stroke="black" points="2107.76,-141.5 2117.76,-138 2107.76,-134.5 2107.76,-141.5"/>
</g>
<!-- 1487279281584&#45;&gt;1487279282064 -->
<g id="edge37" class="edge">
<title>1487279281584&#45;&gt;1487279282064</title>
<path fill="none" stroke="black" d="M2358.08,-138C2365.88,-138 2374.74,-138 2383.64,-138"/>
<polygon fill="black" stroke="black" points="2383.66,-141.5 2393.66,-138 2383.66,-134.5 2383.66,-141.5"/>
</g>
<!-- 1487279283120&#45;&gt;1487279281728 -->
<g id="edge38" class="edge">
<title>1487279283120&#45;&gt;1487279281728</title>
<path fill="none" stroke="black" d="M2573.19,-138C2580.8,-138 2589.51,-138 2598.52,-138"/>
<polygon fill="black" stroke="black" points="2598.77,-141.5 2608.77,-138 2598.77,-134.5 2598.77,-141.5"/>
</g>
<!-- 1487279282016&#45;&gt;1487279281824 -->
<g id="edge39" class="edge">
<title>1487279282016&#45;&gt;1487279281824</title>
<path fill="none" stroke="black" d="M2824.22,-138C2831.82,-138 2840.55,-138 2849.7,-138"/>
<polygon fill="black" stroke="black" points="2849.76,-141.5 2859.76,-138 2849.76,-134.5 2849.76,-141.5"/>
</g>
<!-- 1487279283936&#45;&gt;1487279280960 -->
<g id="edge40" class="edge">
<title>1487279283936&#45;&gt;1487279280960</title>
<path fill="none" stroke="black" d="M3518.22,-82C3525.82,-82 3534.55,-82 3543.7,-82"/>
<polygon fill="black" stroke="black" points="3543.76,-85.5 3553.76,-82 3543.76,-78.5 3543.76,-85.5"/>
</g>
<!-- 1487279280864&#45;&gt;1487278178944 -->
<g id="edge41" class="edge">
<title>1487279280864&#45;&gt;1487278178944</title>
<path fill="none" stroke="black" d="M3518.22,-152.26C3526.38,-151.72 3535.86,-151.1 3545.75,-150.44"/>
<polygon fill="black" stroke="black" points="3546.01,-153.93 3555.76,-149.78 3545.55,-146.95 3546.01,-153.93"/>
</g>
<!-- 1487279226592&#45;&gt;1487279226736 -->
<g id="edge42" class="edge">
<title>1487279226592&#45;&gt;1487279226736</title>
<path fill="none" stroke="black" d="M646.7,-204.62C654.35,-203.32 663.26,-201.81 672.8,-200.18"/>
<polygon fill="black" stroke="black" points="673.69,-203.58 682.96,-198.45 672.51,-196.68 673.69,-203.58"/>
</g>
<!-- 1487279223472&#45;&gt;1487279224336 -->
<g id="edge44" class="edge">
<title>1487279223472&#45;&gt;1487279224336</title>
<path fill="none" stroke="black" d="M52.8,-145.29C78.66,-136.2 119.45,-121.86 148.78,-111.55"/>
<polygon fill="black" stroke="black" points="149.98,-114.84 158.25,-108.22 147.66,-108.24 149.98,-114.84"/>
</g>
<!-- 1487279223472&#45;&gt;1487279226352 -->
<g id="edge43" class="edge">
<title>1487279223472&#45;&gt;1487279226352</title>
<path fill="none" stroke="black" d="M51.09,-166.69C75.13,-179.9 113.31,-200.88 142.67,-217.01"/>
<polygon fill="black" stroke="black" points="141.03,-220.1 151.48,-221.85 144.4,-213.97 141.03,-220.1"/>
</g>
<!-- 1487279225152&#45;&gt;1487279222944 -->
<g id="edge45" class="edge">
<title>1487279225152&#45;&gt;1487279222944</title>
<path fill="none" stroke="black" d="M371.22,-279.26C378.82,-278.76 387.55,-278.18 396.7,-277.58"/>
<polygon fill="black" stroke="black" points="397.01,-281.07 406.76,-276.91 396.55,-274.08 397.01,-281.07"/>
</g>
</g>
</svg>
