<?xml version="1.0" encoding="UTF-8" standalone="no"?>
<!DOCTYPE svg PUBLIC "-//W3C//DTD SVG 1.1//EN"
 "http://www.w3.org/Graphics/SVG/1.1/DTD/svg11.dtd">
<!-- Generated by graphviz version 2.49.0 (20210828.1703)
 -->
<!-- Title: imdf_net_1655279242.2858326 Pages: 1 -->
<svg width="3761pt" height="463pt"
 viewBox="0.00 0.00 3761.00 463.00" xmlns="http://www.w3.org/2000/svg" xmlns:xlink="http://www.w3.org/1999/xlink">
<g id="graph0" class="graph" transform="scale(1 1) rotate(0) translate(4 459)">
<title>imdf_net_1655279242.2858326</title>
<!-- 2146544536832 -->
<g id="node1" class="node">
<title>2146544536832</title>
<polygon fill="none" stroke="black" points="834,-299 739,-299 739,-263 834,-263 834,-299"/>
<text text-anchor="middle" x="786.5" y="-277.9" font-family="Times New Roman,serif" font-size="12.00">Assess_loan_risk</text>
</g>
<!-- 2146544537552 -->
<g id="node30" class="node">
<title>2146544537552</title>
<ellipse fill="none" stroke="black" cx="953" cy="-281" rx="27" ry="27"/>
</g>
<!-- 2146544536832&#45;&gt;2146544537552 -->
<g id="edge2" class="edge">
<title>2146544536832&#45;&gt;2146544537552</title>
<path fill="none" stroke="black" d="M834.2,-281C860.01,-281 891.62,-281 915.59,-281"/>
<polygon fill="black" stroke="black" points="915.68,-284.5 925.68,-281 915.68,-277.5 915.68,-284.5"/>
</g>
<!-- 2146545357056 -->
<g id="node2" class="node">
<title>2146545357056</title>
<polygon fill="#ff0000" stroke="black" points="3107,-446 2957,-446 2957,-410 3107,-410 3107,-446"/>
<text text-anchor="middle" x="3032" y="-424.9" font-family="Times New Roman,serif" font-size="12.00">Verify_repayment_agreement</text>
</g>
<!-- 2146545360464 -->
<g id="node43" class="node">
<title>2146545360464</title>
<ellipse fill="none" stroke="black" cx="3170" cy="-428" rx="27" ry="27"/>
</g>
<!-- 2146545357056&#45;&gt;2146545360464 -->
<g id="edge6" class="edge">
<title>2146545357056&#45;&gt;2146545360464</title>
<path fill="none" stroke="black" d="M3107.37,-428C3116.15,-428 3124.79,-428 3132.69,-428"/>
<polygon fill="black" stroke="black" points="3132.96,-431.5 3142.96,-428 3132.96,-424.5 3132.96,-431.5"/>
</g>
<!-- 2146545358976 -->
<g id="node3" class="node">
<title>2146545358976</title>
<polygon fill="black" stroke="black" points="3607,-319 3553,-319 3553,-283 3607,-283 3607,-319"/>
</g>
<!-- 2146544393280 -->
<g id="node38" class="node">
<title>2146544393280</title>
<ellipse fill="none" stroke="black" cx="2656" cy="-336" rx="27" ry="27"/>
</g>
<!-- 2146545358976&#45;&gt;2146544393280 -->
<g id="edge51" class="edge">
<title>2146545358976&#45;&gt;2146544393280</title>
<path fill="none" stroke="black" d="M3552.74,-301C3504.21,-301 3397.19,-301 3307,-301 2893,-301 2893,-301 2893,-301 2820.99,-301 2737.94,-317.14 2692.06,-327.5"/>
<polygon fill="black" stroke="black" points="2691.27,-324.09 2682.31,-329.74 2692.84,-330.91 2691.27,-324.09"/>
</g>
<!-- 2146544536208 -->
<g id="node4" class="node">
<title>2146544536208</title>
<polygon fill="none" stroke="black" points="539,-299 425,-299 425,-263 539,-263 539,-299"/>
<text text-anchor="middle" x="482" y="-277.9" font-family="Times New Roman,serif" font-size="12.00">Check_credit_history</text>
</g>
<!-- 2146544537216 -->
<g id="node31" class="node">
<title>2146544537216</title>
<ellipse fill="none" stroke="black" cx="620" cy="-281" rx="27" ry="27"/>
</g>
<!-- 2146544536208&#45;&gt;2146544537216 -->
<g id="edge18" class="edge">
<title>2146544536208&#45;&gt;2146544537216</title>
<path fill="none" stroke="black" d="M539.1,-281C553.77,-281 569.19,-281 582.54,-281"/>
<polygon fill="black" stroke="black" points="582.74,-284.5 592.74,-281 582.74,-277.5 582.74,-284.5"/>
</g>
<!-- 2146544567584 -->
<g id="node5" class="node">
<title>2146544567584</title>
<polygon fill="none" stroke="black" points="533.5,-227 430.5,-227 430.5,-191 533.5,-191 533.5,-227"/>
<text text-anchor="middle" x="482" y="-205.9" font-family="Times New Roman,serif" font-size="12.00">Appraise_property</text>
</g>
<!-- 2146544568016 -->
<g id="node28" class="node">
<title>2146544568016</title>
<ellipse fill="none" stroke="black" cx="953" cy="-209" rx="27" ry="27"/>
</g>
<!-- 2146544567584&#45;&gt;2146544568016 -->
<g id="edge9" class="edge">
<title>2146544567584&#45;&gt;2146544568016</title>
<path fill="none" stroke="black" d="M533.64,-209C628.94,-209 832.83,-209 915.78,-209"/>
<polygon fill="black" stroke="black" points="915.97,-212.5 925.97,-209 915.97,-205.5 915.97,-212.5"/>
</g>
<!-- 2146544537504 -->
<g id="node6" class="node">
<title>2146544537504</title>
<polygon fill="none" stroke="black" points="1108,-263 1016,-263 1016,-227 1108,-227 1108,-263"/>
<text text-anchor="middle" x="1062" y="-241.9" font-family="Times New Roman,serif" font-size="12.00">Assess_eligibility</text>
</g>
<!-- 2146544568688 -->
<g id="node32" class="node">
<title>2146544568688</title>
<ellipse fill="none" stroke="black" cx="1171" cy="-245" rx="27" ry="27"/>
</g>
<!-- 2146544537504&#45;&gt;2146544568688 -->
<g id="edge15" class="edge">
<title>2146544537504&#45;&gt;2146544568688</title>
<path fill="none" stroke="black" d="M1108.07,-245C1116.66,-245 1125.55,-245 1133.83,-245"/>
<polygon fill="black" stroke="black" points="1133.9,-248.5 1143.9,-245 1133.9,-241.5 1133.9,-248.5"/>
</g>
<!-- 2144685698592 -->
<g id="node7" class="node">
<title>2144685698592</title>
<polygon fill="none" stroke="black" points="1353.5,-236 1252.5,-236 1252.5,-200 1353.5,-200 1353.5,-236"/>
<text text-anchor="middle" x="1303" y="-214.9" font-family="Times New Roman,serif" font-size="12.00">Reject_application</text>
</g>
<!-- 2146544536736 -->
<g id="node33" class="node">
<title>2146544536736</title>
<ellipse fill="none" stroke="black" cx="1435" cy="-209" rx="27" ry="27"/>
</g>
<!-- 2144685698592&#45;&gt;2146544536736 -->
<g id="edge16" class="edge">
<title>2144685698592&#45;&gt;2146544536736</title>
<path fill="none" stroke="black" d="M1353.52,-214.57C1368.27,-213.55 1384.15,-212.45 1397.88,-211.5"/>
<polygon fill="black" stroke="black" points="1398.16,-214.99 1407.9,-210.81 1397.68,-208.01 1398.16,-214.99"/>
</g>
<!-- 2146540539424 -->
<g id="node8" class="node">
<title>2146540539424</title>
<polygon fill="none" stroke="black" points="2075.5,-286 1950.5,-286 1950.5,-250 2075.5,-250 2075.5,-286"/>
<text text-anchor="middle" x="2013" y="-264.9" font-family="Times New Roman,serif" font-size="12.00">Send_acceptance_pack</text>
</g>
<!-- 2146540539760 -->
<g id="node36" class="node">
<title>2146540539760</title>
<ellipse fill="none" stroke="black" cx="2151" cy="-286" rx="27" ry="27"/>
</g>
<!-- 2146540539424&#45;&gt;2146540539760 -->
<g id="edge12" class="edge">
<title>2146540539424&#45;&gt;2146540539760</title>
<path fill="none" stroke="black" d="M2075.63,-276.16C2088.66,-277.88 2101.99,-279.65 2113.71,-281.2"/>
<polygon fill="black" stroke="black" points="2113.59,-284.71 2123.96,-282.55 2114.5,-277.77 2113.59,-284.71"/>
</g>
<!-- 2146544394144 -->
<g id="node9" class="node">
<title>2146544394144</title>
<polygon fill="none" stroke="black" points="2088,-340 1938,-340 1938,-304 2088,-304 2088,-340"/>
<text text-anchor="middle" x="2013" y="-318.9" font-family="Times New Roman,serif" font-size="12.00">Send_home_insurance_quote</text>
</g>
<!-- 2146544394144&#45;&gt;2146540539760 -->
<g id="edge7" class="edge">
<title>2146544394144&#45;&gt;2146540539760</title>
<path fill="none" stroke="black" d="M2082.4,-303.89C2093.59,-300.93 2104.77,-297.97 2114.72,-295.34"/>
<polygon fill="black" stroke="black" points="2115.83,-298.67 2124.6,-292.72 2114.03,-291.9 2115.83,-298.67"/>
</g>
<!-- 2146544393760 -->
<g id="node10" class="node">
<title>2146544393760</title>
<polygon fill="#ff0000" stroke="black" points="2831,-374 2719,-374 2719,-338 2831,-338 2831,-374"/>
<text text-anchor="middle" x="2775" y="-352.9" font-family="Times New Roman,serif" font-size="12.00">Approve_application</text>
</g>
<!-- 2146545357728 -->
<g id="node40" class="node">
<title>2146545357728</title>
<ellipse fill="none" stroke="black" cx="2894" cy="-356" rx="27" ry="27"/>
</g>
<!-- 2146544393760&#45;&gt;2146545357728 -->
<g id="edge20" class="edge">
<title>2146544393760&#45;&gt;2146545357728</title>
<path fill="none" stroke="black" d="M2831.07,-356C2839.73,-356 2848.48,-356 2856.58,-356"/>
<polygon fill="black" stroke="black" points="2856.77,-359.5 2866.77,-356 2856.77,-352.5 2856.77,-359.5"/>
</g>
<!-- 2146545359744 -->
<g id="node42" class="node">
<title>2146545359744</title>
<ellipse fill="none" stroke="black" cx="2894" cy="-428" rx="27" ry="27"/>
</g>
<!-- 2146544393760&#45;&gt;2146545359744 -->
<g id="edge21" class="edge">
<title>2146544393760&#45;&gt;2146545359744</title>
<path fill="none" stroke="black" d="M2805.52,-374.17C2822.7,-384.74 2844.34,-398.06 2861.8,-408.8"/>
<polygon fill="black" stroke="black" points="2860.15,-411.89 2870.5,-414.15 2863.82,-405.93 2860.15,-411.89"/>
</g>
<!-- 2146545358112 -->
<g id="node11" class="node">
<title>2146545358112</title>
<polygon fill="#ff0000" stroke="black" points="3350.5,-374 3261.5,-374 3261.5,-338 3350.5,-338 3350.5,-374"/>
<text text-anchor="middle" x="3306" y="-352.9" font-family="Times New Roman,serif" font-size="12.00">Added_Acitvity</text>
</g>
<!-- 2146544391936 -->
<g id="node39" class="node">
<title>2146544391936</title>
<ellipse fill="none" stroke="black" cx="3442" cy="-356" rx="27" ry="27"/>
</g>
<!-- 2146545358112&#45;&gt;2146544391936 -->
<g id="edge4" class="edge">
<title>2146545358112&#45;&gt;2146544391936</title>
<path fill="none" stroke="black" d="M3350.51,-356C3367.93,-356 3387.79,-356 3404.45,-356"/>
<polygon fill="black" stroke="black" points="3404.88,-359.5 3414.88,-356 3404.88,-352.5 3404.88,-359.5"/>
</g>
<!-- 2146545359648 -->
<g id="node12" class="node">
<title>2146545359648</title>
<polygon fill="none" stroke="black" points="3379,-273 3233,-273 3233,-237 3379,-237 3379,-273"/>
<text text-anchor="middle" x="3306" y="-251.9" font-family="Times New Roman,serif" font-size="12.00">Loan__application_canceled</text>
</g>
<!-- 2146544998768 -->
<g id="node48" class="node">
<title>2146544998768</title>
<ellipse fill="none" stroke="black" cx="3722" cy="-255" rx="27" ry="27"/>
<ellipse fill="none" stroke="black" cx="3722" cy="-255" rx="31" ry="31"/>
<text text-anchor="start" x="3712" y="-246.9" font-family="Times New Roman,serif" font-size="32.00">■</text>
</g>
<!-- 2146545359648&#45;&gt;2146544998768 -->
<g id="edge5" class="edge">
<title>2146545359648&#45;&gt;2146544998768</title>
<path fill="none" stroke="black" d="M3379.11,-255C3466.59,-255 3611.01,-255 3680.79,-255"/>
<polygon fill="black" stroke="black" points="3680.92,-258.5 3690.92,-255 3680.92,-251.5 3680.92,-258.5"/>
</g>
<!-- 2146545000112 -->
<g id="node13" class="node">
<title>2146545000112</title>
<polygon fill="none" stroke="black" points="554.5,-117 409.5,-117 409.5,-81 554.5,-81 554.5,-117"/>
<text text-anchor="middle" x="482" y="-95.9" font-family="Times New Roman,serif" font-size="12.00">Loan__application_received</text>
</g>
<!-- 2146544999200 -->
<g id="node45" class="node">
<title>2146544999200</title>
<ellipse fill="none" stroke="black" cx="620" cy="-99" rx="27" ry="27"/>
</g>
<!-- 2146545000112&#45;&gt;2146544999200 -->
<g id="edge22" class="edge">
<title>2146545000112&#45;&gt;2146544999200</title>
<path fill="none" stroke="black" d="M554.58,-99C564.32,-99 573.96,-99 582.7,-99"/>
<polygon fill="black" stroke="black" points="582.85,-102.5 592.85,-99 582.85,-95.5 582.85,-102.5"/>
</g>
<!-- 2146544393904 -->
<g id="node14" class="node">
<title>2146544393904</title>
<polygon fill="none" stroke="black" points="2364,-304 2214,-304 2214,-268 2364,-268 2364,-304"/>
<text text-anchor="middle" x="2289" y="-282.9" font-family="Times New Roman,serif" font-size="12.00">Verify_repayment_agreement</text>
</g>
<!-- 2146540539184 -->
<g id="node37" class="node">
<title>2146540539184</title>
<ellipse fill="none" stroke="black" cx="2427" cy="-286" rx="27" ry="27"/>
</g>
<!-- 2146544393904&#45;&gt;2146540539184 -->
<g id="edge14" class="edge">
<title>2146544393904&#45;&gt;2146540539184</title>
<path fill="none" stroke="black" d="M2364.37,-286C2373.15,-286 2381.79,-286 2389.69,-286"/>
<polygon fill="black" stroke="black" points="2389.96,-289.5 2399.96,-286 2389.96,-282.5 2389.96,-289.5"/>
</g>
<!-- 2146545359168 -->
<g id="node15" class="node">
<title>2146545359168</title>
<polygon fill="#ff0000" stroke="black" points="3101,-374 2963,-374 2963,-338 3101,-338 3101,-374"/>
<text text-anchor="middle" x="3032" y="-352.9" font-family="Times New Roman,serif" font-size="12.00">Prepare_acceptance_pack</text>
</g>
<!-- 2146545358304 -->
<g id="node41" class="node">
<title>2146545358304</title>
<ellipse fill="none" stroke="black" cx="3170" cy="-356" rx="27" ry="27"/>
</g>
<!-- 2146545359168&#45;&gt;2146545358304 -->
<g id="edge19" class="edge">
<title>2146545359168&#45;&gt;2146545358304</title>
<path fill="none" stroke="black" d="M3101.4,-356C3112.28,-356 3123.15,-356 3132.89,-356"/>
<polygon fill="black" stroke="black" points="3132.96,-359.5 3142.96,-356 3132.96,-352.5 3132.96,-359.5"/>
</g>
<!-- 2146545358784 -->
<g id="node16" class="node">
<title>2146545358784</title>
<polygon fill="none" stroke="black" points="2593,-282 2490,-282 2490,-246 2593,-246 2593,-282"/>
<text text-anchor="middle" x="2541.5" y="-260.9" font-family="Times New Roman,serif" font-size="12.00">Cancel_application</text>
</g>
<!-- 2146544393568 -->
<g id="node44" class="node">
<title>2146544393568</title>
<ellipse fill="none" stroke="black" cx="2656" cy="-264" rx="27" ry="27"/>
</g>
<!-- 2146545358784&#45;&gt;2146544393568 -->
<g id="edge17" class="edge">
<title>2146545358784&#45;&gt;2146544393568</title>
<path fill="none" stroke="black" d="M2593.16,-264C2601.75,-264 2610.53,-264 2618.66,-264"/>
<polygon fill="black" stroke="black" points="2618.92,-267.5 2628.92,-264 2618.92,-260.5 2618.92,-267.5"/>
</g>
<!-- 2146544999248 -->
<g id="node17" class="node">
<title>2146544999248</title>
<polygon fill="none" stroke="black" points="890,-145 683,-145 683,-109 890,-109 890,-145"/>
<text text-anchor="middle" x="786.5" y="-123.9" font-family="Times New Roman,serif" font-size="12.00">Check__application__form_completeness</text>
</g>
<!-- 2146544999584 -->
<g id="node46" class="node">
<title>2146544999584</title>
<ellipse fill="none" stroke="black" cx="27" cy="-154" rx="27" ry="27"/>
</g>
<!-- 2146544999248&#45;&gt;2146544999584 -->
<g id="edge10" class="edge">
<title>2146544999248&#45;&gt;2146544999584</title>
<path fill="none" stroke="black" d="M682.79,-140.74C624.34,-147.41 549.7,-154 483,-154 343,-154 343,-154 343,-154 242.09,-154 123,-154 64.36,-154"/>
<polygon fill="black" stroke="black" points="64.14,-150.5 54.14,-154 64.14,-157.5 64.14,-150.5"/>
</g>
<!-- 2146544567248 -->
<g id="node18" class="node">
<title>2146544567248</title>
<polygon fill="none" stroke="black" points="281,-86 90,-86 90,-50 281,-50 281,-86"/>
<text text-anchor="middle" x="185.5" y="-64.9" font-family="Times New Roman,serif" font-size="12.00">Return_application_back_to_applicant</text>
</g>
<!-- 2146544568496 -->
<g id="node47" class="node">
<title>2146544568496</title>
<ellipse fill="none" stroke="black" cx="344" cy="-27" rx="27" ry="27"/>
</g>
<!-- 2146544567248&#45;&gt;2146544568496 -->
<g id="edge11" class="edge">
<title>2146544567248&#45;&gt;2146544568496</title>
<path fill="none" stroke="black" d="M255.6,-49.9C273.56,-45.19 292.18,-40.31 307.59,-36.28"/>
<polygon fill="black" stroke="black" points="308.91,-39.55 317.7,-33.63 307.14,-32.78 308.91,-39.55"/>
</g>
<!-- 2146544435408 -->
<g id="node19" class="node">
<title>2146544435408</title>
<polygon fill="none" stroke="black" points="1902,-227 1765,-227 1765,-191 1902,-191 1902,-227"/>
<text text-anchor="middle" x="1833.5" y="-205.9" font-family="Times New Roman,serif" font-size="12.00">Loan_application_rejected</text>
</g>
<!-- 2146544435408&#45;&gt;2146544998768 -->
<g id="edge3" class="edge">
<title>2146544435408&#45;&gt;2146544998768</title>
<path fill="none" stroke="black" d="M1902.2,-209C1966.09,-209 2064.55,-209 2150,-209 2150,-209 2150,-209 3443,-209 3529.4,-209 3628.91,-230.89 3682.31,-244.47"/>
<polygon fill="black" stroke="black" points="3681.49,-247.88 3692.04,-246.99 3683.24,-241.1 3681.49,-247.88"/>
</g>
<!-- 2146544566624 -->
<g id="node20" class="node">
<title>2146544566624</title>
<polygon fill="black" stroke="black" points="212.5,-227 158.5,-227 158.5,-191 212.5,-191 212.5,-227"/>
</g>
<!-- 2146544568736 -->
<g id="node27" class="node">
<title>2146544568736</title>
<ellipse fill="none" stroke="black" cx="344" cy="-209" rx="27" ry="27"/>
</g>
<!-- 2146544566624&#45;&gt;2146544568736 -->
<g id="edge52" class="edge">
<title>2146544566624&#45;&gt;2146544568736</title>
<path fill="none" stroke="black" d="M212.69,-209C238.5,-209 278.13,-209 306.91,-209"/>
<polygon fill="black" stroke="black" points="306.98,-212.5 316.98,-209 306.98,-205.5 306.98,-212.5"/>
</g>
<!-- 2146544566816 -->
<g id="node29" class="node">
<title>2146544566816</title>
<ellipse fill="none" stroke="black" cx="344" cy="-281" rx="27" ry="27"/>
</g>
<!-- 2146544566624&#45;&gt;2146544566816 -->
<g id="edge53" class="edge">
<title>2146544566624&#45;&gt;2146544566816</title>
<path fill="none" stroke="black" d="M212.69,-221.05C239.43,-233.35 281.01,-252.48 309.98,-265.81"/>
<polygon fill="black" stroke="black" points="308.74,-269.09 319.29,-270.09 311.66,-262.73 308.74,-269.09"/>
</g>
<!-- 2146544277728 -->
<g id="node21" class="node">
<title>2146544277728</title>
<polygon fill="none" stroke="black" points="1729,-299 1498,-299 1498,-263 1729,-263 1729,-299"/>
<text text-anchor="middle" x="1613.5" y="-277.9" font-family="Times New Roman,serif" font-size="12.00">Check_if_home_insurance_quote_is_requested</text>
</g>
<!-- 2146544435648 -->
<g id="node35" class="node">
<title>2146544435648</title>
<ellipse fill="none" stroke="black" cx="1833.5" cy="-281" rx="27" ry="27"/>
</g>
<!-- 2146544277728&#45;&gt;2146544435648 -->
<g id="edge1" class="edge">
<title>2146544277728&#45;&gt;2146544435648</title>
<path fill="none" stroke="black" d="M1729.25,-281C1753.54,-281 1777.45,-281 1796.14,-281"/>
<polygon fill="black" stroke="black" points="1796.22,-284.5 1806.22,-281 1796.22,-277.5 1796.22,-284.5"/>
</g>
<!-- 2146544567152 -->
<g id="node22" class="node">
<title>2146544567152</title>
<polygon fill="none" stroke="black" points="557,-54 407,-54 407,-18 557,-18 557,-54"/>
<text text-anchor="middle" x="482" y="-32.9" font-family="Times New Roman,serif" font-size="12.00">Receive_updated_application</text>
</g>
<!-- 2146544567152&#45;&gt;2146544999200 -->
<g id="edge8" class="edge">
<title>2146544567152&#45;&gt;2146544999200</title>
<path fill="none" stroke="black" d="M521.97,-54.05C542.12,-63.38 566.44,-74.65 585.7,-83.57"/>
<polygon fill="black" stroke="black" points="584.44,-86.85 594.98,-87.87 587.38,-80.49 584.44,-86.85"/>
</g>
<!-- 2146544435312 -->
<g id="node23" class="node">
<title>2146544435312</title>
<polygon fill="none" stroke="black" points="1372,-294 1234,-294 1234,-258 1372,-258 1372,-294"/>
<text text-anchor="middle" x="1303" y="-272.9" font-family="Times New Roman,serif" font-size="12.00">Prepare_acceptance_pack</text>
</g>
<!-- 2146544435840 -->
<g id="node34" class="node">
<title>2146544435840</title>
<ellipse fill="none" stroke="black" cx="1435" cy="-281" rx="27" ry="27"/>
</g>
<!-- 2146544435312&#45;&gt;2146544435840 -->
<g id="edge23" class="edge">
<title>2146544435312&#45;&gt;2146544435840</title>
<path fill="none" stroke="black" d="M1372.05,-278.62C1380.93,-278.96 1389.74,-279.3 1397.81,-279.61"/>
<polygon fill="black" stroke="black" points="1397.8,-283.11 1407.93,-280 1398.07,-276.12 1397.8,-283.11"/>
</g>
<!-- 2146544393712 -->
<g id="node24" class="node">
<title>2146544393712</title>
<polygon fill="black" stroke="black" points="2568.5,-345 2514.5,-345 2514.5,-309 2568.5,-309 2568.5,-345"/>
</g>
<!-- 2146544393712&#45;&gt;2146544393280 -->
<g id="edge24" class="edge">
<title>2146544393712&#45;&gt;2146544393280</title>
<path fill="none" stroke="black" d="M2568.59,-329.09C2583.5,-330.28 2602.42,-331.79 2618.76,-333.1"/>
<polygon fill="black" stroke="black" points="2618.8,-336.62 2629.05,-333.92 2619.36,-329.64 2618.8,-336.62"/>
</g>
<!-- 2146544392560 -->
<g id="node25" class="node">
<title>2146544392560</title>
<polygon fill="none" stroke="black" points="3655,-373 3505,-373 3505,-337 3655,-337 3655,-373"/>
<text text-anchor="middle" x="3580" y="-351.9" font-family="Times New Roman,serif" font-size="12.00">Loan__application_approved</text>
</g>
<!-- 2146544392560&#45;&gt;2146544998768 -->
<g id="edge13" class="edge">
<title>2146544392560&#45;&gt;2146544998768</title>
<path fill="none" stroke="black" d="M3639.31,-336.85C3644.8,-334.23 3650.12,-331.29 3655,-328 3670.87,-317.31 3685.49,-302 3696.91,-288.15"/>
<polygon fill="black" stroke="black" points="3699.75,-290.22 3703.26,-280.22 3694.28,-285.85 3699.75,-290.22"/>
</g>
<!-- 2146544998624 -->
<g id="node26" class="node">
<title>2146544998624</title>
<ellipse fill="none" stroke="black" cx="344" cy="-99" rx="27" ry="27"/>
<text text-anchor="start" x="333" y="-90.3" font-family="Times New Roman,serif" font-size="34.00">●</text>
</g>
<!-- 2146544998624&#45;&gt;2146545000112 -->
<g id="edge54" class="edge">
<title>2146544998624&#45;&gt;2146545000112</title>
<path fill="none" stroke="black" d="M371.22,-99C379.5,-99 389.13,-99 399.18,-99"/>
<polygon fill="black" stroke="black" points="399.33,-102.5 409.33,-99 399.33,-95.5 399.33,-102.5"/>
</g>
<!-- 2146544568736&#45;&gt;2146544567584 -->
<g id="edge25" class="edge">
<title>2146544568736&#45;&gt;2146544567584</title>
<path fill="none" stroke="black" d="M371.22,-209C385.22,-209 403.08,-209 420.31,-209"/>
<polygon fill="black" stroke="black" points="420.35,-212.5 430.35,-209 420.35,-205.5 420.35,-212.5"/>
</g>
<!-- 2146544568016&#45;&gt;2146544537504 -->
<g id="edge26" class="edge">
<title>2146544568016&#45;&gt;2146544537504</title>
<path fill="none" stroke="black" d="M978.82,-217.35C987.06,-220.12 996.59,-223.33 1006.18,-226.56"/>
<polygon fill="black" stroke="black" points="1005.14,-229.9 1015.74,-229.77 1007.38,-223.27 1005.14,-229.9"/>
</g>
<!-- 2146544566816&#45;&gt;2146544536208 -->
<g id="edge27" class="edge">
<title>2146544566816&#45;&gt;2146544536208</title>
<path fill="none" stroke="black" d="M371.22,-281C383.7,-281 399.23,-281 414.65,-281"/>
<polygon fill="black" stroke="black" points="414.74,-284.5 424.74,-281 414.74,-277.5 414.74,-284.5"/>
</g>
<!-- 2146544537552&#45;&gt;2146544537504 -->
<g id="edge28" class="edge">
<title>2146544537552&#45;&gt;2146544537504</title>
<path fill="none" stroke="black" d="M978.82,-272.65C987.06,-269.88 996.59,-266.67 1006.18,-263.44"/>
<polygon fill="black" stroke="black" points="1007.38,-266.73 1015.74,-260.23 1005.14,-260.1 1007.38,-266.73"/>
</g>
<!-- 2146544537216&#45;&gt;2146544536832 -->
<g id="edge29" class="edge">
<title>2146544537216&#45;&gt;2146544536832</title>
<path fill="none" stroke="black" d="M647.07,-281C668.84,-281 700.66,-281 728.32,-281"/>
<polygon fill="black" stroke="black" points="728.68,-284.5 738.68,-281 728.68,-277.5 728.68,-284.5"/>
</g>
<!-- 2146544568688&#45;&gt;2144685698592 -->
<g id="edge30" class="edge">
<title>2146544568688&#45;&gt;2144685698592</title>
<path fill="none" stroke="black" d="M1197.68,-239.67C1210.49,-237.01 1226.56,-233.67 1242.22,-230.42"/>
<polygon fill="black" stroke="black" points="1243.34,-233.76 1252.42,-228.3 1241.92,-226.9 1243.34,-233.76"/>
</g>
<!-- 2146544568688&#45;&gt;2146544435312 -->
<g id="edge31" class="edge">
<title>2146544568688&#45;&gt;2146544435312</title>
<path fill="none" stroke="black" d="M1197.37,-251.05C1205.22,-252.92 1214.3,-255.09 1223.78,-257.35"/>
<polygon fill="black" stroke="black" points="1223.23,-260.81 1233.76,-259.73 1224.85,-254 1223.23,-260.81"/>
</g>
<!-- 2146544536736&#45;&gt;2146544435408 -->
<g id="edge32" class="edge">
<title>2146544536736&#45;&gt;2146544435408</title>
<path fill="none" stroke="black" d="M1462.02,-209C1520.49,-209 1664.26,-209 1754.53,-209"/>
<polygon fill="black" stroke="black" points="1754.72,-212.5 1764.72,-209 1754.72,-205.5 1754.72,-212.5"/>
</g>
<!-- 2146544435840&#45;&gt;2146544277728 -->
<g id="edge33" class="edge">
<title>2146544435840&#45;&gt;2146544277728</title>
<path fill="none" stroke="black" d="M1462.04,-281C1469.59,-281 1478.37,-281 1487.82,-281"/>
<polygon fill="black" stroke="black" points="1487.89,-284.5 1497.89,-281 1487.89,-277.5 1487.89,-284.5"/>
</g>
<!-- 2146544435648&#45;&gt;2146540539424 -->
<g id="edge35" class="edge">
<title>2146544435648&#45;&gt;2146540539424</title>
<path fill="none" stroke="black" d="M1860.69,-279.08C1881.65,-277.55 1912.07,-275.32 1940.15,-273.26"/>
<polygon fill="black" stroke="black" points="1940.65,-276.73 1950.37,-272.51 1940.14,-269.75 1940.65,-276.73"/>
</g>
<!-- 2146544435648&#45;&gt;2146544394144 -->
<g id="edge34" class="edge">
<title>2146544435648&#45;&gt;2146544394144</title>
<path fill="none" stroke="black" d="M1859.93,-286.87C1877.96,-291.04 1903.25,-296.88 1928.05,-302.61"/>
<polygon fill="black" stroke="black" points="1927.35,-306.04 1937.88,-304.88 1928.92,-299.22 1927.35,-306.04"/>
</g>
<!-- 2146540539760&#45;&gt;2146544393904 -->
<g id="edge36" class="edge">
<title>2146540539760&#45;&gt;2146544393904</title>
<path fill="none" stroke="black" d="M2178.22,-286C2185.82,-286 2194.55,-286 2203.7,-286"/>
<polygon fill="black" stroke="black" points="2203.76,-289.5 2213.76,-286 2203.76,-282.5 2203.76,-289.5"/>
</g>
<!-- 2146540539184&#45;&gt;2146545358784 -->
<g id="edge37" class="edge">
<title>2146540539184&#45;&gt;2146545358784</title>
<path fill="none" stroke="black" d="M2453.81,-280.95C2461.72,-279.41 2470.77,-277.64 2479.99,-275.83"/>
<polygon fill="black" stroke="black" points="2480.85,-279.23 2489.99,-273.88 2479.51,-272.36 2480.85,-279.23"/>
</g>
<!-- 2146540539184&#45;&gt;2146544393712 -->
<g id="edge38" class="edge">
<title>2146540539184&#45;&gt;2146544393712</title>
<path fill="none" stroke="black" d="M2452.69,-295C2467.94,-300.55 2487.76,-307.78 2504.71,-313.96"/>
<polygon fill="black" stroke="black" points="2503.71,-317.32 2514.3,-317.45 2506.11,-310.74 2503.71,-317.32"/>
</g>
<!-- 2146544393280&#45;&gt;2146544393760 -->
<g id="edge39" class="edge">
<title>2146544393280&#45;&gt;2146544393760</title>
<path fill="none" stroke="black" d="M2682.68,-340.39C2690.48,-341.72 2699.44,-343.25 2708.63,-344.82"/>
<polygon fill="black" stroke="black" points="2708.19,-348.3 2718.64,-346.54 2709.37,-341.4 2708.19,-348.3"/>
</g>
<!-- 2146544391936&#45;&gt;2146545358976 -->
<g id="edge41" class="edge">
<title>2146544391936&#45;&gt;2146545358976</title>
<path fill="none" stroke="black" d="M3466.67,-344.81C3478.15,-339.51 3492.2,-333.22 3505,-328 3517.39,-322.95 3531.12,-317.82 3543.35,-313.4"/>
<polygon fill="black" stroke="black" points="3544.55,-316.69 3552.79,-310.03 3542.2,-310.1 3544.55,-316.69"/>
</g>
<!-- 2146544391936&#45;&gt;2146544392560 -->
<g id="edge40" class="edge">
<title>2146544391936&#45;&gt;2146544392560</title>
<path fill="none" stroke="black" d="M3469.22,-355.81C3476.82,-355.75 3485.55,-355.69 3494.7,-355.62"/>
<polygon fill="black" stroke="black" points="3494.78,-359.12 3504.76,-355.55 3494.73,-352.12 3494.78,-359.12"/>
</g>
<!-- 2146545357728&#45;&gt;2146545359168 -->
<g id="edge42" class="edge">
<title>2146545357728&#45;&gt;2146545359168</title>
<path fill="none" stroke="black" d="M2921.22,-356C2930.48,-356 2941.41,-356 2952.74,-356"/>
<polygon fill="black" stroke="black" points="2952.76,-359.5 2962.76,-356 2952.76,-352.5 2952.76,-359.5"/>
</g>
<!-- 2146545358304&#45;&gt;2146545358112 -->
<g id="edge43" class="edge">
<title>2146545358304&#45;&gt;2146545358112</title>
<path fill="none" stroke="black" d="M3197.15,-356C3212.51,-356 3232.5,-356 3251.09,-356"/>
<polygon fill="black" stroke="black" points="3251.24,-359.5 3261.24,-356 3251.24,-352.5 3251.24,-359.5"/>
</g>
<!-- 2146545359744&#45;&gt;2146545357056 -->
<g id="edge44" class="edge">
<title>2146545359744&#45;&gt;2146545357056</title>
<path fill="none" stroke="black" d="M2921.22,-428C2928.82,-428 2937.55,-428 2946.7,-428"/>
<polygon fill="black" stroke="black" points="2946.76,-431.5 2956.76,-428 2946.76,-424.5 2946.76,-431.5"/>
</g>
<!-- 2146545360464&#45;&gt;2146545358112 -->
<g id="edge45" class="edge">
<title>2146545360464&#45;&gt;2146545358112</title>
<path fill="none" stroke="black" d="M3194.04,-415.62C3212.78,-405.55 3239.74,-391.06 3262.4,-378.89"/>
<polygon fill="black" stroke="black" points="3264.33,-381.83 3271.48,-374.01 3261.02,-375.66 3264.33,-381.83"/>
</g>
<!-- 2146544393568&#45;&gt;2146545359648 -->
<g id="edge46" class="edge">
<title>2146544393568&#45;&gt;2146545359648</title>
<path fill="none" stroke="black" d="M2683.19,-263.08C2726.73,-261.64 2816.77,-259 2893,-259 2893,-259 2893,-259 3033,-259 3096.67,-259 3168.71,-257.89 3222.65,-256.84"/>
<polygon fill="black" stroke="black" points="3222.92,-260.34 3232.85,-256.64 3222.78,-253.34 3222.92,-260.34"/>
</g>
<!-- 2146544999200&#45;&gt;2146544999248 -->
<g id="edge47" class="edge">
<title>2146544999200&#45;&gt;2146544999248</title>
<path fill="none" stroke="black" d="M646.7,-103.38C654.35,-104.68 663.26,-106.19 672.8,-107.82"/>
<polygon fill="black" stroke="black" points="672.51,-111.32 682.96,-109.55 673.69,-104.42 672.51,-111.32"/>
</g>
<!-- 2146544999584&#45;&gt;2146544567248 -->
<g id="edge48" class="edge">
<title>2146544999584&#45;&gt;2146544567248</title>
<path fill="none" stroke="black" d="M51.09,-141.31C75.13,-128.1 113.31,-107.12 142.67,-90.99"/>
<polygon fill="black" stroke="black" points="144.4,-94.03 151.48,-86.15 141.03,-87.9 144.4,-94.03"/>
</g>
<!-- 2146544999584&#45;&gt;2146544566624 -->
<g id="edge49" class="edge">
<title>2146544999584&#45;&gt;2146544566624</title>
<path fill="none" stroke="black" d="M52.8,-162.71C78.66,-171.8 119.45,-186.14 148.78,-196.45"/>
<polygon fill="black" stroke="black" points="147.66,-199.76 158.25,-199.78 149.98,-193.16 147.66,-199.76"/>
</g>
<!-- 2146544568496&#45;&gt;2146544567152 -->
<g id="edge50" class="edge">
<title>2146544568496&#45;&gt;2146544567152</title>
<path fill="none" stroke="black" d="M371.22,-28.74C378.82,-29.24 387.55,-29.82 396.7,-30.42"/>
<polygon fill="black" stroke="black" points="396.55,-33.92 406.76,-31.09 397.01,-26.93 396.55,-33.92"/>
</g>
</g>
</svg>
