<?xml version="1.0" encoding="UTF-8" standalone="no"?>
<!DOCTYPE svg PUBLIC "-//W3C//DTD SVG 1.1//EN"
 "http://www.w3.org/Graphics/SVG/1.1/DTD/svg11.dtd">
<!-- Generated by graphviz version 2.49.0 (20210828.1703)
 -->
<!-- Title: imdf_net_1655279318.996048 Pages: 1 -->
<svg width="3445pt" height="220pt"
 viewBox="0.00 0.00 3445.00 220.00" xmlns="http://www.w3.org/2000/svg" xmlns:xlink="http://www.w3.org/1999/xlink">
<g id="graph0" class="graph" transform="scale(1 1) rotate(0) translate(4 216)">
<title>imdf_net_1655279318.996048</title>
<!-- 2631953932928 -->
<g id="node1" class="node">
<title>2631953932928</title>
<polygon fill="none" stroke="black" points="240,-36 90,-36 90,0 240,0 240,-36"/>
<text text-anchor="middle" x="165" y="-14.9" font-family="Times New Roman,serif" font-size="12.00">Receive_updated_application</text>
</g>
<!-- 2631954047424 -->
<g id="node35" class="node">
<title>2631954047424</title>
<ellipse fill="none" stroke="black" cx="303" cy="-73" rx="27" ry="27"/>
</g>
<!-- 2631953932928&#45;&gt;2631954047424 -->
<g id="edge16" class="edge">
<title>2631953932928&#45;&gt;2631954047424</title>
<path fill="none" stroke="black" d="M214.7,-36.04C223.16,-39.28 231.86,-42.69 240,-46 249.36,-49.81 259.44,-54.11 268.69,-58.14"/>
<polygon fill="black" stroke="black" points="267.41,-61.4 277.97,-62.21 270.22,-54.99 267.41,-61.4"/>
</g>
<!-- 2631953836928 -->
<g id="node2" class="node">
<title>2631953836928</title>
<polygon fill="none" stroke="black" points="3063,-80 2951,-80 2951,-44 3063,-44 3063,-80"/>
<text text-anchor="middle" x="3007" y="-58.9" font-family="Times New Roman,serif" font-size="12.00">Approve_application</text>
</g>
<!-- 2631953834912 -->
<g id="node33" class="node">
<title>2631953834912</title>
<ellipse fill="none" stroke="black" cx="3126" cy="-58" rx="27" ry="27"/>
</g>
<!-- 2631953836928&#45;&gt;2631953834912 -->
<g id="edge3" class="edge">
<title>2631953836928&#45;&gt;2631953834912</title>
<path fill="none" stroke="black" d="M3063.07,-60.12C3071.73,-59.82 3080.48,-59.52 3088.58,-59.25"/>
<polygon fill="black" stroke="black" points="3088.9,-62.74 3098.77,-58.9 3088.66,-55.74 3088.9,-62.74"/>
</g>
<!-- 2631953837312 -->
<g id="node3" class="node">
<title>2631953837312</title>
<polygon fill="none" stroke="black" points="3058.5,-139 2955.5,-139 2955.5,-103 3058.5,-103 3058.5,-139"/>
<text text-anchor="middle" x="3007" y="-117.9" font-family="Times New Roman,serif" font-size="12.00">Cancel_application</text>
</g>
<!-- 2631953836736 -->
<g id="node34" class="node">
<title>2631953836736</title>
<ellipse fill="none" stroke="black" cx="3126" cy="-130" rx="27" ry="27"/>
</g>
<!-- 2631953837312&#45;&gt;2631953836736 -->
<g id="edge17" class="edge">
<title>2631953837312&#45;&gt;2631953836736</title>
<path fill="none" stroke="black" d="M3058.64,-124.9C3068.69,-125.67 3079.06,-126.47 3088.52,-127.19"/>
<polygon fill="black" stroke="black" points="3088.52,-130.7 3098.76,-127.98 3089.06,-123.72 3088.52,-130.7"/>
</g>
<!-- 2631953933840 -->
<g id="node4" class="node">
<title>2631953933840</title>
<polygon fill="none" stroke="black" points="890,-82 699,-82 699,-46 890,-46 890,-82"/>
<text text-anchor="middle" x="794.5" y="-60.9" font-family="Times New Roman,serif" font-size="12.00">Return_application_back_to_applicant</text>
</g>
<!-- 2631953934224 -->
<g id="node37" class="node">
<title>2631953934224</title>
<ellipse fill="none" stroke="black" cx="953" cy="-32" rx="27" ry="27"/>
</g>
<!-- 2631953933840&#45;&gt;2631953934224 -->
<g id="edge19" class="edge">
<title>2631953933840&#45;&gt;2631953934224</title>
<path fill="none" stroke="black" d="M883.81,-45.94C895.34,-43.59 906.57,-41.29 916.48,-39.26"/>
<polygon fill="black" stroke="black" points="917.19,-42.69 926.29,-37.26 915.79,-35.83 917.19,-42.69"/>
</g>
<!-- 2631953914272 -->
<g id="node5" class="node">
<title>2631953914272</title>
<polygon fill="none" stroke="black" points="573,-91 366,-91 366,-55 573,-55 573,-91"/>
<text text-anchor="middle" x="469.5" y="-69.9" font-family="Times New Roman,serif" font-size="12.00">Check__application__form_completeness</text>
</g>
<!-- 2631953914320 -->
<g id="node36" class="node">
<title>2631953914320</title>
<ellipse fill="none" stroke="black" cx="636" cy="-73" rx="27" ry="27"/>
</g>
<!-- 2631953914272&#45;&gt;2631953914320 -->
<g id="edge8" class="edge">
<title>2631953914272&#45;&gt;2631953914320</title>
<path fill="none" stroke="black" d="M573.28,-73C582.3,-73 590.96,-73 598.81,-73"/>
<polygon fill="black" stroke="black" points="598.95,-76.5 608.95,-73 598.95,-69.5 598.95,-76.5"/>
</g>
<!-- 2631953997728 -->
<g id="node6" class="node">
<title>2631953997728</title>
<polygon fill="none" stroke="black" points="1124.5,-133 1021.5,-133 1021.5,-97 1124.5,-97 1124.5,-133"/>
<text text-anchor="middle" x="1073" y="-111.9" font-family="Times New Roman,serif" font-size="12.00">Appraise_property</text>
</g>
<!-- 2631953997488 -->
<g id="node23" class="node">
<title>2631953997488</title>
<ellipse fill="none" stroke="black" cx="1303.5" cy="-118" rx="27" ry="27"/>
</g>
<!-- 2631953997728&#45;&gt;2631953997488 -->
<g id="edge7" class="edge">
<title>2631953997728&#45;&gt;2631953997488</title>
<path fill="none" stroke="black" d="M1124.71,-115.67C1167.62,-116.23 1228.05,-117.02 1266.24,-117.52"/>
<polygon fill="black" stroke="black" points="1266.34,-121.03 1276.39,-117.66 1266.44,-114.03 1266.34,-121.03"/>
</g>
<!-- 2631953835296 -->
<g id="node7" class="node">
<title>2631953835296</title>
<polygon fill="#ff0000" stroke="black" points="2825,-112 2675,-112 2675,-76 2825,-76 2825,-112"/>
<text text-anchor="middle" x="2750" y="-90.9" font-family="Times New Roman,serif" font-size="12.00">Verify_repayment_agreement</text>
</g>
<!-- 2631953856208 -->
<g id="node30" class="node">
<title>2631953856208</title>
<ellipse fill="none" stroke="black" cx="2888" cy="-94" rx="27" ry="27"/>
</g>
<!-- 2631953835296&#45;&gt;2631953856208 -->
<g id="edge10" class="edge">
<title>2631953835296&#45;&gt;2631953856208</title>
<path fill="none" stroke="black" d="M2825.37,-94C2834.15,-94 2842.79,-94 2850.69,-94"/>
<polygon fill="black" stroke="black" points="2850.96,-97.5 2860.96,-94 2850.96,-90.5 2850.96,-97.5"/>
</g>
<!-- 2631953855920 -->
<g id="node8" class="node">
<title>2631953855920</title>
<polygon fill="none" stroke="black" points="2363,-203 2226,-203 2226,-167 2363,-167 2363,-203"/>
<text text-anchor="middle" x="2294.5" y="-181.9" font-family="Times New Roman,serif" font-size="12.00">Loan_application_rejected</text>
</g>
<!-- 2631954048720 -->
<g id="node38" class="node">
<title>2631954048720</title>
<ellipse fill="none" stroke="black" cx="3406" cy="-130" rx="27" ry="27"/>
<ellipse fill="none" stroke="black" cx="3406" cy="-130" rx="31" ry="31"/>
<text text-anchor="start" x="3396" y="-121.9" font-family="Times New Roman,serif" font-size="32.00">■</text>
</g>
<!-- 2631953855920&#45;&gt;2631954048720 -->
<g id="edge14" class="edge">
<title>2631953855920&#45;&gt;2631954048720</title>
<path fill="none" stroke="black" d="M2363.2,-185C2427.09,-185 2525.55,-185 2611,-185 2611,-185 2611,-185 3127,-185 3222.04,-185 3247.15,-181.42 3339,-157 3348.68,-154.43 3358.83,-150.78 3368.19,-147"/>
<polygon fill="black" stroke="black" points="3369.74,-150.15 3377.61,-143.05 3367.03,-143.7 3369.74,-150.15"/>
</g>
<!-- 2631953934416 -->
<g id="node9" class="node">
<title>2631953934416</title>
<polygon fill="black" stroke="black" points="821.5,-136 767.5,-136 767.5,-100 821.5,-100 821.5,-136"/>
</g>
<!-- 2631953932640 -->
<g id="node22" class="node">
<title>2631953932640</title>
<ellipse fill="none" stroke="black" cx="953" cy="-111" rx="27" ry="27"/>
</g>
<!-- 2631953934416&#45;&gt;2631953932640 -->
<g id="edge40" class="edge">
<title>2631953934416&#45;&gt;2631953932640</title>
<path fill="none" stroke="black" d="M821.69,-116.83C847.5,-115.67 887.13,-113.9 915.91,-112.61"/>
<polygon fill="black" stroke="black" points="916.15,-116.11 925.98,-112.16 915.83,-109.11 916.15,-116.11"/>
</g>
<!-- 2631953995616 -->
<g id="node24" class="node">
<title>2631953995616</title>
<ellipse fill="none" stroke="black" cx="953" cy="-183" rx="27" ry="27"/>
</g>
<!-- 2631953934416&#45;&gt;2631953995616 -->
<g id="edge41" class="edge">
<title>2631953934416&#45;&gt;2631953995616</title>
<path fill="none" stroke="black" d="M821.69,-128.88C848.27,-139.92 889.52,-157.05 918.47,-169.07"/>
<polygon fill="black" stroke="black" points="917.2,-172.34 927.78,-172.94 919.89,-165.87 917.2,-172.34"/>
</g>
<!-- 2631953994704 -->
<g id="node10" class="node">
<title>2631953994704</title>
<polygon fill="none" stroke="black" points="1351,-200 1256,-200 1256,-164 1351,-164 1351,-200"/>
<text text-anchor="middle" x="1303.5" y="-178.9" font-family="Times New Roman,serif" font-size="12.00">Assess_loan_risk</text>
</g>
<!-- 2631953995664 -->
<g id="node25" class="node">
<title>2631953995664</title>
<ellipse fill="none" stroke="black" cx="1414" cy="-179" rx="27" ry="27"/>
</g>
<!-- 2631953994704&#45;&gt;2631953995664 -->
<g id="edge1" class="edge">
<title>2631953994704&#45;&gt;2631953995664</title>
<path fill="none" stroke="black" d="M1351.14,-180.71C1359.61,-180.48 1368.33,-180.24 1376.45,-180.01"/>
<polygon fill="black" stroke="black" points="1376.82,-183.5 1386.72,-179.73 1376.62,-176.5 1376.82,-183.5"/>
</g>
<!-- 2631953961552 -->
<g id="node11" class="node">
<title>2631953961552</title>
<polygon fill="none" stroke="black" points="1814.5,-198 1713.5,-198 1713.5,-162 1814.5,-162 1814.5,-198"/>
<text text-anchor="middle" x="1764" y="-176.9" font-family="Times New Roman,serif" font-size="12.00">Reject_application</text>
</g>
<!-- 2631906930112 -->
<g id="node28" class="node">
<title>2631906930112</title>
<ellipse fill="none" stroke="black" cx="1896" cy="-185" rx="27" ry="27"/>
</g>
<!-- 2631953961552&#45;&gt;2631906930112 -->
<g id="edge4" class="edge">
<title>2631953961552&#45;&gt;2631906930112</title>
<path fill="none" stroke="black" d="M1814.52,-181.9C1829.27,-182.47 1845.15,-183.08 1858.88,-183.61"/>
<polygon fill="black" stroke="black" points="1858.77,-187.11 1868.9,-184 1859.04,-180.11 1858.77,-187.11"/>
</g>
<!-- 2631953836112 -->
<g id="node12" class="node">
<title>2631953836112</title>
<polygon fill="#ff0000" stroke="black" points="2536.5,-90 2411.5,-90 2411.5,-54 2536.5,-54 2536.5,-90"/>
<text text-anchor="middle" x="2474" y="-68.9" font-family="Times New Roman,serif" font-size="12.00">Send_acceptance_pack</text>
</g>
<!-- 2631953835824 -->
<g id="node32" class="node">
<title>2631953835824</title>
<ellipse fill="none" stroke="black" cx="2612" cy="-94" rx="27" ry="27"/>
</g>
<!-- 2631953836112&#45;&gt;2631953835824 -->
<g id="edge9" class="edge">
<title>2631953836112&#45;&gt;2631953835824</title>
<path fill="none" stroke="black" d="M2536.63,-81.97C2549.9,-84.12 2563.49,-86.31 2575.36,-88.23"/>
<polygon fill="black" stroke="black" points="2574.87,-91.7 2585.3,-89.84 2575.99,-84.79 2574.87,-91.7"/>
</g>
<!-- 2631953836496 -->
<g id="node13" class="node">
<title>2631953836496</title>
<polygon fill="#ff0000" stroke="black" points="2549,-144 2399,-144 2399,-108 2549,-108 2549,-144"/>
<text text-anchor="middle" x="2474" y="-122.9" font-family="Times New Roman,serif" font-size="12.00">Send_home_insurance_quote</text>
</g>
<!-- 2631953836496&#45;&gt;2631953835824 -->
<g id="edge11" class="edge">
<title>2631953836496&#45;&gt;2631953835824</title>
<path fill="none" stroke="black" d="M2549.37,-108.5C2558.52,-106.35 2567.52,-104.23 2575.7,-102.31"/>
<polygon fill="black" stroke="black" points="2576.63,-105.68 2585.56,-99.99 2575.02,-98.87 2576.63,-105.68"/>
</g>
<!-- 2631953835728 -->
<g id="node14" class="node">
<title>2631953835728</title>
<polygon fill="none" stroke="black" points="3339,-85 3189,-85 3189,-49 3339,-49 3339,-85"/>
<text text-anchor="middle" x="3264" y="-63.9" font-family="Times New Roman,serif" font-size="12.00">Loan__application_approved</text>
</g>
<!-- 2631953835728&#45;&gt;2631954048720 -->
<g id="edge2" class="edge">
<title>2631953835728&#45;&gt;2631954048720</title>
<path fill="none" stroke="black" d="M3305.12,-85.05C3324.98,-93.99 3348.79,-104.7 3368.18,-113.43"/>
<polygon fill="black" stroke="black" points="3366.75,-116.63 3377.31,-117.54 3369.62,-110.24 3366.75,-116.63"/>
</g>
<!-- 2631953994848 -->
<g id="node15" class="node">
<title>2631953994848</title>
<polygon fill="none" stroke="black" points="1130,-200 1016,-200 1016,-164 1130,-164 1130,-200"/>
<text text-anchor="middle" x="1073" y="-178.9" font-family="Times New Roman,serif" font-size="12.00">Check_credit_history</text>
</g>
<!-- 2631953994896 -->
<g id="node26" class="node">
<title>2631953994896</title>
<ellipse fill="none" stroke="black" cx="1193" cy="-182" rx="27" ry="27"/>
</g>
<!-- 2631953994848&#45;&gt;2631953994896 -->
<g id="edge18" class="edge">
<title>2631953994848&#45;&gt;2631953994896</title>
<path fill="none" stroke="black" d="M1130.24,-182C1138.9,-182 1147.65,-182 1155.73,-182"/>
<polygon fill="black" stroke="black" points="1155.89,-185.5 1165.89,-182 1155.89,-178.5 1155.89,-185.5"/>
</g>
<!-- 2631906930016 -->
<g id="node16" class="node">
<title>2631906930016</title>
<polygon fill="none" stroke="black" points="1569,-167 1477,-167 1477,-131 1569,-131 1569,-167"/>
<text text-anchor="middle" x="1523" y="-145.9" font-family="Times New Roman,serif" font-size="12.00">Assess_eligibility</text>
</g>
<!-- 2631953932784 -->
<g id="node27" class="node">
<title>2631953932784</title>
<ellipse fill="none" stroke="black" cx="1632" cy="-149" rx="27" ry="27"/>
</g>
<!-- 2631906930016&#45;&gt;2631953932784 -->
<g id="edge5" class="edge">
<title>2631906930016&#45;&gt;2631953932784</title>
<path fill="none" stroke="black" d="M1569.07,-149C1577.66,-149 1586.55,-149 1594.83,-149"/>
<polygon fill="black" stroke="black" points="1594.9,-152.5 1604.9,-149 1594.9,-145.5 1594.9,-152.5"/>
</g>
<!-- 2631953855968 -->
<g id="node17" class="node">
<title>2631953855968</title>
<polygon fill="none" stroke="black" points="1833,-140 1695,-140 1695,-104 1833,-104 1833,-140"/>
<text text-anchor="middle" x="1764" y="-118.9" font-family="Times New Roman,serif" font-size="12.00">Prepare_acceptance_pack</text>
</g>
<!-- 2631953857264 -->
<g id="node29" class="node">
<title>2631953857264</title>
<ellipse fill="none" stroke="black" cx="1896" cy="-113" rx="27" ry="27"/>
</g>
<!-- 2631953855968&#45;&gt;2631953857264 -->
<g id="edge15" class="edge">
<title>2631953855968&#45;&gt;2631953857264</title>
<path fill="none" stroke="black" d="M1833.05,-117.29C1841.93,-116.67 1850.74,-116.06 1858.81,-115.51"/>
<polygon fill="black" stroke="black" points="1859.19,-118.99 1868.93,-114.81 1858.71,-112 1859.19,-118.99"/>
</g>
<!-- 2631954048240 -->
<g id="node18" class="node">
<title>2631954048240</title>
<polygon fill="none" stroke="black" points="237.5,-91 92.5,-91 92.5,-55 237.5,-55 237.5,-91"/>
<text text-anchor="middle" x="165" y="-69.9" font-family="Times New Roman,serif" font-size="12.00">Loan__application_received</text>
</g>
<!-- 2631954048240&#45;&gt;2631954047424 -->
<g id="edge6" class="edge">
<title>2631954048240&#45;&gt;2631954047424</title>
<path fill="none" stroke="black" d="M237.58,-73C247.32,-73 256.96,-73 265.7,-73"/>
<polygon fill="black" stroke="black" points="265.85,-76.5 275.85,-73 265.85,-69.5 265.85,-76.5"/>
</g>
<!-- 2631953855728 -->
<g id="node19" class="node">
<title>2631953855728</title>
<polygon fill="#ff0000" stroke="black" points="2190,-131 1959,-131 1959,-95 2190,-95 2190,-131"/>
<text text-anchor="middle" x="2074.5" y="-109.9" font-family="Times New Roman,serif" font-size="12.00">Check_if_home_insurance_quote_is_requested</text>
</g>
<!-- 2631953856496 -->
<g id="node31" class="node">
<title>2631953856496</title>
<ellipse fill="none" stroke="black" cx="2294.5" cy="-113" rx="27" ry="27"/>
</g>
<!-- 2631953855728&#45;&gt;2631953856496 -->
<g id="edge13" class="edge">
<title>2631953855728&#45;&gt;2631953856496</title>
<path fill="none" stroke="black" d="M2190.25,-113C2214.54,-113 2238.45,-113 2257.14,-113"/>
<polygon fill="black" stroke="black" points="2257.22,-116.5 2267.22,-113 2257.22,-109.5 2257.22,-116.5"/>
</g>
<!-- 2631953834096 -->
<g id="node20" class="node">
<title>2631953834096</title>
<polygon fill="none" stroke="black" points="3337,-148 3191,-148 3191,-112 3337,-112 3337,-148"/>
<text text-anchor="middle" x="3264" y="-126.9" font-family="Times New Roman,serif" font-size="12.00">Loan__application_canceled</text>
</g>
<!-- 2631953834096&#45;&gt;2631954048720 -->
<g id="edge12" class="edge">
<title>2631953834096&#45;&gt;2631954048720</title>
<path fill="none" stroke="black" d="M3337.05,-130C3346.58,-130 3356.05,-130 3364.77,-130"/>
<polygon fill="black" stroke="black" points="3364.98,-133.5 3374.98,-130 3364.98,-126.5 3364.98,-133.5"/>
</g>
<!-- 2631954048192 -->
<g id="node21" class="node">
<title>2631954048192</title>
<ellipse fill="none" stroke="black" cx="27" cy="-73" rx="27" ry="27"/>
<text text-anchor="start" x="16" y="-64.3" font-family="Times New Roman,serif" font-size="34.00">●</text>
</g>
<!-- 2631954048192&#45;&gt;2631954048240 -->
<g id="edge42" class="edge">
<title>2631954048192&#45;&gt;2631954048240</title>
<path fill="none" stroke="black" d="M54.22,-73C62.5,-73 72.13,-73 82.18,-73"/>
<polygon fill="black" stroke="black" points="82.33,-76.5 92.33,-73 82.33,-69.5 82.33,-76.5"/>
</g>
<!-- 2631953932640&#45;&gt;2631953997728 -->
<g id="edge20" class="edge">
<title>2631953932640&#45;&gt;2631953997728</title>
<path fill="none" stroke="black" d="M980.19,-111.89C989.44,-112.2 1000.27,-112.57 1011.19,-112.94"/>
<polygon fill="black" stroke="black" points="1011.08,-116.44 1021.19,-113.28 1011.32,-109.44 1011.08,-116.44"/>
</g>
<!-- 2631953997488&#45;&gt;2631906930016 -->
<g id="edge21" class="edge">
<title>2631953997488&#45;&gt;2631906930016</title>
<path fill="none" stroke="black" d="M1330.3,-121.68C1363.81,-126.45 1423.2,-134.92 1467.02,-141.16"/>
<polygon fill="black" stroke="black" points="1466.56,-144.63 1476.95,-142.58 1467.55,-137.7 1466.56,-144.63"/>
</g>
<!-- 2631953995616&#45;&gt;2631953994848 -->
<g id="edge22" class="edge">
<title>2631953995616&#45;&gt;2631953994848</title>
<path fill="none" stroke="black" d="M980.19,-182.78C987.88,-182.71 996.67,-182.64 1005.69,-182.56"/>
<polygon fill="black" stroke="black" points="1005.96,-186.06 1015.93,-182.48 1005.9,-179.06 1005.96,-186.06"/>
</g>
<!-- 2631953995664&#45;&gt;2631906930016 -->
<g id="edge23" class="edge">
<title>2631953995664&#45;&gt;2631906930016</title>
<path fill="none" stroke="black" d="M1440.09,-171.97C1448.25,-169.68 1457.65,-167.04 1467.11,-164.39"/>
<polygon fill="black" stroke="black" points="1468.26,-167.7 1476.94,-161.63 1466.37,-160.96 1468.26,-167.7"/>
</g>
<!-- 2631953994896&#45;&gt;2631953994704 -->
<g id="edge24" class="edge">
<title>2631953994896&#45;&gt;2631953994704</title>
<path fill="none" stroke="black" d="M1220.26,-182C1228.01,-182 1236.81,-182 1245.69,-182"/>
<polygon fill="black" stroke="black" points="1245.71,-185.5 1255.71,-182 1245.71,-178.5 1245.71,-185.5"/>
</g>
<!-- 2631953932784&#45;&gt;2631953961552 -->
<g id="edge25" class="edge">
<title>2631953932784&#45;&gt;2631953961552</title>
<path fill="none" stroke="black" d="M1658.37,-155.05C1671.35,-158.14 1687.72,-162.05 1703.65,-165.85"/>
<polygon fill="black" stroke="black" points="1702.93,-169.27 1713.47,-168.19 1704.55,-162.46 1702.93,-169.27"/>
</g>
<!-- 2631953932784&#45;&gt;2631953855968 -->
<g id="edge26" class="edge">
<title>2631953932784&#45;&gt;2631953855968</title>
<path fill="none" stroke="black" d="M1658.68,-143.67C1666.48,-142.05 1675.49,-140.18 1684.88,-138.23"/>
<polygon fill="black" stroke="black" points="1685.69,-141.63 1694.77,-136.17 1684.26,-134.78 1685.69,-141.63"/>
</g>
<!-- 2631906930112&#45;&gt;2631953855920 -->
<g id="edge27" class="edge">
<title>2631906930112&#45;&gt;2631953855920</title>
<path fill="none" stroke="black" d="M1923.02,-185C1981.49,-185 2125.26,-185 2215.53,-185"/>
<polygon fill="black" stroke="black" points="2215.72,-188.5 2225.72,-185 2215.72,-181.5 2215.72,-188.5"/>
</g>
<!-- 2631953857264&#45;&gt;2631953855728 -->
<g id="edge28" class="edge">
<title>2631953857264&#45;&gt;2631953855728</title>
<path fill="none" stroke="black" d="M1923.04,-113C1930.59,-113 1939.37,-113 1948.82,-113"/>
<polygon fill="black" stroke="black" points="1948.89,-116.5 1958.89,-113 1948.89,-109.5 1948.89,-116.5"/>
</g>
<!-- 2631953856208&#45;&gt;2631953836928 -->
<g id="edge29" class="edge">
<title>2631953856208&#45;&gt;2631953836928</title>
<path fill="none" stroke="black" d="M2914.39,-87.06C2922.37,-84.87 2931.58,-82.36 2941.01,-79.77"/>
<polygon fill="black" stroke="black" points="2942.16,-83.09 2950.88,-77.07 2940.31,-76.34 2942.16,-83.09"/>
</g>
<!-- 2631953856208&#45;&gt;2631953837312 -->
<g id="edge30" class="edge">
<title>2631953856208&#45;&gt;2631953837312</title>
<path fill="none" stroke="black" d="M2914.39,-99.86C2923.55,-101.97 2934.32,-104.46 2945.2,-106.97"/>
<polygon fill="black" stroke="black" points="2944.65,-110.43 2955.18,-109.27 2946.22,-103.61 2944.65,-110.43"/>
</g>
<!-- 2631953856496&#45;&gt;2631953836112 -->
<g id="edge31" class="edge">
<title>2631953856496&#45;&gt;2631953836112</title>
<path fill="none" stroke="black" d="M2320.93,-107.13C2341.94,-102.27 2372.83,-95.14 2401.28,-88.57"/>
<polygon fill="black" stroke="black" points="2402.27,-91.93 2411.23,-86.27 2400.7,-85.11 2402.27,-91.93"/>
</g>
<!-- 2631953856496&#45;&gt;2631953836496 -->
<g id="edge32" class="edge">
<title>2631953856496&#45;&gt;2631953836496</title>
<path fill="none" stroke="black" d="M2321.69,-114.92C2339.57,-116.23 2364.35,-118.04 2388.69,-119.82"/>
<polygon fill="black" stroke="black" points="2388.47,-123.32 2398.7,-120.56 2388.98,-116.34 2388.47,-123.32"/>
</g>
<!-- 2631953835824&#45;&gt;2631953835296 -->
<g id="edge33" class="edge">
<title>2631953835824&#45;&gt;2631953835296</title>
<path fill="none" stroke="black" d="M2639.22,-94C2646.82,-94 2655.55,-94 2664.7,-94"/>
<polygon fill="black" stroke="black" points="2664.76,-97.5 2674.76,-94 2664.76,-90.5 2664.76,-97.5"/>
</g>
<!-- 2631953834912&#45;&gt;2631953835728 -->
<g id="edge34" class="edge">
<title>2631953834912&#45;&gt;2631953835728</title>
<path fill="none" stroke="black" d="M3153.22,-59.74C3160.82,-60.24 3169.55,-60.82 3178.7,-61.42"/>
<polygon fill="black" stroke="black" points="3178.55,-64.92 3188.76,-62.09 3179.01,-57.93 3178.55,-64.92"/>
</g>
<!-- 2631953836736&#45;&gt;2631953834096 -->
<g id="edge35" class="edge">
<title>2631953836736&#45;&gt;2631953834096</title>
<path fill="none" stroke="black" d="M3153.22,-130C3161.38,-130 3170.86,-130 3180.75,-130"/>
<polygon fill="black" stroke="black" points="3180.76,-133.5 3190.76,-130 3180.76,-126.5 3180.76,-133.5"/>
</g>
<!-- 2631954047424&#45;&gt;2631953914272 -->
<g id="edge36" class="edge">
<title>2631954047424&#45;&gt;2631953914272</title>
<path fill="none" stroke="black" d="M330.07,-73C337.66,-73 346.49,-73 355.93,-73"/>
<polygon fill="black" stroke="black" points="355.97,-76.5 365.97,-73 355.97,-69.5 355.97,-76.5"/>
</g>
<!-- 2631953914320&#45;&gt;2631953933840 -->
<g id="edge37" class="edge">
<title>2631953914320&#45;&gt;2631953933840</title>
<path fill="none" stroke="black" d="M663.19,-71.49C670.67,-71.06 679.31,-70.57 688.51,-70.04"/>
<polygon fill="black" stroke="black" points="688.89,-73.52 698.68,-69.45 688.49,-66.53 688.89,-73.52"/>
</g>
<!-- 2631953914320&#45;&gt;2631953934416 -->
<g id="edge38" class="edge">
<title>2631953914320&#45;&gt;2631953934416</title>
<path fill="none" stroke="black" d="M662.03,-80.29C673.32,-83.58 686.83,-87.49 699,-91 718.33,-96.57 739.89,-102.73 757.53,-107.76"/>
<polygon fill="black" stroke="black" points="756.84,-111.21 767.42,-110.58 758.76,-104.47 756.84,-111.21"/>
</g>
<!-- 2631953934224&#45;&gt;2631953932928 -->
<g id="edge39" class="edge">
<title>2631953934224&#45;&gt;2631953932928</title>
<path fill="none" stroke="black" d="M925.88,-30.05C871.94,-26.21 744.29,-18 637,-18 468.5,-18 468.5,-18 468.5,-18 394.9,-18 311.23,-18 250.57,-18"/>
<polygon fill="black" stroke="black" points="250.28,-14.5 240.28,-18 250.28,-21.5 250.28,-14.5"/>
</g>
</g>
</svg>
