<?xml version="1.0" encoding="UTF-8" standalone="no"?>
<!DOCTYPE svg PUBLIC "-//W3C//DTD SVG 1.1//EN"
 "http://www.w3.org/Graphics/SVG/1.1/DTD/svg11.dtd">
<!-- Generated by graphviz version 2.49.0 (20210828.1703)
 -->
<!-- Title: imdf_net_1656686593.0629714 Pages: 1 -->
<svg width="2984pt" height="316pt"
 viewBox="0.00 0.00 2984.00 316.00" xmlns="http://www.w3.org/2000/svg" xmlns:xlink="http://www.w3.org/1999/xlink">
<g id="graph0" class="graph" transform="scale(1 1) rotate(0) translate(4 312)">
<title>imdf_net_1656686593.0629714</title>
<!-- 1487278626176 -->
<g id="node1" class="node">
<title>1487278626176</title>
<polygon fill="none" stroke="black" points="1353.5,-294 1252.5,-294 1252.5,-258 1353.5,-258 1353.5,-294"/>
<text text-anchor="middle" x="1303" y="-272.9" font-family="Times New Roman,serif" font-size="12.00">Reject_application</text>
</g>
<!-- 1487278625984 -->
<g id="node28" class="node">
<title>1487278625984</title>
<ellipse fill="none" stroke="black" cx="1435" cy="-281" rx="27" ry="27"/>
</g>
<!-- 1487278626176&#45;&gt;1487278625984 -->
<g id="edge18" class="edge">
<title>1487278626176&#45;&gt;1487278625984</title>
<path fill="none" stroke="black" d="M1353.52,-277.9C1368.27,-278.47 1384.15,-279.08 1397.88,-279.61"/>
<polygon fill="black" stroke="black" points="1397.77,-283.11 1407.9,-280 1398.04,-276.11 1397.77,-283.11"/>
</g>
<!-- 1487278666512 -->
<g id="node2" class="node">
<title>1487278666512</title>
<polygon fill="none" stroke="black" points="890,-145 683,-145 683,-109 890,-109 890,-145"/>
<text text-anchor="middle" x="786.5" y="-123.9" font-family="Times New Roman,serif" font-size="12.00">Check__application__form_completeness</text>
</g>
<!-- 1487278666176 -->
<g id="node36" class="node">
<title>1487278666176</title>
<ellipse fill="none" stroke="black" cx="27" cy="-154" rx="27" ry="27"/>
</g>
<!-- 1487278666512&#45;&gt;1487278666176 -->
<g id="edge2" class="edge">
<title>1487278666512&#45;&gt;1487278666176</title>
<path fill="none" stroke="black" d="M682.79,-140.74C624.34,-147.41 549.7,-154 483,-154 343,-154 343,-154 343,-154 242.09,-154 123,-154 64.36,-154"/>
<polygon fill="black" stroke="black" points="64.14,-150.5 54.14,-154 64.14,-157.5 64.14,-150.5"/>
</g>
<!-- 1487278667664 -->
<g id="node3" class="node">
<title>1487278667664</title>
<polygon fill="none" stroke="black" points="281,-86 90,-86 90,-50 281,-50 281,-86"/>
<text text-anchor="middle" x="185.5" y="-64.9" font-family="Times New Roman,serif" font-size="12.00">Return_application_back_to_applicant</text>
</g>
<!-- 1487278667376 -->
<g id="node37" class="node">
<title>1487278667376</title>
<ellipse fill="none" stroke="black" cx="344" cy="-27" rx="27" ry="27"/>
</g>
<!-- 1487278667664&#45;&gt;1487278667376 -->
<g id="edge9" class="edge">
<title>1487278667664&#45;&gt;1487278667376</title>
<path fill="none" stroke="black" d="M255.6,-49.9C273.56,-45.19 292.18,-40.31 307.59,-36.28"/>
<polygon fill="black" stroke="black" points="308.91,-39.55 317.7,-33.63 307.14,-32.78 308.91,-39.55"/>
</g>
<!-- 1487278627088 -->
<g id="node4" class="node">
<title>1487278627088</title>
<polygon fill="#ff0000" stroke="black" points="1729,-227 1498,-227 1498,-191 1729,-191 1729,-227"/>
<text text-anchor="middle" x="1613.5" y="-205.9" font-family="Times New Roman,serif" font-size="12.00">Check_if_home_insurance_quote_is_requested</text>
</g>
<!-- 1487278626896 -->
<g id="node31" class="node">
<title>1487278626896</title>
<ellipse fill="none" stroke="black" cx="1833.5" cy="-209" rx="27" ry="27"/>
</g>
<!-- 1487278627088&#45;&gt;1487278626896 -->
<g id="edge10" class="edge">
<title>1487278627088&#45;&gt;1487278626896</title>
<path fill="none" stroke="black" d="M1729.25,-209C1753.54,-209 1777.45,-209 1796.14,-209"/>
<polygon fill="black" stroke="black" points="1796.22,-212.5 1806.22,-209 1796.22,-205.5 1796.22,-212.5"/>
</g>
<!-- 1487278746784 -->
<g id="node5" class="node">
<title>1487278746784</title>
<polygon fill="none" stroke="black" points="554.5,-117 409.5,-117 409.5,-81 554.5,-81 554.5,-117"/>
<text text-anchor="middle" x="482" y="-95.9" font-family="Times New Roman,serif" font-size="12.00">Loan__application_received</text>
</g>
<!-- 1487279247472 -->
<g id="node35" class="node">
<title>1487279247472</title>
<ellipse fill="none" stroke="black" cx="620" cy="-99" rx="27" ry="27"/>
</g>
<!-- 1487278746784&#45;&gt;1487279247472 -->
<g id="edge15" class="edge">
<title>1487278746784&#45;&gt;1487279247472</title>
<path fill="none" stroke="black" d="M554.58,-99C564.32,-99 573.96,-99 582.7,-99"/>
<polygon fill="black" stroke="black" points="582.85,-102.5 592.85,-99 582.85,-95.5 582.85,-102.5"/>
</g>
<!-- 1487278668720 -->
<g id="node6" class="node">
<title>1487278668720</title>
<polygon fill="black" stroke="black" points="212.5,-227 158.5,-227 158.5,-191 212.5,-191 212.5,-227"/>
</g>
<!-- 1487278666560 -->
<g id="node22" class="node">
<title>1487278666560</title>
<ellipse fill="none" stroke="black" cx="344" cy="-281" rx="27" ry="27"/>
</g>
<!-- 1487278668720&#45;&gt;1487278666560 -->
<g id="edge40" class="edge">
<title>1487278668720&#45;&gt;1487278666560</title>
<path fill="none" stroke="black" d="M212.69,-221.05C239.43,-233.35 281.01,-252.48 309.98,-265.81"/>
<polygon fill="black" stroke="black" points="308.74,-269.09 319.29,-270.09 311.66,-262.73 308.74,-269.09"/>
</g>
<!-- 1487278667616 -->
<g id="node24" class="node">
<title>1487278667616</title>
<ellipse fill="none" stroke="black" cx="344" cy="-209" rx="27" ry="27"/>
</g>
<!-- 1487278668720&#45;&gt;1487278667616 -->
<g id="edge41" class="edge">
<title>1487278668720&#45;&gt;1487278667616</title>
<path fill="none" stroke="black" d="M212.69,-209C238.5,-209 278.13,-209 306.91,-209"/>
<polygon fill="black" stroke="black" points="306.98,-212.5 316.98,-209 306.98,-205.5 306.98,-212.5"/>
</g>
<!-- 1487278625072 -->
<g id="node7" class="node">
<title>1487278625072</title>
<polygon fill="none" stroke="black" points="1108,-263 1016,-263 1016,-227 1108,-227 1108,-263"/>
<text text-anchor="middle" x="1062" y="-241.9" font-family="Times New Roman,serif" font-size="12.00">Assess_eligibility</text>
</g>
<!-- 1487278666704 -->
<g id="node27" class="node">
<title>1487278666704</title>
<ellipse fill="none" stroke="black" cx="1171" cy="-245" rx="27" ry="27"/>
</g>
<!-- 1487278625072&#45;&gt;1487278666704 -->
<g id="edge8" class="edge">
<title>1487278625072&#45;&gt;1487278666704</title>
<path fill="none" stroke="black" d="M1108.07,-245C1116.66,-245 1125.55,-245 1133.83,-245"/>
<polygon fill="black" stroke="black" points="1133.9,-248.5 1143.9,-245 1133.9,-241.5 1133.9,-248.5"/>
</g>
<!-- 1487278641456 -->
<g id="node8" class="node">
<title>1487278641456</title>
<polygon fill="none" stroke="black" points="2602,-235 2490,-235 2490,-199 2602,-199 2602,-235"/>
<text text-anchor="middle" x="2546" y="-213.9" font-family="Times New Roman,serif" font-size="12.00">Approve_application</text>
</g>
<!-- 1487278641264 -->
<g id="node34" class="node">
<title>1487278641264</title>
<ellipse fill="none" stroke="black" cx="2665" cy="-226" rx="27" ry="27"/>
</g>
<!-- 1487278641456&#45;&gt;1487278641264 -->
<g id="edge3" class="edge">
<title>1487278641456&#45;&gt;1487278641264</title>
<path fill="none" stroke="black" d="M2602.07,-221.24C2610.73,-221.9 2619.48,-222.58 2627.58,-223.2"/>
<polygon fill="black" stroke="black" points="2627.53,-226.71 2637.77,-223.98 2628.07,-219.73 2627.53,-226.71"/>
</g>
<!-- 1487278627520 -->
<g id="node9" class="node">
<title>1487278627520</title>
<polygon fill="#ff0000" stroke="black" points="2075.5,-240 1950.5,-240 1950.5,-204 2075.5,-204 2075.5,-240"/>
<text text-anchor="middle" x="2013" y="-218.9" font-family="Times New Roman,serif" font-size="12.00">Send_acceptance_pack</text>
</g>
<!-- 1487278627280 -->
<g id="node32" class="node">
<title>1487278627280</title>
<ellipse fill="none" stroke="black" cx="2151" cy="-190" rx="27" ry="27"/>
</g>
<!-- 1487278627520&#45;&gt;1487278627280 -->
<g id="edge14" class="edge">
<title>1487278627520&#45;&gt;1487278627280</title>
<path fill="none" stroke="black" d="M2075.63,-207.5C2089.01,-204.35 2102.71,-201.13 2114.65,-198.32"/>
<polygon fill="black" stroke="black" points="2115.71,-201.66 2124.64,-195.97 2114.1,-194.85 2115.71,-201.66"/>
</g>
<!-- 1487278625360 -->
<g id="node10" class="node">
<title>1487278625360</title>
<polygon fill="none" stroke="black" points="1902,-299 1765,-299 1765,-263 1902,-263 1902,-299"/>
<text text-anchor="middle" x="1833.5" y="-277.9" font-family="Times New Roman,serif" font-size="12.00">Loan_application_rejected</text>
</g>
<!-- 1487278745632 -->
<g id="node38" class="node">
<title>1487278745632</title>
<ellipse fill="none" stroke="black" cx="2945" cy="-226" rx="27" ry="27"/>
<ellipse fill="none" stroke="black" cx="2945" cy="-226" rx="31" ry="31"/>
<text text-anchor="start" x="2935" y="-217.9" font-family="Times New Roman,serif" font-size="32.00">■</text>
</g>
<!-- 1487278625360&#45;&gt;1487278745632 -->
<g id="edge7" class="edge">
<title>1487278625360&#45;&gt;1487278745632</title>
<path fill="none" stroke="black" d="M1902.2,-281C1966.09,-281 2064.55,-281 2150,-281 2150,-281 2150,-281 2666,-281 2761.04,-281 2786.15,-277.42 2878,-253 2887.68,-250.43 2897.83,-246.78 2907.19,-243"/>
<polygon fill="black" stroke="black" points="2908.74,-246.15 2916.61,-239.05 2906.03,-239.7 2908.74,-246.15"/>
</g>
<!-- 1487278626128 -->
<g id="node11" class="node">
<title>1487278626128</title>
<polygon fill="none" stroke="black" points="1372,-236 1234,-236 1234,-200 1372,-200 1372,-236"/>
<text text-anchor="middle" x="1303" y="-214.9" font-family="Times New Roman,serif" font-size="12.00">Prepare_acceptance_pack</text>
</g>
<!-- 1487278625552 -->
<g id="node29" class="node">
<title>1487278625552</title>
<ellipse fill="none" stroke="black" cx="1435" cy="-209" rx="27" ry="27"/>
</g>
<!-- 1487278626128&#45;&gt;1487278625552 -->
<g id="edge19" class="edge">
<title>1487278626128&#45;&gt;1487278625552</title>
<path fill="none" stroke="black" d="M1372.05,-213.29C1380.93,-212.67 1389.74,-212.06 1397.81,-211.51"/>
<polygon fill="black" stroke="black" points="1398.19,-214.99 1407.93,-210.81 1397.71,-208 1398.19,-214.99"/>
</g>
<!-- 1487278628048 -->
<g id="node12" class="node">
<title>1487278628048</title>
<polygon fill="#ff0000" stroke="black" points="2364,-208 2214,-208 2214,-172 2364,-172 2364,-208"/>
<text text-anchor="middle" x="2289" y="-186.9" font-family="Times New Roman,serif" font-size="12.00">Verify_repayment_agreement</text>
</g>
<!-- 1487278626368 -->
<g id="node30" class="node">
<title>1487278626368</title>
<ellipse fill="none" stroke="black" cx="2427" cy="-190" rx="27" ry="27"/>
</g>
<!-- 1487278628048&#45;&gt;1487278626368 -->
<g id="edge6" class="edge">
<title>1487278628048&#45;&gt;1487278626368</title>
<path fill="none" stroke="black" d="M2364.37,-190C2373.15,-190 2381.79,-190 2389.69,-190"/>
<polygon fill="black" stroke="black" points="2389.96,-193.5 2399.96,-190 2389.96,-186.5 2389.96,-193.5"/>
</g>
<!-- 1487278628432 -->
<g id="node13" class="node">
<title>1487278628432</title>
<polygon fill="none" stroke="black" points="2597.5,-176 2494.5,-176 2494.5,-140 2597.5,-140 2597.5,-176"/>
<text text-anchor="middle" x="2546" y="-154.9" font-family="Times New Roman,serif" font-size="12.00">Cancel_application</text>
</g>
<!-- 1487278628240 -->
<g id="node33" class="node">
<title>1487278628240</title>
<ellipse fill="none" stroke="black" cx="2665" cy="-154" rx="27" ry="27"/>
</g>
<!-- 1487278628432&#45;&gt;1487278628240 -->
<g id="edge1" class="edge">
<title>1487278628432&#45;&gt;1487278628240</title>
<path fill="none" stroke="black" d="M2597.64,-156.27C2607.69,-155.93 2618.06,-155.57 2627.52,-155.25"/>
<polygon fill="black" stroke="black" points="2627.89,-158.74 2637.76,-154.9 2627.65,-151.74 2627.89,-158.74"/>
</g>
<!-- 1487278641744 -->
<g id="node14" class="node">
<title>1487278641744</title>
<polygon fill="none" stroke="black" points="2878,-244 2728,-244 2728,-208 2878,-208 2878,-244"/>
<text text-anchor="middle" x="2803" y="-222.9" font-family="Times New Roman,serif" font-size="12.00">Loan__application_approved</text>
</g>
<!-- 1487278641744&#45;&gt;1487278745632 -->
<g id="edge4" class="edge">
<title>1487278641744&#45;&gt;1487278745632</title>
<path fill="none" stroke="black" d="M2878.1,-226C2886.86,-226 2895.53,-226 2903.56,-226"/>
<polygon fill="black" stroke="black" points="2903.71,-229.5 2913.71,-226 2903.71,-222.5 2903.71,-229.5"/>
</g>
<!-- 1487278667232 -->
<g id="node15" class="node">
<title>1487278667232</title>
<polygon fill="none" stroke="black" points="533.5,-299 430.5,-299 430.5,-263 533.5,-263 533.5,-299"/>
<text text-anchor="middle" x="482" y="-277.9" font-family="Times New Roman,serif" font-size="12.00">Appraise_property</text>
</g>
<!-- 1487278666752 -->
<g id="node23" class="node">
<title>1487278666752</title>
<ellipse fill="none" stroke="black" cx="953" cy="-281" rx="27" ry="27"/>
</g>
<!-- 1487278667232&#45;&gt;1487278666752 -->
<g id="edge16" class="edge">
<title>1487278667232&#45;&gt;1487278666752</title>
<path fill="none" stroke="black" d="M533.64,-281C628.94,-281 832.83,-281 915.78,-281"/>
<polygon fill="black" stroke="black" points="915.97,-284.5 925.97,-281 915.97,-277.5 915.97,-284.5"/>
</g>
<!-- 1487278668768 -->
<g id="node16" class="node">
<title>1487278668768</title>
<polygon fill="none" stroke="black" points="539,-227 425,-227 425,-191 539,-191 539,-227"/>
<text text-anchor="middle" x="482" y="-205.9" font-family="Times New Roman,serif" font-size="12.00">Check_credit_history</text>
</g>
<!-- 1487278668576 -->
<g id="node26" class="node">
<title>1487278668576</title>
<ellipse fill="none" stroke="black" cx="620" cy="-209" rx="27" ry="27"/>
</g>
<!-- 1487278668768&#45;&gt;1487278668576 -->
<g id="edge17" class="edge">
<title>1487278668768&#45;&gt;1487278668576</title>
<path fill="none" stroke="black" d="M539.1,-209C553.77,-209 569.19,-209 582.54,-209"/>
<polygon fill="black" stroke="black" points="582.74,-212.5 592.74,-209 582.74,-205.5 582.74,-212.5"/>
</g>
<!-- 1487278669536 -->
<g id="node17" class="node">
<title>1487278669536</title>
<polygon fill="none" stroke="black" points="834,-227 739,-227 739,-191 834,-191 834,-227"/>
<text text-anchor="middle" x="786.5" y="-205.9" font-family="Times New Roman,serif" font-size="12.00">Assess_loan_risk</text>
</g>
<!-- 1487278668192 -->
<g id="node25" class="node">
<title>1487278668192</title>
<ellipse fill="none" stroke="black" cx="953" cy="-209" rx="27" ry="27"/>
</g>
<!-- 1487278669536&#45;&gt;1487278668192 -->
<g id="edge12" class="edge">
<title>1487278669536&#45;&gt;1487278668192</title>
<path fill="none" stroke="black" d="M834.2,-209C860.01,-209 891.62,-209 915.59,-209"/>
<polygon fill="black" stroke="black" points="915.68,-212.5 925.68,-209 915.68,-205.5 915.68,-212.5"/>
</g>
<!-- 1487278627808 -->
<g id="node18" class="node">
<title>1487278627808</title>
<polygon fill="#ff0000" stroke="black" points="2088,-186 1938,-186 1938,-150 2088,-150 2088,-186"/>
<text text-anchor="middle" x="2013" y="-164.9" font-family="Times New Roman,serif" font-size="12.00">Send_home_insurance_quote</text>
</g>
<!-- 1487278627808&#45;&gt;1487278627280 -->
<g id="edge13" class="edge">
<title>1487278627808&#45;&gt;1487278627280</title>
<path fill="none" stroke="black" d="M2088.37,-180.03C2097.34,-181.48 2106.15,-182.91 2114.19,-184.21"/>
<polygon fill="black" stroke="black" points="2113.83,-187.69 2124.26,-185.84 2114.95,-180.78 2113.83,-187.69"/>
</g>
<!-- 1487278668144 -->
<g id="node19" class="node">
<title>1487278668144</title>
<polygon fill="none" stroke="black" points="557,-54 407,-54 407,-18 557,-18 557,-54"/>
<text text-anchor="middle" x="482" y="-32.9" font-family="Times New Roman,serif" font-size="12.00">Receive_updated_application</text>
</g>
<!-- 1487278668144&#45;&gt;1487279247472 -->
<g id="edge11" class="edge">
<title>1487278668144&#45;&gt;1487279247472</title>
<path fill="none" stroke="black" d="M521.97,-54.05C542.12,-63.38 566.44,-74.65 585.7,-83.57"/>
<polygon fill="black" stroke="black" points="584.44,-86.85 594.98,-87.87 587.38,-80.49 584.44,-86.85"/>
</g>
<!-- 1487278628720 -->
<g id="node20" class="node">
<title>1487278628720</title>
<polygon fill="none" stroke="black" points="2876,-181 2730,-181 2730,-145 2876,-145 2876,-181"/>
<text text-anchor="middle" x="2803" y="-159.9" font-family="Times New Roman,serif" font-size="12.00">Loan__application_canceled</text>
</g>
<!-- 1487278628720&#45;&gt;1487278745632 -->
<g id="edge5" class="edge">
<title>1487278628720&#45;&gt;1487278745632</title>
<path fill="none" stroke="black" d="M2844.12,-181.05C2863.98,-189.99 2887.79,-200.7 2907.18,-209.43"/>
<polygon fill="black" stroke="black" points="2905.75,-212.63 2916.31,-213.54 2908.62,-206.24 2905.75,-212.63"/>
</g>
<!-- 1487278747552 -->
<g id="node21" class="node">
<title>1487278747552</title>
<ellipse fill="none" stroke="black" cx="344" cy="-99" rx="27" ry="27"/>
<text text-anchor="start" x="333" y="-90.3" font-family="Times New Roman,serif" font-size="34.00">●</text>
</g>
<!-- 1487278747552&#45;&gt;1487278746784 -->
<g id="edge42" class="edge">
<title>1487278747552&#45;&gt;1487278746784</title>
<path fill="none" stroke="black" d="M371.22,-99C379.5,-99 389.13,-99 399.18,-99"/>
<polygon fill="black" stroke="black" points="399.33,-102.5 409.33,-99 399.33,-95.5 399.33,-102.5"/>
</g>
<!-- 1487278666560&#45;&gt;1487278667232 -->
<g id="edge20" class="edge">
<title>1487278666560&#45;&gt;1487278667232</title>
<path fill="none" stroke="black" d="M371.22,-281C385.22,-281 403.08,-281 420.31,-281"/>
<polygon fill="black" stroke="black" points="420.35,-284.5 430.35,-281 420.35,-277.5 420.35,-284.5"/>
</g>
<!-- 1487278666752&#45;&gt;1487278625072 -->
<g id="edge21" class="edge">
<title>1487278666752&#45;&gt;1487278625072</title>
<path fill="none" stroke="black" d="M978.82,-272.65C987.06,-269.88 996.59,-266.67 1006.18,-263.44"/>
<polygon fill="black" stroke="black" points="1007.38,-266.73 1015.74,-260.23 1005.14,-260.1 1007.38,-266.73"/>
</g>
<!-- 1487278667616&#45;&gt;1487278668768 -->
<g id="edge22" class="edge">
<title>1487278667616&#45;&gt;1487278668768</title>
<path fill="none" stroke="black" d="M371.22,-209C383.7,-209 399.23,-209 414.65,-209"/>
<polygon fill="black" stroke="black" points="414.74,-212.5 424.74,-209 414.74,-205.5 414.74,-212.5"/>
</g>
<!-- 1487278668192&#45;&gt;1487278625072 -->
<g id="edge23" class="edge">
<title>1487278668192&#45;&gt;1487278625072</title>
<path fill="none" stroke="black" d="M978.82,-217.35C987.06,-220.12 996.59,-223.33 1006.18,-226.56"/>
<polygon fill="black" stroke="black" points="1005.14,-229.9 1015.74,-229.77 1007.38,-223.27 1005.14,-229.9"/>
</g>
<!-- 1487278668576&#45;&gt;1487278669536 -->
<g id="edge24" class="edge">
<title>1487278668576&#45;&gt;1487278669536</title>
<path fill="none" stroke="black" d="M647.07,-209C668.84,-209 700.66,-209 728.32,-209"/>
<polygon fill="black" stroke="black" points="728.68,-212.5 738.68,-209 728.68,-205.5 728.68,-212.5"/>
</g>
<!-- 1487278666704&#45;&gt;1487278626176 -->
<g id="edge25" class="edge">
<title>1487278666704&#45;&gt;1487278626176</title>
<path fill="none" stroke="black" d="M1197.37,-251.05C1210.35,-254.14 1226.72,-258.05 1242.65,-261.85"/>
<polygon fill="black" stroke="black" points="1241.93,-265.27 1252.47,-264.19 1243.55,-258.46 1241.93,-265.27"/>
</g>
<!-- 1487278666704&#45;&gt;1487278626128 -->
<g id="edge26" class="edge">
<title>1487278666704&#45;&gt;1487278626128</title>
<path fill="none" stroke="black" d="M1197.68,-239.67C1205.48,-238.05 1214.49,-236.18 1223.88,-234.23"/>
<polygon fill="black" stroke="black" points="1224.69,-237.63 1233.77,-232.17 1223.26,-230.78 1224.69,-237.63"/>
</g>
<!-- 1487278625984&#45;&gt;1487278625360 -->
<g id="edge27" class="edge">
<title>1487278625984&#45;&gt;1487278625360</title>
<path fill="none" stroke="black" d="M1462.02,-281C1520.49,-281 1664.26,-281 1754.53,-281"/>
<polygon fill="black" stroke="black" points="1754.72,-284.5 1764.72,-281 1754.72,-277.5 1754.72,-284.5"/>
</g>
<!-- 1487278625552&#45;&gt;1487278627088 -->
<g id="edge28" class="edge">
<title>1487278625552&#45;&gt;1487278627088</title>
<path fill="none" stroke="black" d="M1462.04,-209C1469.59,-209 1478.37,-209 1487.82,-209"/>
<polygon fill="black" stroke="black" points="1487.89,-212.5 1497.89,-209 1487.89,-205.5 1487.89,-212.5"/>
</g>
<!-- 1487278626368&#45;&gt;1487278641456 -->
<g id="edge30" class="edge">
<title>1487278626368&#45;&gt;1487278641456</title>
<path fill="none" stroke="black" d="M2453.39,-195.86C2461.37,-197.7 2470.58,-199.83 2480.01,-202"/>
<polygon fill="black" stroke="black" points="2479.35,-205.44 2489.88,-204.28 2480.93,-198.62 2479.35,-205.44"/>
</g>
<!-- 1487278626368&#45;&gt;1487278628432 -->
<g id="edge29" class="edge">
<title>1487278626368&#45;&gt;1487278628432</title>
<path fill="none" stroke="black" d="M2453.39,-183.06C2462.55,-180.55 2473.32,-177.6 2484.2,-174.63"/>
<polygon fill="black" stroke="black" points="2485.46,-177.91 2494.18,-171.9 2483.61,-171.16 2485.46,-177.91"/>
</g>
<!-- 1487278626896&#45;&gt;1487278627520 -->
<g id="edge32" class="edge">
<title>1487278626896&#45;&gt;1487278627520</title>
<path fill="none" stroke="black" d="M1860.69,-210.92C1881.65,-212.45 1912.07,-214.68 1940.15,-216.74"/>
<polygon fill="black" stroke="black" points="1940.14,-220.25 1950.37,-217.49 1940.65,-213.27 1940.14,-220.25"/>
</g>
<!-- 1487278626896&#45;&gt;1487278627808 -->
<g id="edge31" class="edge">
<title>1487278626896&#45;&gt;1487278627808</title>
<path fill="none" stroke="black" d="M1859.93,-203.13C1877.96,-198.96 1903.25,-193.12 1928.05,-187.39"/>
<polygon fill="black" stroke="black" points="1928.92,-190.78 1937.88,-185.12 1927.35,-183.96 1928.92,-190.78"/>
</g>
<!-- 1487278627280&#45;&gt;1487278628048 -->
<g id="edge33" class="edge">
<title>1487278627280&#45;&gt;1487278628048</title>
<path fill="none" stroke="black" d="M2178.22,-190C2185.82,-190 2194.55,-190 2203.7,-190"/>
<polygon fill="black" stroke="black" points="2203.76,-193.5 2213.76,-190 2203.76,-186.5 2203.76,-193.5"/>
</g>
<!-- 1487278628240&#45;&gt;1487278628720 -->
<g id="edge34" class="edge">
<title>1487278628240&#45;&gt;1487278628720</title>
<path fill="none" stroke="black" d="M2692.22,-155.74C2700.38,-156.28 2709.86,-156.9 2719.75,-157.56"/>
<polygon fill="black" stroke="black" points="2719.55,-161.05 2729.76,-158.22 2720.01,-154.07 2719.55,-161.05"/>
</g>
<!-- 1487278641264&#45;&gt;1487278641744 -->
<g id="edge35" class="edge">
<title>1487278641264&#45;&gt;1487278641744</title>
<path fill="none" stroke="black" d="M2692.22,-226C2699.82,-226 2708.55,-226 2717.7,-226"/>
<polygon fill="black" stroke="black" points="2717.76,-229.5 2727.76,-226 2717.76,-222.5 2717.76,-229.5"/>
</g>
<!-- 1487279247472&#45;&gt;1487278666512 -->
<g id="edge36" class="edge">
<title>1487279247472&#45;&gt;1487278666512</title>
<path fill="none" stroke="black" d="M646.7,-103.38C654.35,-104.68 663.26,-106.19 672.8,-107.82"/>
<polygon fill="black" stroke="black" points="672.51,-111.32 682.96,-109.55 673.69,-104.42 672.51,-111.32"/>
</g>
<!-- 1487278666176&#45;&gt;1487278667664 -->
<g id="edge37" class="edge">
<title>1487278666176&#45;&gt;1487278667664</title>
<path fill="none" stroke="black" d="M51.09,-141.31C75.13,-128.1 113.31,-107.12 142.67,-90.99"/>
<polygon fill="black" stroke="black" points="144.4,-94.03 151.48,-86.15 141.03,-87.9 144.4,-94.03"/>
</g>
<!-- 1487278666176&#45;&gt;1487278668720 -->
<g id="edge38" class="edge">
<title>1487278666176&#45;&gt;1487278668720</title>
<path fill="none" stroke="black" d="M52.8,-162.71C78.66,-171.8 119.45,-186.14 148.78,-196.45"/>
<polygon fill="black" stroke="black" points="147.66,-199.76 158.25,-199.78 149.98,-193.16 147.66,-199.76"/>
</g>
<!-- 1487278667376&#45;&gt;1487278668144 -->
<g id="edge39" class="edge">
<title>1487278667376&#45;&gt;1487278668144</title>
<path fill="none" stroke="black" d="M371.22,-28.74C378.82,-29.24 387.55,-29.82 396.7,-30.42"/>
<polygon fill="black" stroke="black" points="396.55,-33.92 406.76,-31.09 397.01,-26.93 396.55,-33.92"/>
</g>
</g>
</svg>
