<?xml version="1.0" encoding="UTF-8" standalone="no"?>
<!DOCTYPE svg PUBLIC "-//W3C//DTD SVG 1.1//EN"
 "http://www.w3.org/Graphics/SVG/1.1/DTD/svg11.dtd">
<!-- Generated by graphviz version 2.49.0 (20210828.1703)
 -->
<!-- Title: imported_1655279312.9674017 Pages: 1 -->
<svg width="3115pt" height="370pt"
 viewBox="0.00 0.00 3115.00 370.00" xmlns="http://www.w3.org/2000/svg" xmlns:xlink="http://www.w3.org/1999/xlink">
<g id="graph0" class="graph" transform="scale(1 1) rotate(0) translate(4 366)">
<title>imported_1655279312.9674017</title>
<!-- 2631890003712 -->
<g id="node1" class="node">
<title>2631890003712</title>
<polygon fill="none" stroke="black" points="207,-127 0,-127 0,-91 207,-91 207,-127"/>
<text text-anchor="middle" x="103.5" y="-105.9" font-family="Times New Roman,serif" font-size="12.00">Check__application__form_completeness</text>
</g>
<!-- 2631882099536 -->
<g id="node30" class="node">
<title>2631882099536</title>
<ellipse fill="none" stroke="black" cx="270" cy="-137" rx="27" ry="27"/>
</g>
<!-- 2631890003712&#45;&gt;2631882099536 -->
<g id="edge12" class="edge">
<title>2631890003712&#45;&gt;2631882099536</title>
<path fill="none" stroke="black" d="M207.28,-126.49C216.49,-128.06 225.34,-129.57 233.31,-130.93"/>
<polygon fill="black" stroke="black" points="232.8,-134.39 243.25,-132.62 233.98,-127.49 232.8,-134.39"/>
</g>
<!-- 2631890004096 -->
<g id="node2" class="node">
<title>2631890004096</title>
<polygon fill="#ff0000" stroke="black" points="2219,-339 2069,-339 2069,-303 2219,-303 2219,-339"/>
<text text-anchor="middle" x="2144" y="-317.9" font-family="Times New Roman,serif" font-size="12.00">Send_home_insurance_quote</text>
</g>
<!-- 2631890002944 -->
<g id="node26" class="node">
<title>2631890002944</title>
<ellipse fill="none" stroke="black" cx="2282" cy="-294" rx="27" ry="27"/>
</g>
<!-- 2631890004096&#45;&gt;2631890002944 -->
<g id="edge21" class="edge">
<title>2631890004096&#45;&gt;2631890002944</title>
<path fill="none" stroke="black" d="M2219.37,-306.24C2228.34,-304.46 2237.15,-302.7 2245.19,-301.11"/>
<polygon fill="black" stroke="black" points="2246.13,-304.49 2255.26,-299.11 2244.77,-297.62 2246.13,-304.49"/>
</g>
<!-- 2631890004480 -->
<g id="node3" class="node">
<title>2631890004480</title>
<polygon fill="none" stroke="black" points="800,-151 650,-151 650,-115 800,-115 800,-151"/>
<text text-anchor="middle" x="725" y="-129.9" font-family="Times New Roman,serif" font-size="12.00">Receive_updated_application</text>
</g>
<!-- 2631882100544 -->
<g id="node22" class="node">
<title>2631882100544</title>
<ellipse fill="none" stroke="black" cx="863" cy="-82" rx="27" ry="27"/>
</g>
<!-- 2631890004480&#45;&gt;2631882100544 -->
<g id="edge6" class="edge">
<title>2631890004480&#45;&gt;2631882100544</title>
<path fill="none" stroke="black" d="M774.33,-114.88C792.03,-108.24 811.68,-100.87 827.89,-94.79"/>
<polygon fill="black" stroke="black" points="829.35,-97.98 837.48,-91.2 826.89,-91.43 829.35,-97.98"/>
</g>
<!-- 2631890004864 -->
<g id="node4" class="node">
<title>2631890004864</title>
<polygon fill="#ff0000" stroke="black" points="1860,-298 1629,-298 1629,-262 1860,-262 1860,-298"/>
<text text-anchor="middle" x="1744.5" y="-276.9" font-family="Times New Roman,serif" font-size="12.00">Check_if_home_insurance_quote_is_requested</text>
</g>
<!-- 2631890002848 -->
<g id="node25" class="node">
<title>2631890002848</title>
<ellipse fill="none" stroke="black" cx="1964.5" cy="-280" rx="27" ry="27"/>
</g>
<!-- 2631890004864&#45;&gt;2631890002848 -->
<g id="edge20" class="edge">
<title>2631890004864&#45;&gt;2631890002848</title>
<path fill="none" stroke="black" d="M1860.25,-280C1884.54,-280 1908.45,-280 1927.14,-280"/>
<polygon fill="black" stroke="black" points="1927.22,-283.5 1937.22,-280 1927.22,-276.5 1927.22,-283.5"/>
</g>
<!-- 2631890005248 -->
<g id="node5" class="node">
<title>2631890005248</title>
<polygon fill="black" stroke="black" points="455.5,-227 401.5,-227 401.5,-191 455.5,-191 455.5,-227"/>
</g>
<!-- 2631882100352 -->
<g id="node32" class="node">
<title>2631882100352</title>
<ellipse fill="none" stroke="black" cx="587" cy="-281" rx="27" ry="27"/>
</g>
<!-- 2631890005248&#45;&gt;2631882100352 -->
<g id="edge13" class="edge">
<title>2631890005248&#45;&gt;2631882100352</title>
<path fill="none" stroke="black" d="M455.69,-221.05C482.43,-233.35 524.01,-252.48 552.98,-265.81"/>
<polygon fill="black" stroke="black" points="551.74,-269.09 562.29,-270.09 554.66,-262.73 551.74,-269.09"/>
</g>
<!-- 2631890002464 -->
<g id="node33" class="node">
<title>2631890002464</title>
<ellipse fill="none" stroke="black" cx="587" cy="-209" rx="27" ry="27"/>
</g>
<!-- 2631890005248&#45;&gt;2631890002464 -->
<g id="edge14" class="edge">
<title>2631890005248&#45;&gt;2631890002464</title>
<path fill="none" stroke="black" d="M455.69,-209C481.5,-209 521.13,-209 549.91,-209"/>
<polygon fill="black" stroke="black" points="549.98,-212.5 559.98,-209 549.98,-205.5 549.98,-212.5"/>
</g>
<!-- 2631890003616 -->
<g id="node6" class="node">
<title>2631890003616</title>
<polygon fill="none" stroke="black" points="797.5,-50 652.5,-50 652.5,-14 797.5,-14 797.5,-50"/>
<text text-anchor="middle" x="725" y="-28.9" font-family="Times New Roman,serif" font-size="12.00">Loan__application_received</text>
</g>
<!-- 2631890003616&#45;&gt;2631882100544 -->
<g id="edge1" class="edge">
<title>2631890003616&#45;&gt;2631882100544</title>
<path fill="none" stroke="black" d="M775.1,-50.05C792.62,-56.49 811.95,-63.6 827.92,-69.47"/>
<polygon fill="black" stroke="black" points="826.8,-72.79 837.39,-72.95 829.21,-66.22 826.8,-72.79"/>
</g>
<!-- 2631890004000 -->
<g id="node7" class="node">
<title>2631890004000</title>
<polygon fill="none" stroke="black" points="1503,-293 1365,-293 1365,-257 1503,-257 1503,-293"/>
<text text-anchor="middle" x="1434" y="-271.9" font-family="Times New Roman,serif" font-size="12.00">Prepare_acceptance_pack</text>
</g>
<!-- 2629973279024 -->
<g id="node23" class="node">
<title>2629973279024</title>
<ellipse fill="none" stroke="black" cx="1566" cy="-280" rx="27" ry="27"/>
</g>
<!-- 2631890004000&#45;&gt;2629973279024 -->
<g id="edge19" class="edge">
<title>2631890004000&#45;&gt;2629973279024</title>
<path fill="none" stroke="black" d="M1503.05,-277.62C1511.93,-277.96 1520.74,-278.3 1528.81,-278.61"/>
<polygon fill="black" stroke="black" points="1528.8,-282.11 1538.93,-279 1529.07,-275.12 1528.8,-282.11"/>
</g>
<!-- 2631890005152 -->
<g id="node8" class="node">
<title>2631890005152</title>
<polygon fill="none" stroke="black" points="3009,-344 2859,-344 2859,-308 3009,-308 3009,-344"/>
<text text-anchor="middle" x="2934" y="-322.9" font-family="Times New Roman,serif" font-size="12.00">Loan__application_approved</text>
</g>
<!-- 2631874968256 -->
<g id="node38" class="node">
<title>2631874968256</title>
<ellipse fill="none" stroke="black" cx="3076" cy="-263" rx="27" ry="27"/>
<ellipse fill="none" stroke="black" cx="3076" cy="-263" rx="31" ry="31"/>
<text text-anchor="start" x="3066" y="-254.9" font-family="Times New Roman,serif" font-size="32.00">■</text>
</g>
<!-- 2631890005152&#45;&gt;2631874968256 -->
<g id="edge4" class="edge">
<title>2631890005152&#45;&gt;2631874968256</title>
<path fill="none" stroke="black" d="M2975.12,-307.95C2994.98,-299.01 3018.79,-288.3 3038.18,-279.57"/>
<polygon fill="black" stroke="black" points="3039.62,-282.76 3047.31,-275.46 3036.75,-276.37 3039.62,-282.76"/>
</g>
<!-- 2631890004384 -->
<g id="node9" class="node">
<title>2631890004384</title>
<polygon fill="none" stroke="black" points="2733,-348 2621,-348 2621,-312 2733,-312 2733,-348"/>
<text text-anchor="middle" x="2677" y="-326.9" font-family="Times New Roman,serif" font-size="12.00">Approve_application</text>
</g>
<!-- 2631890003136 -->
<g id="node29" class="node">
<title>2631890003136</title>
<ellipse fill="none" stroke="black" cx="2796" cy="-335" rx="27" ry="27"/>
</g>
<!-- 2631890004384&#45;&gt;2631890003136 -->
<g id="edge3" class="edge">
<title>2631890004384&#45;&gt;2631890003136</title>
<path fill="none" stroke="black" d="M2733.07,-332.35C2741.73,-332.72 2750.48,-333.1 2758.58,-333.44"/>
<polygon fill="black" stroke="black" points="2758.63,-336.95 2768.77,-333.88 2758.93,-329.96 2758.63,-336.95"/>
</g>
<!-- 2631890004768 -->
<g id="node10" class="node">
<title>2631890004768</title>
<polygon fill="none" stroke="black" points="782,-298 668,-298 668,-262 782,-262 782,-298"/>
<text text-anchor="middle" x="725" y="-276.9" font-family="Times New Roman,serif" font-size="12.00">Check_credit_history</text>
</g>
<!-- 2631890002656 -->
<g id="node35" class="node">
<title>2631890002656</title>
<ellipse fill="none" stroke="black" cx="863" cy="-276" rx="27" ry="27"/>
</g>
<!-- 2631890004768&#45;&gt;2631890002656 -->
<g id="edge16" class="edge">
<title>2631890004768&#45;&gt;2631890002656</title>
<path fill="none" stroke="black" d="M782.1,-278.35C796.77,-277.92 812.19,-277.46 825.54,-277.07"/>
<polygon fill="black" stroke="black" points="825.85,-280.56 835.74,-276.77 825.64,-273.57 825.85,-280.56"/>
</g>
<!-- 2631890003520 -->
<g id="node11" class="node">
<title>2631890003520</title>
<polygon fill="none" stroke="black" points="1484.5,-235 1383.5,-235 1383.5,-199 1484.5,-199 1484.5,-235"/>
<text text-anchor="middle" x="1434" y="-213.9" font-family="Times New Roman,serif" font-size="12.00">Reject_application</text>
</g>
<!-- 2629974414384 -->
<g id="node24" class="node">
<title>2629974414384</title>
<ellipse fill="none" stroke="black" cx="1566" cy="-208" rx="27" ry="27"/>
</g>
<!-- 2631890003520&#45;&gt;2629974414384 -->
<g id="edge7" class="edge">
<title>2631890003520&#45;&gt;2629974414384</title>
<path fill="none" stroke="black" d="M1484.52,-213.57C1499.27,-212.55 1515.15,-211.45 1528.88,-210.5"/>
<polygon fill="black" stroke="black" points="1529.16,-213.99 1538.9,-209.81 1528.68,-207.01 1529.16,-213.99"/>
</g>
<!-- 2631890003904 -->
<g id="node12" class="node">
<title>2631890003904</title>
<polygon fill="none" stroke="black" points="1239,-262 1147,-262 1147,-226 1239,-226 1239,-262"/>
<text text-anchor="middle" x="1193" y="-240.9" font-family="Times New Roman,serif" font-size="12.00">Assess_eligibility</text>
</g>
<!-- 2631890003328 -->
<g id="node37" class="node">
<title>2631890003328</title>
<ellipse fill="none" stroke="black" cx="1302" cy="-244" rx="27" ry="27"/>
</g>
<!-- 2631890003904&#45;&gt;2631890003328 -->
<g id="edge18" class="edge">
<title>2631890003904&#45;&gt;2631890003328</title>
<path fill="none" stroke="black" d="M1239.07,-244C1247.66,-244 1256.55,-244 1264.83,-244"/>
<polygon fill="black" stroke="black" points="1264.9,-247.5 1274.9,-244 1264.9,-240.5 1264.9,-247.5"/>
</g>
<!-- 2631890004288 -->
<g id="node13" class="node">
<title>2631890004288</title>
<polygon fill="#ff0000" stroke="black" points="2206.5,-285 2081.5,-285 2081.5,-249 2206.5,-249 2206.5,-285"/>
<text text-anchor="middle" x="2144" y="-263.9" font-family="Times New Roman,serif" font-size="12.00">Send_acceptance_pack</text>
</g>
<!-- 2631890004288&#45;&gt;2631890002944 -->
<g id="edge11" class="edge">
<title>2631890004288&#45;&gt;2631890002944</title>
<path fill="none" stroke="black" d="M2206.63,-279.24C2219.9,-281.87 2233.49,-284.57 2245.36,-286.92"/>
<polygon fill="black" stroke="black" points="2244.81,-290.38 2255.3,-288.9 2246.17,-283.52 2244.81,-290.38"/>
</g>
<!-- 2631890005056 -->
<g id="node14" class="node">
<title>2631890005056</title>
<polygon fill="none" stroke="black" points="3007,-281 2861,-281 2861,-245 3007,-245 3007,-281"/>
<text text-anchor="middle" x="2934" y="-259.9" font-family="Times New Roman,serif" font-size="12.00">Loan__application_canceled</text>
</g>
<!-- 2631890005056&#45;&gt;2631874968256 -->
<g id="edge10" class="edge">
<title>2631890005056&#45;&gt;2631874968256</title>
<path fill="none" stroke="black" d="M3007.05,-263C3016.58,-263 3026.05,-263 3034.77,-263"/>
<polygon fill="black" stroke="black" points="3034.98,-266.5 3044.98,-263 3034.98,-259.5 3034.98,-266.5"/>
</g>
<!-- 2631890004672 -->
<g id="node15" class="node">
<title>2631890004672</title>
<polygon fill="none" stroke="black" points="1021,-294 926,-294 926,-258 1021,-258 1021,-294"/>
<text text-anchor="middle" x="973.5" y="-272.9" font-family="Times New Roman,serif" font-size="12.00">Assess_loan_risk</text>
</g>
<!-- 2631890002752 -->
<g id="node36" class="node">
<title>2631890002752</title>
<ellipse fill="none" stroke="black" cx="1084" cy="-274" rx="27" ry="27"/>
</g>
<!-- 2631890004672&#45;&gt;2631890002752 -->
<g id="edge17" class="edge">
<title>2631890004672&#45;&gt;2631890002752</title>
<path fill="none" stroke="black" d="M1021.14,-275.14C1029.61,-274.98 1038.33,-274.82 1046.45,-274.67"/>
<polygon fill="black" stroke="black" points="1046.78,-278.17 1056.72,-274.48 1046.66,-271.17 1046.78,-278.17"/>
</g>
<!-- 2631890003424 -->
<g id="node16" class="node">
<title>2631890003424</title>
<polygon fill="none" stroke="black" points="524,-155 333,-155 333,-119 524,-119 524,-155"/>
<text text-anchor="middle" x="428.5" y="-133.9" font-family="Times New Roman,serif" font-size="12.00">Return_application_back_to_applicant</text>
</g>
<!-- 2631882100016 -->
<g id="node31" class="node">
<title>2631882100016</title>
<ellipse fill="none" stroke="black" cx="587" cy="-137" rx="27" ry="27"/>
</g>
<!-- 2631890003424&#45;&gt;2631882100016 -->
<g id="edge5" class="edge">
<title>2631890003424&#45;&gt;2631882100016</title>
<path fill="none" stroke="black" d="M524.15,-137C533.09,-137 541.73,-137 549.57,-137"/>
<polygon fill="black" stroke="black" points="549.73,-140.5 559.73,-137 549.73,-133.5 549.73,-140.5"/>
</g>
<!-- 2631890003808 -->
<g id="node17" class="node">
<title>2631890003808</title>
<polygon fill="none" stroke="black" points="776.5,-228 673.5,-228 673.5,-192 776.5,-192 776.5,-228"/>
<text text-anchor="middle" x="725" y="-206.9" font-family="Times New Roman,serif" font-size="12.00">Appraise_property</text>
</g>
<!-- 2631890002560 -->
<g id="node34" class="node">
<title>2631890002560</title>
<ellipse fill="none" stroke="black" cx="973.5" cy="-213" rx="27" ry="27"/>
</g>
<!-- 2631890003808&#45;&gt;2631890002560 -->
<g id="edge15" class="edge">
<title>2631890003808&#45;&gt;2631890002560</title>
<path fill="none" stroke="black" d="M776.78,-210.62C824.33,-211.2 894.21,-212.05 936.33,-212.56"/>
<polygon fill="black" stroke="black" points="936.37,-216.06 946.41,-212.68 936.46,-209.06 936.37,-216.06"/>
</g>
<!-- 2631890004192 -->
<g id="node18" class="node">
<title>2631890004192</title>
<polygon fill="none" stroke="black" points="2728.5,-290 2625.5,-290 2625.5,-254 2728.5,-254 2728.5,-290"/>
<text text-anchor="middle" x="2677" y="-268.9" font-family="Times New Roman,serif" font-size="12.00">Cancel_application</text>
</g>
<!-- 2631890003040 -->
<g id="node28" class="node">
<title>2631890003040</title>
<ellipse fill="none" stroke="black" cx="2796" cy="-263" rx="27" ry="27"/>
</g>
<!-- 2631890004192&#45;&gt;2631890003040 -->
<g id="edge9" class="edge">
<title>2631890004192&#45;&gt;2631890003040</title>
<path fill="none" stroke="black" d="M2728.64,-268.1C2738.69,-267.33 2749.06,-266.53 2758.52,-265.81"/>
<polygon fill="black" stroke="black" points="2759.06,-269.28 2768.76,-265.02 2758.52,-262.3 2759.06,-269.28"/>
</g>
<!-- 2631890004576 -->
<g id="node19" class="node">
<title>2631890004576</title>
<polygon fill="none" stroke="black" points="2033,-226 1896,-226 1896,-190 2033,-190 2033,-226"/>
<text text-anchor="middle" x="1964.5" y="-204.9" font-family="Times New Roman,serif" font-size="12.00">Loan_application_rejected</text>
</g>
<!-- 2631890004576&#45;&gt;2631874968256 -->
<g id="edge8" class="edge">
<title>2631890004576&#45;&gt;2631874968256</title>
<path fill="none" stroke="black" d="M2033.2,-208C2097.09,-208 2195.55,-208 2281,-208 2281,-208 2281,-208 2797,-208 2892.04,-208 2917.15,-211.58 3009,-236 3018.68,-238.57 3028.83,-242.22 3038.19,-246"/>
<polygon fill="black" stroke="black" points="3037.03,-249.3 3047.61,-249.95 3039.74,-242.85 3037.03,-249.3"/>
</g>
<!-- 2631890004960 -->
<g id="node20" class="node">
<title>2631890004960</title>
<polygon fill="#ff0000" stroke="black" points="2495,-312 2345,-312 2345,-276 2495,-276 2495,-312"/>
<text text-anchor="middle" x="2420" y="-290.9" font-family="Times New Roman,serif" font-size="12.00">Verify_repayment_agreement</text>
</g>
<!-- 2631890003232 -->
<g id="node27" class="node">
<title>2631890003232</title>
<ellipse fill="none" stroke="black" cx="2558" cy="-294" rx="27" ry="27"/>
</g>
<!-- 2631890004960&#45;&gt;2631890003232 -->
<g id="edge2" class="edge">
<title>2631890004960&#45;&gt;2631890003232</title>
<path fill="none" stroke="black" d="M2495.37,-294C2504.15,-294 2512.79,-294 2520.69,-294"/>
<polygon fill="black" stroke="black" points="2520.96,-297.5 2530.96,-294 2520.96,-290.5 2520.96,-297.5"/>
</g>
<!-- 2631852081504 -->
<g id="node21" class="node">
<title>2631852081504</title>
<ellipse fill="none" stroke="black" cx="587" cy="-27" rx="27" ry="27"/>
<text text-anchor="start" x="576" y="-18.3" font-family="Times New Roman,serif" font-size="34.00">●</text>
</g>
<!-- 2631852081504&#45;&gt;2631890003616 -->
<g id="edge42" class="edge">
<title>2631852081504&#45;&gt;2631890003616</title>
<path fill="none" stroke="black" d="M614.22,-27.96C622.5,-28.27 632.13,-28.62 642.18,-28.99"/>
<polygon fill="black" stroke="black" points="642.21,-32.5 652.33,-29.37 642.46,-25.5 642.21,-32.5"/>
</g>
<!-- 2631882100544&#45;&gt;2631890003712 -->
<g id="edge22" class="edge">
<title>2631882100544&#45;&gt;2631890003712</title>
<path fill="none" stroke="black" d="M835.93,-82C787.23,-82 679.1,-82 588,-82 427.5,-82 427.5,-82 427.5,-82 357.54,-82 279.35,-88.37 217.42,-94.92"/>
<polygon fill="black" stroke="black" points="216.8,-91.47 207.23,-96.01 217.55,-98.43 216.8,-91.47"/>
</g>
<!-- 2629973279024&#45;&gt;2631890004864 -->
<g id="edge23" class="edge">
<title>2629973279024&#45;&gt;2631890004864</title>
<path fill="none" stroke="black" d="M1593.04,-280C1600.59,-280 1609.37,-280 1618.82,-280"/>
<polygon fill="black" stroke="black" points="1618.89,-283.5 1628.89,-280 1618.89,-276.5 1618.89,-283.5"/>
</g>
<!-- 2629974414384&#45;&gt;2631890004576 -->
<g id="edge24" class="edge">
<title>2629974414384&#45;&gt;2631890004576</title>
<path fill="none" stroke="black" d="M1593.02,-208C1651.49,-208 1795.26,-208 1885.53,-208"/>
<polygon fill="black" stroke="black" points="1885.72,-211.5 1895.72,-208 1885.72,-204.5 1885.72,-211.5"/>
</g>
<!-- 2631890002848&#45;&gt;2631890004096 -->
<g id="edge26" class="edge">
<title>2631890002848&#45;&gt;2631890004096</title>
<path fill="none" stroke="black" d="M1990.93,-285.87C2008.96,-290.04 2034.25,-295.88 2059.05,-301.61"/>
<polygon fill="black" stroke="black" points="2058.35,-305.04 2068.88,-303.88 2059.92,-298.22 2058.35,-305.04"/>
</g>
<!-- 2631890002848&#45;&gt;2631890004288 -->
<g id="edge25" class="edge">
<title>2631890002848&#45;&gt;2631890004288</title>
<path fill="none" stroke="black" d="M1991.69,-278.08C2012.65,-276.55 2043.07,-274.32 2071.15,-272.26"/>
<polygon fill="black" stroke="black" points="2071.65,-275.73 2081.37,-271.51 2071.14,-268.75 2071.65,-275.73"/>
</g>
<!-- 2631890002944&#45;&gt;2631890004960 -->
<g id="edge27" class="edge">
<title>2631890002944&#45;&gt;2631890004960</title>
<path fill="none" stroke="black" d="M2309.22,-294C2316.82,-294 2325.55,-294 2334.7,-294"/>
<polygon fill="black" stroke="black" points="2334.76,-297.5 2344.76,-294 2334.76,-290.5 2334.76,-297.5"/>
</g>
<!-- 2631890003232&#45;&gt;2631890004384 -->
<g id="edge28" class="edge">
<title>2631890003232&#45;&gt;2631890004384</title>
<path fill="none" stroke="black" d="M2584.1,-301.72C2592.16,-304.2 2601.49,-307.07 2611.05,-310.01"/>
<polygon fill="black" stroke="black" points="2610.06,-313.37 2620.65,-312.97 2612.12,-306.68 2610.06,-313.37"/>
</g>
<!-- 2631890003232&#45;&gt;2631890004192 -->
<g id="edge29" class="edge">
<title>2631890003232&#45;&gt;2631890004192</title>
<path fill="none" stroke="black" d="M2584.68,-289.17C2593.84,-287.45 2604.6,-285.43 2615.45,-283.39"/>
<polygon fill="black" stroke="black" points="2616.22,-286.8 2625.4,-281.51 2614.93,-279.92 2616.22,-286.8"/>
</g>
<!-- 2631890003040&#45;&gt;2631890005056 -->
<g id="edge30" class="edge">
<title>2631890003040&#45;&gt;2631890005056</title>
<path fill="none" stroke="black" d="M2823.22,-263C2831.38,-263 2840.86,-263 2850.75,-263"/>
<polygon fill="black" stroke="black" points="2850.76,-266.5 2860.76,-263 2850.76,-259.5 2850.76,-266.5"/>
</g>
<!-- 2631890003136&#45;&gt;2631890005152 -->
<g id="edge31" class="edge">
<title>2631890003136&#45;&gt;2631890005152</title>
<path fill="none" stroke="black" d="M2823.22,-333.26C2830.82,-332.76 2839.55,-332.18 2848.7,-331.58"/>
<polygon fill="black" stroke="black" points="2849.01,-335.07 2858.76,-330.91 2848.55,-328.08 2849.01,-335.07"/>
</g>
<!-- 2631882099536&#45;&gt;2631890005248 -->
<g id="edge33" class="edge">
<title>2631882099536&#45;&gt;2631890005248</title>
<path fill="none" stroke="black" d="M294.77,-147.94C320.69,-159.86 362.46,-179.08 392.21,-192.77"/>
<polygon fill="black" stroke="black" points="390.87,-196 401.42,-197 393.79,-189.64 390.87,-196"/>
</g>
<!-- 2631882099536&#45;&gt;2631890003424 -->
<g id="edge32" class="edge">
<title>2631882099536&#45;&gt;2631890003424</title>
<path fill="none" stroke="black" d="M297.19,-137C304.67,-137 313.31,-137 322.51,-137"/>
<polygon fill="black" stroke="black" points="322.68,-140.5 332.68,-137 322.68,-133.5 322.68,-140.5"/>
</g>
<!-- 2631882100016&#45;&gt;2631890004480 -->
<g id="edge34" class="edge">
<title>2631882100016&#45;&gt;2631890004480</title>
<path fill="none" stroke="black" d="M614.22,-136.23C621.82,-136.01 630.55,-135.75 639.7,-135.48"/>
<polygon fill="black" stroke="black" points="639.86,-138.98 649.76,-135.18 639.66,-131.98 639.86,-138.98"/>
</g>
<!-- 2631882100352&#45;&gt;2631890004768 -->
<g id="edge35" class="edge">
<title>2631882100352&#45;&gt;2631890004768</title>
<path fill="none" stroke="black" d="M614.22,-280.81C626.7,-280.72 642.23,-280.6 657.65,-280.49"/>
<polygon fill="black" stroke="black" points="657.76,-283.99 667.74,-280.41 657.71,-276.99 657.76,-283.99"/>
</g>
<!-- 2631890002464&#45;&gt;2631890003808 -->
<g id="edge36" class="edge">
<title>2631890002464&#45;&gt;2631890003808</title>
<path fill="none" stroke="black" d="M614.22,-209.19C628.22,-209.3 646.08,-209.43 663.31,-209.55"/>
<polygon fill="black" stroke="black" points="663.32,-213.05 673.35,-209.63 663.37,-206.05 663.32,-213.05"/>
</g>
<!-- 2631890002560&#45;&gt;2631890003904 -->
<g id="edge37" class="edge">
<title>2631890002560&#45;&gt;2631890003904</title>
<path fill="none" stroke="black" d="M1000.3,-216.68C1033.81,-221.45 1093.2,-229.92 1137.02,-236.16"/>
<polygon fill="black" stroke="black" points="1136.56,-239.63 1146.95,-237.58 1137.55,-232.7 1136.56,-239.63"/>
</g>
<!-- 2631890002656&#45;&gt;2631890004672 -->
<g id="edge38" class="edge">
<title>2631890002656&#45;&gt;2631890004672</title>
<path fill="none" stroke="black" d="M890.26,-276C898.01,-276 906.81,-276 915.69,-276"/>
<polygon fill="black" stroke="black" points="915.71,-279.5 925.71,-276 915.71,-272.5 915.71,-279.5"/>
</g>
<!-- 2631890002752&#45;&gt;2631890003904 -->
<g id="edge39" class="edge">
<title>2631890002752&#45;&gt;2631890003904</title>
<path fill="none" stroke="black" d="M1110.09,-266.97C1118.25,-264.68 1127.65,-262.04 1137.11,-259.39"/>
<polygon fill="black" stroke="black" points="1138.26,-262.7 1146.94,-256.63 1136.37,-255.96 1138.26,-262.7"/>
</g>
<!-- 2631890003328&#45;&gt;2631890004000 -->
<g id="edge41" class="edge">
<title>2631890003328&#45;&gt;2631890004000</title>
<path fill="none" stroke="black" d="M1328.37,-250.05C1336.22,-251.92 1345.3,-254.09 1354.78,-256.35"/>
<polygon fill="black" stroke="black" points="1354.23,-259.81 1364.76,-258.73 1355.85,-253 1354.23,-259.81"/>
</g>
<!-- 2631890003328&#45;&gt;2631890003520 -->
<g id="edge40" class="edge">
<title>2631890003328&#45;&gt;2631890003520</title>
<path fill="none" stroke="black" d="M1328.68,-238.67C1341.49,-236.01 1357.56,-232.67 1373.22,-229.42"/>
<polygon fill="black" stroke="black" points="1374.34,-232.76 1383.42,-227.3 1372.92,-225.9 1374.34,-232.76"/>
</g>
</g>
</svg>
