<?xml version="1.0" encoding="UTF-8" standalone="no"?>
<!DOCTYPE svg PUBLIC "-//W3C//DTD SVG 1.1//EN"
 "http://www.w3.org/Graphics/SVG/1.1/DTD/svg11.dtd">
<!-- Generated by graphviz version 2.49.0 (20210828.1703)
 -->
<!-- Title: imdf_net_1655279247.92371 Pages: 1 -->
<svg width="3892pt" height="438pt"
 viewBox="0.00 0.00 3892.00 438.00" xmlns="http://www.w3.org/2000/svg" xmlns:xlink="http://www.w3.org/1999/xlink">
<g id="graph0" class="graph" transform="scale(1 1) rotate(0) translate(4 434)">
<title>imdf_net_1655279247.92371</title>
<!-- 2146546172928 -->
<g id="node1" class="node">
<title>2146546172928</title>
<polygon fill="none" stroke="black" points="207,-127 0,-127 0,-91 207,-91 207,-127"/>
<text text-anchor="middle" x="103.5" y="-105.9" font-family="Times New Roman,serif" font-size="12.00">Check__application__form_completeness</text>
</g>
<!-- 2146546172832 -->
<g id="node46" class="node">
<title>2146546172832</title>
<ellipse fill="none" stroke="black" cx="270" cy="-137" rx="27" ry="27"/>
</g>
<!-- 2146546172928&#45;&gt;2146546172832 -->
<g id="edge7" class="edge">
<title>2146546172928&#45;&gt;2146546172832</title>
<path fill="none" stroke="black" d="M207.28,-126.49C216.49,-128.06 225.34,-129.57 233.31,-130.93"/>
<polygon fill="black" stroke="black" points="232.8,-134.39 243.25,-132.62 233.98,-127.49 232.8,-134.39"/>
</g>
<!-- 2146545603200 -->
<g id="node2" class="node">
<title>2146545603200</title>
<polygon fill="none" stroke="black" points="1021,-294 926,-294 926,-258 1021,-258 1021,-294"/>
<text text-anchor="middle" x="973.5" y="-272.9" font-family="Times New Roman,serif" font-size="12.00">Assess_loan_risk</text>
</g>
<!-- 2146545603344 -->
<g id="node30" class="node">
<title>2146545603344</title>
<ellipse fill="none" stroke="black" cx="1084" cy="-273" rx="27" ry="27"/>
</g>
<!-- 2146545603200&#45;&gt;2146545603344 -->
<g id="edge17" class="edge">
<title>2146545603200&#45;&gt;2146545603344</title>
<path fill="none" stroke="black" d="M1021.14,-274.71C1029.61,-274.48 1038.33,-274.24 1046.45,-274.01"/>
<polygon fill="black" stroke="black" points="1046.82,-277.5 1056.72,-273.73 1046.62,-270.5 1046.82,-277.5"/>
</g>
<!-- 2146545931264 -->
<g id="node3" class="node">
<title>2146545931264</title>
<polygon fill="none" stroke="black" points="2495,-324 2345,-324 2345,-288 2495,-288 2495,-324"/>
<text text-anchor="middle" x="2420" y="-302.9" font-family="Times New Roman,serif" font-size="12.00">Verify_repayment_agreement</text>
</g>
<!-- 2146545603104 -->
<g id="node37" class="node">
<title>2146545603104</title>
<ellipse fill="none" stroke="black" cx="2558" cy="-306" rx="27" ry="27"/>
</g>
<!-- 2146545931264&#45;&gt;2146545603104 -->
<g id="edge19" class="edge">
<title>2146545931264&#45;&gt;2146545603104</title>
<path fill="none" stroke="black" d="M2495.37,-306C2504.15,-306 2512.79,-306 2520.69,-306"/>
<polygon fill="black" stroke="black" points="2520.96,-309.5 2530.96,-306 2520.96,-302.5 2520.96,-309.5"/>
</g>
<!-- 2146545933952 -->
<g id="node4" class="node">
<title>2146545933952</title>
<polygon fill="black" stroke="black" points="2699.5,-323 2645.5,-323 2645.5,-287 2699.5,-287 2699.5,-323"/>
</g>
<!-- 2146545934000 -->
<g id="node38" class="node">
<title>2146545934000</title>
<ellipse fill="none" stroke="black" cx="2787" cy="-305" rx="27" ry="27"/>
</g>
<!-- 2146545933952&#45;&gt;2146545934000 -->
<g id="edge24" class="edge">
<title>2146545933952&#45;&gt;2146545934000</title>
<path fill="none" stroke="black" d="M2699.59,-305C2714.39,-305 2733.15,-305 2749.41,-305"/>
<polygon fill="black" stroke="black" points="2749.66,-308.5 2759.66,-305 2749.66,-301.5 2749.66,-308.5"/>
</g>
<!-- 2146545897088 -->
<g id="node5" class="node">
<title>2146545897088</title>
<polygon fill="#ff0000" stroke="black" points="3238,-321 3088,-321 3088,-285 3238,-285 3238,-321"/>
<text text-anchor="middle" x="3163" y="-299.9" font-family="Times New Roman,serif" font-size="12.00">Verify_repayment_agreement</text>
</g>
<!-- 2146545897424 -->
<g id="node43" class="node">
<title>2146545897424</title>
<ellipse fill="none" stroke="black" cx="3301" cy="-303" rx="27" ry="27"/>
</g>
<!-- 2146545897088&#45;&gt;2146545897424 -->
<g id="edge1" class="edge">
<title>2146545897088&#45;&gt;2146545897424</title>
<path fill="none" stroke="black" d="M3238.37,-303C3247.15,-303 3255.79,-303 3263.69,-303"/>
<polygon fill="black" stroke="black" points="3263.96,-306.5 3273.96,-303 3263.96,-299.5 3263.96,-306.5"/>
</g>
<!-- 2146546175760 -->
<g id="node6" class="node">
<title>2146546175760</title>
<polygon fill="none" stroke="black" points="800,-150 650,-150 650,-114 800,-114 800,-150"/>
<text text-anchor="middle" x="725" y="-128.9" font-family="Times New Roman,serif" font-size="12.00">Receive_updated_application</text>
</g>
<!-- 2146545006336 -->
<g id="node45" class="node">
<title>2146545006336</title>
<ellipse fill="none" stroke="black" cx="863" cy="-82" rx="27" ry="27"/>
</g>
<!-- 2146546175760&#45;&gt;2146545006336 -->
<g id="edge11" class="edge">
<title>2146546175760&#45;&gt;2146545006336</title>
<path fill="none" stroke="black" d="M775.1,-113.95C792.62,-107.51 811.95,-100.4 827.92,-94.53"/>
<polygon fill="black" stroke="black" points="829.21,-97.78 837.39,-91.05 826.8,-91.21 829.21,-97.78"/>
</g>
<!-- 2146545604112 -->
<g id="node7" class="node">
<title>2146545604112</title>
<polygon fill="none" stroke="black" points="782,-298 668,-298 668,-262 782,-262 782,-298"/>
<text text-anchor="middle" x="725" y="-276.9" font-family="Times New Roman,serif" font-size="12.00">Check_credit_history</text>
</g>
<!-- 2146545604064 -->
<g id="node31" class="node">
<title>2146545604064</title>
<ellipse fill="none" stroke="black" cx="863" cy="-276" rx="27" ry="27"/>
</g>
<!-- 2146545604112&#45;&gt;2146545604064 -->
<g id="edge10" class="edge">
<title>2146545604112&#45;&gt;2146545604064</title>
<path fill="none" stroke="black" d="M782.1,-278.35C796.77,-277.92 812.19,-277.46 825.54,-277.07"/>
<polygon fill="black" stroke="black" points="825.85,-280.56 835.74,-276.77 825.64,-273.57 825.85,-280.56"/>
</g>
<!-- 2146545933712 -->
<g id="node8" class="node">
<title>2146545933712</title>
<polygon fill="#ff0000" stroke="black" points="2962,-323 2850,-323 2850,-287 2962,-287 2962,-323"/>
<text text-anchor="middle" x="2906" y="-301.9" font-family="Times New Roman,serif" font-size="12.00">Approve_application</text>
</g>
<!-- 2146545933568 -->
<g id="node40" class="node">
<title>2146545933568</title>
<ellipse fill="none" stroke="black" cx="3025" cy="-375" rx="27" ry="27"/>
</g>
<!-- 2146545933712&#45;&gt;2146545933568 -->
<g id="edge14" class="edge">
<title>2146545933712&#45;&gt;2146545933568</title>
<path fill="none" stroke="black" d="M2937.13,-323.03C2954.2,-333.24 2975.51,-345.99 2992.76,-356.31"/>
<polygon fill="black" stroke="black" points="2990.98,-359.33 3001.36,-361.46 2994.58,-353.32 2990.98,-359.33"/>
</g>
<!-- 2146545933472 -->
<g id="node42" class="node">
<title>2146545933472</title>
<ellipse fill="none" stroke="black" cx="3025" cy="-303" rx="27" ry="27"/>
</g>
<!-- 2146545933712&#45;&gt;2146545933472 -->
<g id="edge15" class="edge">
<title>2146545933712&#45;&gt;2146545933472</title>
<path fill="none" stroke="black" d="M2962.07,-304.06C2970.73,-303.91 2979.48,-303.76 2987.58,-303.62"/>
<polygon fill="black" stroke="black" points="2987.83,-307.12 2997.77,-303.45 2987.71,-300.12 2987.83,-307.12"/>
</g>
<!-- 2146544726416 -->
<g id="node9" class="node">
<title>2146544726416</title>
<polygon fill="#ff0000" stroke="black" points="3481.5,-323 3392.5,-323 3392.5,-287 3481.5,-287 3481.5,-323"/>
<text text-anchor="middle" x="3437" y="-301.9" font-family="Times New Roman,serif" font-size="12.00">Added_Acitvity</text>
</g>
<!-- 2146545932224 -->
<g id="node39" class="node">
<title>2146545932224</title>
<ellipse fill="none" stroke="black" cx="3573" cy="-305" rx="27" ry="27"/>
</g>
<!-- 2146544726416&#45;&gt;2146545932224 -->
<g id="edge16" class="edge">
<title>2146544726416&#45;&gt;2146545932224</title>
<path fill="none" stroke="black" d="M3481.51,-305C3498.93,-305 3518.79,-305 3535.45,-305"/>
<polygon fill="black" stroke="black" points="3535.88,-308.5 3545.88,-305 3535.88,-301.5 3535.88,-308.5"/>
</g>
<!-- 2146546175904 -->
<g id="node10" class="node">
<title>2146546175904</title>
<polygon fill="none" stroke="black" points="524,-155 333,-155 333,-119 524,-119 524,-155"/>
<text text-anchor="middle" x="428.5" y="-133.9" font-family="Times New Roman,serif" font-size="12.00">Return_application_back_to_applicant</text>
</g>
<!-- 2146546175664 -->
<g id="node47" class="node">
<title>2146546175664</title>
<ellipse fill="none" stroke="black" cx="587" cy="-137" rx="27" ry="27"/>
</g>
<!-- 2146546175904&#45;&gt;2146546175664 -->
<g id="edge23" class="edge">
<title>2146546175904&#45;&gt;2146546175664</title>
<path fill="none" stroke="black" d="M524.15,-137C533.09,-137 541.73,-137 549.57,-137"/>
<polygon fill="black" stroke="black" points="549.73,-140.5 559.73,-137 549.73,-133.5 549.73,-140.5"/>
</g>
<!-- 2146545605792 -->
<g id="node11" class="node">
<title>2146545605792</title>
<polygon fill="none" stroke="black" points="1503,-292 1365,-292 1365,-256 1503,-256 1503,-292"/>
<text text-anchor="middle" x="1434" y="-270.9" font-family="Times New Roman,serif" font-size="12.00">Prepare_acceptance_pack</text>
</g>
<!-- 2146545603248 -->
<g id="node34" class="node">
<title>2146545603248</title>
<ellipse fill="none" stroke="black" cx="1566" cy="-279" rx="27" ry="27"/>
</g>
<!-- 2146545605792&#45;&gt;2146545603248 -->
<g id="edge9" class="edge">
<title>2146545605792&#45;&gt;2146545603248</title>
<path fill="none" stroke="black" d="M1503.05,-276.62C1511.93,-276.96 1520.74,-277.3 1528.81,-277.61"/>
<polygon fill="black" stroke="black" points="1528.8,-281.11 1538.93,-278 1529.07,-274.12 1528.8,-281.11"/>
</g>
<!-- 2146546285728 -->
<g id="node12" class="node">
<title>2146546285728</title>
<polygon fill="black" stroke="black" points="3738,-271 3684,-271 3684,-235 3738,-235 3738,-271"/>
</g>
<!-- 2146546285728&#45;&gt;2146545934000 -->
<g id="edge51" class="edge">
<title>2146546285728&#45;&gt;2146545934000</title>
<path fill="none" stroke="black" d="M3683.75,-252.2C3635.22,-250.78 3528.21,-248 3438,-248 3024,-248 3024,-248 3024,-248 2945.53,-248 2925.18,-255.51 2850,-278 2840.23,-280.92 2829.96,-284.97 2820.64,-289.04"/>
<polygon fill="black" stroke="black" points="2819.02,-285.94 2811.35,-293.25 2821.9,-292.31 2819.02,-285.94"/>
</g>
<!-- 2146545932080 -->
<g id="node13" class="node">
<title>2146545932080</title>
<polygon fill="#ff0000" stroke="black" points="3232,-393 3094,-393 3094,-357 3232,-357 3232,-393"/>
<text text-anchor="middle" x="3163" y="-371.9" font-family="Times New Roman,serif" font-size="12.00">Prepare_acceptance_pack</text>
</g>
<!-- 2146545930352 -->
<g id="node41" class="node">
<title>2146545930352</title>
<ellipse fill="none" stroke="black" cx="3301" cy="-375" rx="27" ry="27"/>
</g>
<!-- 2146545932080&#45;&gt;2146545930352 -->
<g id="edge18" class="edge">
<title>2146545932080&#45;&gt;2146545930352</title>
<path fill="none" stroke="black" d="M3232.4,-375C3243.28,-375 3254.15,-375 3263.89,-375"/>
<polygon fill="black" stroke="black" points="3263.96,-378.5 3273.96,-375 3263.96,-371.5 3263.96,-378.5"/>
</g>
<!-- 2146545604544 -->
<g id="node14" class="node">
<title>2146545604544</title>
<polygon fill="none" stroke="black" points="2033,-225 1896,-225 1896,-189 2033,-189 2033,-225"/>
<text text-anchor="middle" x="1964.5" y="-203.9" font-family="Times New Roman,serif" font-size="12.00">Loan_application_rejected</text>
</g>
<!-- 2146546552592 -->
<g id="node48" class="node">
<title>2146546552592</title>
<ellipse fill="none" stroke="black" cx="3853" cy="-307" rx="27" ry="27"/>
<ellipse fill="none" stroke="black" cx="3853" cy="-307" rx="31" ry="31"/>
<text text-anchor="start" x="3843" y="-298.9" font-family="Times New Roman,serif" font-size="32.00">■</text>
</g>
<!-- 2146545604544&#45;&gt;2146546552592 -->
<g id="edge4" class="edge">
<title>2146545604544&#45;&gt;2146546552592</title>
<path fill="none" stroke="black" d="M2033.2,-207C2097.09,-207 2195.55,-207 2281,-207 2281,-207 2281,-207 3574,-207 3668.6,-207 3702.45,-181.63 3786,-226 3805.24,-236.22 3820.95,-254.67 3832.21,-271.38"/>
<polygon fill="black" stroke="black" points="3829.34,-273.39 3837.69,-279.91 3835.23,-269.61 3829.34,-273.39"/>
</g>
<!-- 2146545606608 -->
<g id="node15" class="node">
<title>2146545606608</title>
<polygon fill="none" stroke="black" points="1484.5,-234 1383.5,-234 1383.5,-198 1484.5,-198 1484.5,-234"/>
<text text-anchor="middle" x="1434" y="-212.9" font-family="Times New Roman,serif" font-size="12.00">Reject_application</text>
</g>
<!-- 2146545603776 -->
<g id="node33" class="node">
<title>2146545603776</title>
<ellipse fill="none" stroke="black" cx="1566" cy="-207" rx="27" ry="27"/>
</g>
<!-- 2146545606608&#45;&gt;2146545603776 -->
<g id="edge2" class="edge">
<title>2146545606608&#45;&gt;2146545603776</title>
<path fill="none" stroke="black" d="M1484.52,-212.57C1499.27,-211.55 1515.15,-210.45 1528.88,-209.5"/>
<polygon fill="black" stroke="black" points="1529.16,-212.99 1538.9,-208.81 1528.68,-206.01 1529.16,-212.99"/>
</g>
<!-- 2146546552544 -->
<g id="node16" class="node">
<title>2146546552544</title>
<polygon fill="none" stroke="black" points="797.5,-50 652.5,-50 652.5,-14 797.5,-14 797.5,-50"/>
<text text-anchor="middle" x="725" y="-28.9" font-family="Times New Roman,serif" font-size="12.00">Loan__application_received</text>
</g>
<!-- 2146546552544&#45;&gt;2146545006336 -->
<g id="edge12" class="edge">
<title>2146546552544&#45;&gt;2146545006336</title>
<path fill="none" stroke="black" d="M775.1,-50.05C792.62,-56.49 811.95,-63.6 827.92,-69.47"/>
<polygon fill="black" stroke="black" points="826.8,-72.79 837.39,-72.95 829.21,-66.22 826.8,-72.79"/>
</g>
<!-- 2146546268000 -->
<g id="node17" class="node">
<title>2146546268000</title>
<polygon fill="black" stroke="black" points="455.5,-227 401.5,-227 401.5,-191 455.5,-191 455.5,-227"/>
</g>
<!-- 2146545942976 -->
<g id="node27" class="node">
<title>2146545942976</title>
<ellipse fill="none" stroke="black" cx="587" cy="-209" rx="27" ry="27"/>
</g>
<!-- 2146546268000&#45;&gt;2146545942976 -->
<g id="edge52" class="edge">
<title>2146546268000&#45;&gt;2146545942976</title>
<path fill="none" stroke="black" d="M455.69,-209C481.5,-209 521.13,-209 549.91,-209"/>
<polygon fill="black" stroke="black" points="549.98,-212.5 559.98,-209 549.98,-205.5 549.98,-212.5"/>
</g>
<!-- 2146545603824 -->
<g id="node29" class="node">
<title>2146545603824</title>
<ellipse fill="none" stroke="black" cx="587" cy="-281" rx="27" ry="27"/>
</g>
<!-- 2146546268000&#45;&gt;2146545603824 -->
<g id="edge53" class="edge">
<title>2146546268000&#45;&gt;2146545603824</title>
<path fill="none" stroke="black" d="M455.69,-221.05C482.43,-233.35 524.01,-252.48 552.98,-265.81"/>
<polygon fill="black" stroke="black" points="551.74,-269.09 562.29,-270.09 554.66,-262.73 551.74,-269.09"/>
</g>
<!-- 2146545886304 -->
<g id="node18" class="node">
<title>2146545886304</title>
<polygon fill="none" stroke="black" points="776.5,-228 673.5,-228 673.5,-192 776.5,-192 776.5,-228"/>
<text text-anchor="middle" x="725" y="-206.9" font-family="Times New Roman,serif" font-size="12.00">Appraise_property</text>
</g>
<!-- 2146545886016 -->
<g id="node28" class="node">
<title>2146545886016</title>
<ellipse fill="none" stroke="black" cx="973.5" cy="-212" rx="27" ry="27"/>
</g>
<!-- 2146545886304&#45;&gt;2146545886016 -->
<g id="edge20" class="edge">
<title>2146545886304&#45;&gt;2146545886016</title>
<path fill="none" stroke="black" d="M776.78,-210.41C824.33,-210.8 894.21,-211.36 936.33,-211.71"/>
<polygon fill="black" stroke="black" points="936.39,-215.21 946.41,-211.79 936.44,-208.21 936.39,-215.21"/>
</g>
<!-- 2146545602912 -->
<g id="node19" class="node">
<title>2146545602912</title>
<polygon fill="none" stroke="black" points="1860,-297 1629,-297 1629,-261 1860,-261 1860,-297"/>
<text text-anchor="middle" x="1744.5" y="-275.9" font-family="Times New Roman,serif" font-size="12.00">Check_if_home_insurance_quote_is_requested</text>
</g>
<!-- 2146545606080 -->
<g id="node35" class="node">
<title>2146545606080</title>
<ellipse fill="none" stroke="black" cx="1964.5" cy="-279" rx="27" ry="27"/>
</g>
<!-- 2146545602912&#45;&gt;2146545606080 -->
<g id="edge13" class="edge">
<title>2146545602912&#45;&gt;2146545606080</title>
<path fill="none" stroke="black" d="M1860.25,-279C1884.54,-279 1908.45,-279 1927.14,-279"/>
<polygon fill="black" stroke="black" points="1927.22,-282.5 1937.22,-279 1927.22,-275.5 1927.22,-282.5"/>
</g>
<!-- 2146545604448 -->
<g id="node20" class="node">
<title>2146545604448</title>
<polygon fill="none" stroke="black" points="2206.5,-284 2081.5,-284 2081.5,-248 2206.5,-248 2206.5,-284"/>
<text text-anchor="middle" x="2144" y="-262.9" font-family="Times New Roman,serif" font-size="12.00">Send_acceptance_pack</text>
</g>
<!-- 2146545606032 -->
<g id="node36" class="node">
<title>2146545606032</title>
<ellipse fill="none" stroke="black" cx="2282" cy="-306" rx="27" ry="27"/>
</g>
<!-- 2146545604448&#45;&gt;2146545606032 -->
<g id="edge8" class="edge">
<title>2146545604448&#45;&gt;2146545606032</title>
<path fill="none" stroke="black" d="M2206.24,-284.01C2219.9,-288.03 2233.92,-292.15 2246.09,-295.73"/>
<polygon fill="black" stroke="black" points="2245.23,-299.13 2255.81,-298.59 2247.21,-292.41 2245.23,-299.13"/>
</g>
<!-- 2146545934048 -->
<g id="node21" class="node">
<title>2146545934048</title>
<polygon fill="none" stroke="black" points="3786,-325 3636,-325 3636,-289 3786,-289 3786,-325"/>
<text text-anchor="middle" x="3711" y="-303.9" font-family="Times New Roman,serif" font-size="12.00">Loan__application_approved</text>
</g>
<!-- 2146545934048&#45;&gt;2146546552592 -->
<g id="edge3" class="edge">
<title>2146545934048&#45;&gt;2146546552592</title>
<path fill="none" stroke="black" d="M3786.1,-307C3794.86,-307 3803.53,-307 3811.56,-307"/>
<polygon fill="black" stroke="black" points="3811.71,-310.5 3821.71,-307 3811.71,-303.5 3811.71,-310.5"/>
</g>
<!-- 2146545630560 -->
<g id="node22" class="node">
<title>2146545630560</title>
<polygon fill="none" stroke="black" points="3510,-430 3364,-430 3364,-394 3510,-394 3510,-430"/>
<text text-anchor="middle" x="3437" y="-408.9" font-family="Times New Roman,serif" font-size="12.00">Loan__application_canceled</text>
</g>
<!-- 2146545630560&#45;&gt;2146546552592 -->
<g id="edge22" class="edge">
<title>2146545630560&#45;&gt;2146546552592</title>
<path fill="none" stroke="black" d="M3510.24,-399.48C3581.28,-386.31 3692.38,-363.41 3786,-334 3795.55,-331 3805.66,-327.2 3815.02,-323.4"/>
<polygon fill="black" stroke="black" points="3816.55,-326.55 3824.44,-319.48 3813.86,-320.09 3816.55,-326.55"/>
</g>
<!-- 2146545603056 -->
<g id="node23" class="node">
<title>2146545603056</title>
<polygon fill="none" stroke="black" points="1239,-261 1147,-261 1147,-225 1239,-225 1239,-261"/>
<text text-anchor="middle" x="1193" y="-239.9" font-family="Times New Roman,serif" font-size="12.00">Assess_eligibility</text>
</g>
<!-- 2146545944368 -->
<g id="node32" class="node">
<title>2146545944368</title>
<ellipse fill="none" stroke="black" cx="1302" cy="-243" rx="27" ry="27"/>
</g>
<!-- 2146545603056&#45;&gt;2146545944368 -->
<g id="edge6" class="edge">
<title>2146545603056&#45;&gt;2146545944368</title>
<path fill="none" stroke="black" d="M1239.07,-243C1247.66,-243 1256.55,-243 1264.83,-243"/>
<polygon fill="black" stroke="black" points="1264.9,-246.5 1274.9,-243 1264.9,-239.5 1264.9,-246.5"/>
</g>
<!-- 2146545930736 -->
<g id="node24" class="node">
<title>2146545930736</title>
<polygon fill="none" stroke="black" points="2219,-338 2069,-338 2069,-302 2219,-302 2219,-338"/>
<text text-anchor="middle" x="2144" y="-316.9" font-family="Times New Roman,serif" font-size="12.00">Send_home_insurance_quote</text>
</g>
<!-- 2146545930736&#45;&gt;2146545606032 -->
<g id="edge5" class="edge">
<title>2146545930736&#45;&gt;2146545606032</title>
<path fill="none" stroke="black" d="M2219.37,-312.34C2228.25,-311.43 2236.99,-310.53 2244.96,-309.71"/>
<polygon fill="black" stroke="black" points="2245.37,-313.19 2254.96,-308.68 2244.65,-306.22 2245.37,-313.19"/>
</g>
<!-- 2146546233840 -->
<g id="node25" class="node">
<title>2146546233840</title>
<polygon fill="none" stroke="black" points="2724,-399 2621,-399 2621,-363 2724,-363 2724,-399"/>
<text text-anchor="middle" x="2672.5" y="-377.9" font-family="Times New Roman,serif" font-size="12.00">Cancel_application</text>
</g>
<!-- 2146545932704 -->
<g id="node44" class="node">
<title>2146545932704</title>
<ellipse fill="none" stroke="black" cx="2787" cy="-403" rx="27" ry="27"/>
</g>
<!-- 2146546233840&#45;&gt;2146545932704 -->
<g id="edge21" class="edge">
<title>2146546233840&#45;&gt;2146545932704</title>
<path fill="none" stroke="black" d="M2724.16,-390.91C2732.93,-392.62 2741.89,-394.37 2750.17,-395.99"/>
<polygon fill="black" stroke="black" points="2749.73,-399.47 2760.22,-397.96 2751.08,-392.6 2749.73,-399.47"/>
</g>
<!-- 2146546552448 -->
<g id="node26" class="node">
<title>2146546552448</title>
<ellipse fill="none" stroke="black" cx="587" cy="-27" rx="27" ry="27"/>
<text text-anchor="start" x="576" y="-18.3" font-family="Times New Roman,serif" font-size="34.00">●</text>
</g>
<!-- 2146546552448&#45;&gt;2146546552544 -->
<g id="edge54" class="edge">
<title>2146546552448&#45;&gt;2146546552544</title>
<path fill="none" stroke="black" d="M614.22,-27.96C622.5,-28.27 632.13,-28.62 642.18,-28.99"/>
<polygon fill="black" stroke="black" points="642.21,-32.5 652.33,-29.37 642.46,-25.5 642.21,-32.5"/>
</g>
<!-- 2146545942976&#45;&gt;2146545886304 -->
<g id="edge25" class="edge">
<title>2146545942976&#45;&gt;2146545886304</title>
<path fill="none" stroke="black" d="M614.22,-209.19C628.22,-209.3 646.08,-209.43 663.31,-209.55"/>
<polygon fill="black" stroke="black" points="663.32,-213.05 673.35,-209.63 663.37,-206.05 663.32,-213.05"/>
</g>
<!-- 2146545886016&#45;&gt;2146545603056 -->
<g id="edge26" class="edge">
<title>2146545886016&#45;&gt;2146545603056</title>
<path fill="none" stroke="black" d="M1000.3,-215.68C1033.81,-220.45 1093.2,-228.92 1137.02,-235.16"/>
<polygon fill="black" stroke="black" points="1136.56,-238.63 1146.95,-236.58 1137.55,-231.7 1136.56,-238.63"/>
</g>
<!-- 2146545603824&#45;&gt;2146545604112 -->
<g id="edge27" class="edge">
<title>2146545603824&#45;&gt;2146545604112</title>
<path fill="none" stroke="black" d="M614.22,-280.81C626.7,-280.72 642.23,-280.6 657.65,-280.49"/>
<polygon fill="black" stroke="black" points="657.76,-283.99 667.74,-280.41 657.71,-276.99 657.76,-283.99"/>
</g>
<!-- 2146545603344&#45;&gt;2146545603056 -->
<g id="edge28" class="edge">
<title>2146545603344&#45;&gt;2146545603056</title>
<path fill="none" stroke="black" d="M1110.09,-265.97C1118.25,-263.68 1127.65,-261.04 1137.11,-258.39"/>
<polygon fill="black" stroke="black" points="1138.26,-261.7 1146.94,-255.63 1136.37,-254.96 1138.26,-261.7"/>
</g>
<!-- 2146545604064&#45;&gt;2146545603200 -->
<g id="edge29" class="edge">
<title>2146545604064&#45;&gt;2146545603200</title>
<path fill="none" stroke="black" d="M890.26,-276C898.01,-276 906.81,-276 915.69,-276"/>
<polygon fill="black" stroke="black" points="915.71,-279.5 925.71,-276 915.71,-272.5 915.71,-279.5"/>
</g>
<!-- 2146545944368&#45;&gt;2146545605792 -->
<g id="edge31" class="edge">
<title>2146545944368&#45;&gt;2146545605792</title>
<path fill="none" stroke="black" d="M1328.37,-249.05C1336.22,-250.92 1345.3,-253.09 1354.78,-255.35"/>
<polygon fill="black" stroke="black" points="1354.23,-258.81 1364.76,-257.73 1355.85,-252 1354.23,-258.81"/>
</g>
<!-- 2146545944368&#45;&gt;2146545606608 -->
<g id="edge30" class="edge">
<title>2146545944368&#45;&gt;2146545606608</title>
<path fill="none" stroke="black" d="M1328.68,-237.67C1341.49,-235.01 1357.56,-231.67 1373.22,-228.42"/>
<polygon fill="black" stroke="black" points="1374.34,-231.76 1383.42,-226.3 1372.92,-224.9 1374.34,-231.76"/>
</g>
<!-- 2146545603776&#45;&gt;2146545604544 -->
<g id="edge32" class="edge">
<title>2146545603776&#45;&gt;2146545604544</title>
<path fill="none" stroke="black" d="M1593.02,-207C1651.49,-207 1795.26,-207 1885.53,-207"/>
<polygon fill="black" stroke="black" points="1885.72,-210.5 1895.72,-207 1885.72,-203.5 1885.72,-210.5"/>
</g>
<!-- 2146545603248&#45;&gt;2146545602912 -->
<g id="edge33" class="edge">
<title>2146545603248&#45;&gt;2146545602912</title>
<path fill="none" stroke="black" d="M1593.04,-279C1600.59,-279 1609.37,-279 1618.82,-279"/>
<polygon fill="black" stroke="black" points="1618.89,-282.5 1628.89,-279 1618.89,-275.5 1618.89,-282.5"/>
</g>
<!-- 2146545606080&#45;&gt;2146545604448 -->
<g id="edge35" class="edge">
<title>2146545606080&#45;&gt;2146545604448</title>
<path fill="none" stroke="black" d="M1991.69,-277.08C2012.65,-275.55 2043.07,-273.32 2071.15,-271.26"/>
<polygon fill="black" stroke="black" points="2071.65,-274.73 2081.37,-270.51 2071.14,-267.75 2071.65,-274.73"/>
</g>
<!-- 2146545606080&#45;&gt;2146545930736 -->
<g id="edge34" class="edge">
<title>2146545606080&#45;&gt;2146545930736</title>
<path fill="none" stroke="black" d="M1990.93,-284.87C2008.96,-289.04 2034.25,-294.88 2059.05,-300.61"/>
<polygon fill="black" stroke="black" points="2058.35,-304.04 2068.88,-302.88 2059.92,-297.22 2058.35,-304.04"/>
</g>
<!-- 2146545606032&#45;&gt;2146545931264 -->
<g id="edge36" class="edge">
<title>2146545606032&#45;&gt;2146545931264</title>
<path fill="none" stroke="black" d="M2309.22,-306C2316.82,-306 2325.55,-306 2334.7,-306"/>
<polygon fill="black" stroke="black" points="2334.76,-309.5 2344.76,-306 2334.76,-302.5 2334.76,-309.5"/>
</g>
<!-- 2146545603104&#45;&gt;2146545933952 -->
<g id="edge38" class="edge">
<title>2146545603104&#45;&gt;2146545933952</title>
<path fill="none" stroke="black" d="M2585.09,-305.77C2599.89,-305.64 2618.65,-305.47 2634.91,-305.33"/>
<polygon fill="black" stroke="black" points="2635.19,-308.82 2645.16,-305.23 2635.13,-301.82 2635.19,-308.82"/>
</g>
<!-- 2146545603104&#45;&gt;2146546233840 -->
<g id="edge37" class="edge">
<title>2146545603104&#45;&gt;2146546233840</title>
<path fill="none" stroke="black" d="M2580.96,-320.64C2596.56,-331.04 2617.87,-345.24 2635.89,-357.26"/>
<polygon fill="black" stroke="black" points="2634.17,-360.32 2644.43,-362.95 2638.05,-354.49 2634.17,-360.32"/>
</g>
<!-- 2146545934000&#45;&gt;2146545933712 -->
<g id="edge39" class="edge">
<title>2146545934000&#45;&gt;2146545933712</title>
<path fill="none" stroke="black" d="M2814.26,-305C2821.89,-305 2830.6,-305 2839.52,-305"/>
<polygon fill="black" stroke="black" points="2839.64,-308.5 2849.64,-305 2839.64,-301.5 2839.64,-308.5"/>
</g>
<!-- 2146545932224&#45;&gt;2146546285728 -->
<g id="edge41" class="edge">
<title>2146545932224&#45;&gt;2146546285728</title>
<path fill="none" stroke="black" d="M3598.37,-294.96C3609.76,-290.31 3623.54,-284.78 3636,-280 3648.49,-275.2 3662.24,-270.13 3674.47,-265.69"/>
<polygon fill="black" stroke="black" points="3675.68,-268.98 3683.89,-262.28 3673.3,-262.39 3675.68,-268.98"/>
</g>
<!-- 2146545932224&#45;&gt;2146545934048 -->
<g id="edge40" class="edge">
<title>2146545932224&#45;&gt;2146545934048</title>
<path fill="none" stroke="black" d="M3600.22,-305.39C3607.82,-305.5 3616.55,-305.63 3625.7,-305.76"/>
<polygon fill="black" stroke="black" points="3625.71,-309.26 3635.76,-305.91 3625.81,-302.26 3625.71,-309.26"/>
</g>
<!-- 2146545933568&#45;&gt;2146545932080 -->
<g id="edge42" class="edge">
<title>2146545933568&#45;&gt;2146545932080</title>
<path fill="none" stroke="black" d="M3052.22,-375C3061.48,-375 3072.41,-375 3083.74,-375"/>
<polygon fill="black" stroke="black" points="3083.76,-378.5 3093.76,-375 3083.76,-371.5 3083.76,-378.5"/>
</g>
<!-- 2146545930352&#45;&gt;2146544726416 -->
<g id="edge43" class="edge">
<title>2146545930352&#45;&gt;2146544726416</title>
<path fill="none" stroke="black" d="M3325.34,-362.81C3343.79,-353.17 3370.07,-339.44 3392.39,-327.78"/>
<polygon fill="black" stroke="black" points="3394.12,-330.83 3401.36,-323.1 3390.88,-324.62 3394.12,-330.83"/>
</g>
<!-- 2146545933472&#45;&gt;2146545897088 -->
<g id="edge44" class="edge">
<title>2146545933472&#45;&gt;2146545897088</title>
<path fill="none" stroke="black" d="M3052.22,-303C3059.82,-303 3068.55,-303 3077.7,-303"/>
<polygon fill="black" stroke="black" points="3077.76,-306.5 3087.76,-303 3077.76,-299.5 3077.76,-306.5"/>
</g>
<!-- 2146545897424&#45;&gt;2146544726416 -->
<g id="edge45" class="edge">
<title>2146545897424&#45;&gt;2146544726416</title>
<path fill="none" stroke="black" d="M3328.15,-303.39C3343.51,-303.62 3363.5,-303.92 3382.09,-304.2"/>
<polygon fill="black" stroke="black" points="3382.19,-307.7 3392.24,-304.35 3382.29,-300.7 3382.19,-307.7"/>
</g>
<!-- 2146545932704&#45;&gt;2146545630560 -->
<g id="edge46" class="edge">
<title>2146545932704&#45;&gt;2146545630560</title>
<path fill="none" stroke="black" d="M2813.73,-407.89C2856.99,-415.67 2947.09,-430 3024,-430 3024,-430 3024,-430 3164,-430 3227.8,-430 3299.83,-425.01 3353.74,-420.28"/>
<polygon fill="black" stroke="black" points="3354.28,-423.75 3363.93,-419.37 3353.66,-416.78 3354.28,-423.75"/>
</g>
<!-- 2146545006336&#45;&gt;2146546172928 -->
<g id="edge47" class="edge">
<title>2146545006336&#45;&gt;2146546172928</title>
<path fill="none" stroke="black" d="M835.93,-82C787.23,-82 679.1,-82 588,-82 427.5,-82 427.5,-82 427.5,-82 357.54,-82 279.35,-88.37 217.42,-94.92"/>
<polygon fill="black" stroke="black" points="216.8,-91.47 207.23,-96.01 217.55,-98.43 216.8,-91.47"/>
</g>
<!-- 2146546172832&#45;&gt;2146546175904 -->
<g id="edge48" class="edge">
<title>2146546172832&#45;&gt;2146546175904</title>
<path fill="none" stroke="black" d="M297.19,-137C304.67,-137 313.31,-137 322.51,-137"/>
<polygon fill="black" stroke="black" points="322.68,-140.5 332.68,-137 322.68,-133.5 322.68,-140.5"/>
</g>
<!-- 2146546172832&#45;&gt;2146546268000 -->
<g id="edge49" class="edge">
<title>2146546172832&#45;&gt;2146546268000</title>
<path fill="none" stroke="black" d="M294.77,-147.94C320.69,-159.86 362.46,-179.08 392.21,-192.77"/>
<polygon fill="black" stroke="black" points="390.87,-196 401.42,-197 393.79,-189.64 390.87,-196"/>
</g>
<!-- 2146546175664&#45;&gt;2146546175760 -->
<g id="edge50" class="edge">
<title>2146546175664&#45;&gt;2146546175760</title>
<path fill="none" stroke="black" d="M614.22,-136.04C621.82,-135.76 630.55,-135.44 639.7,-135.1"/>
<polygon fill="black" stroke="black" points="639.89,-138.59 649.76,-134.73 639.64,-131.6 639.89,-138.59"/>
</g>
</g>
</svg>
