<?xml version="1.0" encoding="UTF-8" standalone="no"?>
<!DOCTYPE svg PUBLIC "-//W3C//DTD SVG 1.1//EN"
 "http://www.w3.org/Graphics/SVG/1.1/DTD/svg11.dtd">
<!-- Generated by graphviz version 2.49.0 (20210828.1703)
 -->
<!-- Title: imdf_net_1655279248.9680538 Pages: 1 -->
<svg width="3445pt" height="220pt"
 viewBox="0.00 0.00 3445.00 220.00" xmlns="http://www.w3.org/2000/svg" xmlns:xlink="http://www.w3.org/1999/xlink">
<g id="graph0" class="graph" transform="scale(1 1) rotate(0) translate(4 216)">
<title>imdf_net_1655279248.9680538</title>
<!-- 2146546575104 -->
<g id="node1" class="node">
<title>2146546575104</title>
<polygon fill="none" stroke="black" points="240,-36 90,-36 90,0 240,0 240,-36"/>
<text text-anchor="middle" x="165" y="-14.9" font-family="Times New Roman,serif" font-size="12.00">Receive_updated_application</text>
</g>
<!-- 2146546863072 -->
<g id="node35" class="node">
<title>2146546863072</title>
<ellipse fill="none" stroke="black" cx="303" cy="-73" rx="27" ry="27"/>
</g>
<!-- 2146546575104&#45;&gt;2146546863072 -->
<g id="edge14" class="edge">
<title>2146546575104&#45;&gt;2146546863072</title>
<path fill="none" stroke="black" d="M214.7,-36.04C223.16,-39.28 231.86,-42.69 240,-46 249.36,-49.81 259.44,-54.11 268.69,-58.14"/>
<polygon fill="black" stroke="black" points="267.41,-61.4 277.97,-62.21 270.22,-54.99 267.41,-61.4"/>
</g>
<!-- 2146546610576 -->
<g id="node2" class="node">
<title>2146546610576</title>
<polygon fill="none" stroke="black" points="2363,-203 2226,-203 2226,-167 2363,-167 2363,-203"/>
<text text-anchor="middle" x="2294.5" y="-181.9" font-family="Times New Roman,serif" font-size="12.00">Loan_application_rejected</text>
</g>
<!-- 2146545006288 -->
<g id="node38" class="node">
<title>2146545006288</title>
<ellipse fill="none" stroke="black" cx="3406" cy="-130" rx="27" ry="27"/>
<ellipse fill="none" stroke="black" cx="3406" cy="-130" rx="31" ry="31"/>
<text text-anchor="start" x="3396" y="-121.9" font-family="Times New Roman,serif" font-size="32.00">■</text>
</g>
<!-- 2146546610576&#45;&gt;2146545006288 -->
<g id="edge10" class="edge">
<title>2146546610576&#45;&gt;2146545006288</title>
<path fill="none" stroke="black" d="M2363.2,-185C2427.09,-185 2525.55,-185 2611,-185 2611,-185 2611,-185 3127,-185 3222.04,-185 3247.15,-181.42 3339,-157 3348.68,-154.43 3358.83,-150.78 3368.19,-147"/>
<polygon fill="black" stroke="black" points="3369.74,-150.15 3377.61,-143.05 3367.03,-143.7 3369.74,-150.15"/>
</g>
<!-- 2146546574624 -->
<g id="node3" class="node">
<title>2146546574624</title>
<polygon fill="none" stroke="black" points="1351,-136 1256,-136 1256,-100 1351,-100 1351,-136"/>
<text text-anchor="middle" x="1303.5" y="-114.9" font-family="Times New Roman,serif" font-size="12.00">Assess_loan_risk</text>
</g>
<!-- 2146546575680 -->
<g id="node25" class="node">
<title>2146546575680</title>
<ellipse fill="none" stroke="black" cx="1414" cy="-122" rx="27" ry="27"/>
</g>
<!-- 2146546574624&#45;&gt;2146546575680 -->
<g id="edge19" class="edge">
<title>2146546574624&#45;&gt;2146546575680</title>
<path fill="none" stroke="black" d="M1351.14,-119.72C1359.61,-120.03 1368.33,-120.35 1376.45,-120.65"/>
<polygon fill="black" stroke="black" points="1376.6,-124.16 1386.72,-121.03 1376.85,-117.16 1376.6,-124.16"/>
</g>
<!-- 2146546549280 -->
<g id="node4" class="node">
<title>2146546549280</title>
<polygon fill="none" stroke="black" points="2536.5,-144 2411.5,-144 2411.5,-108 2536.5,-108 2536.5,-144"/>
<text text-anchor="middle" x="2474" y="-122.9" font-family="Times New Roman,serif" font-size="12.00">Send_acceptance_pack</text>
</g>
<!-- 2146546550672 -->
<g id="node31" class="node">
<title>2146546550672</title>
<ellipse fill="none" stroke="black" cx="2612" cy="-94" rx="27" ry="27"/>
</g>
<!-- 2146546549280&#45;&gt;2146546550672 -->
<g id="edge11" class="edge">
<title>2146546549280&#45;&gt;2146546550672</title>
<path fill="none" stroke="black" d="M2536.63,-111.5C2550.01,-108.35 2563.71,-105.13 2575.65,-102.32"/>
<polygon fill="black" stroke="black" points="2576.71,-105.66 2585.64,-99.97 2575.1,-98.85 2576.71,-105.66"/>
</g>
<!-- 2146546550048 -->
<g id="node5" class="node">
<title>2146546550048</title>
<polygon fill="none" stroke="black" points="3058.5,-139 2955.5,-139 2955.5,-103 3058.5,-103 3058.5,-139"/>
<text text-anchor="middle" x="3007" y="-117.9" font-family="Times New Roman,serif" font-size="12.00">Cancel_application</text>
</g>
<!-- 2146546549952 -->
<g id="node33" class="node">
<title>2146546549952</title>
<ellipse fill="none" stroke="black" cx="3126" cy="-130" rx="27" ry="27"/>
</g>
<!-- 2146546550048&#45;&gt;2146546549952 -->
<g id="edge9" class="edge">
<title>2146546550048&#45;&gt;2146546549952</title>
<path fill="none" stroke="black" d="M3058.64,-124.9C3068.69,-125.67 3079.06,-126.47 3088.52,-127.19"/>
<polygon fill="black" stroke="black" points="3088.52,-130.7 3098.76,-127.98 3089.06,-123.72 3088.52,-130.7"/>
</g>
<!-- 2146546550816 -->
<g id="node6" class="node">
<title>2146546550816</title>
<polygon fill="#ff0000" stroke="black" points="3339,-85 3189,-85 3189,-49 3339,-49 3339,-85"/>
<text text-anchor="middle" x="3264" y="-63.9" font-family="Times New Roman,serif" font-size="12.00">Loan__application_approved</text>
</g>
<!-- 2146546550816&#45;&gt;2146545006288 -->
<g id="edge13" class="edge">
<title>2146546550816&#45;&gt;2146545006288</title>
<path fill="none" stroke="black" d="M3305.12,-85.05C3324.98,-93.99 3348.79,-104.7 3368.18,-113.43"/>
<polygon fill="black" stroke="black" points="3366.75,-116.63 3377.31,-117.54 3369.62,-110.24 3366.75,-116.63"/>
</g>
<!-- 2146546610864 -->
<g id="node7" class="node">
<title>2146546610864</title>
<polygon fill="none" stroke="black" points="1814.5,-198 1713.5,-198 1713.5,-162 1814.5,-162 1814.5,-198"/>
<text text-anchor="middle" x="1764" y="-176.9" font-family="Times New Roman,serif" font-size="12.00">Reject_application</text>
</g>
<!-- 2146546611920 -->
<g id="node28" class="node">
<title>2146546611920</title>
<ellipse fill="none" stroke="black" cx="1896" cy="-185" rx="27" ry="27"/>
</g>
<!-- 2146546610864&#45;&gt;2146546611920 -->
<g id="edge16" class="edge">
<title>2146546610864&#45;&gt;2146546611920</title>
<path fill="none" stroke="black" d="M1814.52,-181.9C1829.27,-182.47 1845.15,-183.08 1858.88,-183.61"/>
<polygon fill="black" stroke="black" points="1858.77,-187.11 1868.9,-184 1859.04,-180.11 1858.77,-187.11"/>
</g>
<!-- 2146546550960 -->
<g id="node8" class="node">
<title>2146546550960</title>
<polygon fill="none" stroke="black" points="3337,-148 3191,-148 3191,-112 3337,-112 3337,-148"/>
<text text-anchor="middle" x="3264" y="-126.9" font-family="Times New Roman,serif" font-size="12.00">Loan__application_canceled</text>
</g>
<!-- 2146546550960&#45;&gt;2146545006288 -->
<g id="edge8" class="edge">
<title>2146546550960&#45;&gt;2146545006288</title>
<path fill="none" stroke="black" d="M3337.05,-130C3346.58,-130 3356.05,-130 3364.77,-130"/>
<polygon fill="black" stroke="black" points="3364.98,-133.5 3374.98,-130 3364.98,-126.5 3364.98,-133.5"/>
</g>
<!-- 2146546574528 -->
<g id="node9" class="node">
<title>2146546574528</title>
<polygon fill="black" stroke="black" points="821.5,-136 767.5,-136 767.5,-100 821.5,-100 821.5,-136"/>
</g>
<!-- 2146546577264 -->
<g id="node22" class="node">
<title>2146546577264</title>
<ellipse fill="none" stroke="black" cx="953" cy="-183" rx="27" ry="27"/>
</g>
<!-- 2146546574528&#45;&gt;2146546577264 -->
<g id="edge40" class="edge">
<title>2146546574528&#45;&gt;2146546577264</title>
<path fill="none" stroke="black" d="M821.69,-128.88C848.27,-139.92 889.52,-157.05 918.47,-169.07"/>
<polygon fill="black" stroke="black" points="917.2,-172.34 927.78,-172.94 919.89,-165.87 917.2,-172.34"/>
</g>
<!-- 2146546577312 -->
<g id="node24" class="node">
<title>2146546577312</title>
<ellipse fill="none" stroke="black" cx="953" cy="-111" rx="27" ry="27"/>
</g>
<!-- 2146546574528&#45;&gt;2146546577312 -->
<g id="edge41" class="edge">
<title>2146546574528&#45;&gt;2146546577312</title>
<path fill="none" stroke="black" d="M821.69,-116.83C847.5,-115.67 887.13,-113.9 915.91,-112.61"/>
<polygon fill="black" stroke="black" points="916.15,-116.11 925.98,-112.16 915.83,-109.11 916.15,-116.11"/>
</g>
<!-- 2146546611008 -->
<g id="node10" class="node">
<title>2146546611008</title>
<polygon fill="none" stroke="black" points="1569,-167 1477,-167 1477,-131 1569,-131 1569,-167"/>
<text text-anchor="middle" x="1523" y="-145.9" font-family="Times New Roman,serif" font-size="12.00">Assess_eligibility</text>
</g>
<!-- 2146546577216 -->
<g id="node27" class="node">
<title>2146546577216</title>
<ellipse fill="none" stroke="black" cx="1632" cy="-149" rx="27" ry="27"/>
</g>
<!-- 2146546611008&#45;&gt;2146546577216 -->
<g id="edge12" class="edge">
<title>2146546611008&#45;&gt;2146546577216</title>
<path fill="none" stroke="black" d="M1569.07,-149C1577.66,-149 1586.55,-149 1594.83,-149"/>
<polygon fill="black" stroke="black" points="1594.9,-152.5 1604.9,-149 1594.9,-145.5 1594.9,-152.5"/>
</g>
<!-- 2146546551488 -->
<g id="node11" class="node">
<title>2146546551488</title>
<polygon fill="#ff0000" stroke="black" points="3063,-80 2951,-80 2951,-44 3063,-44 3063,-80"/>
<text text-anchor="middle" x="3007" y="-58.9" font-family="Times New Roman,serif" font-size="12.00">Approve_application</text>
</g>
<!-- 2146546551680 -->
<g id="node34" class="node">
<title>2146546551680</title>
<ellipse fill="none" stroke="black" cx="3126" cy="-58" rx="27" ry="27"/>
</g>
<!-- 2146546551488&#45;&gt;2146546551680 -->
<g id="edge4" class="edge">
<title>2146546551488&#45;&gt;2146546551680</title>
<path fill="none" stroke="black" d="M3063.07,-60.12C3071.73,-59.82 3080.48,-59.52 3088.58,-59.25"/>
<polygon fill="black" stroke="black" points="3088.9,-62.74 3098.77,-58.9 3088.66,-55.74 3088.9,-62.74"/>
</g>
<!-- 2146546860240 -->
<g id="node12" class="node">
<title>2146546860240</title>
<polygon fill="none" stroke="black" points="573,-91 366,-91 366,-55 573,-55 573,-91"/>
<text text-anchor="middle" x="469.5" y="-69.9" font-family="Times New Roman,serif" font-size="12.00">Check__application__form_completeness</text>
</g>
<!-- 2146546862928 -->
<g id="node36" class="node">
<title>2146546862928</title>
<ellipse fill="none" stroke="black" cx="636" cy="-73" rx="27" ry="27"/>
</g>
<!-- 2146546860240&#45;&gt;2146546862928 -->
<g id="edge5" class="edge">
<title>2146546860240&#45;&gt;2146546862928</title>
<path fill="none" stroke="black" d="M573.28,-73C582.3,-73 590.96,-73 598.81,-73"/>
<polygon fill="black" stroke="black" points="598.95,-76.5 608.95,-73 598.95,-69.5 598.95,-76.5"/>
</g>
<!-- 2146546576208 -->
<g id="node13" class="node">
<title>2146546576208</title>
<polygon fill="none" stroke="black" points="1124.5,-200 1021.5,-200 1021.5,-164 1124.5,-164 1124.5,-200"/>
<text text-anchor="middle" x="1073" y="-178.9" font-family="Times New Roman,serif" font-size="12.00">Appraise_property</text>
</g>
<!-- 2146546577168 -->
<g id="node23" class="node">
<title>2146546577168</title>
<ellipse fill="none" stroke="black" cx="1303.5" cy="-182" rx="27" ry="27"/>
</g>
<!-- 2146546576208&#45;&gt;2146546577168 -->
<g id="edge17" class="edge">
<title>2146546576208&#45;&gt;2146546577168</title>
<path fill="none" stroke="black" d="M1124.71,-182C1167.62,-182 1228.05,-182 1266.24,-182"/>
<polygon fill="black" stroke="black" points="1266.39,-185.5 1276.39,-182 1266.39,-178.5 1266.39,-185.5"/>
</g>
<!-- 2146546575056 -->
<g id="node14" class="node">
<title>2146546575056</title>
<polygon fill="none" stroke="black" points="1130,-133 1016,-133 1016,-97 1130,-97 1130,-133"/>
<text text-anchor="middle" x="1073" y="-111.9" font-family="Times New Roman,serif" font-size="12.00">Check_credit_history</text>
</g>
<!-- 2146546574288 -->
<g id="node26" class="node">
<title>2146546574288</title>
<ellipse fill="none" stroke="black" cx="1193" cy="-117" rx="27" ry="27"/>
</g>
<!-- 2146546575056&#45;&gt;2146546574288 -->
<g id="edge3" class="edge">
<title>2146546575056&#45;&gt;2146546574288</title>
<path fill="none" stroke="black" d="M1130.24,-115.95C1138.9,-116.1 1147.65,-116.25 1155.73,-116.39"/>
<polygon fill="black" stroke="black" points="1155.84,-119.89 1165.89,-116.56 1155.96,-112.89 1155.84,-119.89"/>
</g>
<!-- 2146546611152 -->
<g id="node15" class="node">
<title>2146546611152</title>
<polygon fill="none" stroke="black" points="1833,-140 1695,-140 1695,-104 1833,-104 1833,-140"/>
<text text-anchor="middle" x="1764" y="-118.9" font-family="Times New Roman,serif" font-size="12.00">Prepare_acceptance_pack</text>
</g>
<!-- 2146546610912 -->
<g id="node29" class="node">
<title>2146546610912</title>
<ellipse fill="none" stroke="black" cx="1896" cy="-113" rx="27" ry="27"/>
</g>
<!-- 2146546611152&#45;&gt;2146546610912 -->
<g id="edge2" class="edge">
<title>2146546611152&#45;&gt;2146546610912</title>
<path fill="none" stroke="black" d="M1833.05,-117.29C1841.93,-116.67 1850.74,-116.06 1858.81,-115.51"/>
<polygon fill="black" stroke="black" points="1859.19,-118.99 1868.93,-114.81 1858.71,-112 1859.19,-118.99"/>
</g>
<!-- 2146546549328 -->
<g id="node16" class="node">
<title>2146546549328</title>
<polygon fill="none" stroke="black" points="2825,-112 2675,-112 2675,-76 2825,-76 2825,-112"/>
<text text-anchor="middle" x="2750" y="-90.9" font-family="Times New Roman,serif" font-size="12.00">Verify_repayment_agreement</text>
</g>
<!-- 2146546551344 -->
<g id="node32" class="node">
<title>2146546551344</title>
<ellipse fill="none" stroke="black" cx="2888" cy="-94" rx="27" ry="27"/>
</g>
<!-- 2146546549328&#45;&gt;2146546551344 -->
<g id="edge7" class="edge">
<title>2146546549328&#45;&gt;2146546551344</title>
<path fill="none" stroke="black" d="M2825.37,-94C2834.15,-94 2842.79,-94 2850.69,-94"/>
<polygon fill="black" stroke="black" points="2850.96,-97.5 2860.96,-94 2850.96,-90.5 2850.96,-97.5"/>
</g>
<!-- 2146546283232 -->
<g id="node17" class="node">
<title>2146546283232</title>
<polygon fill="none" stroke="black" points="237.5,-91 92.5,-91 92.5,-55 237.5,-55 237.5,-91"/>
<text text-anchor="middle" x="165" y="-69.9" font-family="Times New Roman,serif" font-size="12.00">Loan__application_received</text>
</g>
<!-- 2146546283232&#45;&gt;2146546863072 -->
<g id="edge6" class="edge">
<title>2146546283232&#45;&gt;2146546863072</title>
<path fill="none" stroke="black" d="M237.58,-73C247.32,-73 256.96,-73 265.7,-73"/>
<polygon fill="black" stroke="black" points="265.85,-76.5 275.85,-73 265.85,-69.5 265.85,-76.5"/>
</g>
<!-- 2146546576352 -->
<g id="node18" class="node">
<title>2146546576352</title>
<polygon fill="none" stroke="black" points="890,-82 699,-82 699,-46 890,-46 890,-82"/>
<text text-anchor="middle" x="794.5" y="-60.9" font-family="Times New Roman,serif" font-size="12.00">Return_application_back_to_applicant</text>
</g>
<!-- 2146546860144 -->
<g id="node37" class="node">
<title>2146546860144</title>
<ellipse fill="none" stroke="black" cx="953" cy="-32" rx="27" ry="27"/>
</g>
<!-- 2146546576352&#45;&gt;2146546860144 -->
<g id="edge18" class="edge">
<title>2146546576352&#45;&gt;2146546860144</title>
<path fill="none" stroke="black" d="M883.81,-45.94C895.34,-43.59 906.57,-41.29 916.48,-39.26"/>
<polygon fill="black" stroke="black" points="917.19,-42.69 926.29,-37.26 915.79,-35.83 917.19,-42.69"/>
</g>
<!-- 2146546610528 -->
<g id="node19" class="node">
<title>2146546610528</title>
<polygon fill="none" stroke="black" points="2190,-131 1959,-131 1959,-95 2190,-95 2190,-131"/>
<text text-anchor="middle" x="2074.5" y="-109.9" font-family="Times New Roman,serif" font-size="12.00">Check_if_home_insurance_quote_is_requested</text>
</g>
<!-- 2146546611200 -->
<g id="node30" class="node">
<title>2146546611200</title>
<ellipse fill="none" stroke="black" cx="2294.5" cy="-113" rx="27" ry="27"/>
</g>
<!-- 2146546610528&#45;&gt;2146546611200 -->
<g id="edge15" class="edge">
<title>2146546610528&#45;&gt;2146546611200</title>
<path fill="none" stroke="black" d="M2190.25,-113C2214.54,-113 2238.45,-113 2257.14,-113"/>
<polygon fill="black" stroke="black" points="2257.22,-116.5 2267.22,-113 2257.22,-109.5 2257.22,-116.5"/>
</g>
<!-- 2146546550240 -->
<g id="node20" class="node">
<title>2146546550240</title>
<polygon fill="none" stroke="black" points="2549,-90 2399,-90 2399,-54 2549,-54 2549,-90"/>
<text text-anchor="middle" x="2474" y="-68.9" font-family="Times New Roman,serif" font-size="12.00">Send_home_insurance_quote</text>
</g>
<!-- 2146546550240&#45;&gt;2146546550672 -->
<g id="edge1" class="edge">
<title>2146546550240&#45;&gt;2146546550672</title>
<path fill="none" stroke="black" d="M2549.37,-84.03C2558.34,-85.48 2567.15,-86.91 2575.19,-88.21"/>
<polygon fill="black" stroke="black" points="2574.83,-91.69 2585.26,-89.84 2575.95,-84.78 2574.83,-91.69"/>
</g>
<!-- 2146546912656 -->
<g id="node21" class="node">
<title>2146546912656</title>
<ellipse fill="none" stroke="black" cx="27" cy="-73" rx="27" ry="27"/>
<text text-anchor="start" x="16" y="-64.3" font-family="Times New Roman,serif" font-size="34.00">●</text>
</g>
<!-- 2146546912656&#45;&gt;2146546283232 -->
<g id="edge42" class="edge">
<title>2146546912656&#45;&gt;2146546283232</title>
<path fill="none" stroke="black" d="M54.22,-73C62.5,-73 72.13,-73 82.18,-73"/>
<polygon fill="black" stroke="black" points="82.33,-76.5 92.33,-73 82.33,-69.5 82.33,-76.5"/>
</g>
<!-- 2146546577264&#45;&gt;2146546576208 -->
<g id="edge20" class="edge">
<title>2146546577264&#45;&gt;2146546576208</title>
<path fill="none" stroke="black" d="M980.19,-182.78C989.44,-182.7 1000.27,-182.61 1011.19,-182.52"/>
<polygon fill="black" stroke="black" points="1011.22,-186.02 1021.19,-182.43 1011.16,-179.02 1011.22,-186.02"/>
</g>
<!-- 2146546577168&#45;&gt;2146546611008 -->
<g id="edge21" class="edge">
<title>2146546577168&#45;&gt;2146546611008</title>
<path fill="none" stroke="black" d="M1330.3,-178.08C1363.81,-173 1423.2,-163.99 1467.02,-157.34"/>
<polygon fill="black" stroke="black" points="1467.59,-160.8 1476.95,-155.83 1466.54,-153.87 1467.59,-160.8"/>
</g>
<!-- 2146546577312&#45;&gt;2146546575056 -->
<g id="edge22" class="edge">
<title>2146546577312&#45;&gt;2146546575056</title>
<path fill="none" stroke="black" d="M980.19,-111.89C987.88,-112.15 996.67,-112.45 1005.69,-112.75"/>
<polygon fill="black" stroke="black" points="1005.81,-116.26 1015.93,-113.1 1006.05,-109.26 1005.81,-116.26"/>
</g>
<!-- 2146546575680&#45;&gt;2146546611008 -->
<g id="edge23" class="edge">
<title>2146546575680&#45;&gt;2146546611008</title>
<path fill="none" stroke="black" d="M1440.36,-128.4C1448.35,-130.41 1457.5,-132.72 1466.73,-135.05"/>
<polygon fill="black" stroke="black" points="1466.17,-138.52 1476.72,-137.57 1467.88,-131.73 1466.17,-138.52"/>
</g>
<!-- 2146546574288&#45;&gt;2146546574624 -->
<g id="edge24" class="edge">
<title>2146546574288&#45;&gt;2146546574624</title>
<path fill="none" stroke="black" d="M1220.26,-117.24C1228.01,-117.31 1236.81,-117.39 1245.69,-117.48"/>
<polygon fill="black" stroke="black" points="1245.68,-120.98 1255.71,-117.57 1245.75,-113.98 1245.68,-120.98"/>
</g>
<!-- 2146546577216&#45;&gt;2146546610864 -->
<g id="edge26" class="edge">
<title>2146546577216&#45;&gt;2146546610864</title>
<path fill="none" stroke="black" d="M1658.37,-155.05C1671.35,-158.14 1687.72,-162.05 1703.65,-165.85"/>
<polygon fill="black" stroke="black" points="1702.93,-169.27 1713.47,-168.19 1704.55,-162.46 1702.93,-169.27"/>
</g>
<!-- 2146546577216&#45;&gt;2146546611152 -->
<g id="edge25" class="edge">
<title>2146546577216&#45;&gt;2146546611152</title>
<path fill="none" stroke="black" d="M1658.68,-143.67C1666.48,-142.05 1675.49,-140.18 1684.88,-138.23"/>
<polygon fill="black" stroke="black" points="1685.69,-141.63 1694.77,-136.17 1684.26,-134.78 1685.69,-141.63"/>
</g>
<!-- 2146546611920&#45;&gt;2146546610576 -->
<g id="edge27" class="edge">
<title>2146546611920&#45;&gt;2146546610576</title>
<path fill="none" stroke="black" d="M1923.02,-185C1981.49,-185 2125.26,-185 2215.53,-185"/>
<polygon fill="black" stroke="black" points="2215.72,-188.5 2225.72,-185 2215.72,-181.5 2215.72,-188.5"/>
</g>
<!-- 2146546610912&#45;&gt;2146546610528 -->
<g id="edge28" class="edge">
<title>2146546610912&#45;&gt;2146546610528</title>
<path fill="none" stroke="black" d="M1923.04,-113C1930.59,-113 1939.37,-113 1948.82,-113"/>
<polygon fill="black" stroke="black" points="1948.89,-116.5 1958.89,-113 1948.89,-109.5 1948.89,-116.5"/>
</g>
<!-- 2146546611200&#45;&gt;2146546549280 -->
<g id="edge30" class="edge">
<title>2146546611200&#45;&gt;2146546549280</title>
<path fill="none" stroke="black" d="M2321.69,-114.92C2342.65,-116.45 2373.07,-118.68 2401.15,-120.74"/>
<polygon fill="black" stroke="black" points="2401.14,-124.25 2411.37,-121.49 2401.65,-117.27 2401.14,-124.25"/>
</g>
<!-- 2146546611200&#45;&gt;2146546550240 -->
<g id="edge29" class="edge">
<title>2146546611200&#45;&gt;2146546550240</title>
<path fill="none" stroke="black" d="M2320.93,-107.13C2338.96,-102.96 2364.25,-97.12 2389.05,-91.39"/>
<polygon fill="black" stroke="black" points="2389.92,-94.78 2398.88,-89.12 2388.35,-87.96 2389.92,-94.78"/>
</g>
<!-- 2146546550672&#45;&gt;2146546549328 -->
<g id="edge31" class="edge">
<title>2146546550672&#45;&gt;2146546549328</title>
<path fill="none" stroke="black" d="M2639.22,-94C2646.82,-94 2655.55,-94 2664.7,-94"/>
<polygon fill="black" stroke="black" points="2664.76,-97.5 2674.76,-94 2664.76,-90.5 2664.76,-97.5"/>
</g>
<!-- 2146546551344&#45;&gt;2146546550048 -->
<g id="edge33" class="edge">
<title>2146546551344&#45;&gt;2146546550048</title>
<path fill="none" stroke="black" d="M2914.39,-99.86C2923.55,-101.97 2934.32,-104.46 2945.2,-106.97"/>
<polygon fill="black" stroke="black" points="2944.65,-110.43 2955.18,-109.27 2946.22,-103.61 2944.65,-110.43"/>
</g>
<!-- 2146546551344&#45;&gt;2146546551488 -->
<g id="edge32" class="edge">
<title>2146546551344&#45;&gt;2146546551488</title>
<path fill="none" stroke="black" d="M2914.39,-87.06C2922.37,-84.87 2931.58,-82.36 2941.01,-79.77"/>
<polygon fill="black" stroke="black" points="2942.16,-83.09 2950.88,-77.07 2940.31,-76.34 2942.16,-83.09"/>
</g>
<!-- 2146546549952&#45;&gt;2146546550960 -->
<g id="edge34" class="edge">
<title>2146546549952&#45;&gt;2146546550960</title>
<path fill="none" stroke="black" d="M3153.22,-130C3161.38,-130 3170.86,-130 3180.75,-130"/>
<polygon fill="black" stroke="black" points="3180.76,-133.5 3190.76,-130 3180.76,-126.5 3180.76,-133.5"/>
</g>
<!-- 2146546551680&#45;&gt;2146546550816 -->
<g id="edge35" class="edge">
<title>2146546551680&#45;&gt;2146546550816</title>
<path fill="none" stroke="black" d="M3153.22,-59.74C3160.82,-60.24 3169.55,-60.82 3178.7,-61.42"/>
<polygon fill="black" stroke="black" points="3178.55,-64.92 3188.76,-62.09 3179.01,-57.93 3178.55,-64.92"/>
</g>
<!-- 2146546863072&#45;&gt;2146546860240 -->
<g id="edge36" class="edge">
<title>2146546863072&#45;&gt;2146546860240</title>
<path fill="none" stroke="black" d="M330.07,-73C337.66,-73 346.49,-73 355.93,-73"/>
<polygon fill="black" stroke="black" points="355.97,-76.5 365.97,-73 355.97,-69.5 355.97,-76.5"/>
</g>
<!-- 2146546862928&#45;&gt;2146546574528 -->
<g id="edge38" class="edge">
<title>2146546862928&#45;&gt;2146546574528</title>
<path fill="none" stroke="black" d="M662.03,-80.29C673.32,-83.58 686.83,-87.49 699,-91 718.33,-96.57 739.89,-102.73 757.53,-107.76"/>
<polygon fill="black" stroke="black" points="756.84,-111.21 767.42,-110.58 758.76,-104.47 756.84,-111.21"/>
</g>
<!-- 2146546862928&#45;&gt;2146546576352 -->
<g id="edge37" class="edge">
<title>2146546862928&#45;&gt;2146546576352</title>
<path fill="none" stroke="black" d="M663.19,-71.49C670.67,-71.06 679.31,-70.57 688.51,-70.04"/>
<polygon fill="black" stroke="black" points="688.89,-73.52 698.68,-69.45 688.49,-66.53 688.89,-73.52"/>
</g>
<!-- 2146546860144&#45;&gt;2146546575104 -->
<g id="edge39" class="edge">
<title>2146546860144&#45;&gt;2146546575104</title>
<path fill="none" stroke="black" d="M925.88,-30.05C871.94,-26.21 744.29,-18 637,-18 468.5,-18 468.5,-18 468.5,-18 394.9,-18 311.23,-18 250.57,-18"/>
<polygon fill="black" stroke="black" points="250.28,-14.5 240.28,-18 250.28,-21.5 250.28,-14.5"/>
</g>
</g>
</svg>
