<?xml version="1.0" encoding="UTF-8" standalone="no"?>
<!DOCTYPE svg PUBLIC "-//W3C//DTD SVG 1.1//EN"
 "http://www.w3.org/Graphics/SVG/1.1/DTD/svg11.dtd">
<!-- Generated by graphviz version 2.49.0 (20210828.1703)
 -->
<!-- Title: imdf_net_1655279315.8503413 Pages: 1 -->
<svg width="2984pt" height="316pt"
 viewBox="0.00 0.00 2984.00 316.00" xmlns="http://www.w3.org/2000/svg" xmlns:xlink="http://www.w3.org/1999/xlink">
<g id="graph0" class="graph" transform="scale(1 1) rotate(0) translate(4 312)">
<title>imdf_net_1655279315.8503413</title>
<!-- 2631953598208 -->
<g id="node1" class="node">
<title>2631953598208</title>
<polygon fill="none" stroke="black" points="1729,-227 1498,-227 1498,-191 1729,-191 1729,-227"/>
<text text-anchor="middle" x="1613.5" y="-205.9" font-family="Times New Roman,serif" font-size="12.00">Check_if_home_insurance_quote_is_requested</text>
</g>
<!-- 2631953598016 -->
<g id="node31" class="node">
<title>2631953598016</title>
<ellipse fill="none" stroke="black" cx="1833.5" cy="-209" rx="27" ry="27"/>
</g>
<!-- 2631953598208&#45;&gt;2631953598016 -->
<g id="edge14" class="edge">
<title>2631953598208&#45;&gt;2631953598016</title>
<path fill="none" stroke="black" d="M1729.25,-209C1753.54,-209 1777.45,-209 1796.14,-209"/>
<polygon fill="black" stroke="black" points="1796.22,-212.5 1806.22,-209 1796.22,-205.5 1796.22,-212.5"/>
</g>
<!-- 2631953549200 -->
<g id="node2" class="node">
<title>2631953549200</title>
<polygon fill="none" stroke="black" points="557,-117 407,-117 407,-81 557,-81 557,-117"/>
<text text-anchor="middle" x="482" y="-95.9" font-family="Times New Roman,serif" font-size="12.00">Receive_updated_application</text>
</g>
<!-- 2631953415952 -->
<g id="node35" class="node">
<title>2631953415952</title>
<ellipse fill="none" stroke="black" cx="620" cy="-99" rx="27" ry="27"/>
</g>
<!-- 2631953549200&#45;&gt;2631953415952 -->
<g id="edge18" class="edge">
<title>2631953549200&#45;&gt;2631953415952</title>
<path fill="none" stroke="black" d="M557.37,-99C566.15,-99 574.79,-99 582.69,-99"/>
<polygon fill="black" stroke="black" points="582.96,-102.5 592.96,-99 582.96,-95.5 582.96,-102.5"/>
</g>
<!-- 2631953550496 -->
<g id="node3" class="node">
<title>2631953550496</title>
<polygon fill="none" stroke="black" points="1108,-263 1016,-263 1016,-227 1108,-227 1108,-263"/>
<text text-anchor="middle" x="1062" y="-241.9" font-family="Times New Roman,serif" font-size="12.00">Assess_eligibility</text>
</g>
<!-- 2631953547664 -->
<g id="node27" class="node">
<title>2631953547664</title>
<ellipse fill="none" stroke="black" cx="1171" cy="-245" rx="27" ry="27"/>
</g>
<!-- 2631953550496&#45;&gt;2631953547664 -->
<g id="edge1" class="edge">
<title>2631953550496&#45;&gt;2631953547664</title>
<path fill="none" stroke="black" d="M1108.07,-245C1116.66,-245 1125.55,-245 1133.83,-245"/>
<polygon fill="black" stroke="black" points="1133.9,-248.5 1143.9,-245 1133.9,-241.5 1133.9,-248.5"/>
</g>
<!-- 2631953596576 -->
<g id="node4" class="node">
<title>2631953596576</title>
<polygon fill="none" stroke="black" points="1902,-299 1765,-299 1765,-263 1902,-263 1902,-299"/>
<text text-anchor="middle" x="1833.5" y="-277.9" font-family="Times New Roman,serif" font-size="12.00">Loan_application_rejected</text>
</g>
<!-- 2631953414224 -->
<g id="node38" class="node">
<title>2631953414224</title>
<ellipse fill="none" stroke="black" cx="2945" cy="-226" rx="27" ry="27"/>
<ellipse fill="none" stroke="black" cx="2945" cy="-226" rx="31" ry="31"/>
<text text-anchor="start" x="2935" y="-217.9" font-family="Times New Roman,serif" font-size="32.00">■</text>
</g>
<!-- 2631953596576&#45;&gt;2631953414224 -->
<g id="edge11" class="edge">
<title>2631953596576&#45;&gt;2631953414224</title>
<path fill="none" stroke="black" d="M1902.2,-281C1966.09,-281 2064.55,-281 2150,-281 2150,-281 2150,-281 2666,-281 2761.04,-281 2786.15,-277.42 2878,-253 2887.68,-250.43 2897.83,-246.78 2907.19,-243"/>
<polygon fill="black" stroke="black" points="2908.74,-246.15 2916.61,-239.05 2906.03,-239.7 2908.74,-246.15"/>
</g>
<!-- 2631953415088 -->
<g id="node5" class="node">
<title>2631953415088</title>
<polygon fill="none" stroke="black" points="554.5,-54 409.5,-54 409.5,-18 554.5,-18 554.5,-54"/>
<text text-anchor="middle" x="482" y="-32.9" font-family="Times New Roman,serif" font-size="12.00">Loan__application_received</text>
</g>
<!-- 2631953415088&#45;&gt;2631953415952 -->
<g id="edge5" class="edge">
<title>2631953415088&#45;&gt;2631953415952</title>
<path fill="none" stroke="black" d="M521.97,-54.05C542.12,-63.38 566.44,-74.65 585.7,-83.57"/>
<polygon fill="black" stroke="black" points="584.44,-86.85 594.98,-87.87 587.38,-80.49 584.44,-86.85"/>
</g>
<!-- 2631953548336 -->
<g id="node6" class="node">
<title>2631953548336</title>
<polygon fill="none" stroke="black" points="281,-122 90,-122 90,-86 281,-86 281,-122"/>
<text text-anchor="middle" x="185.5" y="-100.9" font-family="Times New Roman,serif" font-size="12.00">Return_application_back_to_applicant</text>
</g>
<!-- 2631953547760 -->
<g id="node37" class="node">
<title>2631953547760</title>
<ellipse fill="none" stroke="black" cx="344" cy="-99" rx="27" ry="27"/>
</g>
<!-- 2631953548336&#45;&gt;2631953547760 -->
<g id="edge17" class="edge">
<title>2631953548336&#45;&gt;2631953547760</title>
<path fill="none" stroke="black" d="M281.15,-100.98C290.09,-100.69 298.73,-100.41 306.57,-100.16"/>
<polygon fill="black" stroke="black" points="306.85,-103.66 316.73,-99.84 306.63,-96.66 306.85,-103.66"/>
</g>
<!-- 2631953598640 -->
<g id="node7" class="node">
<title>2631953598640</title>
<polygon fill="none" stroke="black" points="2075.5,-249 1950.5,-249 1950.5,-213 2075.5,-213 2075.5,-249"/>
<text text-anchor="middle" x="2013" y="-227.9" font-family="Times New Roman,serif" font-size="12.00">Send_acceptance_pack</text>
</g>
<!-- 2631953598400 -->
<g id="node32" class="node">
<title>2631953598400</title>
<ellipse fill="none" stroke="black" cx="2151" cy="-201" rx="27" ry="27"/>
</g>
<!-- 2631953598640&#45;&gt;2631953598400 -->
<g id="edge19" class="edge">
<title>2631953598640&#45;&gt;2631953598400</title>
<path fill="none" stroke="black" d="M2075.63,-217.4C2088.9,-214.48 2102.49,-211.48 2114.36,-208.86"/>
<polygon fill="black" stroke="black" points="2115.29,-212.24 2124.3,-206.67 2113.78,-205.41 2115.29,-212.24"/>
</g>
<!-- 2631953288640 -->
<g id="node8" class="node">
<title>2631953288640</title>
<polygon fill="none" stroke="black" points="890,-145 683,-145 683,-109 890,-109 890,-145"/>
<text text-anchor="middle" x="786.5" y="-123.9" font-family="Times New Roman,serif" font-size="12.00">Check__application__form_completeness</text>
</g>
<!-- 2631953287200 -->
<g id="node36" class="node">
<title>2631953287200</title>
<ellipse fill="none" stroke="black" cx="27" cy="-154" rx="27" ry="27"/>
</g>
<!-- 2631953288640&#45;&gt;2631953287200 -->
<g id="edge8" class="edge">
<title>2631953288640&#45;&gt;2631953287200</title>
<path fill="none" stroke="black" d="M682.79,-140.74C624.34,-147.41 549.7,-154 483,-154 343,-154 343,-154 343,-154 242.09,-154 123,-154 64.36,-154"/>
<polygon fill="black" stroke="black" points="64.14,-150.5 54.14,-154 64.14,-157.5 64.14,-150.5"/>
</g>
<!-- 2631953547328 -->
<g id="node9" class="node">
<title>2631953547328</title>
<polygon fill="black" stroke="black" points="212.5,-227 158.5,-227 158.5,-191 212.5,-191 212.5,-227"/>
</g>
<!-- 2631953547712 -->
<g id="node22" class="node">
<title>2631953547712</title>
<ellipse fill="none" stroke="black" cx="344" cy="-281" rx="27" ry="27"/>
</g>
<!-- 2631953547328&#45;&gt;2631953547712 -->
<g id="edge40" class="edge">
<title>2631953547328&#45;&gt;2631953547712</title>
<path fill="none" stroke="black" d="M212.69,-221.05C239.43,-233.35 281.01,-252.48 309.98,-265.81"/>
<polygon fill="black" stroke="black" points="308.74,-269.09 319.29,-270.09 311.66,-262.73 308.74,-269.09"/>
</g>
<!-- 2631953549728 -->
<g id="node24" class="node">
<title>2631953549728</title>
<ellipse fill="none" stroke="black" cx="344" cy="-209" rx="27" ry="27"/>
</g>
<!-- 2631953547328&#45;&gt;2631953549728 -->
<g id="edge41" class="edge">
<title>2631953547328&#45;&gt;2631953549728</title>
<path fill="none" stroke="black" d="M212.69,-209C238.5,-209 278.13,-209 306.91,-209"/>
<polygon fill="black" stroke="black" points="306.98,-212.5 316.98,-209 306.98,-205.5 306.98,-212.5"/>
</g>
<!-- 2631953551168 -->
<g id="node10" class="node">
<title>2631953551168</title>
<polygon fill="none" stroke="black" points="539,-227 425,-227 425,-191 539,-191 539,-227"/>
<text text-anchor="middle" x="482" y="-205.9" font-family="Times New Roman,serif" font-size="12.00">Check_credit_history</text>
</g>
<!-- 2631953550880 -->
<g id="node26" class="node">
<title>2631953550880</title>
<ellipse fill="none" stroke="black" cx="620" cy="-209" rx="27" ry="27"/>
</g>
<!-- 2631953551168&#45;&gt;2631953550880 -->
<g id="edge6" class="edge">
<title>2631953551168&#45;&gt;2631953550880</title>
<path fill="none" stroke="black" d="M539.1,-209C553.77,-209 569.19,-209 582.54,-209"/>
<polygon fill="black" stroke="black" points="582.74,-212.5 592.74,-209 582.74,-205.5 582.74,-212.5"/>
</g>
<!-- 2631953599168 -->
<g id="node11" class="node">
<title>2631953599168</title>
<polygon fill="none" stroke="black" points="2364,-219 2214,-219 2214,-183 2364,-183 2364,-219"/>
<text text-anchor="middle" x="2289" y="-197.9" font-family="Times New Roman,serif" font-size="12.00">Verify_repayment_agreement</text>
</g>
<!-- 2631953597584 -->
<g id="node30" class="node">
<title>2631953597584</title>
<ellipse fill="none" stroke="black" cx="2427" cy="-201" rx="27" ry="27"/>
</g>
<!-- 2631953599168&#45;&gt;2631953597584 -->
<g id="edge9" class="edge">
<title>2631953599168&#45;&gt;2631953597584</title>
<path fill="none" stroke="black" d="M2364.37,-201C2373.15,-201 2381.79,-201 2389.69,-201"/>
<polygon fill="black" stroke="black" points="2389.96,-204.5 2399.96,-201 2389.96,-197.5 2389.96,-204.5"/>
</g>
<!-- 2631953599552 -->
<g id="node12" class="node">
<title>2631953599552</title>
<polygon fill="none" stroke="black" points="2602,-177 2490,-177 2490,-141 2602,-141 2602,-177"/>
<text text-anchor="middle" x="2546" y="-155.9" font-family="Times New Roman,serif" font-size="12.00">Approve_application</text>
</g>
<!-- 2631953599360 -->
<g id="node33" class="node">
<title>2631953599360</title>
<ellipse fill="none" stroke="black" cx="2665" cy="-154" rx="27" ry="27"/>
</g>
<!-- 2631953599552&#45;&gt;2631953599360 -->
<g id="edge4" class="edge">
<title>2631953599552&#45;&gt;2631953599360</title>
<path fill="none" stroke="black" d="M2602.07,-156.65C2610.73,-156.28 2619.48,-155.9 2627.58,-155.56"/>
<polygon fill="black" stroke="black" points="2627.93,-159.04 2637.77,-155.12 2627.63,-152.05 2627.93,-159.04"/>
</g>
<!-- 2631953598928 -->
<g id="node13" class="node">
<title>2631953598928</title>
<polygon fill="none" stroke="black" points="2088,-195 1938,-195 1938,-159 2088,-159 2088,-195"/>
<text text-anchor="middle" x="2013" y="-173.9" font-family="Times New Roman,serif" font-size="12.00">Send_home_insurance_quote</text>
</g>
<!-- 2631953598928&#45;&gt;2631953598400 -->
<g id="edge13" class="edge">
<title>2631953598928&#45;&gt;2631953598400</title>
<path fill="none" stroke="black" d="M2088.37,-190.12C2097.34,-191.71 2106.15,-193.26 2114.19,-194.68"/>
<polygon fill="black" stroke="black" points="2113.8,-198.17 2124.26,-196.46 2115.02,-191.27 2113.8,-198.17"/>
</g>
<!-- 2631953600464 -->
<g id="node14" class="node">
<title>2631953600464</title>
<polygon fill="none" stroke="black" points="2876,-244 2730,-244 2730,-208 2876,-208 2876,-244"/>
<text text-anchor="middle" x="2803" y="-222.9" font-family="Times New Roman,serif" font-size="12.00">Loan__application_canceled</text>
</g>
<!-- 2631953600464&#45;&gt;2631953414224 -->
<g id="edge2" class="edge">
<title>2631953600464&#45;&gt;2631953414224</title>
<path fill="none" stroke="black" d="M2876.05,-226C2885.58,-226 2895.05,-226 2903.77,-226"/>
<polygon fill="black" stroke="black" points="2903.98,-229.5 2913.98,-226 2903.98,-222.5 2903.98,-229.5"/>
</g>
<!-- 2631953549152 -->
<g id="node15" class="node">
<title>2631953549152</title>
<polygon fill="none" stroke="black" points="533.5,-299 430.5,-299 430.5,-263 533.5,-263 533.5,-299"/>
<text text-anchor="middle" x="482" y="-277.9" font-family="Times New Roman,serif" font-size="12.00">Appraise_property</text>
</g>
<!-- 2631953548288 -->
<g id="node23" class="node">
<title>2631953548288</title>
<ellipse fill="none" stroke="black" cx="953" cy="-281" rx="27" ry="27"/>
</g>
<!-- 2631953549152&#45;&gt;2631953548288 -->
<g id="edge3" class="edge">
<title>2631953549152&#45;&gt;2631953548288</title>
<path fill="none" stroke="black" d="M533.64,-281C628.94,-281 832.83,-281 915.78,-281"/>
<polygon fill="black" stroke="black" points="915.97,-284.5 925.97,-281 915.97,-277.5 915.97,-284.5"/>
</g>
<!-- 2631953596768 -->
<g id="node16" class="node">
<title>2631953596768</title>
<polygon fill="none" stroke="black" points="1353.5,-294 1252.5,-294 1252.5,-258 1353.5,-258 1353.5,-294"/>
<text text-anchor="middle" x="1303" y="-272.9" font-family="Times New Roman,serif" font-size="12.00">Reject_application</text>
</g>
<!-- 2631953549824 -->
<g id="node28" class="node">
<title>2631953549824</title>
<ellipse fill="none" stroke="black" cx="1435" cy="-281" rx="27" ry="27"/>
</g>
<!-- 2631953596768&#45;&gt;2631953549824 -->
<g id="edge12" class="edge">
<title>2631953596768&#45;&gt;2631953549824</title>
<path fill="none" stroke="black" d="M1353.52,-277.9C1368.27,-278.47 1384.15,-279.08 1397.88,-279.61"/>
<polygon fill="black" stroke="black" points="1397.77,-283.11 1407.9,-280 1398.04,-276.11 1397.77,-283.11"/>
</g>
<!-- 2631953599840 -->
<g id="node17" class="node">
<title>2631953599840</title>
<polygon fill="none" stroke="black" points="2878,-181 2728,-181 2728,-145 2878,-145 2878,-181"/>
<text text-anchor="middle" x="2803" y="-159.9" font-family="Times New Roman,serif" font-size="12.00">Loan__application_approved</text>
</g>
<!-- 2631953599840&#45;&gt;2631953414224 -->
<g id="edge15" class="edge">
<title>2631953599840&#45;&gt;2631953414224</title>
<path fill="none" stroke="black" d="M2844.12,-181.05C2863.98,-189.99 2887.79,-200.7 2907.18,-209.43"/>
<polygon fill="black" stroke="black" points="2905.75,-212.63 2916.31,-213.54 2908.62,-206.24 2905.75,-212.63"/>
</g>
<!-- 2631953600224 -->
<g id="node18" class="node">
<title>2631953600224</title>
<polygon fill="none" stroke="black" points="2597.5,-235 2494.5,-235 2494.5,-199 2597.5,-199 2597.5,-235"/>
<text text-anchor="middle" x="2546" y="-213.9" font-family="Times New Roman,serif" font-size="12.00">Cancel_application</text>
</g>
<!-- 2631953600032 -->
<g id="node34" class="node">
<title>2631953600032</title>
<ellipse fill="none" stroke="black" cx="2665" cy="-226" rx="27" ry="27"/>
</g>
<!-- 2631953600224&#45;&gt;2631953600032 -->
<g id="edge7" class="edge">
<title>2631953600224&#45;&gt;2631953600032</title>
<path fill="none" stroke="black" d="M2597.64,-220.9C2607.69,-221.67 2618.06,-222.47 2627.52,-223.19"/>
<polygon fill="black" stroke="black" points="2627.52,-226.7 2637.76,-223.98 2628.06,-219.72 2627.52,-226.7"/>
</g>
<!-- 2631953550448 -->
<g id="node19" class="node">
<title>2631953550448</title>
<polygon fill="none" stroke="black" points="834,-227 739,-227 739,-191 834,-191 834,-227"/>
<text text-anchor="middle" x="786.5" y="-205.9" font-family="Times New Roman,serif" font-size="12.00">Assess_loan_risk</text>
</g>
<!-- 2631953549872 -->
<g id="node25" class="node">
<title>2631953549872</title>
<ellipse fill="none" stroke="black" cx="953" cy="-209" rx="27" ry="27"/>
</g>
<!-- 2631953550448&#45;&gt;2631953549872 -->
<g id="edge16" class="edge">
<title>2631953550448&#45;&gt;2631953549872</title>
<path fill="none" stroke="black" d="M834.2,-209C860.01,-209 891.62,-209 915.59,-209"/>
<polygon fill="black" stroke="black" points="915.68,-212.5 925.68,-209 915.68,-205.5 915.68,-212.5"/>
</g>
<!-- 2631953597296 -->
<g id="node20" class="node">
<title>2631953597296</title>
<polygon fill="none" stroke="black" points="1372,-236 1234,-236 1234,-200 1372,-200 1372,-236"/>
<text text-anchor="middle" x="1303" y="-214.9" font-family="Times New Roman,serif" font-size="12.00">Prepare_acceptance_pack</text>
</g>
<!-- 2631953596960 -->
<g id="node29" class="node">
<title>2631953596960</title>
<ellipse fill="none" stroke="black" cx="1435" cy="-209" rx="27" ry="27"/>
</g>
<!-- 2631953597296&#45;&gt;2631953596960 -->
<g id="edge10" class="edge">
<title>2631953597296&#45;&gt;2631953596960</title>
<path fill="none" stroke="black" d="M1372.05,-213.29C1380.93,-212.67 1389.74,-212.06 1397.81,-211.51"/>
<polygon fill="black" stroke="black" points="1398.19,-214.99 1407.93,-210.81 1397.71,-208 1398.19,-214.99"/>
</g>
<!-- 2631953414032 -->
<g id="node21" class="node">
<title>2631953414032</title>
<ellipse fill="none" stroke="black" cx="344" cy="-27" rx="27" ry="27"/>
<text text-anchor="start" x="333" y="-18.3" font-family="Times New Roman,serif" font-size="34.00">●</text>
</g>
<!-- 2631953414032&#45;&gt;2631953415088 -->
<g id="edge42" class="edge">
<title>2631953414032&#45;&gt;2631953415088</title>
<path fill="none" stroke="black" d="M371.22,-28.74C379.5,-29.28 389.13,-29.92 399.18,-30.59"/>
<polygon fill="black" stroke="black" points="399.12,-34.09 409.33,-31.26 399.58,-27.1 399.12,-34.09"/>
</g>
<!-- 2631953547712&#45;&gt;2631953549152 -->
<g id="edge20" class="edge">
<title>2631953547712&#45;&gt;2631953549152</title>
<path fill="none" stroke="black" d="M371.22,-281C385.22,-281 403.08,-281 420.31,-281"/>
<polygon fill="black" stroke="black" points="420.35,-284.5 430.35,-281 420.35,-277.5 420.35,-284.5"/>
</g>
<!-- 2631953548288&#45;&gt;2631953550496 -->
<g id="edge21" class="edge">
<title>2631953548288&#45;&gt;2631953550496</title>
<path fill="none" stroke="black" d="M978.82,-272.65C987.06,-269.88 996.59,-266.67 1006.18,-263.44"/>
<polygon fill="black" stroke="black" points="1007.38,-266.73 1015.74,-260.23 1005.14,-260.1 1007.38,-266.73"/>
</g>
<!-- 2631953549728&#45;&gt;2631953551168 -->
<g id="edge22" class="edge">
<title>2631953549728&#45;&gt;2631953551168</title>
<path fill="none" stroke="black" d="M371.22,-209C383.7,-209 399.23,-209 414.65,-209"/>
<polygon fill="black" stroke="black" points="414.74,-212.5 424.74,-209 414.74,-205.5 414.74,-212.5"/>
</g>
<!-- 2631953549872&#45;&gt;2631953550496 -->
<g id="edge23" class="edge">
<title>2631953549872&#45;&gt;2631953550496</title>
<path fill="none" stroke="black" d="M978.82,-217.35C987.06,-220.12 996.59,-223.33 1006.18,-226.56"/>
<polygon fill="black" stroke="black" points="1005.14,-229.9 1015.74,-229.77 1007.38,-223.27 1005.14,-229.9"/>
</g>
<!-- 2631953550880&#45;&gt;2631953550448 -->
<g id="edge24" class="edge">
<title>2631953550880&#45;&gt;2631953550448</title>
<path fill="none" stroke="black" d="M647.07,-209C668.84,-209 700.66,-209 728.32,-209"/>
<polygon fill="black" stroke="black" points="728.68,-212.5 738.68,-209 728.68,-205.5 728.68,-212.5"/>
</g>
<!-- 2631953547664&#45;&gt;2631953596768 -->
<g id="edge26" class="edge">
<title>2631953547664&#45;&gt;2631953596768</title>
<path fill="none" stroke="black" d="M1197.37,-251.05C1210.35,-254.14 1226.72,-258.05 1242.65,-261.85"/>
<polygon fill="black" stroke="black" points="1241.93,-265.27 1252.47,-264.19 1243.55,-258.46 1241.93,-265.27"/>
</g>
<!-- 2631953547664&#45;&gt;2631953597296 -->
<g id="edge25" class="edge">
<title>2631953547664&#45;&gt;2631953597296</title>
<path fill="none" stroke="black" d="M1197.68,-239.67C1205.48,-238.05 1214.49,-236.18 1223.88,-234.23"/>
<polygon fill="black" stroke="black" points="1224.69,-237.63 1233.77,-232.17 1223.26,-230.78 1224.69,-237.63"/>
</g>
<!-- 2631953549824&#45;&gt;2631953596576 -->
<g id="edge27" class="edge">
<title>2631953549824&#45;&gt;2631953596576</title>
<path fill="none" stroke="black" d="M1462.02,-281C1520.49,-281 1664.26,-281 1754.53,-281"/>
<polygon fill="black" stroke="black" points="1754.72,-284.5 1764.72,-281 1754.72,-277.5 1754.72,-284.5"/>
</g>
<!-- 2631953596960&#45;&gt;2631953598208 -->
<g id="edge28" class="edge">
<title>2631953596960&#45;&gt;2631953598208</title>
<path fill="none" stroke="black" d="M1462.04,-209C1469.59,-209 1478.37,-209 1487.82,-209"/>
<polygon fill="black" stroke="black" points="1487.89,-212.5 1497.89,-209 1487.89,-205.5 1487.89,-212.5"/>
</g>
<!-- 2631953597584&#45;&gt;2631953599552 -->
<g id="edge29" class="edge">
<title>2631953597584&#45;&gt;2631953599552</title>
<path fill="none" stroke="black" d="M2452.53,-192.2C2462.05,-188.78 2473.42,-184.69 2484.87,-180.58"/>
<polygon fill="black" stroke="black" points="2486.24,-183.81 2494.47,-177.14 2483.88,-177.22 2486.24,-183.81"/>
</g>
<!-- 2631953597584&#45;&gt;2631953600224 -->
<g id="edge30" class="edge">
<title>2631953597584&#45;&gt;2631953600224</title>
<path fill="none" stroke="black" d="M2453.97,-204.55C2462.95,-205.78 2473.42,-207.21 2484.01,-208.66"/>
<polygon fill="black" stroke="black" points="2483.77,-212.16 2494.15,-210.05 2484.72,-205.22 2483.77,-212.16"/>
</g>
<!-- 2631953598016&#45;&gt;2631953598640 -->
<g id="edge32" class="edge">
<title>2631953598016&#45;&gt;2631953598640</title>
<path fill="none" stroke="black" d="M1860.31,-212.2C1881.29,-214.8 1911.94,-218.6 1940.2,-222.1"/>
<polygon fill="black" stroke="black" points="1940.13,-225.62 1950.49,-223.38 1940.99,-218.67 1940.13,-225.62"/>
</g>
<!-- 2631953598016&#45;&gt;2631953598928 -->
<g id="edge31" class="edge">
<title>2631953598016&#45;&gt;2631953598928</title>
<path fill="none" stroke="black" d="M1860.31,-204.35C1878.23,-201.12 1903.19,-196.62 1927.7,-192.2"/>
<polygon fill="black" stroke="black" points="1928.57,-195.6 1937.79,-190.38 1927.33,-188.71 1928.57,-195.6"/>
</g>
<!-- 2631953598400&#45;&gt;2631953599168 -->
<g id="edge33" class="edge">
<title>2631953598400&#45;&gt;2631953599168</title>
<path fill="none" stroke="black" d="M2178.22,-201C2185.82,-201 2194.55,-201 2203.7,-201"/>
<polygon fill="black" stroke="black" points="2203.76,-204.5 2213.76,-201 2203.76,-197.5 2203.76,-204.5"/>
</g>
<!-- 2631953599360&#45;&gt;2631953599840 -->
<g id="edge34" class="edge">
<title>2631953599360&#45;&gt;2631953599840</title>
<path fill="none" stroke="black" d="M2692.22,-155.74C2699.82,-156.24 2708.55,-156.82 2717.7,-157.42"/>
<polygon fill="black" stroke="black" points="2717.55,-160.92 2727.76,-158.09 2718.01,-153.93 2717.55,-160.92"/>
</g>
<!-- 2631953600032&#45;&gt;2631953600464 -->
<g id="edge35" class="edge">
<title>2631953600032&#45;&gt;2631953600464</title>
<path fill="none" stroke="black" d="M2692.22,-226C2700.38,-226 2709.86,-226 2719.75,-226"/>
<polygon fill="black" stroke="black" points="2719.76,-229.5 2729.76,-226 2719.76,-222.5 2719.76,-229.5"/>
</g>
<!-- 2631953415952&#45;&gt;2631953288640 -->
<g id="edge36" class="edge">
<title>2631953415952&#45;&gt;2631953288640</title>
<path fill="none" stroke="black" d="M646.7,-103.38C654.35,-104.68 663.26,-106.19 672.8,-107.82"/>
<polygon fill="black" stroke="black" points="672.51,-111.32 682.96,-109.55 673.69,-104.42 672.51,-111.32"/>
</g>
<!-- 2631953287200&#45;&gt;2631953548336 -->
<g id="edge37" class="edge">
<title>2631953287200&#45;&gt;2631953548336</title>
<path fill="none" stroke="black" d="M53.14,-145.97C70.76,-140.34 95.17,-132.54 118.18,-125.19"/>
<polygon fill="black" stroke="black" points="119.47,-128.45 127.93,-122.07 117.34,-121.78 119.47,-128.45"/>
</g>
<!-- 2631953287200&#45;&gt;2631953547328 -->
<g id="edge38" class="edge">
<title>2631953287200&#45;&gt;2631953547328</title>
<path fill="none" stroke="black" d="M52.8,-162.71C78.66,-171.8 119.45,-186.14 148.78,-196.45"/>
<polygon fill="black" stroke="black" points="147.66,-199.76 158.25,-199.78 149.98,-193.16 147.66,-199.76"/>
</g>
<!-- 2631953547760&#45;&gt;2631953549200 -->
<g id="edge39" class="edge">
<title>2631953547760&#45;&gt;2631953549200</title>
<path fill="none" stroke="black" d="M371.22,-99C378.82,-99 387.55,-99 396.7,-99"/>
<polygon fill="black" stroke="black" points="396.76,-102.5 406.76,-99 396.76,-95.5 396.76,-102.5"/>
</g>
</g>
</svg>
