<?xml version="1.0" encoding="UTF-8" standalone="no"?>
<!DOCTYPE svg PUBLIC "-//W3C//DTD SVG 1.1//EN"
 "http://www.w3.org/Graphics/SVG/1.1/DTD/svg11.dtd">
<!-- Generated by graphviz version 2.49.0 (20210828.1703)
 -->
<!-- Title: imdf_net_1655279316.558505 Pages: 1 -->
<svg width="4302pt" height="290pt"
 viewBox="0.00 0.00 4302.00 290.00" xmlns="http://www.w3.org/2000/svg" xmlns:xlink="http://www.w3.org/1999/xlink">
<g id="graph0" class="graph" transform="scale(1 1) rotate(0) translate(4 286)">
<title>imdf_net_1655279316.558505</title>
<!-- 2631953515520 -->
<g id="node1" class="node">
<title>2631953515520</title>
<polygon fill="none" stroke="black" points="235,-273 90,-273 90,-237 235,-237 235,-273"/>
<text text-anchor="middle" x="162.5" y="-251.9" font-family="Times New Roman,serif" font-size="12.00">Loan__application_received</text>
</g>
<!-- 2631953515136 -->
<g id="node43" class="node">
<title>2631953515136</title>
<ellipse fill="none" stroke="black" cx="298" cy="-255" rx="27" ry="27"/>
</g>
<!-- 2631953515520&#45;&gt;2631953515136 -->
<g id="edge10" class="edge">
<title>2631953515520&#45;&gt;2631953515136</title>
<path fill="none" stroke="black" d="M235.33,-255C244.17,-255 252.89,-255 260.87,-255"/>
<polygon fill="black" stroke="black" points="260.87,-258.5 270.87,-255 260.87,-251.5 260.87,-258.5"/>
</g>
<!-- 2631953517056 -->
<g id="node2" class="node">
<title>2631953517056</title>
<polygon fill="black" stroke="black" points="816.5,-170 762.5,-170 762.5,-134 816.5,-134 816.5,-170"/>
</g>
<!-- 2631953518016 -->
<g id="node26" class="node">
<title>2631953518016</title>
<ellipse fill="none" stroke="black" cx="948" cy="-80" rx="27" ry="27"/>
</g>
<!-- 2631953517056&#45;&gt;2631953518016 -->
<g id="edge47" class="edge">
<title>2631953517056&#45;&gt;2631953518016</title>
<path fill="none" stroke="black" d="M816.69,-139.95C843.43,-127.65 885.01,-108.52 913.98,-95.19"/>
<polygon fill="black" stroke="black" points="915.66,-98.27 923.29,-90.91 912.74,-91.91 915.66,-98.27"/>
</g>
<!-- 2631953830288 -->
<g id="node28" class="node">
<title>2631953830288</title>
<ellipse fill="none" stroke="black" cx="948" cy="-152" rx="27" ry="27"/>
</g>
<!-- 2631953517056&#45;&gt;2631953830288 -->
<g id="edge48" class="edge">
<title>2631953517056&#45;&gt;2631953830288</title>
<path fill="none" stroke="black" d="M816.69,-152C842.5,-152 882.13,-152 910.91,-152"/>
<polygon fill="black" stroke="black" points="910.98,-155.5 920.98,-152 910.98,-148.5 910.98,-155.5"/>
</g>
<!-- 2631953518352 -->
<g id="node3" class="node">
<title>2631953518352</title>
<polygon fill="none" stroke="black" points="1137.5,-102 1034.5,-102 1034.5,-66 1137.5,-66 1137.5,-102"/>
<text text-anchor="middle" x="1086" y="-80.9" font-family="Times New Roman,serif" font-size="12.00">Appraise_property</text>
</g>
<!-- 2631953518208 -->
<g id="node27" class="node">
<title>2631953518208</title>
<ellipse fill="none" stroke="black" cx="1334.5" cy="-87" rx="27" ry="27"/>
</g>
<!-- 2631953518352&#45;&gt;2631953518208 -->
<g id="edge16" class="edge">
<title>2631953518352&#45;&gt;2631953518208</title>
<path fill="none" stroke="black" d="M1137.78,-84.62C1185.33,-85.2 1255.21,-86.05 1297.33,-86.56"/>
<polygon fill="black" stroke="black" points="1297.37,-90.06 1307.41,-86.68 1297.46,-83.06 1297.37,-90.06"/>
</g>
<!-- 2631953524624 -->
<g id="node4" class="node">
<title>2631953524624</title>
<polygon fill="black" stroke="black" points="3682,-63 3628,-63 3628,-27 3682,-27 3682,-63"/>
</g>
<!-- 2631953833312 -->
<g id="node35" class="node">
<title>2631953833312</title>
<ellipse fill="none" stroke="black" cx="2148.5" cy="-82" rx="27" ry="27"/>
</g>
<!-- 2631953524624&#45;&gt;2631953833312 -->
<g id="edge49" class="edge">
<title>2631953524624&#45;&gt;2631953833312</title>
<path fill="none" stroke="black" d="M3627.9,-44.81C3585.82,-44.52 3500.39,-44 3428,-44 2546,-44 2546,-44 2546,-44 2412.48,-44 2254.81,-65.62 2185.38,-76.24"/>
<polygon fill="black" stroke="black" points="2184.74,-72.8 2175.4,-77.79 2185.81,-79.72 2184.74,-72.8"/>
</g>
<!-- 2631953526544 -->
<g id="node5" class="node">
<title>2631953526544</title>
<polygon fill="none" stroke="black" points="4194,-117 4048,-117 4048,-81 4194,-81 4194,-117"/>
<text text-anchor="middle" x="4121" y="-95.9" font-family="Times New Roman,serif" font-size="12.00">Loan__application_canceled</text>
</g>
<!-- 2631953514800 -->
<g id="node46" class="node">
<title>2631953514800</title>
<ellipse fill="none" stroke="black" cx="4263" cy="-99" rx="27" ry="27"/>
<ellipse fill="none" stroke="black" cx="4263" cy="-99" rx="31" ry="31"/>
<text text-anchor="start" x="4253" y="-90.9" font-family="Times New Roman,serif" font-size="32.00">■</text>
</g>
<!-- 2631953526544&#45;&gt;2631953514800 -->
<g id="edge5" class="edge">
<title>2631953526544&#45;&gt;2631953514800</title>
<path fill="none" stroke="black" d="M4194.05,-99C4203.58,-99 4213.05,-99 4221.77,-99"/>
<polygon fill="black" stroke="black" points="4221.98,-102.5 4231.98,-99 4221.98,-95.5 4221.98,-102.5"/>
</g>
<!-- 2631953516576 -->
<g id="node6" class="node">
<title>2631953516576</title>
<polygon fill="none" stroke="black" points="885,-242 694,-242 694,-206 885,-206 885,-242"/>
<text text-anchor="middle" x="789.5" y="-220.9" font-family="Times New Roman,serif" font-size="12.00">Return_application_back_to_applicant</text>
</g>
<!-- 2631953516384 -->
<g id="node45" class="node">
<title>2631953516384</title>
<ellipse fill="none" stroke="black" cx="948" cy="-224" rx="27" ry="27"/>
</g>
<!-- 2631953516576&#45;&gt;2631953516384 -->
<g id="edge13" class="edge">
<title>2631953516576&#45;&gt;2631953516384</title>
<path fill="none" stroke="black" d="M885.15,-224C894.09,-224 902.73,-224 910.57,-224"/>
<polygon fill="black" stroke="black" points="910.73,-227.5 920.73,-224 910.73,-220.5 910.73,-227.5"/>
</g>
<!-- 2631953831584 -->
<g id="node7" class="node">
<title>2631953831584</title>
<polygon fill="none" stroke="black" points="1600,-136 1508,-136 1508,-100 1600,-100 1600,-136"/>
<text text-anchor="middle" x="1554" y="-114.9" font-family="Times New Roman,serif" font-size="12.00">Assess_eligibility</text>
</g>
<!-- 2631953517968 -->
<g id="node31" class="node">
<title>2631953517968</title>
<ellipse fill="none" stroke="black" cx="1663" cy="-118" rx="27" ry="27"/>
</g>
<!-- 2631953831584&#45;&gt;2631953517968 -->
<g id="edge15" class="edge">
<title>2631953831584&#45;&gt;2631953517968</title>
<path fill="none" stroke="black" d="M1600.07,-118C1608.66,-118 1617.55,-118 1625.83,-118"/>
<polygon fill="black" stroke="black" points="1625.9,-121.5 1635.9,-118 1625.9,-114.5 1625.9,-121.5"/>
</g>
<!-- 2631953525536 -->
<g id="node8" class="node">
<title>2631953525536</title>
<polygon fill="none" stroke="black" points="3920,-54 3808,-54 3808,-18 3920,-18 3920,-54"/>
<text text-anchor="middle" x="3864" y="-32.9" font-family="Times New Roman,serif" font-size="12.00">Approve_application</text>
</g>
<!-- 2631953833792 -->
<g id="node41" class="node">
<title>2631953833792</title>
<ellipse fill="none" stroke="black" cx="3983" cy="-27" rx="27" ry="27"/>
</g>
<!-- 2631953525536&#45;&gt;2631953833792 -->
<g id="edge8" class="edge">
<title>2631953525536&#45;&gt;2631953833792</title>
<path fill="none" stroke="black" d="M3920.07,-31.76C3928.73,-31.1 3937.48,-30.42 3945.58,-29.8"/>
<polygon fill="black" stroke="black" points="3946.07,-33.27 3955.77,-29.02 3945.53,-26.29 3946.07,-33.27"/>
</g>
<!-- 2631953830960 -->
<g id="node9" class="node">
<title>2631953830960</title>
<polygon fill="none" stroke="black" points="1143,-169 1029,-169 1029,-133 1143,-133 1143,-169"/>
<text text-anchor="middle" x="1086" y="-147.9" font-family="Times New Roman,serif" font-size="12.00">Check_credit_history</text>
</g>
<!-- 2631953830528 -->
<g id="node30" class="node">
<title>2631953830528</title>
<ellipse fill="none" stroke="black" cx="1224" cy="-151" rx="27" ry="27"/>
</g>
<!-- 2631953830960&#45;&gt;2631953830528 -->
<g id="edge1" class="edge">
<title>2631953830960&#45;&gt;2631953830528</title>
<path fill="none" stroke="black" d="M1143.1,-151C1157.77,-151 1173.19,-151 1186.54,-151"/>
<polygon fill="black" stroke="black" points="1186.74,-154.5 1196.74,-151 1186.74,-147.5 1186.74,-154.5"/>
</g>
<!-- 2631953524912 -->
<g id="node10" class="node">
<title>2631953524912</title>
<polygon fill="black" stroke="black" points="3682,-117 3628,-117 3628,-81 3682,-81 3682,-117"/>
</g>
<!-- 2631953832880 -->
<g id="node34" class="node">
<title>2631953832880</title>
<ellipse fill="none" stroke="black" cx="3745" cy="-99" rx="27" ry="27"/>
</g>
<!-- 2631953524912&#45;&gt;2631953832880 -->
<g id="edge46" class="edge">
<title>2631953524912&#45;&gt;2631953832880</title>
<path fill="none" stroke="black" d="M3682.4,-99C3690.39,-99 3699.31,-99 3707.82,-99"/>
<polygon fill="black" stroke="black" points="3707.92,-102.5 3717.92,-99 3707.92,-95.5 3707.92,-102.5"/>
</g>
<!-- 2631953516096 -->
<g id="node11" class="node">
<title>2631953516096</title>
<polygon fill="none" stroke="black" points="568,-246 361,-246 361,-210 568,-210 568,-246"/>
<text text-anchor="middle" x="464.5" y="-224.9" font-family="Times New Roman,serif" font-size="12.00">Check__application__form_completeness</text>
</g>
<!-- 2631953515904 -->
<g id="node44" class="node">
<title>2631953515904</title>
<ellipse fill="none" stroke="black" cx="631" cy="-224" rx="27" ry="27"/>
</g>
<!-- 2631953516096&#45;&gt;2631953515904 -->
<g id="edge7" class="edge">
<title>2631953516096&#45;&gt;2631953515904</title>
<path fill="none" stroke="black" d="M568.28,-225.5C577.3,-225.28 585.96,-225.07 593.81,-224.88"/>
<polygon fill="black" stroke="black" points="594.04,-228.38 603.95,-224.63 593.87,-221.38 594.04,-228.38"/>
</g>
<!-- 2631953516864 -->
<g id="node12" class="node">
<title>2631953516864</title>
<polygon fill="none" stroke="black" points="1161,-269 1011,-269 1011,-233 1161,-233 1161,-269"/>
<text text-anchor="middle" x="1086" y="-247.9" font-family="Times New Roman,serif" font-size="12.00">Receive_updated_application</text>
</g>
<!-- 2631953516864&#45;&gt;2631953515136 -->
<g id="edge6" class="edge">
<title>2631953516864&#45;&gt;2631953515136</title>
<path fill="none" stroke="black" d="M1010.75,-261.99C951.31,-269.83 865.74,-279 790.5,-279 630,-279 630,-279 630,-279 522.65,-279 396.24,-266.29 335.36,-259.37"/>
<polygon fill="black" stroke="black" points="335.46,-255.86 325.13,-258.19 334.66,-262.81 335.46,-255.86"/>
</g>
<!-- 2631953833408 -->
<g id="node13" class="node">
<title>2631953833408</title>
<polygon fill="black" stroke="black" points="2044,-100 1990,-100 1990,-64 2044,-64 2044,-100"/>
</g>
<!-- 2631953833408&#45;&gt;2631953833312 -->
<g id="edge21" class="edge">
<title>2631953833408&#45;&gt;2631953833312</title>
<path fill="none" stroke="black" d="M2044.21,-82C2063.43,-82 2089.77,-82 2111.04,-82"/>
<polygon fill="black" stroke="black" points="2111.33,-85.5 2121.33,-82 2111.33,-78.5 2111.33,-85.5"/>
</g>
<!-- 2631953525824 -->
<g id="node14" class="node">
<title>2631953525824</title>
<polygon fill="none" stroke="black" points="4196,-54 4046,-54 4046,-18 4196,-18 4196,-54"/>
<text text-anchor="middle" x="4121" y="-32.9" font-family="Times New Roman,serif" font-size="12.00">Loan__application_approved</text>
</g>
<!-- 2631953525824&#45;&gt;2631953514800 -->
<g id="edge18" class="edge">
<title>2631953525824&#45;&gt;2631953514800</title>
<path fill="none" stroke="black" d="M4162.12,-54.05C4181.98,-62.99 4205.79,-73.7 4225.18,-82.43"/>
<polygon fill="black" stroke="black" points="4223.75,-85.63 4234.31,-86.54 4226.62,-79.24 4223.75,-85.63"/>
</g>
<!-- 2631953526208 -->
<g id="node15" class="node">
<title>2631953526208</title>
<polygon fill="none" stroke="black" points="3915.5,-117 3812.5,-117 3812.5,-81 3915.5,-81 3915.5,-117"/>
<text text-anchor="middle" x="3864" y="-95.9" font-family="Times New Roman,serif" font-size="12.00">Cancel_application</text>
</g>
<!-- 2631953526016 -->
<g id="node42" class="node">
<title>2631953526016</title>
<ellipse fill="none" stroke="black" cx="3983" cy="-99" rx="27" ry="27"/>
</g>
<!-- 2631953526208&#45;&gt;2631953526016 -->
<g id="edge3" class="edge">
<title>2631953526208&#45;&gt;2631953526016</title>
<path fill="none" stroke="black" d="M3915.64,-99C3925.69,-99 3936.06,-99 3945.52,-99"/>
<polygon fill="black" stroke="black" points="3945.76,-102.5 3955.76,-99 3945.76,-95.5 3945.76,-102.5"/>
</g>
<!-- 2631953831248 -->
<g id="node16" class="node">
<title>2631953831248</title>
<polygon fill="none" stroke="black" points="1382,-169 1287,-169 1287,-133 1382,-133 1382,-169"/>
<text text-anchor="middle" x="1334.5" y="-147.9" font-family="Times New Roman,serif" font-size="12.00">Assess_loan_risk</text>
</g>
<!-- 2631953830432 -->
<g id="node29" class="node">
<title>2631953830432</title>
<ellipse fill="none" stroke="black" cx="1445" cy="-148" rx="27" ry="27"/>
</g>
<!-- 2631953831248&#45;&gt;2631953830432 -->
<g id="edge11" class="edge">
<title>2631953831248&#45;&gt;2631953830432</title>
<path fill="none" stroke="black" d="M1382.14,-149.71C1390.61,-149.48 1399.33,-149.24 1407.45,-149.01"/>
<polygon fill="black" stroke="black" points="1407.82,-152.5 1417.72,-148.73 1407.62,-145.5 1407.82,-152.5"/>
</g>
<!-- 2631953832016 -->
<g id="node17" class="node">
<title>2631953832016</title>
<polygon fill="none" stroke="black" points="1845.5,-167 1744.5,-167 1744.5,-131 1845.5,-131 1845.5,-167"/>
<text text-anchor="middle" x="1795" y="-145.9" font-family="Times New Roman,serif" font-size="12.00">Reject_application</text>
</g>
<!-- 2631953831824 -->
<g id="node32" class="node">
<title>2631953831824</title>
<ellipse fill="none" stroke="black" cx="1927" cy="-154" rx="27" ry="27"/>
</g>
<!-- 2631953832016&#45;&gt;2631953831824 -->
<g id="edge2" class="edge">
<title>2631953832016&#45;&gt;2631953831824</title>
<path fill="none" stroke="black" d="M1845.52,-150.9C1860.27,-151.47 1876.15,-152.08 1889.88,-152.61"/>
<polygon fill="black" stroke="black" points="1889.77,-156.11 1899.9,-153 1890.04,-149.11 1889.77,-156.11"/>
</g>
<!-- 2631953522896 -->
<g id="node18" class="node">
<title>2631953522896</title>
<polygon fill="none" stroke="black" points="2484,-113 2253,-113 2253,-77 2484,-77 2484,-113"/>
<text text-anchor="middle" x="2368.5" y="-91.9" font-family="Times New Roman,serif" font-size="12.00">Check_if_home_insurance_quote_is_requested</text>
</g>
<!-- 2631953833936 -->
<g id="node37" class="node">
<title>2631953833936</title>
<ellipse fill="none" stroke="black" cx="2547" cy="-99" rx="27" ry="27"/>
</g>
<!-- 2631953522896&#45;&gt;2631953833936 -->
<g id="edge9" class="edge">
<title>2631953522896&#45;&gt;2631953833936</title>
<path fill="none" stroke="black" d="M2484.27,-97.6C2493.32,-97.81 2501.97,-98 2509.76,-98.18"/>
<polygon fill="black" stroke="black" points="2509.76,-101.68 2519.84,-98.41 2509.92,-94.68 2509.76,-101.68"/>
</g>
<!-- 2631953523280 -->
<g id="node19" class="node">
<title>2631953523280</title>
<polygon fill="none" stroke="black" points="2760,-117 2610,-117 2610,-81 2760,-81 2760,-117"/>
<text text-anchor="middle" x="2685" y="-95.9" font-family="Times New Roman,serif" font-size="12.00">Send_home_insurance_quote</text>
</g>
<!-- 2631953523088 -->
<g id="node38" class="node">
<title>2631953523088</title>
<ellipse fill="none" stroke="black" cx="2823" cy="-99" rx="27" ry="27"/>
</g>
<!-- 2631953523280&#45;&gt;2631953523088 -->
<g id="edge17" class="edge">
<title>2631953523280&#45;&gt;2631953523088</title>
<path fill="none" stroke="black" d="M2760.37,-99C2769.15,-99 2777.79,-99 2785.69,-99"/>
<polygon fill="black" stroke="black" points="2785.96,-102.5 2795.96,-99 2785.96,-95.5 2785.96,-102.5"/>
</g>
<!-- 2631953523664 -->
<g id="node20" class="node">
<title>2631953523664</title>
<polygon fill="none" stroke="black" points="2975,-117 2886,-117 2886,-81 2975,-81 2975,-117"/>
<text text-anchor="middle" x="2930.5" y="-95.9" font-family="Times New Roman,serif" font-size="12.00">Added_Acitvity</text>
</g>
<!-- 2631953523472 -->
<g id="node39" class="node">
<title>2631953523472</title>
<ellipse fill="none" stroke="black" cx="3038" cy="-99" rx="27" ry="27"/>
</g>
<!-- 2631953523664&#45;&gt;2631953523472 -->
<g id="edge20" class="edge">
<title>2631953523664&#45;&gt;2631953523472</title>
<path fill="none" stroke="black" d="M2975.02,-99C2983.56,-99 2992.43,-99 3000.71,-99"/>
<polygon fill="black" stroke="black" points="3000.8,-102.5 3010.8,-99 3000.8,-95.5 3000.8,-102.5"/>
</g>
<!-- 2631953524048 -->
<g id="node21" class="node">
<title>2631953524048</title>
<polygon fill="none" stroke="black" points="3226,-117 3101,-117 3101,-81 3226,-81 3226,-117"/>
<text text-anchor="middle" x="3163.5" y="-95.9" font-family="Times New Roman,serif" font-size="12.00">Send_acceptance_pack</text>
</g>
<!-- 2631953523856 -->
<g id="node40" class="node">
<title>2631953523856</title>
<ellipse fill="none" stroke="black" cx="3289" cy="-99" rx="27" ry="27"/>
</g>
<!-- 2631953524048&#45;&gt;2631953523856 -->
<g id="edge19" class="edge">
<title>2631953524048&#45;&gt;2631953523856</title>
<path fill="none" stroke="black" d="M3226.25,-99C3234.97,-99 3243.69,-99 3251.72,-99"/>
<polygon fill="black" stroke="black" points="3251.81,-102.5 3261.81,-99 3251.81,-95.5 3251.81,-102.5"/>
</g>
<!-- 2631953832304 -->
<g id="node22" class="node">
<title>2631953832304</title>
<polygon fill="none" stroke="black" points="2217,-172 2080,-172 2080,-136 2217,-136 2217,-172"/>
<text text-anchor="middle" x="2148.5" y="-150.9" font-family="Times New Roman,serif" font-size="12.00">Loan_application_rejected</text>
</g>
<!-- 2631953832304&#45;&gt;2631953514800 -->
<g id="edge4" class="edge">
<title>2631953832304&#45;&gt;2631953514800</title>
<path fill="none" stroke="black" d="M2217.2,-154C2296.14,-154 2430.53,-154 2546,-154 2546,-154 2546,-154 3984,-154 4079.04,-154 4104.15,-150.42 4196,-126 4205.68,-123.43 4215.83,-119.78 4225.19,-116"/>
<polygon fill="black" stroke="black" points="4226.74,-119.15 4234.61,-112.05 4224.03,-112.7 4226.74,-119.15"/>
</g>
<!-- 2631953832688 -->
<g id="node23" class="node">
<title>2631953832688</title>
<polygon fill="none" stroke="black" points="1864,-109 1726,-109 1726,-73 1864,-73 1864,-109"/>
<text text-anchor="middle" x="1795" y="-87.9" font-family="Times New Roman,serif" font-size="12.00">Prepare_acceptance_pack</text>
</g>
<!-- 2631953832496 -->
<g id="node33" class="node">
<title>2631953832496</title>
<ellipse fill="none" stroke="black" cx="1927" cy="-82" rx="27" ry="27"/>
</g>
<!-- 2631953832688&#45;&gt;2631953832496 -->
<g id="edge14" class="edge">
<title>2631953832688&#45;&gt;2631953832496</title>
<path fill="none" stroke="black" d="M1864.05,-86.29C1872.93,-85.67 1881.74,-85.06 1889.81,-84.51"/>
<polygon fill="black" stroke="black" points="1890.19,-87.99 1899.93,-83.81 1889.71,-81 1890.19,-87.99"/>
</g>
<!-- 2631953524336 -->
<g id="node24" class="node">
<title>2631953524336</title>
<polygon fill="none" stroke="black" points="3502,-117 3352,-117 3352,-81 3502,-81 3502,-117"/>
<text text-anchor="middle" x="3427" y="-95.9" font-family="Times New Roman,serif" font-size="12.00">Verify_repayment_agreement</text>
</g>
<!-- 2631953833840 -->
<g id="node36" class="node">
<title>2631953833840</title>
<ellipse fill="none" stroke="black" cx="3565" cy="-99" rx="27" ry="27"/>
</g>
<!-- 2631953524336&#45;&gt;2631953833840 -->
<g id="edge12" class="edge">
<title>2631953524336&#45;&gt;2631953833840</title>
<path fill="none" stroke="black" d="M3502.37,-99C3511.15,-99 3519.79,-99 3527.69,-99"/>
<polygon fill="black" stroke="black" points="3527.96,-102.5 3537.96,-99 3527.96,-95.5 3527.96,-102.5"/>
</g>
<!-- 2631953514944 -->
<g id="node25" class="node">
<title>2631953514944</title>
<ellipse fill="none" stroke="black" cx="27" cy="-255" rx="27" ry="27"/>
<text text-anchor="start" x="16" y="-246.3" font-family="Times New Roman,serif" font-size="34.00">●</text>
</g>
<!-- 2631953514944&#45;&gt;2631953515520 -->
<g id="edge50" class="edge">
<title>2631953514944&#45;&gt;2631953515520</title>
<path fill="none" stroke="black" d="M54.06,-255C61.69,-255 70.47,-255 79.66,-255"/>
<polygon fill="black" stroke="black" points="79.75,-258.5 89.75,-255 79.75,-251.5 79.75,-258.5"/>
</g>
<!-- 2631953518016&#45;&gt;2631953518352 -->
<g id="edge22" class="edge">
<title>2631953518016&#45;&gt;2631953518352</title>
<path fill="none" stroke="black" d="M975.22,-80.77C989.22,-81.18 1007.08,-81.71 1024.31,-82.22"/>
<polygon fill="black" stroke="black" points="1024.25,-85.71 1034.35,-82.51 1024.45,-78.72 1024.25,-85.71"/>
</g>
<!-- 2631953518208&#45;&gt;2631953831584 -->
<g id="edge23" class="edge">
<title>2631953518208&#45;&gt;2631953831584</title>
<path fill="none" stroke="black" d="M1361.3,-90.68C1394.81,-95.45 1454.2,-103.92 1498.02,-110.16"/>
<polygon fill="black" stroke="black" points="1497.56,-113.63 1507.95,-111.58 1498.55,-106.7 1497.56,-113.63"/>
</g>
<!-- 2631953830288&#45;&gt;2631953830960 -->
<g id="edge24" class="edge">
<title>2631953830288&#45;&gt;2631953830960</title>
<path fill="none" stroke="black" d="M975.22,-151.81C987.7,-151.72 1003.23,-151.6 1018.65,-151.49"/>
<polygon fill="black" stroke="black" points="1018.76,-154.99 1028.74,-151.41 1018.71,-147.99 1018.76,-154.99"/>
</g>
<!-- 2631953830432&#45;&gt;2631953831584 -->
<g id="edge25" class="edge">
<title>2631953830432&#45;&gt;2631953831584</title>
<path fill="none" stroke="black" d="M1471.09,-140.97C1479.25,-138.68 1488.65,-136.04 1498.11,-133.39"/>
<polygon fill="black" stroke="black" points="1499.26,-136.7 1507.94,-130.63 1497.37,-129.96 1499.26,-136.7"/>
</g>
<!-- 2631953830528&#45;&gt;2631953831248 -->
<g id="edge26" class="edge">
<title>2631953830528&#45;&gt;2631953831248</title>
<path fill="none" stroke="black" d="M1251.26,-151C1259.01,-151 1267.81,-151 1276.69,-151"/>
<polygon fill="black" stroke="black" points="1276.71,-154.5 1286.71,-151 1276.71,-147.5 1276.71,-154.5"/>
</g>
<!-- 2631953517968&#45;&gt;2631953832016 -->
<g id="edge27" class="edge">
<title>2631953517968&#45;&gt;2631953832016</title>
<path fill="none" stroke="black" d="M1689.37,-124.05C1702.35,-127.14 1718.72,-131.05 1734.65,-134.85"/>
<polygon fill="black" stroke="black" points="1733.93,-138.27 1744.47,-137.19 1735.55,-131.46 1733.93,-138.27"/>
</g>
<!-- 2631953517968&#45;&gt;2631953832688 -->
<g id="edge28" class="edge">
<title>2631953517968&#45;&gt;2631953832688</title>
<path fill="none" stroke="black" d="M1689.68,-112.67C1697.48,-111.05 1706.49,-109.18 1715.88,-107.23"/>
<polygon fill="black" stroke="black" points="1716.69,-110.63 1725.77,-105.17 1715.26,-103.78 1716.69,-110.63"/>
</g>
<!-- 2631953831824&#45;&gt;2631953832304 -->
<g id="edge29" class="edge">
<title>2631953831824&#45;&gt;2631953832304</title>
<path fill="none" stroke="black" d="M1954.04,-154C1982.41,-154 2029.16,-154 2069.59,-154"/>
<polygon fill="black" stroke="black" points="2069.72,-157.5 2079.72,-154 2069.72,-150.5 2069.72,-157.5"/>
</g>
<!-- 2631953832496&#45;&gt;2631953833408 -->
<g id="edge30" class="edge">
<title>2631953832496&#45;&gt;2631953833408</title>
<path fill="none" stroke="black" d="M1954.4,-82C1962.39,-82 1971.31,-82 1979.82,-82"/>
<polygon fill="black" stroke="black" points="1979.92,-85.5 1989.92,-82 1979.92,-78.5 1979.92,-85.5"/>
</g>
<!-- 2631953832880&#45;&gt;2631953525536 -->
<g id="edge32" class="edge">
<title>2631953832880&#45;&gt;2631953525536</title>
<path fill="none" stroke="black" d="M3769.12,-86.55C3783.75,-78.67 3803.11,-68.25 3820.45,-58.91"/>
<polygon fill="black" stroke="black" points="3822.15,-61.97 3829.29,-54.15 3818.83,-55.81 3822.15,-61.97"/>
</g>
<!-- 2631953832880&#45;&gt;2631953526208 -->
<g id="edge31" class="edge">
<title>2631953832880&#45;&gt;2631953526208</title>
<path fill="none" stroke="black" d="M3772.26,-99C3781.24,-99 3791.71,-99 3802.26,-99"/>
<polygon fill="black" stroke="black" points="3802.37,-102.5 3812.37,-99 3802.37,-95.5 3802.37,-102.5"/>
</g>
<!-- 2631953833312&#45;&gt;2631953522896 -->
<g id="edge33" class="edge">
<title>2631953833312&#45;&gt;2631953522896</title>
<path fill="none" stroke="black" d="M2175.8,-83.57C2193.19,-84.61 2217.4,-86.05 2242.78,-87.56"/>
<polygon fill="black" stroke="black" points="2242.74,-91.07 2252.93,-88.17 2243.16,-84.08 2242.74,-91.07"/>
</g>
<!-- 2631953833840&#45;&gt;2631953524624 -->
<g id="edge35" class="edge">
<title>2631953833840&#45;&gt;2631953524624</title>
<path fill="none" stroke="black" d="M3588.66,-85.09C3597.96,-79.39 3608.93,-72.66 3619.2,-66.35"/>
<polygon fill="black" stroke="black" points="3621.3,-69.18 3627.99,-60.96 3617.63,-63.21 3621.3,-69.18"/>
</g>
<!-- 2631953833840&#45;&gt;2631953524912 -->
<g id="edge34" class="edge">
<title>2631953833840&#45;&gt;2631953524912</title>
<path fill="none" stroke="black" d="M3592.4,-99C3600.39,-99 3609.31,-99 3617.82,-99"/>
<polygon fill="black" stroke="black" points="3617.92,-102.5 3627.92,-99 3617.92,-95.5 3617.92,-102.5"/>
</g>
<!-- 2631953833936&#45;&gt;2631953523280 -->
<g id="edge36" class="edge">
<title>2631953833936&#45;&gt;2631953523280</title>
<path fill="none" stroke="black" d="M2574.22,-99C2581.82,-99 2590.55,-99 2599.7,-99"/>
<polygon fill="black" stroke="black" points="2599.76,-102.5 2609.76,-99 2599.76,-95.5 2599.76,-102.5"/>
</g>
<!-- 2631953523088&#45;&gt;2631953523664 -->
<g id="edge37" class="edge">
<title>2631953523088&#45;&gt;2631953523664</title>
<path fill="none" stroke="black" d="M2850.08,-99C2857.88,-99 2866.74,-99 2875.64,-99"/>
<polygon fill="black" stroke="black" points="2875.66,-102.5 2885.66,-99 2875.66,-95.5 2875.66,-102.5"/>
</g>
<!-- 2631953523472&#45;&gt;2631953524048 -->
<g id="edge38" class="edge">
<title>2631953523472&#45;&gt;2631953524048</title>
<path fill="none" stroke="black" d="M3065.19,-99C3072.8,-99 3081.51,-99 3090.52,-99"/>
<polygon fill="black" stroke="black" points="3090.77,-102.5 3100.77,-99 3090.77,-95.5 3090.77,-102.5"/>
</g>
<!-- 2631953523856&#45;&gt;2631953524336 -->
<g id="edge39" class="edge">
<title>2631953523856&#45;&gt;2631953524336</title>
<path fill="none" stroke="black" d="M3316.22,-99C3323.82,-99 3332.55,-99 3341.7,-99"/>
<polygon fill="black" stroke="black" points="3341.76,-102.5 3351.76,-99 3341.76,-95.5 3341.76,-102.5"/>
</g>
<!-- 2631953833792&#45;&gt;2631953525824 -->
<g id="edge40" class="edge">
<title>2631953833792&#45;&gt;2631953525824</title>
<path fill="none" stroke="black" d="M4010.22,-28.74C4017.82,-29.24 4026.55,-29.82 4035.7,-30.42"/>
<polygon fill="black" stroke="black" points="4035.55,-33.92 4045.76,-31.09 4036.01,-26.93 4035.55,-33.92"/>
</g>
<!-- 2631953526016&#45;&gt;2631953526544 -->
<g id="edge41" class="edge">
<title>2631953526016&#45;&gt;2631953526544</title>
<path fill="none" stroke="black" d="M4010.22,-99C4018.38,-99 4027.86,-99 4037.75,-99"/>
<polygon fill="black" stroke="black" points="4037.76,-102.5 4047.76,-99 4037.76,-95.5 4037.76,-102.5"/>
</g>
<!-- 2631953515136&#45;&gt;2631953516096 -->
<g id="edge42" class="edge">
<title>2631953515136&#45;&gt;2631953516096</title>
<path fill="none" stroke="black" d="M324.7,-250.78C332.35,-249.53 341.26,-248.06 350.8,-246.5"/>
<polygon fill="black" stroke="black" points="351.65,-249.9 360.96,-244.83 350.52,-243 351.65,-249.9"/>
</g>
<!-- 2631953515904&#45;&gt;2631953517056 -->
<g id="edge44" class="edge">
<title>2631953515904&#45;&gt;2631953517056</title>
<path fill="none" stroke="black" d="M655.77,-213.06C681.69,-201.14 723.46,-181.92 753.21,-168.23"/>
<polygon fill="black" stroke="black" points="754.79,-171.36 762.42,-164 751.87,-165 754.79,-171.36"/>
</g>
<!-- 2631953515904&#45;&gt;2631953516576 -->
<g id="edge43" class="edge">
<title>2631953515904&#45;&gt;2631953516576</title>
<path fill="none" stroke="black" d="M658.19,-224C665.67,-224 674.31,-224 683.51,-224"/>
<polygon fill="black" stroke="black" points="683.68,-227.5 693.68,-224 683.68,-220.5 683.68,-227.5"/>
</g>
<!-- 2631953516384&#45;&gt;2631953516864 -->
<g id="edge45" class="edge">
<title>2631953516384&#45;&gt;2631953516864</title>
<path fill="none" stroke="black" d="M974.58,-229.08C982.35,-230.62 991.34,-232.41 1000.78,-234.28"/>
<polygon fill="black" stroke="black" points="1000.25,-237.74 1010.74,-236.26 1001.62,-230.88 1000.25,-237.74"/>
</g>
</g>
</svg>
