<?xml version="1.0" encoding="UTF-8" standalone="no"?>
<!DOCTYPE svg PUBLIC "-//W3C//DTD SVG 1.1//EN"
 "http://www.w3.org/Graphics/SVG/1.1/DTD/svg11.dtd">
<!-- Generated by graphviz version 2.49.0 (20210828.1703)
 -->
<!-- Title: imdf_net_1655279243.340768 Pages: 1 -->
<svg width="2984pt" height="371pt"
 viewBox="0.00 0.00 2984.00 371.00" xmlns="http://www.w3.org/2000/svg" xmlns:xlink="http://www.w3.org/1999/xlink">
<g id="graph0" class="graph" transform="scale(1 1) rotate(0) translate(4 367)">
<title>imdf_net_1655279243.340768</title>
<!-- 2146545772432 -->
<g id="node1" class="node">
<title>2146545772432</title>
<polygon fill="none" stroke="black" points="2088,-113 1938,-113 1938,-77 2088,-77 2088,-113"/>
<text text-anchor="middle" x="2013" y="-91.9" font-family="Times New Roman,serif" font-size="12.00">Send_home_insurance_quote</text>
</g>
<!-- 2146545771904 -->
<g id="node31" class="node">
<title>2146545771904</title>
<ellipse fill="none" stroke="black" cx="2151" cy="-59" rx="27" ry="27"/>
</g>
<!-- 2146545772432&#45;&gt;2146545771904 -->
<g id="edge12" class="edge">
<title>2146545772432&#45;&gt;2146545771904</title>
<path fill="none" stroke="black" d="M2082.4,-76.89C2093.59,-73.93 2104.77,-70.97 2114.72,-68.34"/>
<polygon fill="black" stroke="black" points="2115.83,-71.67 2124.6,-65.72 2114.03,-64.9 2115.83,-71.67"/>
</g>
<!-- 2146545773200 -->
<g id="node2" class="node">
<title>2146545773200</title>
<polygon fill="none" stroke="black" points="2597.5,-49 2494.5,-49 2494.5,-13 2597.5,-13 2597.5,-49"/>
<text text-anchor="middle" x="2546" y="-27.9" font-family="Times New Roman,serif" font-size="12.00">Cancel_application</text>
</g>
<!-- 2146545773008 -->
<g id="node33" class="node">
<title>2146545773008</title>
<ellipse fill="none" stroke="black" cx="2665" cy="-27" rx="27" ry="27"/>
</g>
<!-- 2146545773200&#45;&gt;2146545773008 -->
<g id="edge16" class="edge">
<title>2146545773200&#45;&gt;2146545773008</title>
<path fill="none" stroke="black" d="M2597.64,-29.27C2607.69,-28.93 2618.06,-28.57 2627.52,-28.25"/>
<polygon fill="black" stroke="black" points="2627.89,-31.74 2637.76,-27.9 2627.65,-24.74 2627.89,-31.74"/>
</g>
<!-- 2146545692576 -->
<g id="node3" class="node">
<title>2146545692576</title>
<polygon fill="none" stroke="black" points="890,-254 683,-254 683,-218 890,-218 890,-254"/>
<text text-anchor="middle" x="786.5" y="-232.9" font-family="Times New Roman,serif" font-size="12.00">Check__application__form_completeness</text>
</g>
<!-- 2146545692384 -->
<g id="node36" class="node">
<title>2146545692384</title>
<ellipse fill="none" stroke="black" cx="27" cy="-209" rx="27" ry="27"/>
</g>
<!-- 2146545692576&#45;&gt;2146545692384 -->
<g id="edge18" class="edge">
<title>2146545692576&#45;&gt;2146545692384</title>
<path fill="none" stroke="black" d="M682.79,-222.26C624.34,-215.59 549.7,-209 483,-209 343,-209 343,-209 343,-209 242.09,-209 123,-209 64.36,-209"/>
<polygon fill="black" stroke="black" points="64.14,-205.5 54.14,-209 64.14,-212.5 64.14,-205.5"/>
</g>
<!-- 2146545755040 -->
<g id="node4" class="node">
<title>2146545755040</title>
<polygon fill="black" stroke="black" points="212.5,-172 158.5,-172 158.5,-136 212.5,-136 212.5,-172"/>
</g>
<!-- 2146545756000 -->
<g id="node22" class="node">
<title>2146545756000</title>
<ellipse fill="none" stroke="black" cx="344" cy="-82" rx="27" ry="27"/>
</g>
<!-- 2146545755040&#45;&gt;2146545756000 -->
<g id="edge40" class="edge">
<title>2146545755040&#45;&gt;2146545756000</title>
<path fill="none" stroke="black" d="M212.69,-141.95C239.43,-129.65 281.01,-110.52 309.98,-97.19"/>
<polygon fill="black" stroke="black" points="311.66,-100.27 319.29,-92.91 308.74,-93.91 311.66,-100.27"/>
</g>
<!-- 2146545756672 -->
<g id="node24" class="node">
<title>2146545756672</title>
<ellipse fill="none" stroke="black" cx="344" cy="-154" rx="27" ry="27"/>
</g>
<!-- 2146545755040&#45;&gt;2146545756672 -->
<g id="edge41" class="edge">
<title>2146545755040&#45;&gt;2146545756672</title>
<path fill="none" stroke="black" d="M212.69,-154C238.5,-154 278.13,-154 306.91,-154"/>
<polygon fill="black" stroke="black" points="306.98,-157.5 316.98,-154 306.98,-150.5 306.98,-157.5"/>
</g>
<!-- 2146545770656 -->
<g id="node5" class="node">
<title>2146545770656</title>
<polygon fill="none" stroke="black" points="1353.5,-167 1252.5,-167 1252.5,-131 1353.5,-131 1353.5,-167"/>
<text text-anchor="middle" x="1303" y="-145.9" font-family="Times New Roman,serif" font-size="12.00">Reject_application</text>
</g>
<!-- 2146545758112 -->
<g id="node28" class="node">
<title>2146545758112</title>
<ellipse fill="none" stroke="black" cx="1435" cy="-154" rx="27" ry="27"/>
</g>
<!-- 2146545770656&#45;&gt;2146545758112 -->
<g id="edge15" class="edge">
<title>2146545770656&#45;&gt;2146545758112</title>
<path fill="none" stroke="black" d="M1353.52,-150.9C1368.27,-151.47 1384.15,-152.08 1397.88,-152.61"/>
<polygon fill="black" stroke="black" points="1397.77,-156.11 1407.9,-153 1398.04,-149.11 1397.77,-156.11"/>
</g>
<!-- 2146545691568 -->
<g id="node6" class="node">
<title>2146545691568</title>
<polygon fill="none" stroke="black" points="554.5,-282 409.5,-282 409.5,-246 554.5,-246 554.5,-282"/>
<text text-anchor="middle" x="482" y="-260.9" font-family="Times New Roman,serif" font-size="12.00">Loan__application_received</text>
</g>
<!-- 2146545691856 -->
<g id="node35" class="node">
<title>2146545691856</title>
<ellipse fill="none" stroke="black" cx="620" cy="-264" rx="27" ry="27"/>
</g>
<!-- 2146545691568&#45;&gt;2146545691856 -->
<g id="edge7" class="edge">
<title>2146545691568&#45;&gt;2146545691856</title>
<path fill="none" stroke="black" d="M554.58,-264C564.32,-264 573.96,-264 582.7,-264"/>
<polygon fill="black" stroke="black" points="582.85,-267.5 592.85,-264 582.85,-260.5 582.85,-267.5"/>
</g>
<!-- 2146545757872 -->
<g id="node7" class="node">
<title>2146545757872</title>
<polygon fill="none" stroke="black" points="1108,-136 1016,-136 1016,-100 1108,-100 1108,-136"/>
<text text-anchor="middle" x="1062" y="-114.9" font-family="Times New Roman,serif" font-size="12.00">Assess_eligibility</text>
</g>
<!-- 2146545755952 -->
<g id="node27" class="node">
<title>2146545755952</title>
<ellipse fill="none" stroke="black" cx="1171" cy="-118" rx="27" ry="27"/>
</g>
<!-- 2146545757872&#45;&gt;2146545755952 -->
<g id="edge19" class="edge">
<title>2146545757872&#45;&gt;2146545755952</title>
<path fill="none" stroke="black" d="M1108.07,-118C1116.66,-118 1125.55,-118 1133.83,-118"/>
<polygon fill="black" stroke="black" points="1133.9,-121.5 1143.9,-118 1133.9,-114.5 1133.9,-121.5"/>
</g>
<!-- 2146545773488 -->
<g id="node8" class="node">
<title>2146545773488</title>
<polygon fill="none" stroke="black" points="2876,-54 2730,-54 2730,-18 2876,-18 2876,-54"/>
<text text-anchor="middle" x="2803" y="-32.9" font-family="Times New Roman,serif" font-size="12.00">Loan__application_canceled</text>
</g>
<!-- 2146545691088 -->
<g id="node38" class="node">
<title>2146545691088</title>
<ellipse fill="none" stroke="black" cx="2945" cy="-99" rx="27" ry="27"/>
<ellipse fill="none" stroke="black" cx="2945" cy="-99" rx="31" ry="31"/>
<text text-anchor="start" x="2935" y="-90.9" font-family="Times New Roman,serif" font-size="32.00">■</text>
</g>
<!-- 2146545773488&#45;&gt;2146545691088 -->
<g id="edge9" class="edge">
<title>2146545773488&#45;&gt;2146545691088</title>
<path fill="none" stroke="black" d="M2844.12,-54.05C2863.98,-62.99 2887.79,-73.7 2907.18,-82.43"/>
<polygon fill="black" stroke="black" points="2905.75,-85.63 2916.31,-86.54 2908.62,-79.24 2905.75,-85.63"/>
</g>
<!-- 2146545754560 -->
<g id="node9" class="node">
<title>2146545754560</title>
<polygon fill="none" stroke="black" points="281,-313 90,-313 90,-277 281,-277 281,-313"/>
<text text-anchor="middle" x="185.5" y="-291.9" font-family="Times New Roman,serif" font-size="12.00">Return_application_back_to_applicant</text>
</g>
<!-- 2146545754368 -->
<g id="node37" class="node">
<title>2146545754368</title>
<ellipse fill="none" stroke="black" cx="344" cy="-336" rx="27" ry="27"/>
</g>
<!-- 2146545754560&#45;&gt;2146545754368 -->
<g id="edge17" class="edge">
<title>2146545754560&#45;&gt;2146545754368</title>
<path fill="none" stroke="black" d="M255.6,-313.1C273.56,-317.81 292.18,-322.69 307.59,-326.72"/>
<polygon fill="black" stroke="black" points="307.14,-330.22 317.7,-329.37 308.91,-323.45 307.14,-330.22"/>
</g>
<!-- 2146545756480 -->
<g id="node10" class="node">
<title>2146545756480</title>
<polygon fill="none" stroke="black" points="533.5,-100 430.5,-100 430.5,-64 533.5,-64 533.5,-100"/>
<text text-anchor="middle" x="482" y="-78.9" font-family="Times New Roman,serif" font-size="12.00">Appraise_property</text>
</g>
<!-- 2146545756192 -->
<g id="node23" class="node">
<title>2146545756192</title>
<ellipse fill="none" stroke="black" cx="953" cy="-82" rx="27" ry="27"/>
</g>
<!-- 2146545756480&#45;&gt;2146545756192 -->
<g id="edge1" class="edge">
<title>2146545756480&#45;&gt;2146545756192</title>
<path fill="none" stroke="black" d="M533.64,-82C628.94,-82 832.83,-82 915.78,-82"/>
<polygon fill="black" stroke="black" points="915.97,-85.5 925.97,-82 915.97,-78.5 915.97,-85.5"/>
</g>
<!-- 2146545757248 -->
<g id="node11" class="node">
<title>2146545757248</title>
<polygon fill="none" stroke="black" points="539,-172 425,-172 425,-136 539,-136 539,-172"/>
<text text-anchor="middle" x="482" y="-150.9" font-family="Times New Roman,serif" font-size="12.00">Check_credit_history</text>
</g>
<!-- 2146545757056 -->
<g id="node26" class="node">
<title>2146545757056</title>
<ellipse fill="none" stroke="black" cx="620" cy="-154" rx="27" ry="27"/>
</g>
<!-- 2146545757248&#45;&gt;2146545757056 -->
<g id="edge10" class="edge">
<title>2146545757248&#45;&gt;2146545757056</title>
<path fill="none" stroke="black" d="M539.1,-154C553.77,-154 569.19,-154 582.54,-154"/>
<polygon fill="black" stroke="black" points="582.74,-157.5 592.74,-154 582.74,-150.5 582.74,-157.5"/>
</g>
<!-- 2146545770944 -->
<g id="node12" class="node">
<title>2146545770944</title>
<polygon fill="none" stroke="black" points="1902,-172 1765,-172 1765,-136 1902,-136 1902,-172"/>
<text text-anchor="middle" x="1833.5" y="-150.9" font-family="Times New Roman,serif" font-size="12.00">Loan_application_rejected</text>
</g>
<!-- 2146545770944&#45;&gt;2146545691088 -->
<g id="edge13" class="edge">
<title>2146545770944&#45;&gt;2146545691088</title>
<path fill="none" stroke="black" d="M1902.2,-154C1966.09,-154 2064.55,-154 2150,-154 2150,-154 2150,-154 2666,-154 2761.04,-154 2786.15,-150.42 2878,-126 2887.68,-123.43 2897.83,-119.78 2907.19,-116"/>
<polygon fill="black" stroke="black" points="2908.74,-119.15 2916.61,-112.05 2906.03,-112.7 2908.74,-119.15"/>
</g>
<!-- 2146545771328 -->
<g id="node13" class="node">
<title>2146545771328</title>
<polygon fill="none" stroke="black" points="1372,-109 1234,-109 1234,-73 1372,-73 1372,-109"/>
<text text-anchor="middle" x="1303" y="-87.9" font-family="Times New Roman,serif" font-size="12.00">Prepare_acceptance_pack</text>
</g>
<!-- 2146545771136 -->
<g id="node29" class="node">
<title>2146545771136</title>
<ellipse fill="none" stroke="black" cx="1435" cy="-82" rx="27" ry="27"/>
</g>
<!-- 2146545771328&#45;&gt;2146545771136 -->
<g id="edge2" class="edge">
<title>2146545771328&#45;&gt;2146545771136</title>
<path fill="none" stroke="black" d="M1372.05,-86.29C1380.93,-85.67 1389.74,-85.06 1397.81,-84.51"/>
<polygon fill="black" stroke="black" points="1398.19,-87.99 1407.93,-83.81 1397.71,-81 1398.19,-87.99"/>
</g>
<!-- 2146545771712 -->
<g id="node14" class="node">
<title>2146545771712</title>
<polygon fill="none" stroke="black" points="1729,-100 1498,-100 1498,-64 1729,-64 1729,-100"/>
<text text-anchor="middle" x="1613.5" y="-78.9" font-family="Times New Roman,serif" font-size="12.00">Check_if_home_insurance_quote_is_requested</text>
</g>
<!-- 2146545771520 -->
<g id="node30" class="node">
<title>2146545771520</title>
<ellipse fill="none" stroke="black" cx="1833.5" cy="-82" rx="27" ry="27"/>
</g>
<!-- 2146545771712&#45;&gt;2146545771520 -->
<g id="edge8" class="edge">
<title>2146545771712&#45;&gt;2146545771520</title>
<path fill="none" stroke="black" d="M1729.25,-82C1753.54,-82 1777.45,-82 1796.14,-82"/>
<polygon fill="black" stroke="black" points="1796.22,-85.5 1806.22,-82 1796.22,-78.5 1796.22,-85.5"/>
</g>
<!-- 2146545754848 -->
<g id="node15" class="node">
<title>2146545754848</title>
<polygon fill="none" stroke="black" points="557,-345 407,-345 407,-309 557,-309 557,-345"/>
<text text-anchor="middle" x="482" y="-323.9" font-family="Times New Roman,serif" font-size="12.00">Receive_updated_application</text>
</g>
<!-- 2146545754848&#45;&gt;2146545691856 -->
<g id="edge3" class="edge">
<title>2146545754848&#45;&gt;2146545691856</title>
<path fill="none" stroke="black" d="M521.97,-308.95C542.12,-299.62 566.44,-288.35 585.7,-279.43"/>
<polygon fill="black" stroke="black" points="587.38,-282.51 594.98,-275.13 584.44,-276.15 587.38,-282.51"/>
</g>
<!-- 2146545757536 -->
<g id="node16" class="node">
<title>2146545757536</title>
<polygon fill="none" stroke="black" points="834,-172 739,-172 739,-136 834,-136 834,-172"/>
<text text-anchor="middle" x="786.5" y="-150.9" font-family="Times New Roman,serif" font-size="12.00">Assess_loan_risk</text>
</g>
<!-- 2146545756864 -->
<g id="node25" class="node">
<title>2146545756864</title>
<ellipse fill="none" stroke="black" cx="953" cy="-154" rx="27" ry="27"/>
</g>
<!-- 2146545757536&#45;&gt;2146545756864 -->
<g id="edge11" class="edge">
<title>2146545757536&#45;&gt;2146545756864</title>
<path fill="none" stroke="black" d="M834.2,-154C860.01,-154 891.62,-154 915.59,-154"/>
<polygon fill="black" stroke="black" points="915.68,-157.5 925.68,-154 915.68,-150.5 915.68,-157.5"/>
</g>
<!-- 2146545772768 -->
<g id="node17" class="node">
<title>2146545772768</title>
<polygon fill="none" stroke="black" points="2364,-77 2214,-77 2214,-41 2364,-41 2364,-77"/>
<text text-anchor="middle" x="2289" y="-55.9" font-family="Times New Roman,serif" font-size="12.00">Verify_repayment_agreement</text>
</g>
<!-- 2146545772000 -->
<g id="node32" class="node">
<title>2146545772000</title>
<ellipse fill="none" stroke="black" cx="2427" cy="-59" rx="27" ry="27"/>
</g>
<!-- 2146545772768&#45;&gt;2146545772000 -->
<g id="edge4" class="edge">
<title>2146545772768&#45;&gt;2146545772000</title>
<path fill="none" stroke="black" d="M2364.37,-59C2373.15,-59 2381.79,-59 2389.69,-59"/>
<polygon fill="black" stroke="black" points="2389.96,-62.5 2399.96,-59 2389.96,-55.5 2389.96,-62.5"/>
</g>
<!-- 2146545652448 -->
<g id="node18" class="node">
<title>2146545652448</title>
<polygon fill="none" stroke="black" points="2878,-117 2728,-117 2728,-81 2878,-81 2878,-117"/>
<text text-anchor="middle" x="2803" y="-95.9" font-family="Times New Roman,serif" font-size="12.00">Loan__application_approved</text>
</g>
<!-- 2146545652448&#45;&gt;2146545691088 -->
<g id="edge6" class="edge">
<title>2146545652448&#45;&gt;2146545691088</title>
<path fill="none" stroke="black" d="M2878.1,-99C2886.86,-99 2895.53,-99 2903.56,-99"/>
<polygon fill="black" stroke="black" points="2903.71,-102.5 2913.71,-99 2903.71,-95.5 2903.71,-102.5"/>
</g>
<!-- 2146545772144 -->
<g id="node19" class="node">
<title>2146545772144</title>
<polygon fill="none" stroke="black" points="2075.5,-59 1950.5,-59 1950.5,-23 2075.5,-23 2075.5,-59"/>
<text text-anchor="middle" x="2013" y="-37.9" font-family="Times New Roman,serif" font-size="12.00">Send_acceptance_pack</text>
</g>
<!-- 2146545772144&#45;&gt;2146545771904 -->
<g id="edge14" class="edge">
<title>2146545772144&#45;&gt;2146545771904</title>
<path fill="none" stroke="black" d="M2075.63,-49.16C2088.66,-50.88 2101.99,-52.65 2113.71,-54.2"/>
<polygon fill="black" stroke="black" points="2113.59,-57.71 2123.96,-55.55 2114.5,-50.77 2113.59,-57.71"/>
</g>
<!-- 2146545652592 -->
<g id="node20" class="node">
<title>2146545652592</title>
<polygon fill="none" stroke="black" points="2602,-108 2490,-108 2490,-72 2602,-72 2602,-108"/>
<text text-anchor="middle" x="2546" y="-86.9" font-family="Times New Roman,serif" font-size="12.00">Approve_application</text>
</g>
<!-- 2146545651776 -->
<g id="node34" class="node">
<title>2146545651776</title>
<ellipse fill="none" stroke="black" cx="2665" cy="-99" rx="27" ry="27"/>
</g>
<!-- 2146545652592&#45;&gt;2146545651776 -->
<g id="edge5" class="edge">
<title>2146545652592&#45;&gt;2146545651776</title>
<path fill="none" stroke="black" d="M2602.07,-94.24C2610.73,-94.9 2619.48,-95.58 2627.58,-96.2"/>
<polygon fill="black" stroke="black" points="2627.53,-99.71 2637.77,-96.98 2628.07,-92.73 2627.53,-99.71"/>
</g>
<!-- 2146545653456 -->
<g id="node21" class="node">
<title>2146545653456</title>
<ellipse fill="none" stroke="black" cx="344" cy="-264" rx="27" ry="27"/>
<text text-anchor="start" x="333" y="-255.3" font-family="Times New Roman,serif" font-size="34.00">●</text>
</g>
<!-- 2146545653456&#45;&gt;2146545691568 -->
<g id="edge42" class="edge">
<title>2146545653456&#45;&gt;2146545691568</title>
<path fill="none" stroke="black" d="M371.22,-264C379.5,-264 389.13,-264 399.18,-264"/>
<polygon fill="black" stroke="black" points="399.33,-267.5 409.33,-264 399.33,-260.5 399.33,-267.5"/>
</g>
<!-- 2146545756000&#45;&gt;2146545756480 -->
<g id="edge20" class="edge">
<title>2146545756000&#45;&gt;2146545756480</title>
<path fill="none" stroke="black" d="M371.22,-82C385.22,-82 403.08,-82 420.31,-82"/>
<polygon fill="black" stroke="black" points="420.35,-85.5 430.35,-82 420.35,-78.5 420.35,-85.5"/>
</g>
<!-- 2146545756192&#45;&gt;2146545757872 -->
<g id="edge21" class="edge">
<title>2146545756192&#45;&gt;2146545757872</title>
<path fill="none" stroke="black" d="M978.82,-90.35C987.06,-93.12 996.59,-96.33 1006.18,-99.56"/>
<polygon fill="black" stroke="black" points="1005.14,-102.9 1015.74,-102.77 1007.38,-96.27 1005.14,-102.9"/>
</g>
<!-- 2146545756672&#45;&gt;2146545757248 -->
<g id="edge22" class="edge">
<title>2146545756672&#45;&gt;2146545757248</title>
<path fill="none" stroke="black" d="M371.22,-154C383.7,-154 399.23,-154 414.65,-154"/>
<polygon fill="black" stroke="black" points="414.74,-157.5 424.74,-154 414.74,-150.5 414.74,-157.5"/>
</g>
<!-- 2146545756864&#45;&gt;2146545757872 -->
<g id="edge23" class="edge">
<title>2146545756864&#45;&gt;2146545757872</title>
<path fill="none" stroke="black" d="M978.82,-145.65C987.06,-142.88 996.59,-139.67 1006.18,-136.44"/>
<polygon fill="black" stroke="black" points="1007.38,-139.73 1015.74,-133.23 1005.14,-133.1 1007.38,-139.73"/>
</g>
<!-- 2146545757056&#45;&gt;2146545757536 -->
<g id="edge24" class="edge">
<title>2146545757056&#45;&gt;2146545757536</title>
<path fill="none" stroke="black" d="M647.07,-154C668.84,-154 700.66,-154 728.32,-154"/>
<polygon fill="black" stroke="black" points="728.68,-157.5 738.68,-154 728.68,-150.5 728.68,-157.5"/>
</g>
<!-- 2146545755952&#45;&gt;2146545770656 -->
<g id="edge26" class="edge">
<title>2146545755952&#45;&gt;2146545770656</title>
<path fill="none" stroke="black" d="M1197.37,-124.05C1210.35,-127.14 1226.72,-131.05 1242.65,-134.85"/>
<polygon fill="black" stroke="black" points="1241.93,-138.27 1252.47,-137.19 1243.55,-131.46 1241.93,-138.27"/>
</g>
<!-- 2146545755952&#45;&gt;2146545771328 -->
<g id="edge25" class="edge">
<title>2146545755952&#45;&gt;2146545771328</title>
<path fill="none" stroke="black" d="M1197.68,-112.67C1205.48,-111.05 1214.49,-109.18 1223.88,-107.23"/>
<polygon fill="black" stroke="black" points="1224.69,-110.63 1233.77,-105.17 1223.26,-103.78 1224.69,-110.63"/>
</g>
<!-- 2146545758112&#45;&gt;2146545770944 -->
<g id="edge27" class="edge">
<title>2146545758112&#45;&gt;2146545770944</title>
<path fill="none" stroke="black" d="M1462.02,-154C1520.49,-154 1664.26,-154 1754.53,-154"/>
<polygon fill="black" stroke="black" points="1754.72,-157.5 1764.72,-154 1754.72,-150.5 1754.72,-157.5"/>
</g>
<!-- 2146545771136&#45;&gt;2146545771712 -->
<g id="edge28" class="edge">
<title>2146545771136&#45;&gt;2146545771712</title>
<path fill="none" stroke="black" d="M1462.04,-82C1469.59,-82 1478.37,-82 1487.82,-82"/>
<polygon fill="black" stroke="black" points="1487.89,-85.5 1497.89,-82 1487.89,-78.5 1487.89,-85.5"/>
</g>
<!-- 2146545771520&#45;&gt;2146545772432 -->
<g id="edge29" class="edge">
<title>2146545771520&#45;&gt;2146545772432</title>
<path fill="none" stroke="black" d="M1860.69,-83.92C1878.57,-85.23 1903.35,-87.04 1927.69,-88.82"/>
<polygon fill="black" stroke="black" points="1927.47,-92.32 1937.7,-89.56 1927.98,-85.34 1927.47,-92.32"/>
</g>
<!-- 2146545771520&#45;&gt;2146545772144 -->
<g id="edge30" class="edge">
<title>2146545771520&#45;&gt;2146545772144</title>
<path fill="none" stroke="black" d="M1859.93,-76.13C1880.94,-71.27 1911.83,-64.14 1940.28,-57.57"/>
<polygon fill="black" stroke="black" points="1941.27,-60.93 1950.23,-55.27 1939.7,-54.11 1941.27,-60.93"/>
</g>
<!-- 2146545771904&#45;&gt;2146545772768 -->
<g id="edge31" class="edge">
<title>2146545771904&#45;&gt;2146545772768</title>
<path fill="none" stroke="black" d="M2178.22,-59C2185.82,-59 2194.55,-59 2203.7,-59"/>
<polygon fill="black" stroke="black" points="2203.76,-62.5 2213.76,-59 2203.76,-55.5 2203.76,-62.5"/>
</g>
<!-- 2146545772000&#45;&gt;2146545773200 -->
<g id="edge33" class="edge">
<title>2146545772000&#45;&gt;2146545773200</title>
<path fill="none" stroke="black" d="M2453.39,-52.92C2462.55,-50.73 2473.32,-48.15 2484.2,-45.55"/>
<polygon fill="black" stroke="black" points="2485.27,-48.89 2494.18,-43.16 2483.64,-42.09 2485.27,-48.89"/>
</g>
<!-- 2146545772000&#45;&gt;2146545652592 -->
<g id="edge32" class="edge">
<title>2146545772000&#45;&gt;2146545652592</title>
<path fill="none" stroke="black" d="M2453.39,-65.73C2461.37,-67.84 2470.58,-70.28 2480.01,-72.78"/>
<polygon fill="black" stroke="black" points="2479.32,-76.22 2489.88,-75.4 2481.11,-69.45 2479.32,-76.22"/>
</g>
<!-- 2146545773008&#45;&gt;2146545773488 -->
<g id="edge34" class="edge">
<title>2146545773008&#45;&gt;2146545773488</title>
<path fill="none" stroke="black" d="M2692.22,-28.74C2700.38,-29.28 2709.86,-29.9 2719.75,-30.56"/>
<polygon fill="black" stroke="black" points="2719.55,-34.05 2729.76,-31.22 2720.01,-27.07 2719.55,-34.05"/>
</g>
<!-- 2146545651776&#45;&gt;2146545652448 -->
<g id="edge35" class="edge">
<title>2146545651776&#45;&gt;2146545652448</title>
<path fill="none" stroke="black" d="M2692.22,-99C2699.82,-99 2708.55,-99 2717.7,-99"/>
<polygon fill="black" stroke="black" points="2717.76,-102.5 2727.76,-99 2717.76,-95.5 2717.76,-102.5"/>
</g>
<!-- 2146545691856&#45;&gt;2146545692576 -->
<g id="edge36" class="edge">
<title>2146545691856&#45;&gt;2146545692576</title>
<path fill="none" stroke="black" d="M646.7,-259.62C654.35,-258.32 663.26,-256.81 672.8,-255.18"/>
<polygon fill="black" stroke="black" points="673.69,-258.58 682.96,-253.45 672.51,-251.68 673.69,-258.58"/>
</g>
<!-- 2146545692384&#45;&gt;2146545755040 -->
<g id="edge38" class="edge">
<title>2146545692384&#45;&gt;2146545755040</title>
<path fill="none" stroke="black" d="M52.8,-200.29C78.66,-191.2 119.45,-176.86 148.78,-166.55"/>
<polygon fill="black" stroke="black" points="149.98,-169.84 158.25,-163.22 147.66,-163.24 149.98,-169.84"/>
</g>
<!-- 2146545692384&#45;&gt;2146545754560 -->
<g id="edge37" class="edge">
<title>2146545692384&#45;&gt;2146545754560</title>
<path fill="none" stroke="black" d="M51.09,-221.69C75.13,-234.9 113.31,-255.88 142.67,-272.01"/>
<polygon fill="black" stroke="black" points="141.03,-275.1 151.48,-276.85 144.4,-268.97 141.03,-275.1"/>
</g>
<!-- 2146545754368&#45;&gt;2146545754848 -->
<g id="edge39" class="edge">
<title>2146545754368&#45;&gt;2146545754848</title>
<path fill="none" stroke="black" d="M371.22,-334.26C378.82,-333.76 387.55,-333.18 396.7,-332.58"/>
<polygon fill="black" stroke="black" points="397.01,-336.07 406.76,-331.91 396.55,-329.08 397.01,-336.07"/>
</g>
</g>
</svg>
