<?xml version="1.0" encoding="UTF-8" standalone="no"?>
<!DOCTYPE svg PUBLIC "-//W3C//DTD SVG 1.1//EN"
 "http://www.w3.org/Graphics/SVG/1.1/DTD/svg11.dtd">
<!-- Generated by graphviz version 2.49.0 (20210828.1703)
 -->
<!-- Title: imdf_net_1655279244.1898634 Pages: 1 -->
<svg width="3761pt" height="462pt"
 viewBox="0.00 0.00 3761.00 462.00" xmlns="http://www.w3.org/2000/svg" xmlns:xlink="http://www.w3.org/1999/xlink">
<g id="graph0" class="graph" transform="scale(1 1) rotate(0) translate(4 458)">
<title>imdf_net_1655279244.1898634</title>
<!-- 2146545933568 -->
<g id="node1" class="node">
<title>2146545933568</title>
<polygon fill="none" stroke="black" points="1353.5,-258 1252.5,-258 1252.5,-222 1353.5,-222 1353.5,-258"/>
<text text-anchor="middle" x="1303" y="-236.9" font-family="Times New Roman,serif" font-size="12.00">Reject_application</text>
</g>
<!-- 2146545932992 -->
<g id="node33" class="node">
<title>2146545932992</title>
<ellipse fill="none" stroke="black" cx="1435" cy="-245" rx="27" ry="27"/>
</g>
<!-- 2146545933568&#45;&gt;2146545932992 -->
<g id="edge21" class="edge">
<title>2146545933568&#45;&gt;2146545932992</title>
<path fill="none" stroke="black" d="M1353.52,-241.9C1368.27,-242.47 1384.15,-243.08 1397.88,-243.61"/>
<polygon fill="black" stroke="black" points="1397.77,-247.11 1407.9,-244 1398.04,-240.11 1397.77,-247.11"/>
</g>
<!-- 2146546107008 -->
<g id="node2" class="node">
<title>2146546107008</title>
<polygon fill="none" stroke="black" points="3379,-40 3233,-40 3233,-4 3379,-4 3379,-40"/>
<text text-anchor="middle" x="3306" y="-18.9" font-family="Times New Roman,serif" font-size="12.00">Loan__application_canceled</text>
</g>
<!-- 2146545885440 -->
<g id="node48" class="node">
<title>2146545885440</title>
<ellipse fill="none" stroke="black" cx="3722" cy="-123" rx="27" ry="27"/>
<ellipse fill="none" stroke="black" cx="3722" cy="-123" rx="31" ry="31"/>
<text text-anchor="start" x="3712" y="-114.9" font-family="Times New Roman,serif" font-size="32.00">■</text>
</g>
<!-- 2146546107008&#45;&gt;2146545885440 -->
<g id="edge22" class="edge">
<title>2146546107008&#45;&gt;2146545885440</title>
<path fill="none" stroke="black" d="M3379.01,-9.95C3452.6,-1.21 3568.1,2.39 3655,-42 3674.4,-51.91 3690.12,-70.34 3701.34,-87.12"/>
<polygon fill="black" stroke="black" points="3698.48,-89.14 3706.8,-95.69 3704.38,-85.38 3698.48,-89.14"/>
</g>
<!-- 2146545606272 -->
<g id="node3" class="node">
<title>2146545606272</title>
<polygon fill="black" stroke="black" points="3607,-87 3553,-87 3553,-51 3607,-51 3607,-87"/>
</g>
<!-- 2146546107728 -->
<g id="node39" class="node">
<title>2146546107728</title>
<ellipse fill="none" stroke="black" cx="2656" cy="-101" rx="27" ry="27"/>
</g>
<!-- 2146545606272&#45;&gt;2146546107728 -->
<g id="edge51" class="edge">
<title>2146545606272&#45;&gt;2146546107728</title>
<path fill="none" stroke="black" d="M3552.74,-68.84C3504.21,-68.56 3397.2,-68 3307,-68 2893,-68 2893,-68 2893,-68 2821.27,-68 2738.44,-83.14 2692.46,-92.91"/>
<polygon fill="black" stroke="black" points="2691.71,-89.49 2682.68,-95.02 2693.19,-96.33 2691.71,-89.49"/>
</g>
<!-- 2146545932944 -->
<g id="node4" class="node">
<title>2146545932944</title>
<polygon fill="none" stroke="black" points="2088,-175 1938,-175 1938,-139 2088,-139 2088,-175"/>
<text text-anchor="middle" x="2013" y="-153.9" font-family="Times New Roman,serif" font-size="12.00">Send_home_insurance_quote</text>
</g>
<!-- 2146545934288 -->
<g id="node36" class="node">
<title>2146545934288</title>
<ellipse fill="none" stroke="black" cx="2151" cy="-103" rx="27" ry="27"/>
</g>
<!-- 2146545932944&#45;&gt;2146545934288 -->
<g id="edge12" class="edge">
<title>2146545932944&#45;&gt;2146545934288</title>
<path fill="none" stroke="black" d="M2064.71,-138.96C2072.54,-136.04 2080.51,-132.99 2088,-130 2097.39,-126.25 2107.47,-121.97 2116.72,-117.93"/>
<polygon fill="black" stroke="black" points="2118.25,-121.09 2126,-113.86 2115.44,-114.68 2118.25,-121.09"/>
</g>
<!-- 2146545932176 -->
<g id="node5" class="node">
<title>2146545932176</title>
<polygon fill="none" stroke="black" points="1108,-227 1016,-227 1016,-191 1108,-191 1108,-227"/>
<text text-anchor="middle" x="1062" y="-205.9" font-family="Times New Roman,serif" font-size="12.00">Assess_eligibility</text>
</g>
<!-- 2146545888704 -->
<g id="node32" class="node">
<title>2146545888704</title>
<ellipse fill="none" stroke="black" cx="1171" cy="-209" rx="27" ry="27"/>
</g>
<!-- 2146545932176&#45;&gt;2146545888704 -->
<g id="edge11" class="edge">
<title>2146545932176&#45;&gt;2146545888704</title>
<path fill="none" stroke="black" d="M1108.07,-209C1116.66,-209 1125.55,-209 1133.83,-209"/>
<polygon fill="black" stroke="black" points="1133.9,-212.5 1143.9,-209 1133.9,-205.5 1133.9,-212.5"/>
</g>
<!-- 2146545932560 -->
<g id="node6" class="node">
<title>2146545932560</title>
<polygon fill="none" stroke="black" points="1372,-200 1234,-200 1234,-164 1372,-164 1372,-200"/>
<text text-anchor="middle" x="1303" y="-178.9" font-family="Times New Roman,serif" font-size="12.00">Prepare_acceptance_pack</text>
</g>
<!-- 2146545931984 -->
<g id="node34" class="node">
<title>2146545931984</title>
<ellipse fill="none" stroke="black" cx="1435" cy="-173" rx="27" ry="27"/>
</g>
<!-- 2146545932560&#45;&gt;2146545931984 -->
<g id="edge13" class="edge">
<title>2146545932560&#45;&gt;2146545931984</title>
<path fill="none" stroke="black" d="M1372.05,-177.29C1380.93,-176.67 1389.74,-176.06 1397.81,-175.51"/>
<polygon fill="black" stroke="black" points="1398.19,-178.99 1407.93,-174.81 1397.71,-172 1398.19,-178.99"/>
</g>
<!-- 2146545933712 -->
<g id="node7" class="node">
<title>2146545933712</title>
<polygon fill="none" stroke="black" points="1729,-180 1498,-180 1498,-144 1729,-144 1729,-180"/>
<text text-anchor="middle" x="1613.5" y="-158.9" font-family="Times New Roman,serif" font-size="12.00">Check_if_home_insurance_quote_is_requested</text>
</g>
<!-- 2146545933136 -->
<g id="node35" class="node">
<title>2146545933136</title>
<ellipse fill="none" stroke="black" cx="1833.5" cy="-157" rx="27" ry="27"/>
</g>
<!-- 2146545933712&#45;&gt;2146545933136 -->
<g id="edge8" class="edge">
<title>2146545933712&#45;&gt;2146545933136</title>
<path fill="none" stroke="black" d="M1729.25,-159.37C1753.54,-158.81 1777.45,-158.26 1796.14,-157.83"/>
<polygon fill="black" stroke="black" points="1796.31,-161.33 1806.22,-157.6 1796.15,-154.33 1796.31,-161.33"/>
</g>
<!-- 2146546108448 -->
<g id="node8" class="node">
<title>2146546108448</title>
<polygon fill="none" stroke="black" points="2831,-141 2719,-141 2719,-105 2831,-105 2831,-141"/>
<text text-anchor="middle" x="2775" y="-119.9" font-family="Times New Roman,serif" font-size="12.00">Approve_application</text>
</g>
<!-- 2146546109312 -->
<g id="node41" class="node">
<title>2146546109312</title>
<ellipse fill="none" stroke="black" cx="2894" cy="-123" rx="27" ry="27"/>
</g>
<!-- 2146546108448&#45;&gt;2146546109312 -->
<g id="edge4" class="edge">
<title>2146546108448&#45;&gt;2146546109312</title>
<path fill="none" stroke="black" d="M2831.07,-123C2839.73,-123 2848.48,-123 2856.58,-123"/>
<polygon fill="black" stroke="black" points="2856.77,-126.5 2866.77,-123 2856.77,-119.5 2856.77,-126.5"/>
</g>
<!-- 2146546109984 -->
<g id="node43" class="node">
<title>2146546109984</title>
<ellipse fill="none" stroke="black" cx="2894" cy="-195" rx="27" ry="27"/>
</g>
<!-- 2146546108448&#45;&gt;2146546109984 -->
<g id="edge5" class="edge">
<title>2146546108448&#45;&gt;2146546109984</title>
<path fill="none" stroke="black" d="M2805.52,-141.17C2822.7,-151.74 2844.34,-165.06 2861.8,-175.8"/>
<polygon fill="black" stroke="black" points="2860.15,-178.89 2870.5,-181.15 2863.82,-172.93 2860.15,-178.89"/>
</g>
<!-- 2146545932080 -->
<g id="node9" class="node">
<title>2146545932080</title>
<polygon fill="none" stroke="black" points="2075.5,-121 1950.5,-121 1950.5,-85 2075.5,-85 2075.5,-121"/>
<text text-anchor="middle" x="2013" y="-99.9" font-family="Times New Roman,serif" font-size="12.00">Send_acceptance_pack</text>
</g>
<!-- 2146545932080&#45;&gt;2146545934288 -->
<g id="edge2" class="edge">
<title>2146545932080&#45;&gt;2146545934288</title>
<path fill="none" stroke="black" d="M2075.63,-103C2088.66,-103 2101.99,-103 2113.71,-103"/>
<polygon fill="black" stroke="black" points="2113.96,-106.5 2123.96,-103 2113.96,-99.5 2113.96,-106.5"/>
</g>
<!-- 2146545888176 -->
<g id="node10" class="node">
<title>2146545888176</title>
<polygon fill="none" stroke="black" points="557,-436 407,-436 407,-400 557,-400 557,-436"/>
<text text-anchor="middle" x="482" y="-414.9" font-family="Times New Roman,serif" font-size="12.00">Receive_updated_application</text>
</g>
<!-- 2146545886592 -->
<g id="node45" class="node">
<title>2146545886592</title>
<ellipse fill="none" stroke="black" cx="620" cy="-355" rx="27" ry="27"/>
</g>
<!-- 2146545888176&#45;&gt;2146545886592 -->
<g id="edge17" class="edge">
<title>2146545888176&#45;&gt;2146545886592</title>
<path fill="none" stroke="black" d="M521.97,-399.95C542.12,-390.62 566.44,-379.35 585.7,-370.43"/>
<polygon fill="black" stroke="black" points="587.38,-373.51 594.98,-366.13 584.44,-367.15 587.38,-373.51"/>
</g>
<!-- 2146545930928 -->
<g id="node11" class="node">
<title>2146545930928</title>
<polygon fill="none" stroke="black" points="539,-263 425,-263 425,-227 539,-227 539,-263"/>
<text text-anchor="middle" x="482" y="-241.9" font-family="Times New Roman,serif" font-size="12.00">Check_credit_history</text>
</g>
<!-- 2146545930736 -->
<g id="node31" class="node">
<title>2146545930736</title>
<ellipse fill="none" stroke="black" cx="620" cy="-245" rx="27" ry="27"/>
</g>
<!-- 2146545930928&#45;&gt;2146545930736 -->
<g id="edge7" class="edge">
<title>2146545930928&#45;&gt;2146545930736</title>
<path fill="none" stroke="black" d="M539.1,-245C553.77,-245 569.19,-245 582.54,-245"/>
<polygon fill="black" stroke="black" points="582.74,-248.5 592.74,-245 582.74,-241.5 582.74,-248.5"/>
</g>
<!-- 2146545931312 -->
<g id="node12" class="node">
<title>2146545931312</title>
<polygon fill="none" stroke="black" points="1902,-265 1765,-265 1765,-229 1902,-229 1902,-265"/>
<text text-anchor="middle" x="1833.5" y="-243.9" font-family="Times New Roman,serif" font-size="12.00">Loan_application_rejected</text>
</g>
<!-- 2146545931312&#45;&gt;2146545885440 -->
<g id="edge6" class="edge">
<title>2146545931312&#45;&gt;2146545885440</title>
<path fill="none" stroke="black" d="M1902.2,-248.02C1966.08,-248.89 2064.55,-250 2150,-250 2150,-250 2150,-250 3443,-250 3539.81,-250 3639.83,-185.5 3689.31,-148.43"/>
<polygon fill="black" stroke="black" points="3691.54,-151.13 3697.38,-142.29 3687.31,-145.56 3691.54,-151.13"/>
</g>
<!-- 2146546107824 -->
<g id="node13" class="node">
<title>2146546107824</title>
<polygon fill="black" stroke="black" points="2568.5,-119 2514.5,-119 2514.5,-83 2568.5,-83 2568.5,-119"/>
</g>
<!-- 2146546107824&#45;&gt;2146546107728 -->
<g id="edge24" class="edge">
<title>2146546107824&#45;&gt;2146546107728</title>
<path fill="none" stroke="black" d="M2568.59,-101C2583.39,-101 2602.15,-101 2618.41,-101"/>
<polygon fill="black" stroke="black" points="2618.66,-104.5 2628.66,-101 2618.66,-97.5 2618.66,-104.5"/>
</g>
<!-- 2146546108208 -->
<g id="node14" class="node">
<title>2146546108208</title>
<polygon fill="none" stroke="black" points="3655,-141 3505,-141 3505,-105 3655,-105 3655,-141"/>
<text text-anchor="middle" x="3580" y="-119.9" font-family="Times New Roman,serif" font-size="12.00">Loan__application_approved</text>
</g>
<!-- 2146546108208&#45;&gt;2146545885440 -->
<g id="edge19" class="edge">
<title>2146546108208&#45;&gt;2146545885440</title>
<path fill="none" stroke="black" d="M3655.1,-123C3663.86,-123 3672.53,-123 3680.56,-123"/>
<polygon fill="black" stroke="black" points="3680.71,-126.5 3690.71,-123 3680.71,-119.5 3680.71,-126.5"/>
</g>
<!-- 2146545886016 -->
<g id="node15" class="node">
<title>2146545886016</title>
<polygon fill="none" stroke="black" points="554.5,-373 409.5,-373 409.5,-337 554.5,-337 554.5,-373"/>
<text text-anchor="middle" x="482" y="-351.9" font-family="Times New Roman,serif" font-size="12.00">Loan__application_received</text>
</g>
<!-- 2146545886016&#45;&gt;2146545886592 -->
<g id="edge9" class="edge">
<title>2146545886016&#45;&gt;2146545886592</title>
<path fill="none" stroke="black" d="M554.58,-355C564.32,-355 573.96,-355 582.7,-355"/>
<polygon fill="black" stroke="black" points="582.85,-358.5 592.85,-355 582.85,-351.5 582.85,-358.5"/>
</g>
<!-- 2146545886544 -->
<g id="node16" class="node">
<title>2146545886544</title>
<polygon fill="none" stroke="black" points="890,-345 683,-345 683,-309 890,-309 890,-345"/>
<text text-anchor="middle" x="786.5" y="-323.9" font-family="Times New Roman,serif" font-size="12.00">Check__application__form_completeness</text>
</g>
<!-- 2146545886160 -->
<g id="node46" class="node">
<title>2146545886160</title>
<ellipse fill="none" stroke="black" cx="27" cy="-300" rx="27" ry="27"/>
</g>
<!-- 2146545886544&#45;&gt;2146545886160 -->
<g id="edge10" class="edge">
<title>2146545886544&#45;&gt;2146545886160</title>
<path fill="none" stroke="black" d="M682.79,-313.26C624.34,-306.59 549.7,-300 483,-300 343,-300 343,-300 343,-300 242.09,-300 123,-300 64.36,-300"/>
<polygon fill="black" stroke="black" points="64.14,-296.5 54.14,-300 64.14,-303.5 64.14,-296.5"/>
</g>
<!-- 2146545889232 -->
<g id="node17" class="node">
<title>2146545889232</title>
<polygon fill="none" stroke="black" points="533.5,-191 430.5,-191 430.5,-155 533.5,-155 533.5,-191"/>
<text text-anchor="middle" x="482" y="-169.9" font-family="Times New Roman,serif" font-size="12.00">Appraise_property</text>
</g>
<!-- 2146545888944 -->
<g id="node28" class="node">
<title>2146545888944</title>
<ellipse fill="none" stroke="black" cx="953" cy="-173" rx="27" ry="27"/>
</g>
<!-- 2146545889232&#45;&gt;2146545888944 -->
<g id="edge23" class="edge">
<title>2146545889232&#45;&gt;2146545888944</title>
<path fill="none" stroke="black" d="M533.64,-173C628.94,-173 832.83,-173 915.78,-173"/>
<polygon fill="black" stroke="black" points="915.97,-176.5 925.97,-173 915.97,-169.5 915.97,-176.5"/>
</g>
<!-- 2146545931216 -->
<g id="node18" class="node">
<title>2146545931216</title>
<polygon fill="none" stroke="black" points="834,-263 739,-263 739,-227 834,-227 834,-263"/>
<text text-anchor="middle" x="786.5" y="-241.9" font-family="Times New Roman,serif" font-size="12.00">Assess_loan_risk</text>
</g>
<!-- 2146545930544 -->
<g id="node30" class="node">
<title>2146545930544</title>
<ellipse fill="none" stroke="black" cx="953" cy="-245" rx="27" ry="27"/>
</g>
<!-- 2146545931216&#45;&gt;2146545930544 -->
<g id="edge20" class="edge">
<title>2146545931216&#45;&gt;2146545930544</title>
<path fill="none" stroke="black" d="M834.2,-245C860.01,-245 891.62,-245 915.59,-245"/>
<polygon fill="black" stroke="black" points="915.68,-248.5 925.68,-245 915.68,-241.5 915.68,-248.5"/>
</g>
<!-- 2146546110416 -->
<g id="node19" class="node">
<title>2146546110416</title>
<polygon fill="none" stroke="black" points="3107,-213 2957,-213 2957,-177 3107,-177 3107,-213"/>
<text text-anchor="middle" x="3032" y="-191.9" font-family="Times New Roman,serif" font-size="12.00">Verify_repayment_agreement</text>
</g>
<!-- 2146546110176 -->
<g id="node44" class="node">
<title>2146546110176</title>
<ellipse fill="none" stroke="black" cx="3170" cy="-195" rx="27" ry="27"/>
</g>
<!-- 2146546110416&#45;&gt;2146546110176 -->
<g id="edge14" class="edge">
<title>2146546110416&#45;&gt;2146546110176</title>
<path fill="none" stroke="black" d="M3107.37,-195C3116.15,-195 3124.79,-195 3132.69,-195"/>
<polygon fill="black" stroke="black" points="3132.96,-198.5 3142.96,-195 3132.96,-191.5 3132.96,-198.5"/>
</g>
<!-- 2146545887072 -->
<g id="node20" class="node">
<title>2146545887072</title>
<polygon fill="black" stroke="black" points="212.5,-263 158.5,-263 158.5,-227 212.5,-227 212.5,-263"/>
</g>
<!-- 2146545888752 -->
<g id="node27" class="node">
<title>2146545888752</title>
<ellipse fill="none" stroke="black" cx="344" cy="-173" rx="27" ry="27"/>
</g>
<!-- 2146545887072&#45;&gt;2146545888752 -->
<g id="edge52" class="edge">
<title>2146545887072&#45;&gt;2146545888752</title>
<path fill="none" stroke="black" d="M212.69,-232.95C239.43,-220.65 281.01,-201.52 309.98,-188.19"/>
<polygon fill="black" stroke="black" points="311.66,-191.27 319.29,-183.91 308.74,-184.91 311.66,-191.27"/>
</g>
<!-- 2146545930352 -->
<g id="node29" class="node">
<title>2146545930352</title>
<ellipse fill="none" stroke="black" cx="344" cy="-245" rx="27" ry="27"/>
</g>
<!-- 2146545887072&#45;&gt;2146545930352 -->
<g id="edge53" class="edge">
<title>2146545887072&#45;&gt;2146545930352</title>
<path fill="none" stroke="black" d="M212.69,-245C238.5,-245 278.13,-245 306.91,-245"/>
<polygon fill="black" stroke="black" points="306.98,-248.5 316.98,-245 306.98,-241.5 306.98,-248.5"/>
</g>
<!-- 2146545934048 -->
<g id="node21" class="node">
<title>2146545934048</title>
<polygon fill="none" stroke="black" points="2364,-120 2214,-120 2214,-84 2364,-84 2364,-120"/>
<text text-anchor="middle" x="2289" y="-98.9" font-family="Times New Roman,serif" font-size="12.00">Verify_repayment_agreement</text>
</g>
<!-- 2146545931744 -->
<g id="node37" class="node">
<title>2146545931744</title>
<ellipse fill="none" stroke="black" cx="2427" cy="-101" rx="27" ry="27"/>
</g>
<!-- 2146545934048&#45;&gt;2146545931744 -->
<g id="edge3" class="edge">
<title>2146545934048&#45;&gt;2146545931744</title>
<path fill="none" stroke="black" d="M2364.37,-101.45C2373.15,-101.39 2381.79,-101.33 2389.69,-101.27"/>
<polygon fill="black" stroke="black" points="2389.98,-104.77 2399.96,-101.19 2389.93,-97.77 2389.98,-104.77"/>
</g>
<!-- 2146546106720 -->
<g id="node22" class="node">
<title>2146546106720</title>
<polygon fill="none" stroke="black" points="2593,-54 2490,-54 2490,-18 2593,-18 2593,-54"/>
<text text-anchor="middle" x="2541.5" y="-32.9" font-family="Times New Roman,serif" font-size="12.00">Cancel_application</text>
</g>
<!-- 2146546106576 -->
<g id="node38" class="node">
<title>2146546106576</title>
<ellipse fill="none" stroke="black" cx="2656" cy="-27" rx="27" ry="27"/>
</g>
<!-- 2146546106720&#45;&gt;2146546106576 -->
<g id="edge1" class="edge">
<title>2146546106720&#45;&gt;2146546106576</title>
<path fill="none" stroke="black" d="M2593.16,-31.95C2601.85,-31.25 2610.72,-30.54 2618.93,-29.89"/>
<polygon fill="black" stroke="black" points="2619.23,-33.37 2628.92,-29.09 2618.67,-26.4 2619.23,-33.37"/>
</g>
<!-- 2146546109792 -->
<g id="node23" class="node">
<title>2146546109792</title>
<polygon fill="none" stroke="black" points="3101,-141 2963,-141 2963,-105 3101,-105 3101,-141"/>
<text text-anchor="middle" x="3032" y="-119.9" font-family="Times New Roman,serif" font-size="12.00">Prepare_acceptance_pack</text>
</g>
<!-- 2146546109504 -->
<g id="node42" class="node">
<title>2146546109504</title>
<ellipse fill="none" stroke="black" cx="3170" cy="-123" rx="27" ry="27"/>
</g>
<!-- 2146546109792&#45;&gt;2146546109504 -->
<g id="edge18" class="edge">
<title>2146546109792&#45;&gt;2146546109504</title>
<path fill="none" stroke="black" d="M3101.4,-123C3112.28,-123 3123.15,-123 3132.89,-123"/>
<polygon fill="black" stroke="black" points="3132.96,-126.5 3142.96,-123 3132.96,-119.5 3132.96,-126.5"/>
</g>
<!-- 2146545887984 -->
<g id="node24" class="node">
<title>2146545887984</title>
<polygon fill="none" stroke="black" points="281,-404 90,-404 90,-368 281,-368 281,-404"/>
<text text-anchor="middle" x="185.5" y="-382.9" font-family="Times New Roman,serif" font-size="12.00">Return_application_back_to_applicant</text>
</g>
<!-- 2146545887840 -->
<g id="node47" class="node">
<title>2146545887840</title>
<ellipse fill="none" stroke="black" cx="344" cy="-427" rx="27" ry="27"/>
</g>
<!-- 2146545887984&#45;&gt;2146545887840 -->
<g id="edge15" class="edge">
<title>2146545887984&#45;&gt;2146545887840</title>
<path fill="none" stroke="black" d="M255.6,-404.1C273.56,-408.81 292.18,-413.69 307.59,-417.72"/>
<polygon fill="black" stroke="black" points="307.14,-421.22 317.7,-420.37 308.91,-414.45 307.14,-421.22"/>
</g>
<!-- 2146546109168 -->
<g id="node25" class="node">
<title>2146546109168</title>
<polygon fill="none" stroke="black" points="3350.5,-141 3261.5,-141 3261.5,-105 3350.5,-105 3350.5,-141"/>
<text text-anchor="middle" x="3306" y="-119.9" font-family="Times New Roman,serif" font-size="12.00">Added_Acitvity</text>
</g>
<!-- 2146546108160 -->
<g id="node40" class="node">
<title>2146546108160</title>
<ellipse fill="none" stroke="black" cx="3442" cy="-123" rx="27" ry="27"/>
</g>
<!-- 2146546109168&#45;&gt;2146546108160 -->
<g id="edge16" class="edge">
<title>2146546109168&#45;&gt;2146546108160</title>
<path fill="none" stroke="black" d="M3350.51,-123C3367.93,-123 3387.79,-123 3404.45,-123"/>
<polygon fill="black" stroke="black" points="3404.88,-126.5 3414.88,-123 3404.88,-119.5 3404.88,-126.5"/>
</g>
<!-- 2146545885248 -->
<g id="node26" class="node">
<title>2146545885248</title>
<ellipse fill="none" stroke="black" cx="344" cy="-355" rx="27" ry="27"/>
<text text-anchor="start" x="333" y="-346.3" font-family="Times New Roman,serif" font-size="34.00">●</text>
</g>
<!-- 2146545885248&#45;&gt;2146545886016 -->
<g id="edge54" class="edge">
<title>2146545885248&#45;&gt;2146545886016</title>
<path fill="none" stroke="black" d="M371.22,-355C379.5,-355 389.13,-355 399.18,-355"/>
<polygon fill="black" stroke="black" points="399.33,-358.5 409.33,-355 399.33,-351.5 399.33,-358.5"/>
</g>
<!-- 2146545888752&#45;&gt;2146545889232 -->
<g id="edge25" class="edge">
<title>2146545888752&#45;&gt;2146545889232</title>
<path fill="none" stroke="black" d="M371.22,-173C385.22,-173 403.08,-173 420.31,-173"/>
<polygon fill="black" stroke="black" points="420.35,-176.5 430.35,-173 420.35,-169.5 420.35,-176.5"/>
</g>
<!-- 2146545888944&#45;&gt;2146545932176 -->
<g id="edge26" class="edge">
<title>2146545888944&#45;&gt;2146545932176</title>
<path fill="none" stroke="black" d="M978.82,-181.35C987.06,-184.12 996.59,-187.33 1006.18,-190.56"/>
<polygon fill="black" stroke="black" points="1005.14,-193.9 1015.74,-193.77 1007.38,-187.27 1005.14,-193.9"/>
</g>
<!-- 2146545930352&#45;&gt;2146545930928 -->
<g id="edge27" class="edge">
<title>2146545930352&#45;&gt;2146545930928</title>
<path fill="none" stroke="black" d="M371.22,-245C383.7,-245 399.23,-245 414.65,-245"/>
<polygon fill="black" stroke="black" points="414.74,-248.5 424.74,-245 414.74,-241.5 414.74,-248.5"/>
</g>
<!-- 2146545930544&#45;&gt;2146545932176 -->
<g id="edge28" class="edge">
<title>2146545930544&#45;&gt;2146545932176</title>
<path fill="none" stroke="black" d="M978.82,-236.65C987.06,-233.88 996.59,-230.67 1006.18,-227.44"/>
<polygon fill="black" stroke="black" points="1007.38,-230.73 1015.74,-224.23 1005.14,-224.1 1007.38,-230.73"/>
</g>
<!-- 2146545930736&#45;&gt;2146545931216 -->
<g id="edge29" class="edge">
<title>2146545930736&#45;&gt;2146545931216</title>
<path fill="none" stroke="black" d="M647.07,-245C668.84,-245 700.66,-245 728.32,-245"/>
<polygon fill="black" stroke="black" points="728.68,-248.5 738.68,-245 728.68,-241.5 728.68,-248.5"/>
</g>
<!-- 2146545888704&#45;&gt;2146545933568 -->
<g id="edge31" class="edge">
<title>2146545888704&#45;&gt;2146545933568</title>
<path fill="none" stroke="black" d="M1197.37,-215.05C1210.35,-218.14 1226.72,-222.05 1242.65,-225.85"/>
<polygon fill="black" stroke="black" points="1241.93,-229.27 1252.47,-228.19 1243.55,-222.46 1241.93,-229.27"/>
</g>
<!-- 2146545888704&#45;&gt;2146545932560 -->
<g id="edge30" class="edge">
<title>2146545888704&#45;&gt;2146545932560</title>
<path fill="none" stroke="black" d="M1197.68,-203.67C1205.48,-202.05 1214.49,-200.18 1223.88,-198.23"/>
<polygon fill="black" stroke="black" points="1224.69,-201.63 1233.77,-196.17 1223.26,-194.78 1224.69,-201.63"/>
</g>
<!-- 2146545932992&#45;&gt;2146545931312 -->
<g id="edge32" class="edge">
<title>2146545932992&#45;&gt;2146545931312</title>
<path fill="none" stroke="black" d="M1462.02,-245.13C1520.49,-245.43 1664.26,-246.15 1754.53,-246.61"/>
<polygon fill="black" stroke="black" points="1754.7,-250.11 1764.72,-246.66 1754.74,-243.11 1754.7,-250.11"/>
</g>
<!-- 2146545931984&#45;&gt;2146545933712 -->
<g id="edge33" class="edge">
<title>2146545931984&#45;&gt;2146545933712</title>
<path fill="none" stroke="black" d="M1462.04,-171.38C1469.59,-170.91 1478.37,-170.36 1487.82,-169.77"/>
<polygon fill="black" stroke="black" points="1488.13,-173.26 1497.89,-169.14 1487.7,-166.27 1488.13,-173.26"/>
</g>
<!-- 2146545933136&#45;&gt;2146545932944 -->
<g id="edge35" class="edge">
<title>2146545933136&#45;&gt;2146545932944</title>
<path fill="none" stroke="black" d="M1860.69,-157C1878.57,-157 1903.35,-157 1927.69,-157"/>
<polygon fill="black" stroke="black" points="1927.7,-160.5 1937.7,-157 1927.7,-153.5 1927.7,-160.5"/>
</g>
<!-- 2146545933136&#45;&gt;2146545932080 -->
<g id="edge34" class="edge">
<title>2146545933136&#45;&gt;2146545932080</title>
<path fill="none" stroke="black" d="M1859.55,-149.38C1881.19,-142.8 1913.5,-132.97 1942.81,-124.05"/>
<polygon fill="black" stroke="black" points="1944.07,-127.32 1952.62,-121.06 1942.04,-120.63 1944.07,-127.32"/>
</g>
<!-- 2146545934288&#45;&gt;2146545934048 -->
<g id="edge36" class="edge">
<title>2146545934288&#45;&gt;2146545934048</title>
<path fill="none" stroke="black" d="M2178.22,-102.81C2185.82,-102.75 2194.55,-102.69 2203.7,-102.62"/>
<polygon fill="black" stroke="black" points="2203.78,-106.12 2213.76,-102.55 2203.73,-99.12 2203.78,-106.12"/>
</g>
<!-- 2146545931744&#45;&gt;2146546107824 -->
<g id="edge38" class="edge">
<title>2146545931744&#45;&gt;2146546107824</title>
<path fill="none" stroke="black" d="M2454.09,-101C2468.89,-101 2487.65,-101 2503.91,-101"/>
<polygon fill="black" stroke="black" points="2504.16,-104.5 2514.16,-101 2504.16,-97.5 2504.16,-104.5"/>
</g>
<!-- 2146545931744&#45;&gt;2146546106720 -->
<g id="edge37" class="edge">
<title>2146545931744&#45;&gt;2146546106720</title>
<path fill="none" stroke="black" d="M2450.77,-87.85C2464.96,-79.65 2483.62,-68.86 2500.25,-59.25"/>
<polygon fill="black" stroke="black" points="2502.33,-62.09 2509.24,-54.06 2498.83,-56.03 2502.33,-62.09"/>
</g>
<!-- 2146546106576&#45;&gt;2146546107008 -->
<g id="edge39" class="edge">
<title>2146546106576&#45;&gt;2146546107008</title>
<path fill="none" stroke="black" d="M2683.19,-26.82C2726.74,-26.53 2816.79,-26 2893,-26 2893,-26 2893,-26 3033,-26 3096.67,-26 3168.71,-24.89 3222.65,-23.84"/>
<polygon fill="black" stroke="black" points="3222.92,-27.34 3232.85,-23.64 3222.78,-20.34 3222.92,-27.34"/>
</g>
<!-- 2146546107728&#45;&gt;2146546108448 -->
<g id="edge40" class="edge">
<title>2146546107728&#45;&gt;2146546108448</title>
<path fill="none" stroke="black" d="M2682.68,-105.83C2690.48,-107.3 2699.44,-108.98 2708.63,-110.71"/>
<polygon fill="black" stroke="black" points="2708.17,-114.18 2718.64,-112.59 2709.46,-107.3 2708.17,-114.18"/>
</g>
<!-- 2146546108160&#45;&gt;2146545606272 -->
<g id="edge42" class="edge">
<title>2146546108160&#45;&gt;2146545606272</title>
<path fill="none" stroke="black" d="M3467,-112.14C3478.44,-107.07 3492.35,-101.06 3505,-96 3517.42,-91.03 3531.16,-85.92 3543.39,-81.5"/>
<polygon fill="black" stroke="black" points="3544.59,-84.78 3552.83,-78.11 3542.23,-78.19 3544.59,-84.78"/>
</g>
<!-- 2146546108160&#45;&gt;2146546108208 -->
<g id="edge41" class="edge">
<title>2146546108160&#45;&gt;2146546108208</title>
<path fill="none" stroke="black" d="M3469.22,-123C3476.82,-123 3485.55,-123 3494.7,-123"/>
<polygon fill="black" stroke="black" points="3494.76,-126.5 3504.76,-123 3494.76,-119.5 3494.76,-126.5"/>
</g>
<!-- 2146546109312&#45;&gt;2146546109792 -->
<g id="edge43" class="edge">
<title>2146546109312&#45;&gt;2146546109792</title>
<path fill="none" stroke="black" d="M2921.22,-123C2930.48,-123 2941.41,-123 2952.74,-123"/>
<polygon fill="black" stroke="black" points="2952.76,-126.5 2962.76,-123 2952.76,-119.5 2952.76,-126.5"/>
</g>
<!-- 2146546109504&#45;&gt;2146546109168 -->
<g id="edge44" class="edge">
<title>2146546109504&#45;&gt;2146546109168</title>
<path fill="none" stroke="black" d="M3197.15,-123C3212.51,-123 3232.5,-123 3251.09,-123"/>
<polygon fill="black" stroke="black" points="3251.24,-126.5 3261.24,-123 3251.24,-119.5 3251.24,-126.5"/>
</g>
<!-- 2146546109984&#45;&gt;2146546110416 -->
<g id="edge45" class="edge">
<title>2146546109984&#45;&gt;2146546110416</title>
<path fill="none" stroke="black" d="M2921.22,-195C2928.82,-195 2937.55,-195 2946.7,-195"/>
<polygon fill="black" stroke="black" points="2946.76,-198.5 2956.76,-195 2946.76,-191.5 2946.76,-198.5"/>
</g>
<!-- 2146546110176&#45;&gt;2146546109168 -->
<g id="edge46" class="edge">
<title>2146546110176&#45;&gt;2146546109168</title>
<path fill="none" stroke="black" d="M3194.04,-182.62C3212.78,-172.55 3239.74,-158.06 3262.4,-145.89"/>
<polygon fill="black" stroke="black" points="3264.33,-148.83 3271.48,-141.01 3261.02,-142.66 3264.33,-148.83"/>
</g>
<!-- 2146545886592&#45;&gt;2146545886544 -->
<g id="edge47" class="edge">
<title>2146545886592&#45;&gt;2146545886544</title>
<path fill="none" stroke="black" d="M646.7,-350.62C654.35,-349.32 663.26,-347.81 672.8,-346.18"/>
<polygon fill="black" stroke="black" points="673.69,-349.58 682.96,-344.45 672.51,-342.68 673.69,-349.58"/>
</g>
<!-- 2146545886160&#45;&gt;2146545887072 -->
<g id="edge49" class="edge">
<title>2146545886160&#45;&gt;2146545887072</title>
<path fill="none" stroke="black" d="M52.8,-291.29C78.66,-282.2 119.45,-267.86 148.78,-257.55"/>
<polygon fill="black" stroke="black" points="149.98,-260.84 158.25,-254.22 147.66,-254.24 149.98,-260.84"/>
</g>
<!-- 2146545886160&#45;&gt;2146545887984 -->
<g id="edge48" class="edge">
<title>2146545886160&#45;&gt;2146545887984</title>
<path fill="none" stroke="black" d="M51.09,-312.69C75.13,-325.9 113.31,-346.88 142.67,-363.01"/>
<polygon fill="black" stroke="black" points="141.03,-366.1 151.48,-367.85 144.4,-359.97 141.03,-366.1"/>
</g>
<!-- 2146545887840&#45;&gt;2146545888176 -->
<g id="edge50" class="edge">
<title>2146545887840&#45;&gt;2146545888176</title>
<path fill="none" stroke="black" d="M371.22,-425.26C378.82,-424.76 387.55,-424.18 396.7,-423.58"/>
<polygon fill="black" stroke="black" points="397.01,-427.07 406.76,-422.91 396.55,-420.08 397.01,-427.07"/>
</g>
</g>
</svg>
