<?xml version="1.0" encoding="UTF-8" standalone="no"?>
<!DOCTYPE svg PUBLIC "-//W3C//DTD SVG 1.1//EN"
 "http://www.w3.org/Graphics/SVG/1.1/DTD/svg11.dtd">
<!-- Generated by graphviz version 2.49.0 (20210828.1703)
 -->
<!-- Title: imdf_net_1656686589.806074 Pages: 1 -->
<svg width="3476pt" height="290pt"
 viewBox="0.00 0.00 3476.00 290.00" xmlns="http://www.w3.org/2000/svg" xmlns:xlink="http://www.w3.org/1999/xlink">
<g id="graph0" class="graph" transform="scale(1 1) rotate(0) translate(4 286)">
<title>imdf_net_1656686589.806074</title>
<!-- 1487279645456 -->
<g id="node1" class="node">
<title>1487279645456</title>
<polygon fill="none" stroke="black" points="235,-273 90,-273 90,-237 235,-237 235,-273"/>
<text text-anchor="middle" x="162.5" y="-251.9" font-family="Times New Roman,serif" font-size="12.00">Loan__application_received</text>
</g>
<!-- 1487279645072 -->
<g id="node35" class="node">
<title>1487279645072</title>
<ellipse fill="none" stroke="black" cx="298" cy="-255" rx="27" ry="27"/>
</g>
<!-- 1487279645456&#45;&gt;1487279645072 -->
<g id="edge7" class="edge">
<title>1487279645456&#45;&gt;1487279645072</title>
<path fill="none" stroke="black" d="M235.33,-255C244.17,-255 252.89,-255 260.87,-255"/>
<polygon fill="black" stroke="black" points="260.87,-258.5 270.87,-255 260.87,-251.5 260.87,-258.5"/>
</g>
<!-- 1487279809680 -->
<g id="node2" class="node">
<title>1487279809680</title>
<polygon fill="black" stroke="black" points="816.5,-173 762.5,-173 762.5,-137 816.5,-137 816.5,-173"/>
</g>
<!-- 1487279809488 -->
<g id="node22" class="node">
<title>1487279809488</title>
<ellipse fill="none" stroke="black" cx="948" cy="-83" rx="27" ry="27"/>
</g>
<!-- 1487279809680&#45;&gt;1487279809488 -->
<g id="edge40" class="edge">
<title>1487279809680&#45;&gt;1487279809488</title>
<path fill="none" stroke="black" d="M816.69,-142.95C843.43,-130.65 885.01,-111.52 913.98,-98.19"/>
<polygon fill="black" stroke="black" points="915.66,-101.27 923.29,-93.91 912.74,-94.91 915.66,-101.27"/>
</g>
<!-- 1487279811504 -->
<g id="node24" class="node">
<title>1487279811504</title>
<ellipse fill="none" stroke="black" cx="948" cy="-155" rx="27" ry="27"/>
</g>
<!-- 1487279809680&#45;&gt;1487279811504 -->
<g id="edge41" class="edge">
<title>1487279809680&#45;&gt;1487279811504</title>
<path fill="none" stroke="black" d="M816.69,-155C842.5,-155 882.13,-155 910.91,-155"/>
<polygon fill="black" stroke="black" points="910.98,-158.5 920.98,-155 910.98,-151.5 910.98,-158.5"/>
</g>
<!-- 1487279851024 -->
<g id="node3" class="node">
<title>1487279851024</title>
<polygon fill="none" stroke="black" points="1845.5,-167 1744.5,-167 1744.5,-131 1845.5,-131 1845.5,-167"/>
<text text-anchor="middle" x="1795" y="-145.9" font-family="Times New Roman,serif" font-size="12.00">Reject_application</text>
</g>
<!-- 1487279850640 -->
<g id="node28" class="node">
<title>1487279850640</title>
<ellipse fill="none" stroke="black" cx="1927" cy="-154" rx="27" ry="27"/>
</g>
<!-- 1487279851024&#45;&gt;1487279850640 -->
<g id="edge12" class="edge">
<title>1487279851024&#45;&gt;1487279850640</title>
<path fill="none" stroke="black" d="M1845.52,-150.9C1860.27,-151.47 1876.15,-152.08 1889.88,-152.61"/>
<polygon fill="black" stroke="black" points="1889.77,-156.11 1899.9,-153 1890.04,-149.11 1889.77,-156.11"/>
</g>
<!-- 1487279851792 -->
<g id="node4" class="node">
<title>1487279851792</title>
<polygon fill="none" stroke="black" points="2394,-172 2257,-172 2257,-136 2394,-136 2394,-172"/>
<text text-anchor="middle" x="2325.5" y="-150.9" font-family="Times New Roman,serif" font-size="12.00">Loan_application_rejected</text>
</g>
<!-- 1487279644976 -->
<g id="node38" class="node">
<title>1487279644976</title>
<ellipse fill="none" stroke="black" cx="3437" cy="-99" rx="27" ry="27"/>
<ellipse fill="none" stroke="black" cx="3437" cy="-99" rx="31" ry="31"/>
<text text-anchor="start" x="3427" y="-90.9" font-family="Times New Roman,serif" font-size="32.00">■</text>
</g>
<!-- 1487279851792&#45;&gt;1487279644976 -->
<g id="edge6" class="edge">
<title>1487279851792&#45;&gt;1487279644976</title>
<path fill="none" stroke="black" d="M2394.2,-154C2458.09,-154 2556.55,-154 2642,-154 2642,-154 2642,-154 3158,-154 3253.04,-154 3278.15,-150.42 3370,-126 3379.68,-123.43 3389.83,-119.78 3399.19,-116"/>
<polygon fill="black" stroke="black" points="3400.74,-119.15 3408.61,-112.05 3398.03,-112.7 3400.74,-119.15"/>
</g>
<!-- 1487279812512 -->
<g id="node5" class="node">
<title>1487279812512</title>
<polygon fill="none" stroke="black" points="1382,-169 1287,-169 1287,-133 1382,-133 1382,-169"/>
<text text-anchor="middle" x="1334.5" y="-147.9" font-family="Times New Roman,serif" font-size="12.00">Assess_loan_risk</text>
</g>
<!-- 1487279811792 -->
<g id="node25" class="node">
<title>1487279811792</title>
<ellipse fill="none" stroke="black" cx="1445" cy="-148" rx="27" ry="27"/>
</g>
<!-- 1487279812512&#45;&gt;1487279811792 -->
<g id="edge9" class="edge">
<title>1487279812512&#45;&gt;1487279811792</title>
<path fill="none" stroke="black" d="M1382.14,-149.71C1390.61,-149.48 1399.33,-149.24 1407.45,-149.01"/>
<polygon fill="black" stroke="black" points="1407.82,-152.5 1417.72,-148.73 1407.62,-145.5 1407.82,-152.5"/>
</g>
<!-- 1487279850016 -->
<g id="node6" class="node">
<title>1487279850016</title>
<polygon fill="none" stroke="black" points="1600,-136 1508,-136 1508,-100 1600,-100 1600,-136"/>
<text text-anchor="middle" x="1554" y="-114.9" font-family="Times New Roman,serif" font-size="12.00">Assess_eligibility</text>
</g>
<!-- 1487279809440 -->
<g id="node27" class="node">
<title>1487279809440</title>
<ellipse fill="none" stroke="black" cx="1663" cy="-118" rx="27" ry="27"/>
</g>
<!-- 1487279850016&#45;&gt;1487279809440 -->
<g id="edge11" class="edge">
<title>1487279850016&#45;&gt;1487279809440</title>
<path fill="none" stroke="black" d="M1600.07,-118C1608.66,-118 1617.55,-118 1625.83,-118"/>
<polygon fill="black" stroke="black" points="1625.9,-121.5 1635.9,-118 1625.9,-114.5 1625.9,-121.5"/>
</g>
<!-- 1487279809584 -->
<g id="node7" class="node">
<title>1487279809584</title>
<polygon fill="none" stroke="black" points="568,-250 361,-250 361,-214 568,-214 568,-250"/>
<text text-anchor="middle" x="464.5" y="-228.9" font-family="Times New Roman,serif" font-size="12.00">Check__application__form_completeness</text>
</g>
<!-- 1487279809008 -->
<g id="node36" class="node">
<title>1487279809008</title>
<ellipse fill="none" stroke="black" cx="631" cy="-227" rx="27" ry="27"/>
</g>
<!-- 1487279809584&#45;&gt;1487279809008 -->
<g id="edge17" class="edge">
<title>1487279809584&#45;&gt;1487279809008</title>
<path fill="none" stroke="black" d="M568.28,-228.88C577.3,-228.6 585.96,-228.34 593.81,-228.1"/>
<polygon fill="black" stroke="black" points="594.06,-231.59 603.95,-227.79 593.85,-224.6 594.06,-231.59"/>
</g>
<!-- 1487279852464 -->
<g id="node8" class="node">
<title>1487279852464</title>
<polygon fill="none" stroke="black" points="1864,-109 1726,-109 1726,-73 1864,-73 1864,-109"/>
<text text-anchor="middle" x="1795" y="-87.9" font-family="Times New Roman,serif" font-size="12.00">Prepare_acceptance_pack</text>
</g>
<!-- 1487279852176 -->
<g id="node29" class="node">
<title>1487279852176</title>
<ellipse fill="none" stroke="black" cx="1927" cy="-82" rx="27" ry="27"/>
</g>
<!-- 1487279852464&#45;&gt;1487279852176 -->
<g id="edge15" class="edge">
<title>1487279852464&#45;&gt;1487279852176</title>
<path fill="none" stroke="black" d="M1864.05,-86.29C1872.93,-85.67 1881.74,-85.06 1889.81,-84.51"/>
<polygon fill="black" stroke="black" points="1890.19,-87.99 1899.93,-83.81 1889.71,-81 1890.19,-87.99"/>
</g>
<!-- 1487279874352 -->
<g id="node9" class="node">
<title>1487279874352</title>
<polygon fill="none" stroke="black" points="3094,-49 2982,-49 2982,-13 3094,-13 3094,-49"/>
<text text-anchor="middle" x="3038" y="-27.9" font-family="Times New Roman,serif" font-size="12.00">Approve_application</text>
</g>
<!-- 1487279874112 -->
<g id="node34" class="node">
<title>1487279874112</title>
<ellipse fill="none" stroke="black" cx="3157" cy="-27" rx="27" ry="27"/>
</g>
<!-- 1487279874352&#45;&gt;1487279874112 -->
<g id="edge18" class="edge">
<title>1487279874352&#45;&gt;1487279874112</title>
<path fill="none" stroke="black" d="M3094.07,-29.12C3102.73,-28.82 3111.48,-28.52 3119.58,-28.25"/>
<polygon fill="black" stroke="black" points="3119.9,-31.74 3129.77,-27.9 3119.66,-24.74 3119.9,-31.74"/>
</g>
<!-- 1487279812032 -->
<g id="node10" class="node">
<title>1487279812032</title>
<polygon fill="none" stroke="black" points="1143,-169 1029,-169 1029,-133 1143,-133 1143,-169"/>
<text text-anchor="middle" x="1086" y="-147.9" font-family="Times New Roman,serif" font-size="12.00">Check_credit_history</text>
</g>
<!-- 1487279812272 -->
<g id="node26" class="node">
<title>1487279812272</title>
<ellipse fill="none" stroke="black" cx="1224" cy="-151" rx="27" ry="27"/>
</g>
<!-- 1487279812032&#45;&gt;1487279812272 -->
<g id="edge19" class="edge">
<title>1487279812032&#45;&gt;1487279812272</title>
<path fill="none" stroke="black" d="M1143.1,-151C1157.77,-151 1173.19,-151 1186.54,-151"/>
<polygon fill="black" stroke="black" points="1186.74,-154.5 1196.74,-151 1186.74,-147.5 1186.74,-154.5"/>
</g>
<!-- 1487279853376 -->
<g id="node11" class="node">
<title>1487279853376</title>
<polygon fill="none" stroke="black" points="3368,-117 3222,-117 3222,-81 3368,-81 3368,-117"/>
<text text-anchor="middle" x="3295" y="-95.9" font-family="Times New Roman,serif" font-size="12.00">Loan__application_canceled</text>
</g>
<!-- 1487279853376&#45;&gt;1487279644976 -->
<g id="edge4" class="edge">
<title>1487279853376&#45;&gt;1487279644976</title>
<path fill="none" stroke="black" d="M3368.05,-99C3377.58,-99 3387.05,-99 3395.77,-99"/>
<polygon fill="black" stroke="black" points="3395.98,-102.5 3405.98,-99 3395.98,-95.5 3395.98,-102.5"/>
</g>
<!-- 1487279811024 -->
<g id="node12" class="node">
<title>1487279811024</title>
<polygon fill="none" stroke="black" points="885,-245 694,-245 694,-209 885,-209 885,-245"/>
<text text-anchor="middle" x="789.5" y="-223.9" font-family="Times New Roman,serif" font-size="12.00">Return_application_back_to_applicant</text>
</g>
<!-- 1487279810448 -->
<g id="node37" class="node">
<title>1487279810448</title>
<ellipse fill="none" stroke="black" cx="948" cy="-227" rx="27" ry="27"/>
</g>
<!-- 1487279811024&#45;&gt;1487279810448 -->
<g id="edge13" class="edge">
<title>1487279811024&#45;&gt;1487279810448</title>
<path fill="none" stroke="black" d="M885.15,-227C894.09,-227 902.73,-227 910.57,-227"/>
<polygon fill="black" stroke="black" points="910.73,-230.5 920.73,-227 910.73,-223.5 910.73,-230.5"/>
</g>
<!-- 1487279809104 -->
<g id="node13" class="node">
<title>1487279809104</title>
<polygon fill="none" stroke="black" points="1161,-272 1011,-272 1011,-236 1161,-236 1161,-272"/>
<text text-anchor="middle" x="1086" y="-250.9" font-family="Times New Roman,serif" font-size="12.00">Receive_updated_application</text>
</g>
<!-- 1487279809104&#45;&gt;1487279645072 -->
<g id="edge16" class="edge">
<title>1487279809104&#45;&gt;1487279645072</title>
<path fill="none" stroke="black" d="M1010.75,-264.99C951.31,-272.83 865.74,-282 790.5,-282 630,-282 630,-282 630,-282 522.58,-282 396.2,-267.7 335.35,-259.91"/>
<polygon fill="black" stroke="black" points="335.48,-256.4 325.12,-258.59 334.58,-263.34 335.48,-256.4"/>
</g>
<!-- 1487279850832 -->
<g id="node14" class="node">
<title>1487279850832</title>
<polygon fill="none" stroke="black" points="2580,-59 2430,-59 2430,-23 2580,-23 2580,-59"/>
<text text-anchor="middle" x="2505" y="-37.9" font-family="Times New Roman,serif" font-size="12.00">Send_home_insurance_quote</text>
</g>
<!-- 1487279850112 -->
<g id="node32" class="node">
<title>1487279850112</title>
<ellipse fill="none" stroke="black" cx="2643" cy="-63" rx="27" ry="27"/>
</g>
<!-- 1487279850832&#45;&gt;1487279850112 -->
<g id="edge14" class="edge">
<title>1487279850832&#45;&gt;1487279850112</title>
<path fill="none" stroke="black" d="M2580.37,-53.03C2589.34,-54.48 2598.15,-55.91 2606.19,-57.21"/>
<polygon fill="black" stroke="black" points="2605.83,-60.69 2616.26,-58.84 2606.95,-53.78 2605.83,-60.69"/>
</g>
<!-- 1487279874640 -->
<g id="node15" class="node">
<title>1487279874640</title>
<polygon fill="none" stroke="black" points="3370,-54 3220,-54 3220,-18 3370,-18 3370,-54"/>
<text text-anchor="middle" x="3295" y="-32.9" font-family="Times New Roman,serif" font-size="12.00">Loan__application_approved</text>
</g>
<!-- 1487279874640&#45;&gt;1487279644976 -->
<g id="edge5" class="edge">
<title>1487279874640&#45;&gt;1487279644976</title>
<path fill="none" stroke="black" d="M3336.12,-54.05C3355.98,-62.99 3379.79,-73.7 3399.18,-82.43"/>
<polygon fill="black" stroke="black" points="3397.75,-85.63 3408.31,-86.54 3400.62,-79.24 3397.75,-85.63"/>
</g>
<!-- 1487279849824 -->
<g id="node16" class="node">
<title>1487279849824</title>
<polygon fill="none" stroke="black" points="2221,-100 1990,-100 1990,-64 2221,-64 2221,-100"/>
<text text-anchor="middle" x="2105.5" y="-78.9" font-family="Times New Roman,serif" font-size="12.00">Check_if_home_insurance_quote_is_requested</text>
</g>
<!-- 1487279853184 -->
<g id="node31" class="node">
<title>1487279853184</title>
<ellipse fill="none" stroke="black" cx="2325.5" cy="-82" rx="27" ry="27"/>
</g>
<!-- 1487279849824&#45;&gt;1487279853184 -->
<g id="edge1" class="edge">
<title>1487279849824&#45;&gt;1487279853184</title>
<path fill="none" stroke="black" d="M2221.25,-82C2245.54,-82 2269.45,-82 2288.14,-82"/>
<polygon fill="black" stroke="black" points="2288.22,-85.5 2298.22,-82 2288.22,-78.5 2288.22,-85.5"/>
</g>
<!-- 1487279851360 -->
<g id="node17" class="node">
<title>1487279851360</title>
<polygon fill="none" stroke="black" points="2856,-81 2706,-81 2706,-45 2856,-45 2856,-81"/>
<text text-anchor="middle" x="2781" y="-59.9" font-family="Times New Roman,serif" font-size="12.00">Verify_repayment_agreement</text>
</g>
<!-- 1487279852656 -->
<g id="node30" class="node">
<title>1487279852656</title>
<ellipse fill="none" stroke="black" cx="2919" cy="-63" rx="27" ry="27"/>
</g>
<!-- 1487279851360&#45;&gt;1487279852656 -->
<g id="edge8" class="edge">
<title>1487279851360&#45;&gt;1487279852656</title>
<path fill="none" stroke="black" d="M2856.37,-63C2865.15,-63 2873.79,-63 2881.69,-63"/>
<polygon fill="black" stroke="black" points="2881.96,-66.5 2891.96,-63 2881.96,-59.5 2881.96,-66.5"/>
</g>
<!-- 1487279852128 -->
<g id="node18" class="node">
<title>1487279852128</title>
<polygon fill="none" stroke="black" points="3089.5,-108 2986.5,-108 2986.5,-72 3089.5,-72 3089.5,-108"/>
<text text-anchor="middle" x="3038" y="-86.9" font-family="Times New Roman,serif" font-size="12.00">Cancel_application</text>
</g>
<!-- 1487279851648 -->
<g id="node33" class="node">
<title>1487279851648</title>
<ellipse fill="none" stroke="black" cx="3157" cy="-99" rx="27" ry="27"/>
</g>
<!-- 1487279852128&#45;&gt;1487279851648 -->
<g id="edge3" class="edge">
<title>1487279852128&#45;&gt;1487279851648</title>
<path fill="none" stroke="black" d="M3089.64,-93.9C3099.69,-94.67 3110.06,-95.47 3119.52,-96.19"/>
<polygon fill="black" stroke="black" points="3119.52,-99.7 3129.76,-96.98 3120.06,-92.72 3119.52,-99.7"/>
</g>
<!-- 1487279850352 -->
<g id="node19" class="node">
<title>1487279850352</title>
<polygon fill="none" stroke="black" points="2567.5,-113 2442.5,-113 2442.5,-77 2567.5,-77 2567.5,-113"/>
<text text-anchor="middle" x="2505" y="-91.9" font-family="Times New Roman,serif" font-size="12.00">Send_acceptance_pack</text>
</g>
<!-- 1487279850352&#45;&gt;1487279850112 -->
<g id="edge2" class="edge">
<title>1487279850352&#45;&gt;1487279850112</title>
<path fill="none" stroke="black" d="M2567.63,-80.5C2581.01,-77.35 2594.71,-74.13 2606.65,-71.32"/>
<polygon fill="black" stroke="black" points="2607.71,-74.66 2616.64,-68.97 2606.1,-67.85 2607.71,-74.66"/>
</g>
<!-- 1487279810928 -->
<g id="node20" class="node">
<title>1487279810928</title>
<polygon fill="none" stroke="black" points="1137.5,-102 1034.5,-102 1034.5,-66 1137.5,-66 1137.5,-102"/>
<text text-anchor="middle" x="1086" y="-80.9" font-family="Times New Roman,serif" font-size="12.00">Appraise_property</text>
</g>
<!-- 1487279810064 -->
<g id="node23" class="node">
<title>1487279810064</title>
<ellipse fill="none" stroke="black" cx="1334.5" cy="-87" rx="27" ry="27"/>
</g>
<!-- 1487279810928&#45;&gt;1487279810064 -->
<g id="edge10" class="edge">
<title>1487279810928&#45;&gt;1487279810064</title>
<path fill="none" stroke="black" d="M1137.78,-84.62C1185.33,-85.2 1255.21,-86.05 1297.33,-86.56"/>
<polygon fill="black" stroke="black" points="1297.37,-90.06 1307.41,-86.68 1297.46,-83.06 1297.37,-90.06"/>
</g>
<!-- 1487279645552 -->
<g id="node21" class="node">
<title>1487279645552</title>
<ellipse fill="none" stroke="black" cx="27" cy="-255" rx="27" ry="27"/>
<text text-anchor="start" x="16" y="-246.3" font-family="Times New Roman,serif" font-size="34.00">●</text>
</g>
<!-- 1487279645552&#45;&gt;1487279645456 -->
<g id="edge42" class="edge">
<title>1487279645552&#45;&gt;1487279645456</title>
<path fill="none" stroke="black" d="M54.06,-255C61.69,-255 70.47,-255 79.66,-255"/>
<polygon fill="black" stroke="black" points="79.75,-258.5 89.75,-255 79.75,-251.5 79.75,-258.5"/>
</g>
<!-- 1487279809488&#45;&gt;1487279810928 -->
<g id="edge20" class="edge">
<title>1487279809488&#45;&gt;1487279810928</title>
<path fill="none" stroke="black" d="M975.22,-83.19C989.22,-83.3 1007.08,-83.43 1024.31,-83.55"/>
<polygon fill="black" stroke="black" points="1024.32,-87.05 1034.35,-83.63 1024.37,-80.05 1024.32,-87.05"/>
</g>
<!-- 1487279810064&#45;&gt;1487279850016 -->
<g id="edge21" class="edge">
<title>1487279810064&#45;&gt;1487279850016</title>
<path fill="none" stroke="black" d="M1361.3,-90.68C1394.81,-95.45 1454.2,-103.92 1498.02,-110.16"/>
<polygon fill="black" stroke="black" points="1497.56,-113.63 1507.95,-111.58 1498.55,-106.7 1497.56,-113.63"/>
</g>
<!-- 1487279811504&#45;&gt;1487279812032 -->
<g id="edge22" class="edge">
<title>1487279811504&#45;&gt;1487279812032</title>
<path fill="none" stroke="black" d="M975.22,-154.23C987.7,-153.86 1003.23,-153.4 1018.65,-152.95"/>
<polygon fill="black" stroke="black" points="1018.85,-156.45 1028.74,-152.65 1018.64,-149.45 1018.85,-156.45"/>
</g>
<!-- 1487279811792&#45;&gt;1487279850016 -->
<g id="edge23" class="edge">
<title>1487279811792&#45;&gt;1487279850016</title>
<path fill="none" stroke="black" d="M1471.09,-140.97C1479.25,-138.68 1488.65,-136.04 1498.11,-133.39"/>
<polygon fill="black" stroke="black" points="1499.26,-136.7 1507.94,-130.63 1497.37,-129.96 1499.26,-136.7"/>
</g>
<!-- 1487279812272&#45;&gt;1487279812512 -->
<g id="edge24" class="edge">
<title>1487279812272&#45;&gt;1487279812512</title>
<path fill="none" stroke="black" d="M1251.26,-151C1259.01,-151 1267.81,-151 1276.69,-151"/>
<polygon fill="black" stroke="black" points="1276.71,-154.5 1286.71,-151 1276.71,-147.5 1276.71,-154.5"/>
</g>
<!-- 1487279809440&#45;&gt;1487279851024 -->
<g id="edge25" class="edge">
<title>1487279809440&#45;&gt;1487279851024</title>
<path fill="none" stroke="black" d="M1689.37,-124.05C1702.35,-127.14 1718.72,-131.05 1734.65,-134.85"/>
<polygon fill="black" stroke="black" points="1733.93,-138.27 1744.47,-137.19 1735.55,-131.46 1733.93,-138.27"/>
</g>
<!-- 1487279809440&#45;&gt;1487279852464 -->
<g id="edge26" class="edge">
<title>1487279809440&#45;&gt;1487279852464</title>
<path fill="none" stroke="black" d="M1689.68,-112.67C1697.48,-111.05 1706.49,-109.18 1715.88,-107.23"/>
<polygon fill="black" stroke="black" points="1716.69,-110.63 1725.77,-105.17 1715.26,-103.78 1716.69,-110.63"/>
</g>
<!-- 1487279850640&#45;&gt;1487279851792 -->
<g id="edge27" class="edge">
<title>1487279850640&#45;&gt;1487279851792</title>
<path fill="none" stroke="black" d="M1954.02,-154C2012.49,-154 2156.26,-154 2246.53,-154"/>
<polygon fill="black" stroke="black" points="2246.72,-157.5 2256.72,-154 2246.72,-150.5 2246.72,-157.5"/>
</g>
<!-- 1487279852176&#45;&gt;1487279849824 -->
<g id="edge28" class="edge">
<title>1487279852176&#45;&gt;1487279849824</title>
<path fill="none" stroke="black" d="M1954.04,-82C1961.59,-82 1970.37,-82 1979.82,-82"/>
<polygon fill="black" stroke="black" points="1979.89,-85.5 1989.89,-82 1979.89,-78.5 1979.89,-85.5"/>
</g>
<!-- 1487279852656&#45;&gt;1487279874352 -->
<g id="edge30" class="edge">
<title>1487279852656&#45;&gt;1487279874352</title>
<path fill="none" stroke="black" d="M2945.39,-56.06C2953.37,-53.87 2962.58,-51.36 2972.01,-48.77"/>
<polygon fill="black" stroke="black" points="2973.16,-52.09 2981.88,-46.07 2971.31,-45.34 2973.16,-52.09"/>
</g>
<!-- 1487279852656&#45;&gt;1487279852128 -->
<g id="edge29" class="edge">
<title>1487279852656&#45;&gt;1487279852128</title>
<path fill="none" stroke="black" d="M2945.39,-68.86C2954.55,-70.97 2965.32,-73.46 2976.2,-75.97"/>
<polygon fill="black" stroke="black" points="2975.65,-79.43 2986.18,-78.27 2977.22,-72.61 2975.65,-79.43"/>
</g>
<!-- 1487279853184&#45;&gt;1487279850832 -->
<g id="edge32" class="edge">
<title>1487279853184&#45;&gt;1487279850832</title>
<path fill="none" stroke="black" d="M2351.93,-76.13C2369.96,-71.96 2395.25,-66.12 2420.05,-60.39"/>
<polygon fill="black" stroke="black" points="2420.92,-63.78 2429.88,-58.12 2419.35,-56.96 2420.92,-63.78"/>
</g>
<!-- 1487279853184&#45;&gt;1487279850352 -->
<g id="edge31" class="edge">
<title>1487279853184&#45;&gt;1487279850352</title>
<path fill="none" stroke="black" d="M2352.69,-83.92C2373.65,-85.45 2404.07,-87.68 2432.15,-89.74"/>
<polygon fill="black" stroke="black" points="2432.14,-93.25 2442.37,-90.49 2432.65,-86.27 2432.14,-93.25"/>
</g>
<!-- 1487279850112&#45;&gt;1487279851360 -->
<g id="edge33" class="edge">
<title>1487279850112&#45;&gt;1487279851360</title>
<path fill="none" stroke="black" d="M2670.22,-63C2677.82,-63 2686.55,-63 2695.7,-63"/>
<polygon fill="black" stroke="black" points="2695.76,-66.5 2705.76,-63 2695.76,-59.5 2695.76,-66.5"/>
</g>
<!-- 1487279851648&#45;&gt;1487279853376 -->
<g id="edge34" class="edge">
<title>1487279851648&#45;&gt;1487279853376</title>
<path fill="none" stroke="black" d="M3184.22,-99C3192.38,-99 3201.86,-99 3211.75,-99"/>
<polygon fill="black" stroke="black" points="3211.76,-102.5 3221.76,-99 3211.76,-95.5 3211.76,-102.5"/>
</g>
<!-- 1487279874112&#45;&gt;1487279874640 -->
<g id="edge35" class="edge">
<title>1487279874112&#45;&gt;1487279874640</title>
<path fill="none" stroke="black" d="M3184.22,-28.74C3191.82,-29.24 3200.55,-29.82 3209.7,-30.42"/>
<polygon fill="black" stroke="black" points="3209.55,-33.92 3219.76,-31.09 3210.01,-26.93 3209.55,-33.92"/>
</g>
<!-- 1487279645072&#45;&gt;1487279809584 -->
<g id="edge36" class="edge">
<title>1487279645072&#45;&gt;1487279809584</title>
<path fill="none" stroke="black" d="M325.07,-251.36C332.66,-250.29 341.49,-249.06 350.93,-247.74"/>
<polygon fill="black" stroke="black" points="351.55,-251.19 360.97,-246.34 350.58,-244.25 351.55,-251.19"/>
</g>
<!-- 1487279809008&#45;&gt;1487279809680 -->
<g id="edge38" class="edge">
<title>1487279809008&#45;&gt;1487279809680</title>
<path fill="none" stroke="black" d="M655.77,-216.06C681.69,-204.14 723.46,-184.92 753.21,-171.23"/>
<polygon fill="black" stroke="black" points="754.79,-174.36 762.42,-167 751.87,-168 754.79,-174.36"/>
</g>
<!-- 1487279809008&#45;&gt;1487279811024 -->
<g id="edge37" class="edge">
<title>1487279809008&#45;&gt;1487279811024</title>
<path fill="none" stroke="black" d="M658.19,-227C665.67,-227 674.31,-227 683.51,-227"/>
<polygon fill="black" stroke="black" points="683.68,-230.5 693.68,-227 683.68,-223.5 683.68,-230.5"/>
</g>
<!-- 1487279810448&#45;&gt;1487279809104 -->
<g id="edge39" class="edge">
<title>1487279810448&#45;&gt;1487279809104</title>
<path fill="none" stroke="black" d="M974.58,-232.08C982.35,-233.62 991.34,-235.41 1000.78,-237.28"/>
<polygon fill="black" stroke="black" points="1000.25,-240.74 1010.74,-239.26 1001.62,-233.88 1000.25,-240.74"/>
</g>
</g>
</svg>
