<?xml version="1.0" encoding="UTF-8" standalone="no"?>
<!DOCTYPE svg PUBLIC "-//W3C//DTD SVG 1.1//EN"
 "http://www.w3.org/Graphics/SVG/1.1/DTD/svg11.dtd">
<!-- Generated by graphviz version 2.49.0 (20210828.1703)
 -->
<!-- Title: imdf_net_1656686591.469552 Pages: 1 -->
<svg width="3115pt" height="316pt"
 viewBox="0.00 0.00 3115.00 316.00" xmlns="http://www.w3.org/2000/svg" xmlns:xlink="http://www.w3.org/1999/xlink">
<g id="graph0" class="graph" transform="scale(1 1) rotate(0) translate(4 312)">
<title>imdf_net_1656686591.469552</title>
<!-- 1487279610368 -->
<g id="node1" class="node">
<title>1487279610368</title>
<polygon fill="none" stroke="black" points="207,-127 0,-127 0,-91 207,-91 207,-127"/>
<text text-anchor="middle" x="103.5" y="-105.9" font-family="Times New Roman,serif" font-size="12.00">Check__application__form_completeness</text>
</g>
<!-- 1487279610608 -->
<g id="node36" class="node">
<title>1487279610608</title>
<ellipse fill="none" stroke="black" cx="270" cy="-137" rx="27" ry="27"/>
</g>
<!-- 1487279610368&#45;&gt;1487279610608 -->
<g id="edge2" class="edge">
<title>1487279610368&#45;&gt;1487279610608</title>
<path fill="none" stroke="black" d="M207.28,-126.49C216.49,-128.06 225.34,-129.57 233.31,-130.93"/>
<polygon fill="black" stroke="black" points="232.8,-134.39 243.25,-132.62 233.98,-127.49 232.8,-134.39"/>
</g>
<!-- 1487279908224 -->
<g id="node2" class="node">
<title>1487279908224</title>
<polygon fill="none" stroke="black" points="2033,-297 1896,-297 1896,-261 2033,-261 2033,-297"/>
<text text-anchor="middle" x="1964.5" y="-275.9" font-family="Times New Roman,serif" font-size="12.00">Loan_application_rejected</text>
</g>
<!-- 1487279977424 -->
<g id="node38" class="node">
<title>1487279977424</title>
<ellipse fill="none" stroke="black" cx="3076" cy="-224" rx="27" ry="27"/>
<ellipse fill="none" stroke="black" cx="3076" cy="-224" rx="31" ry="31"/>
<text text-anchor="start" x="3066" y="-215.9" font-family="Times New Roman,serif" font-size="32.00">■</text>
</g>
<!-- 1487279908224&#45;&gt;1487279977424 -->
<g id="edge12" class="edge">
<title>1487279908224&#45;&gt;1487279977424</title>
<path fill="none" stroke="black" d="M2033.2,-279C2097.09,-279 2195.55,-279 2281,-279 2281,-279 2281,-279 2797,-279 2892.04,-279 2917.15,-275.42 3009,-251 3018.68,-248.43 3028.83,-244.78 3038.19,-241"/>
<polygon fill="black" stroke="black" points="3039.74,-244.15 3047.61,-237.05 3037.03,-237.7 3039.74,-244.15"/>
</g>
<!-- 1487280170368 -->
<g id="node3" class="node">
<title>1487280170368</title>
<polygon fill="none" stroke="black" points="3007,-242 2861,-242 2861,-206 3007,-206 3007,-242"/>
<text text-anchor="middle" x="2934" y="-220.9" font-family="Times New Roman,serif" font-size="12.00">Loan__application_canceled</text>
</g>
<!-- 1487280170368&#45;&gt;1487279977424 -->
<g id="edge14" class="edge">
<title>1487280170368&#45;&gt;1487279977424</title>
<path fill="none" stroke="black" d="M3007.05,-224C3016.58,-224 3026.05,-224 3034.77,-224"/>
<polygon fill="black" stroke="black" points="3034.98,-227.5 3044.98,-224 3034.98,-220.5 3034.98,-227.5"/>
</g>
<!-- 1487280169216 -->
<g id="node4" class="node">
<title>1487280169216</title>
<polygon fill="none" stroke="black" points="3009,-179 2859,-179 2859,-143 3009,-143 3009,-179"/>
<text text-anchor="middle" x="2934" y="-157.9" font-family="Times New Roman,serif" font-size="12.00">Loan__application_approved</text>
</g>
<!-- 1487280169216&#45;&gt;1487279977424 -->
<g id="edge17" class="edge">
<title>1487280169216&#45;&gt;1487279977424</title>
<path fill="none" stroke="black" d="M2975.12,-179.05C2994.98,-187.99 3018.79,-198.7 3038.18,-207.43"/>
<polygon fill="black" stroke="black" points="3036.75,-210.63 3047.31,-211.54 3039.62,-204.24 3036.75,-210.63"/>
</g>
<!-- 1487279908512 -->
<g id="node5" class="node">
<title>1487279908512</title>
<polygon fill="none" stroke="black" points="1484.5,-292 1383.5,-292 1383.5,-256 1484.5,-256 1484.5,-292"/>
<text text-anchor="middle" x="1434" y="-270.9" font-family="Times New Roman,serif" font-size="12.00">Reject_application</text>
</g>
<!-- 1487279908992 -->
<g id="node28" class="node">
<title>1487279908992</title>
<ellipse fill="none" stroke="black" cx="1566" cy="-279" rx="27" ry="27"/>
</g>
<!-- 1487279908512&#45;&gt;1487279908992 -->
<g id="edge9" class="edge">
<title>1487279908512&#45;&gt;1487279908992</title>
<path fill="none" stroke="black" d="M1484.52,-275.9C1499.27,-276.47 1515.15,-277.08 1528.88,-277.61"/>
<polygon fill="black" stroke="black" points="1528.77,-281.11 1538.9,-278 1529.04,-274.11 1528.77,-281.11"/>
</g>
<!-- 1487280170272 -->
<g id="node6" class="node">
<title>1487280170272</title>
<polygon fill="none" stroke="black" points="2206.5,-184 2081.5,-184 2081.5,-148 2206.5,-148 2206.5,-184"/>
<text text-anchor="middle" x="2144" y="-162.9" font-family="Times New Roman,serif" font-size="12.00">Send_acceptance_pack</text>
</g>
<!-- 1487280172960 -->
<g id="node32" class="node">
<title>1487280172960</title>
<ellipse fill="none" stroke="black" cx="2282" cy="-188" rx="27" ry="27"/>
</g>
<!-- 1487280170272&#45;&gt;1487280172960 -->
<g id="edge19" class="edge">
<title>1487280170272&#45;&gt;1487280172960</title>
<path fill="none" stroke="black" d="M2206.63,-175.97C2219.9,-178.12 2233.49,-180.31 2245.36,-182.23"/>
<polygon fill="black" stroke="black" points="2244.87,-185.7 2255.3,-183.84 2245.99,-178.79 2244.87,-185.7"/>
</g>
<!-- 1487280170656 -->
<g id="node7" class="node">
<title>1487280170656</title>
<polygon fill="none" stroke="black" points="2733,-174 2621,-174 2621,-138 2733,-138 2733,-174"/>
<text text-anchor="middle" x="2677" y="-152.9" font-family="Times New Roman,serif" font-size="12.00">Approve_application</text>
</g>
<!-- 1487280170080 -->
<g id="node34" class="node">
<title>1487280170080</title>
<ellipse fill="none" stroke="black" cx="2796" cy="-152" rx="27" ry="27"/>
</g>
<!-- 1487280170656&#45;&gt;1487280170080 -->
<g id="edge8" class="edge">
<title>1487280170656&#45;&gt;1487280170080</title>
<path fill="none" stroke="black" d="M2733.07,-154.12C2741.73,-153.82 2750.48,-153.52 2758.58,-153.25"/>
<polygon fill="black" stroke="black" points="2758.9,-156.74 2768.77,-152.9 2758.66,-149.74 2758.9,-156.74"/>
</g>
<!-- 1487279592112 -->
<g id="node8" class="node">
<title>1487279592112</title>
<polygon fill="none" stroke="black" points="800,-150 650,-150 650,-114 800,-114 800,-150"/>
<text text-anchor="middle" x="725" y="-128.9" font-family="Times New Roman,serif" font-size="12.00">Receive_updated_application</text>
</g>
<!-- 1487279977472 -->
<g id="node35" class="node">
<title>1487279977472</title>
<ellipse fill="none" stroke="black" cx="863" cy="-82" rx="27" ry="27"/>
</g>
<!-- 1487279592112&#45;&gt;1487279977472 -->
<g id="edge5" class="edge">
<title>1487279592112&#45;&gt;1487279977472</title>
<path fill="none" stroke="black" d="M775.1,-113.95C792.62,-107.51 811.95,-100.4 827.92,-94.53"/>
<polygon fill="black" stroke="black" points="829.21,-97.78 837.39,-91.05 826.8,-91.21 829.21,-97.78"/>
</g>
<!-- 1487279910576 -->
<g id="node9" class="node">
<title>1487279910576</title>
<polygon fill="none" stroke="black" points="782,-298 668,-298 668,-262 782,-262 782,-298"/>
<text text-anchor="middle" x="725" y="-276.9" font-family="Times New Roman,serif" font-size="12.00">Check_credit_history</text>
</g>
<!-- 1487279909280 -->
<g id="node26" class="node">
<title>1487279909280</title>
<ellipse fill="none" stroke="black" cx="863" cy="-276" rx="27" ry="27"/>
</g>
<!-- 1487279910576&#45;&gt;1487279909280 -->
<g id="edge10" class="edge">
<title>1487279910576&#45;&gt;1487279909280</title>
<path fill="none" stroke="black" d="M782.1,-278.35C796.77,-277.92 812.19,-277.46 825.54,-277.07"/>
<polygon fill="black" stroke="black" points="825.85,-280.56 835.74,-276.77 825.64,-273.57 825.85,-280.56"/>
</g>
<!-- 1487279909808 -->
<g id="node10" class="node">
<title>1487279909808</title>
<polygon fill="none" stroke="black" points="1021,-294 926,-294 926,-258 1021,-258 1021,-294"/>
<text text-anchor="middle" x="973.5" y="-272.9" font-family="Times New Roman,serif" font-size="12.00">Assess_loan_risk</text>
</g>
<!-- 1487279906928 -->
<g id="node25" class="node">
<title>1487279906928</title>
<ellipse fill="none" stroke="black" cx="1084" cy="-273" rx="27" ry="27"/>
</g>
<!-- 1487279909808&#45;&gt;1487279906928 -->
<g id="edge3" class="edge">
<title>1487279909808&#45;&gt;1487279906928</title>
<path fill="none" stroke="black" d="M1021.14,-274.71C1029.61,-274.48 1038.33,-274.24 1046.45,-274.01"/>
<polygon fill="black" stroke="black" points="1046.82,-277.5 1056.72,-273.73 1046.62,-270.5 1046.82,-277.5"/>
</g>
<!-- 1487280170176 -->
<g id="node11" class="node">
<title>1487280170176</title>
<polygon fill="none" stroke="black" points="1860,-225 1629,-225 1629,-189 1860,-189 1860,-225"/>
<text text-anchor="middle" x="1744.5" y="-203.9" font-family="Times New Roman,serif" font-size="12.00">Check_if_home_insurance_quote_is_requested</text>
</g>
<!-- 1487280171952 -->
<g id="node31" class="node">
<title>1487280171952</title>
<ellipse fill="none" stroke="black" cx="1964.5" cy="-207" rx="27" ry="27"/>
</g>
<!-- 1487280170176&#45;&gt;1487280171952 -->
<g id="edge4" class="edge">
<title>1487280170176&#45;&gt;1487280171952</title>
<path fill="none" stroke="black" d="M1860.25,-207C1884.54,-207 1908.45,-207 1927.14,-207"/>
<polygon fill="black" stroke="black" points="1927.22,-210.5 1937.22,-207 1927.22,-203.5 1927.22,-210.5"/>
</g>
<!-- 1487280169792 -->
<g id="node12" class="node">
<title>1487280169792</title>
<polygon fill="none" stroke="black" points="2219,-238 2069,-238 2069,-202 2219,-202 2219,-238"/>
<text text-anchor="middle" x="2144" y="-216.9" font-family="Times New Roman,serif" font-size="12.00">Send_home_insurance_quote</text>
</g>
<!-- 1487280169792&#45;&gt;1487280172960 -->
<g id="edge16" class="edge">
<title>1487280169792&#45;&gt;1487280172960</title>
<path fill="none" stroke="black" d="M2219.37,-202.5C2228.52,-200.35 2237.52,-198.23 2245.7,-196.31"/>
<polygon fill="black" stroke="black" points="2246.63,-199.68 2255.56,-193.99 2245.02,-192.87 2246.63,-199.68"/>
</g>
<!-- 1487280172096 -->
<g id="node13" class="node">
<title>1487280172096</title>
<polygon fill="none" stroke="black" points="2728.5,-233 2625.5,-233 2625.5,-197 2728.5,-197 2728.5,-233"/>
<text text-anchor="middle" x="2677" y="-211.9" font-family="Times New Roman,serif" font-size="12.00">Cancel_application</text>
</g>
<!-- 1487280171568 -->
<g id="node33" class="node">
<title>1487280171568</title>
<ellipse fill="none" stroke="black" cx="2796" cy="-224" rx="27" ry="27"/>
</g>
<!-- 1487280172096&#45;&gt;1487280171568 -->
<g id="edge7" class="edge">
<title>1487280172096&#45;&gt;1487280171568</title>
<path fill="none" stroke="black" d="M2728.64,-218.9C2738.69,-219.67 2749.06,-220.47 2758.52,-221.19"/>
<polygon fill="black" stroke="black" points="2758.52,-224.7 2768.76,-221.98 2759.06,-217.72 2758.52,-224.7"/>
</g>
<!-- 1487279907024 -->
<g id="node14" class="node">
<title>1487279907024</title>
<polygon fill="none" stroke="black" points="1239,-261 1147,-261 1147,-225 1239,-225 1239,-261"/>
<text text-anchor="middle" x="1193" y="-239.9" font-family="Times New Roman,serif" font-size="12.00">Assess_eligibility</text>
</g>
<!-- 1487279591872 -->
<g id="node27" class="node">
<title>1487279591872</title>
<ellipse fill="none" stroke="black" cx="1302" cy="-243" rx="27" ry="27"/>
</g>
<!-- 1487279907024&#45;&gt;1487279591872 -->
<g id="edge6" class="edge">
<title>1487279907024&#45;&gt;1487279591872</title>
<path fill="none" stroke="black" d="M1239.07,-243C1247.66,-243 1256.55,-243 1264.83,-243"/>
<polygon fill="black" stroke="black" points="1264.9,-246.5 1274.9,-243 1264.9,-239.5 1264.9,-246.5"/>
</g>
<!-- 1487279977184 -->
<g id="node15" class="node">
<title>1487279977184</title>
<polygon fill="none" stroke="black" points="797.5,-50 652.5,-50 652.5,-14 797.5,-14 797.5,-50"/>
<text text-anchor="middle" x="725" y="-28.9" font-family="Times New Roman,serif" font-size="12.00">Loan__application_received</text>
</g>
<!-- 1487279977184&#45;&gt;1487279977472 -->
<g id="edge11" class="edge">
<title>1487279977184&#45;&gt;1487279977472</title>
<path fill="none" stroke="black" d="M775.1,-50.05C792.62,-56.49 811.95,-63.6 827.92,-69.47"/>
<polygon fill="black" stroke="black" points="826.8,-72.79 837.39,-72.95 829.21,-66.22 826.8,-72.79"/>
</g>
<!-- 1487279593312 -->
<g id="node16" class="node">
<title>1487279593312</title>
<polygon fill="none" stroke="black" points="524,-155 333,-155 333,-119 524,-119 524,-155"/>
<text text-anchor="middle" x="428.5" y="-133.9" font-family="Times New Roman,serif" font-size="12.00">Return_application_back_to_applicant</text>
</g>
<!-- 1487279611040 -->
<g id="node37" class="node">
<title>1487279611040</title>
<ellipse fill="none" stroke="black" cx="587" cy="-137" rx="27" ry="27"/>
</g>
<!-- 1487279593312&#45;&gt;1487279611040 -->
<g id="edge1" class="edge">
<title>1487279593312&#45;&gt;1487279611040</title>
<path fill="none" stroke="black" d="M524.15,-137C533.09,-137 541.73,-137 549.57,-137"/>
<polygon fill="black" stroke="black" points="549.73,-140.5 559.73,-137 549.73,-133.5 549.73,-140.5"/>
</g>
<!-- 1487279593696 -->
<g id="node17" class="node">
<title>1487279593696</title>
<polygon fill="black" stroke="black" points="455.5,-227 401.5,-227 401.5,-191 455.5,-191 455.5,-227"/>
</g>
<!-- 1487279591920 -->
<g id="node22" class="node">
<title>1487279591920</title>
<ellipse fill="none" stroke="black" cx="587" cy="-209" rx="27" ry="27"/>
</g>
<!-- 1487279593696&#45;&gt;1487279591920 -->
<g id="edge40" class="edge">
<title>1487279593696&#45;&gt;1487279591920</title>
<path fill="none" stroke="black" d="M455.69,-209C481.5,-209 521.13,-209 549.91,-209"/>
<polygon fill="black" stroke="black" points="549.98,-212.5 559.98,-209 549.98,-205.5 549.98,-212.5"/>
</g>
<!-- 1487216291024 -->
<g id="node24" class="node">
<title>1487216291024</title>
<ellipse fill="none" stroke="black" cx="587" cy="-281" rx="27" ry="27"/>
</g>
<!-- 1487279593696&#45;&gt;1487216291024 -->
<g id="edge41" class="edge">
<title>1487279593696&#45;&gt;1487216291024</title>
<path fill="none" stroke="black" d="M455.69,-221.05C482.43,-233.35 524.01,-252.48 552.98,-265.81"/>
<polygon fill="black" stroke="black" points="551.74,-269.09 562.29,-270.09 554.66,-262.73 551.74,-269.09"/>
</g>
<!-- 1487216291168 -->
<g id="node18" class="node">
<title>1487216291168</title>
<polygon fill="none" stroke="black" points="776.5,-228 673.5,-228 673.5,-192 776.5,-192 776.5,-228"/>
<text text-anchor="middle" x="725" y="-206.9" font-family="Times New Roman,serif" font-size="12.00">Appraise_property</text>
</g>
<!-- 1487279591536 -->
<g id="node23" class="node">
<title>1487279591536</title>
<ellipse fill="none" stroke="black" cx="973.5" cy="-212" rx="27" ry="27"/>
</g>
<!-- 1487216291168&#45;&gt;1487279591536 -->
<g id="edge18" class="edge">
<title>1487216291168&#45;&gt;1487279591536</title>
<path fill="none" stroke="black" d="M776.78,-210.41C824.33,-210.8 894.21,-211.36 936.33,-211.71"/>
<polygon fill="black" stroke="black" points="936.39,-215.21 946.41,-211.79 936.44,-208.21 936.39,-215.21"/>
</g>
<!-- 1487280171616 -->
<g id="node19" class="node">
<title>1487280171616</title>
<polygon fill="none" stroke="black" points="2495,-206 2345,-206 2345,-170 2495,-170 2495,-206"/>
<text text-anchor="middle" x="2420" y="-184.9" font-family="Times New Roman,serif" font-size="12.00">Verify_repayment_agreement</text>
</g>
<!-- 1487279910672 -->
<g id="node30" class="node">
<title>1487279910672</title>
<ellipse fill="none" stroke="black" cx="2558" cy="-188" rx="27" ry="27"/>
</g>
<!-- 1487280171616&#45;&gt;1487279910672 -->
<g id="edge15" class="edge">
<title>1487280171616&#45;&gt;1487279910672</title>
<path fill="none" stroke="black" d="M2495.37,-188C2504.15,-188 2512.79,-188 2520.69,-188"/>
<polygon fill="black" stroke="black" points="2520.96,-191.5 2530.96,-188 2520.96,-184.5 2520.96,-191.5"/>
</g>
<!-- 1487279908080 -->
<g id="node20" class="node">
<title>1487279908080</title>
<polygon fill="none" stroke="black" points="1503,-234 1365,-234 1365,-198 1503,-198 1503,-234"/>
<text text-anchor="middle" x="1434" y="-212.9" font-family="Times New Roman,serif" font-size="12.00">Prepare_acceptance_pack</text>
</g>
<!-- 1487279909520 -->
<g id="node29" class="node">
<title>1487279909520</title>
<ellipse fill="none" stroke="black" cx="1566" cy="-207" rx="27" ry="27"/>
</g>
<!-- 1487279908080&#45;&gt;1487279909520 -->
<g id="edge13" class="edge">
<title>1487279908080&#45;&gt;1487279909520</title>
<path fill="none" stroke="black" d="M1503.05,-211.29C1511.93,-210.67 1520.74,-210.06 1528.81,-209.51"/>
<polygon fill="black" stroke="black" points="1529.19,-212.99 1538.93,-208.81 1528.71,-206 1529.19,-212.99"/>
</g>
<!-- 1487279977376 -->
<g id="node21" class="node">
<title>1487279977376</title>
<ellipse fill="none" stroke="black" cx="587" cy="-27" rx="27" ry="27"/>
<text text-anchor="start" x="576" y="-18.3" font-family="Times New Roman,serif" font-size="34.00">●</text>
</g>
<!-- 1487279977376&#45;&gt;1487279977184 -->
<g id="edge42" class="edge">
<title>1487279977376&#45;&gt;1487279977184</title>
<path fill="none" stroke="black" d="M614.22,-27.96C622.5,-28.27 632.13,-28.62 642.18,-28.99"/>
<polygon fill="black" stroke="black" points="642.21,-32.5 652.33,-29.37 642.46,-25.5 642.21,-32.5"/>
</g>
<!-- 1487279591920&#45;&gt;1487216291168 -->
<g id="edge20" class="edge">
<title>1487279591920&#45;&gt;1487216291168</title>
<path fill="none" stroke="black" d="M614.22,-209.19C628.22,-209.3 646.08,-209.43 663.31,-209.55"/>
<polygon fill="black" stroke="black" points="663.32,-213.05 673.35,-209.63 663.37,-206.05 663.32,-213.05"/>
</g>
<!-- 1487279591536&#45;&gt;1487279907024 -->
<g id="edge21" class="edge">
<title>1487279591536&#45;&gt;1487279907024</title>
<path fill="none" stroke="black" d="M1000.3,-215.68C1033.81,-220.45 1093.2,-228.92 1137.02,-235.16"/>
<polygon fill="black" stroke="black" points="1136.56,-238.63 1146.95,-236.58 1137.55,-231.7 1136.56,-238.63"/>
</g>
<!-- 1487216291024&#45;&gt;1487279910576 -->
<g id="edge22" class="edge">
<title>1487216291024&#45;&gt;1487279910576</title>
<path fill="none" stroke="black" d="M614.22,-280.81C626.7,-280.72 642.23,-280.6 657.65,-280.49"/>
<polygon fill="black" stroke="black" points="657.76,-283.99 667.74,-280.41 657.71,-276.99 657.76,-283.99"/>
</g>
<!-- 1487279906928&#45;&gt;1487279907024 -->
<g id="edge23" class="edge">
<title>1487279906928&#45;&gt;1487279907024</title>
<path fill="none" stroke="black" d="M1110.09,-265.97C1118.25,-263.68 1127.65,-261.04 1137.11,-258.39"/>
<polygon fill="black" stroke="black" points="1138.26,-261.7 1146.94,-255.63 1136.37,-254.96 1138.26,-261.7"/>
</g>
<!-- 1487279909280&#45;&gt;1487279909808 -->
<g id="edge24" class="edge">
<title>1487279909280&#45;&gt;1487279909808</title>
<path fill="none" stroke="black" d="M890.26,-276C898.01,-276 906.81,-276 915.69,-276"/>
<polygon fill="black" stroke="black" points="915.71,-279.5 925.71,-276 915.71,-272.5 915.71,-279.5"/>
</g>
<!-- 1487279591872&#45;&gt;1487279908512 -->
<g id="edge25" class="edge">
<title>1487279591872&#45;&gt;1487279908512</title>
<path fill="none" stroke="black" d="M1328.37,-249.05C1341.35,-252.14 1357.72,-256.05 1373.65,-259.85"/>
<polygon fill="black" stroke="black" points="1372.93,-263.27 1383.47,-262.19 1374.55,-256.46 1372.93,-263.27"/>
</g>
<!-- 1487279591872&#45;&gt;1487279908080 -->
<g id="edge26" class="edge">
<title>1487279591872&#45;&gt;1487279908080</title>
<path fill="none" stroke="black" d="M1328.68,-237.67C1336.48,-236.05 1345.49,-234.18 1354.88,-232.23"/>
<polygon fill="black" stroke="black" points="1355.69,-235.63 1364.77,-230.17 1354.26,-228.78 1355.69,-235.63"/>
</g>
<!-- 1487279908992&#45;&gt;1487279908224 -->
<g id="edge27" class="edge">
<title>1487279908992&#45;&gt;1487279908224</title>
<path fill="none" stroke="black" d="M1593.02,-279C1651.49,-279 1795.26,-279 1885.53,-279"/>
<polygon fill="black" stroke="black" points="1885.72,-282.5 1895.72,-279 1885.72,-275.5 1885.72,-282.5"/>
</g>
<!-- 1487279909520&#45;&gt;1487280170176 -->
<g id="edge28" class="edge">
<title>1487279909520&#45;&gt;1487280170176</title>
<path fill="none" stroke="black" d="M1593.04,-207C1600.59,-207 1609.37,-207 1618.82,-207"/>
<polygon fill="black" stroke="black" points="1618.89,-210.5 1628.89,-207 1618.89,-203.5 1618.89,-210.5"/>
</g>
<!-- 1487279910672&#45;&gt;1487280170656 -->
<g id="edge30" class="edge">
<title>1487279910672&#45;&gt;1487280170656</title>
<path fill="none" stroke="black" d="M2584.39,-181.06C2592.37,-178.87 2601.58,-176.36 2611.01,-173.77"/>
<polygon fill="black" stroke="black" points="2612.16,-177.09 2620.88,-171.07 2610.31,-170.34 2612.16,-177.09"/>
</g>
<!-- 1487279910672&#45;&gt;1487280172096 -->
<g id="edge29" class="edge">
<title>1487279910672&#45;&gt;1487280172096</title>
<path fill="none" stroke="black" d="M2584.39,-193.86C2593.55,-195.97 2604.32,-198.46 2615.2,-200.97"/>
<polygon fill="black" stroke="black" points="2614.65,-204.43 2625.18,-203.27 2616.22,-197.61 2614.65,-204.43"/>
</g>
<!-- 1487280171952&#45;&gt;1487280170272 -->
<g id="edge32" class="edge">
<title>1487280171952&#45;&gt;1487280170272</title>
<path fill="none" stroke="black" d="M1990.93,-201.13C2011.94,-196.27 2042.83,-189.14 2071.28,-182.57"/>
<polygon fill="black" stroke="black" points="2072.27,-185.93 2081.23,-180.27 2070.7,-179.11 2072.27,-185.93"/>
</g>
<!-- 1487280171952&#45;&gt;1487280169792 -->
<g id="edge31" class="edge">
<title>1487280171952&#45;&gt;1487280169792</title>
<path fill="none" stroke="black" d="M1991.69,-208.92C2009.57,-210.23 2034.35,-212.04 2058.69,-213.82"/>
<polygon fill="black" stroke="black" points="2058.47,-217.32 2068.7,-214.56 2058.98,-210.34 2058.47,-217.32"/>
</g>
<!-- 1487280172960&#45;&gt;1487280171616 -->
<g id="edge33" class="edge">
<title>1487280172960&#45;&gt;1487280171616</title>
<path fill="none" stroke="black" d="M2309.22,-188C2316.82,-188 2325.55,-188 2334.7,-188"/>
<polygon fill="black" stroke="black" points="2334.76,-191.5 2344.76,-188 2334.76,-184.5 2334.76,-191.5"/>
</g>
<!-- 1487280171568&#45;&gt;1487280170368 -->
<g id="edge34" class="edge">
<title>1487280171568&#45;&gt;1487280170368</title>
<path fill="none" stroke="black" d="M2823.22,-224C2831.38,-224 2840.86,-224 2850.75,-224"/>
<polygon fill="black" stroke="black" points="2850.76,-227.5 2860.76,-224 2850.76,-220.5 2850.76,-227.5"/>
</g>
<!-- 1487280170080&#45;&gt;1487280169216 -->
<g id="edge35" class="edge">
<title>1487280170080&#45;&gt;1487280169216</title>
<path fill="none" stroke="black" d="M2823.22,-153.74C2830.82,-154.24 2839.55,-154.82 2848.7,-155.42"/>
<polygon fill="black" stroke="black" points="2848.55,-158.92 2858.76,-156.09 2849.01,-151.93 2848.55,-158.92"/>
</g>
<!-- 1487279977472&#45;&gt;1487279610368 -->
<g id="edge36" class="edge">
<title>1487279977472&#45;&gt;1487279610368</title>
<path fill="none" stroke="black" d="M835.93,-82C787.23,-82 679.1,-82 588,-82 427.5,-82 427.5,-82 427.5,-82 357.54,-82 279.35,-88.37 217.42,-94.92"/>
<polygon fill="black" stroke="black" points="216.8,-91.47 207.23,-96.01 217.55,-98.43 216.8,-91.47"/>
</g>
<!-- 1487279610608&#45;&gt;1487279593312 -->
<g id="edge37" class="edge">
<title>1487279610608&#45;&gt;1487279593312</title>
<path fill="none" stroke="black" d="M297.19,-137C304.67,-137 313.31,-137 322.51,-137"/>
<polygon fill="black" stroke="black" points="322.68,-140.5 332.68,-137 322.68,-133.5 322.68,-140.5"/>
</g>
<!-- 1487279610608&#45;&gt;1487279593696 -->
<g id="edge38" class="edge">
<title>1487279610608&#45;&gt;1487279593696</title>
<path fill="none" stroke="black" d="M294.77,-147.94C320.69,-159.86 362.46,-179.08 392.21,-192.77"/>
<polygon fill="black" stroke="black" points="390.87,-196 401.42,-197 393.79,-189.64 390.87,-196"/>
</g>
<!-- 1487279611040&#45;&gt;1487279592112 -->
<g id="edge39" class="edge">
<title>1487279611040&#45;&gt;1487279592112</title>
<path fill="none" stroke="black" d="M614.22,-136.04C621.82,-135.76 630.55,-135.44 639.7,-135.1"/>
<polygon fill="black" stroke="black" points="639.89,-138.59 649.76,-134.73 639.64,-131.6 639.89,-138.59"/>
</g>
</g>
</svg>
