<?xml version="1.0" encoding="UTF-8" standalone="no"?>
<!DOCTYPE svg PUBLIC "-//W3C//DTD SVG 1.1//EN"
 "http://www.w3.org/Graphics/SVG/1.1/DTD/svg11.dtd">
<!-- Generated by graphviz version 2.49.0 (20210828.1703)
 -->
<!-- Title: imdf_net_1655279319.7152102 Pages: 1 -->
<svg width="3810pt" height="371pt"
 viewBox="0.00 0.00 3810.00 371.00" xmlns="http://www.w3.org/2000/svg" xmlns:xlink="http://www.w3.org/1999/xlink">
<g id="graph0" class="graph" transform="scale(1 1) rotate(0) translate(4 367)">
<title>imdf_net_1655279319.7152102</title>
<!-- 2631953384832 -->
<g id="node1" class="node">
<title>2631953384832</title>
<polygon fill="none" stroke="black" points="834,-299 739,-299 739,-263 834,-263 834,-299"/>
<text text-anchor="middle" x="786.5" y="-277.9" font-family="Times New Roman,serif" font-size="12.00">Assess_loan_risk</text>
</g>
<!-- 2631953387040 -->
<g id="node29" class="node">
<title>2631953387040</title>
<ellipse fill="none" stroke="black" cx="953" cy="-281" rx="27" ry="27"/>
</g>
<!-- 2631953384832&#45;&gt;2631953387040 -->
<g id="edge7" class="edge">
<title>2631953384832&#45;&gt;2631953387040</title>
<path fill="none" stroke="black" d="M834.2,-281C860.01,-281 891.62,-281 915.59,-281"/>
<polygon fill="black" stroke="black" points="915.68,-284.5 925.68,-281 915.68,-277.5 915.68,-284.5"/>
</g>
<!-- 2631953106688 -->
<g id="node2" class="node">
<title>2631953106688</title>
<polygon fill="black" stroke="black" points="1552,-299 1498,-299 1498,-263 1552,-263 1552,-299"/>
</g>
<!-- 2631953106112 -->
<g id="node35" class="node">
<title>2631953106112</title>
<ellipse fill="none" stroke="black" cx="1656.5" cy="-281" rx="27" ry="27"/>
</g>
<!-- 2631953106688&#45;&gt;2631953106112 -->
<g id="edge21" class="edge">
<title>2631953106688&#45;&gt;2631953106112</title>
<path fill="none" stroke="black" d="M1552.21,-281C1571.43,-281 1597.77,-281 1619.04,-281"/>
<polygon fill="black" stroke="black" points="1619.33,-284.5 1629.33,-281 1619.33,-277.5 1619.33,-284.5"/>
</g>
<!-- 2631952409120 -->
<g id="node3" class="node">
<title>2631952409120</title>
<polygon fill="none" stroke="black" points="890,-145 683,-145 683,-109 890,-109 890,-145"/>
<text text-anchor="middle" x="786.5" y="-123.9" font-family="Times New Roman,serif" font-size="12.00">Check__application__form_completeness</text>
</g>
<!-- 2631952411760 -->
<g id="node44" class="node">
<title>2631952411760</title>
<ellipse fill="none" stroke="black" cx="27" cy="-154" rx="27" ry="27"/>
</g>
<!-- 2631952409120&#45;&gt;2631952411760 -->
<g id="edge11" class="edge">
<title>2631952409120&#45;&gt;2631952411760</title>
<path fill="none" stroke="black" d="M682.79,-140.74C624.34,-147.41 549.7,-154 483,-154 343,-154 343,-154 343,-154 242.09,-154 123,-154 64.36,-154"/>
<polygon fill="black" stroke="black" points="64.14,-150.5 54.14,-154 64.14,-157.5 64.14,-150.5"/>
</g>
<!-- 2631953383584 -->
<g id="node4" class="node">
<title>2631953383584</title>
<polygon fill="none" stroke="black" points="1725,-227 1588,-227 1588,-191 1725,-191 1725,-227"/>
<text text-anchor="middle" x="1656.5" y="-205.9" font-family="Times New Roman,serif" font-size="12.00">Loan_application_rejected</text>
</g>
<!-- 2631952719776 -->
<g id="node46" class="node">
<title>2631952719776</title>
<ellipse fill="none" stroke="black" cx="3771" cy="-264" rx="27" ry="27"/>
<ellipse fill="none" stroke="black" cx="3771" cy="-264" rx="31" ry="31"/>
<text text-anchor="start" x="3761" y="-255.9" font-family="Times New Roman,serif" font-size="32.00">■</text>
</g>
<!-- 2631953383584&#45;&gt;2631952719776 -->
<g id="edge12" class="edge">
<title>2631953383584&#45;&gt;2631952719776</title>
<path fill="none" stroke="black" d="M1725.2,-209C1804.14,-209 1938.53,-209 2054,-209 2054,-209 2054,-209 3492,-209 3587.04,-209 3612.15,-212.58 3704,-237 3713.68,-239.57 3723.83,-243.22 3733.19,-247"/>
<polygon fill="black" stroke="black" points="3732.03,-250.3 3742.61,-250.95 3734.74,-243.85 3732.03,-250.3"/>
</g>
<!-- 2631953383968 -->
<g id="node5" class="node">
<title>2631953383968</title>
<polygon fill="none" stroke="black" points="1372,-294 1234,-294 1234,-258 1372,-258 1372,-294"/>
<text text-anchor="middle" x="1303" y="-272.9" font-family="Times New Roman,serif" font-size="12.00">Prepare_acceptance_pack</text>
</g>
<!-- 2631953384976 -->
<g id="node33" class="node">
<title>2631953384976</title>
<ellipse fill="none" stroke="black" cx="1435" cy="-281" rx="27" ry="27"/>
</g>
<!-- 2631953383968&#45;&gt;2631953384976 -->
<g id="edge17" class="edge">
<title>2631953383968&#45;&gt;2631953384976</title>
<path fill="none" stroke="black" d="M1372.05,-278.62C1380.93,-278.96 1389.74,-279.3 1397.81,-279.61"/>
<polygon fill="black" stroke="black" points="1397.8,-283.11 1407.93,-280 1398.07,-276.12 1397.8,-283.11"/>
</g>
<!-- 2631953105440 -->
<g id="node6" class="node">
<title>2631953105440</title>
<polygon fill="none" stroke="black" points="2483,-338 2394,-338 2394,-302 2483,-302 2483,-338"/>
<text text-anchor="middle" x="2438.5" y="-316.9" font-family="Times New Roman,serif" font-size="12.00">Added_Acitvity</text>
</g>
<!-- 2631953105632 -->
<g id="node39" class="node">
<title>2631953105632</title>
<ellipse fill="none" stroke="black" cx="2546" cy="-320" rx="27" ry="27"/>
</g>
<!-- 2631953105440&#45;&gt;2631953105632 -->
<g id="edge10" class="edge">
<title>2631953105440&#45;&gt;2631953105632</title>
<path fill="none" stroke="black" d="M2483.02,-320C2491.56,-320 2500.43,-320 2508.71,-320"/>
<polygon fill="black" stroke="black" points="2508.8,-323.5 2518.8,-320 2508.8,-316.5 2508.8,-323.5"/>
</g>
<!-- 2631953107744 -->
<g id="node7" class="node">
<title>2631953107744</title>
<polygon fill="none" stroke="black" points="2734,-338 2609,-338 2609,-302 2734,-302 2734,-338"/>
<text text-anchor="middle" x="2671.5" y="-316.9" font-family="Times New Roman,serif" font-size="12.00">Send_acceptance_pack</text>
</g>
<!-- 2631953108224 -->
<g id="node40" class="node">
<title>2631953108224</title>
<ellipse fill="none" stroke="black" cx="2797" cy="-320" rx="27" ry="27"/>
</g>
<!-- 2631953107744&#45;&gt;2631953108224 -->
<g id="edge13" class="edge">
<title>2631953107744&#45;&gt;2631953108224</title>
<path fill="none" stroke="black" d="M2734.25,-320C2742.97,-320 2751.69,-320 2759.72,-320"/>
<polygon fill="black" stroke="black" points="2759.81,-323.5 2769.81,-320 2759.81,-316.5 2759.81,-323.5"/>
</g>
<!-- 2631952410800 -->
<g id="node8" class="node">
<title>2631952410800</title>
<polygon fill="none" stroke="black" points="281,-122 90,-122 90,-86 281,-86 281,-122"/>
<text text-anchor="middle" x="185.5" y="-100.9" font-family="Times New Roman,serif" font-size="12.00">Return_application_back_to_applicant</text>
</g>
<!-- 2631952410704 -->
<g id="node45" class="node">
<title>2631952410704</title>
<ellipse fill="none" stroke="black" cx="344" cy="-99" rx="27" ry="27"/>
</g>
<!-- 2631952410800&#45;&gt;2631952410704 -->
<g id="edge6" class="edge">
<title>2631952410800&#45;&gt;2631952410704</title>
<path fill="none" stroke="black" d="M281.15,-100.98C290.09,-100.69 298.73,-100.41 306.57,-100.16"/>
<polygon fill="black" stroke="black" points="306.85,-103.66 316.73,-99.84 306.63,-96.66 306.85,-103.66"/>
</g>
<!-- 2631952411184 -->
<g id="node9" class="node">
<title>2631952411184</title>
<polygon fill="none" stroke="black" points="557,-117 407,-117 407,-81 557,-81 557,-117"/>
<text text-anchor="middle" x="482" y="-95.9" font-family="Times New Roman,serif" font-size="12.00">Receive_updated_application</text>
</g>
<!-- 2631952410512 -->
<g id="node43" class="node">
<title>2631952410512</title>
<ellipse fill="none" stroke="black" cx="620" cy="-99" rx="27" ry="27"/>
</g>
<!-- 2631952411184&#45;&gt;2631952410512 -->
<g id="edge9" class="edge">
<title>2631952411184&#45;&gt;2631952410512</title>
<path fill="none" stroke="black" d="M557.37,-99C566.15,-99 574.79,-99 582.69,-99"/>
<polygon fill="black" stroke="black" points="582.96,-102.5 592.96,-99 582.96,-95.5 582.96,-102.5"/>
</g>
<!-- 2631953386416 -->
<g id="node10" class="node">
<title>2631953386416</title>
<polygon fill="none" stroke="black" points="539,-299 425,-299 425,-263 539,-263 539,-299"/>
<text text-anchor="middle" x="482" y="-277.9" font-family="Times New Roman,serif" font-size="12.00">Check_credit_history</text>
</g>
<!-- 2631953386944 -->
<g id="node30" class="node">
<title>2631953386944</title>
<ellipse fill="none" stroke="black" cx="620" cy="-281" rx="27" ry="27"/>
</g>
<!-- 2631953386416&#45;&gt;2631953386944 -->
<g id="edge1" class="edge">
<title>2631953386416&#45;&gt;2631953386944</title>
<path fill="none" stroke="black" d="M539.1,-281C553.77,-281 569.19,-281 582.54,-281"/>
<polygon fill="black" stroke="black" points="582.74,-284.5 592.74,-281 582.74,-277.5 582.74,-284.5"/>
</g>
<!-- 2631953108272 -->
<g id="node11" class="node">
<title>2631953108272</title>
<polygon fill="none" stroke="black" points="2268,-338 2118,-338 2118,-302 2268,-302 2268,-338"/>
<text text-anchor="middle" x="2193" y="-316.9" font-family="Times New Roman,serif" font-size="12.00">Send_home_insurance_quote</text>
</g>
<!-- 2631953107888 -->
<g id="node38" class="node">
<title>2631953107888</title>
<ellipse fill="none" stroke="black" cx="2331" cy="-320" rx="27" ry="27"/>
</g>
<!-- 2631953108272&#45;&gt;2631953107888 -->
<g id="edge18" class="edge">
<title>2631953108272&#45;&gt;2631953107888</title>
<path fill="none" stroke="black" d="M2268.37,-320C2277.15,-320 2285.79,-320 2293.69,-320"/>
<polygon fill="black" stroke="black" points="2293.96,-323.5 2303.96,-320 2293.96,-316.5 2293.96,-323.5"/>
</g>
<!-- 2631952401840 -->
<g id="node12" class="node">
<title>2631952401840</title>
<polygon fill="none" stroke="black" points="3704,-282 3554,-282 3554,-246 3704,-246 3704,-282"/>
<text text-anchor="middle" x="3629" y="-260.9" font-family="Times New Roman,serif" font-size="12.00">Loan__application_approved</text>
</g>
<!-- 2631952401840&#45;&gt;2631952719776 -->
<g id="edge20" class="edge">
<title>2631952401840&#45;&gt;2631952719776</title>
<path fill="none" stroke="black" d="M3704.1,-264C3712.86,-264 3721.53,-264 3729.56,-264"/>
<polygon fill="black" stroke="black" points="3729.71,-267.5 3739.71,-264 3729.71,-260.5 3729.71,-267.5"/>
</g>
<!-- 2631953387328 -->
<g id="node13" class="node">
<title>2631953387328</title>
<polygon fill="none" stroke="black" points="533.5,-227 430.5,-227 430.5,-191 533.5,-191 533.5,-227"/>
<text text-anchor="middle" x="482" y="-205.9" font-family="Times New Roman,serif" font-size="12.00">Appraise_property</text>
</g>
<!-- 2631953384256 -->
<g id="node27" class="node">
<title>2631953384256</title>
<ellipse fill="none" stroke="black" cx="953" cy="-209" rx="27" ry="27"/>
</g>
<!-- 2631953387328&#45;&gt;2631953384256 -->
<g id="edge8" class="edge">
<title>2631953387328&#45;&gt;2631953384256</title>
<path fill="none" stroke="black" d="M533.64,-209C628.94,-209 832.83,-209 915.78,-209"/>
<polygon fill="black" stroke="black" points="915.97,-212.5 925.97,-209 915.97,-205.5 915.97,-212.5"/>
</g>
<!-- 2631953386176 -->
<g id="node14" class="node">
<title>2631953386176</title>
<polygon fill="none" stroke="black" points="1108,-263 1016,-263 1016,-227 1108,-227 1108,-263"/>
<text text-anchor="middle" x="1062" y="-241.9" font-family="Times New Roman,serif" font-size="12.00">Assess_eligibility</text>
</g>
<!-- 2631953384592 -->
<g id="node31" class="node">
<title>2631953384592</title>
<ellipse fill="none" stroke="black" cx="1171" cy="-245" rx="27" ry="27"/>
</g>
<!-- 2631953386176&#45;&gt;2631953384592 -->
<g id="edge2" class="edge">
<title>2631953386176&#45;&gt;2631953384592</title>
<path fill="none" stroke="black" d="M1108.07,-245C1116.66,-245 1125.55,-245 1133.83,-245"/>
<polygon fill="black" stroke="black" points="1133.9,-248.5 1143.9,-245 1133.9,-241.5 1133.9,-248.5"/>
</g>
<!-- 2631953108416 -->
<g id="node15" class="node">
<title>2631953108416</title>
<polygon fill="none" stroke="black" points="3010,-338 2860,-338 2860,-302 3010,-302 3010,-338"/>
<text text-anchor="middle" x="2935" y="-316.9" font-family="Times New Roman,serif" font-size="12.00">Verify_repayment_agreement</text>
</g>
<!-- 2631953106736 -->
<g id="node36" class="node">
<title>2631953106736</title>
<ellipse fill="none" stroke="black" cx="3073" cy="-320" rx="27" ry="27"/>
</g>
<!-- 2631953108416&#45;&gt;2631953106736 -->
<g id="edge15" class="edge">
<title>2631953108416&#45;&gt;2631953106736</title>
<path fill="none" stroke="black" d="M3010.37,-320C3019.15,-320 3027.79,-320 3035.69,-320"/>
<polygon fill="black" stroke="black" points="3035.96,-323.5 3045.96,-320 3035.96,-316.5 3035.96,-323.5"/>
</g>
<!-- 2631953105728 -->
<g id="node16" class="node">
<title>2631953105728</title>
<polygon fill="black" stroke="black" points="3190,-338 3136,-338 3136,-302 3190,-302 3190,-338"/>
</g>
<!-- 2631953383920 -->
<g id="node34" class="node">
<title>2631953383920</title>
<ellipse fill="none" stroke="black" cx="3253" cy="-320" rx="27" ry="27"/>
</g>
<!-- 2631953105728&#45;&gt;2631953383920 -->
<g id="edge46" class="edge">
<title>2631953105728&#45;&gt;2631953383920</title>
<path fill="none" stroke="black" d="M3190.4,-320C3198.39,-320 3207.31,-320 3215.82,-320"/>
<polygon fill="black" stroke="black" points="3215.92,-323.5 3225.92,-320 3215.92,-316.5 3215.92,-323.5"/>
</g>
<!-- 2631953313600 -->
<g id="node17" class="node">
<title>2631953313600</title>
<polygon fill="none" stroke="black" points="3702,-345 3556,-345 3556,-309 3702,-309 3702,-345"/>
<text text-anchor="middle" x="3629" y="-323.9" font-family="Times New Roman,serif" font-size="12.00">Loan__application_canceled</text>
</g>
<!-- 2631953313600&#45;&gt;2631952719776 -->
<g id="edge5" class="edge">
<title>2631953313600&#45;&gt;2631952719776</title>
<path fill="none" stroke="black" d="M3670.12,-308.95C3689.98,-300.01 3713.79,-289.3 3733.18,-280.57"/>
<polygon fill="black" stroke="black" points="3734.62,-283.76 3742.31,-276.46 3731.75,-277.37 3734.62,-283.76"/>
</g>
<!-- 2631953310528 -->
<g id="node18" class="node">
<title>2631953310528</title>
<polygon fill="none" stroke="black" points="3428,-291 3316,-291 3316,-255 3428,-255 3428,-291"/>
<text text-anchor="middle" x="3372" y="-269.9" font-family="Times New Roman,serif" font-size="12.00">Approve_application</text>
</g>
<!-- 2631953309952 -->
<g id="node42" class="node">
<title>2631953309952</title>
<ellipse fill="none" stroke="black" cx="3491" cy="-264" rx="27" ry="27"/>
</g>
<!-- 2631953310528&#45;&gt;2631953309952 -->
<g id="edge19" class="edge">
<title>2631953310528&#45;&gt;2631953309952</title>
<path fill="none" stroke="black" d="M3428.07,-268.76C3436.73,-268.1 3445.48,-267.42 3453.58,-266.8"/>
<polygon fill="black" stroke="black" points="3454.07,-270.27 3463.77,-266.02 3453.53,-263.29 3454.07,-270.27"/>
</g>
<!-- 2631953107408 -->
<g id="node19" class="node">
<title>2631953107408</title>
<polygon fill="none" stroke="black" points="1992,-333 1761,-333 1761,-297 1992,-297 1992,-333"/>
<text text-anchor="middle" x="1876.5" y="-311.9" font-family="Times New Roman,serif" font-size="12.00">Check_if_home_insurance_quote_is_requested</text>
</g>
<!-- 2631953108128 -->
<g id="node37" class="node">
<title>2631953108128</title>
<ellipse fill="none" stroke="black" cx="2055" cy="-320" rx="27" ry="27"/>
</g>
<!-- 2631953107408&#45;&gt;2631953108128 -->
<g id="edge16" class="edge">
<title>2631953107408&#45;&gt;2631953108128</title>
<path fill="none" stroke="black" d="M1992.27,-318.25C2001.32,-318.51 2009.97,-318.75 2017.76,-318.97"/>
<polygon fill="black" stroke="black" points="2017.74,-322.47 2027.84,-319.26 2017.94,-315.48 2017.74,-322.47"/>
</g>
<!-- 2631953105104 -->
<g id="node20" class="node">
<title>2631953105104</title>
<polygon fill="none" stroke="black" points="3423.5,-349 3320.5,-349 3320.5,-313 3423.5,-313 3423.5,-349"/>
<text text-anchor="middle" x="3372" y="-327.9" font-family="Times New Roman,serif" font-size="12.00">Cancel_application</text>
</g>
<!-- 2631953106160 -->
<g id="node41" class="node">
<title>2631953106160</title>
<ellipse fill="none" stroke="black" cx="3491" cy="-336" rx="27" ry="27"/>
</g>
<!-- 2631953105104&#45;&gt;2631953106160 -->
<g id="edge3" class="edge">
<title>2631953105104&#45;&gt;2631953106160</title>
<path fill="none" stroke="black" d="M3423.64,-333.16C3433.69,-333.59 3444.06,-334.04 3453.52,-334.44"/>
<polygon fill="black" stroke="black" points="3453.62,-337.95 3463.76,-334.88 3453.92,-330.95 3453.62,-337.95"/>
</g>
<!-- 2631952410848 -->
<g id="node21" class="node">
<title>2631952410848</title>
<polygon fill="none" stroke="black" points="554.5,-54 409.5,-54 409.5,-18 554.5,-18 554.5,-54"/>
<text text-anchor="middle" x="482" y="-32.9" font-family="Times New Roman,serif" font-size="12.00">Loan__application_received</text>
</g>
<!-- 2631952410848&#45;&gt;2631952410512 -->
<g id="edge14" class="edge">
<title>2631952410848&#45;&gt;2631952410512</title>
<path fill="none" stroke="black" d="M521.97,-54.05C542.12,-63.38 566.44,-74.65 585.7,-83.57"/>
<polygon fill="black" stroke="black" points="584.44,-86.85 594.98,-87.87 587.38,-80.49 584.44,-86.85"/>
</g>
<!-- 2631952409312 -->
<g id="node22" class="node">
<title>2631952409312</title>
<polygon fill="black" stroke="black" points="212.5,-227 158.5,-227 158.5,-191 212.5,-191 212.5,-227"/>
</g>
<!-- 2631953386032 -->
<g id="node26" class="node">
<title>2631953386032</title>
<ellipse fill="none" stroke="black" cx="344" cy="-209" rx="27" ry="27"/>
</g>
<!-- 2631952409312&#45;&gt;2631953386032 -->
<g id="edge47" class="edge">
<title>2631952409312&#45;&gt;2631953386032</title>
<path fill="none" stroke="black" d="M212.69,-209C238.5,-209 278.13,-209 306.91,-209"/>
<polygon fill="black" stroke="black" points="306.98,-212.5 316.98,-209 306.98,-205.5 306.98,-212.5"/>
</g>
<!-- 2631953387232 -->
<g id="node28" class="node">
<title>2631953387232</title>
<ellipse fill="none" stroke="black" cx="344" cy="-281" rx="27" ry="27"/>
</g>
<!-- 2631952409312&#45;&gt;2631953387232 -->
<g id="edge48" class="edge">
<title>2631952409312&#45;&gt;2631953387232</title>
<path fill="none" stroke="black" d="M212.69,-221.05C239.43,-233.35 281.01,-252.48 309.98,-265.81"/>
<polygon fill="black" stroke="black" points="308.74,-269.09 319.29,-270.09 311.66,-262.73 308.74,-269.09"/>
</g>
<!-- 2631953107552 -->
<g id="node23" class="node">
<title>2631953107552</title>
<polygon fill="black" stroke="black" points="3190,-284 3136,-284 3136,-248 3190,-248 3190,-284"/>
</g>
<!-- 2631953107552&#45;&gt;2631953106112 -->
<g id="edge49" class="edge">
<title>2631953107552&#45;&gt;2631953106112</title>
<path fill="none" stroke="black" d="M3135.9,-265.81C3093.82,-265.52 3008.39,-265 2936,-265 2054,-265 2054,-265 2054,-265 1920.98,-265 1763.05,-274.1 1693.47,-278.58"/>
<polygon fill="black" stroke="black" points="1693.22,-275.08 1683.46,-279.23 1693.67,-282.07 1693.22,-275.08"/>
</g>
<!-- 2631953383536 -->
<g id="node24" class="node">
<title>2631953383536</title>
<polygon fill="none" stroke="black" points="1353.5,-236 1252.5,-236 1252.5,-200 1353.5,-200 1353.5,-236"/>
<text text-anchor="middle" x="1303" y="-214.9" font-family="Times New Roman,serif" font-size="12.00">Reject_application</text>
</g>
<!-- 2631953385072 -->
<g id="node32" class="node">
<title>2631953385072</title>
<ellipse fill="none" stroke="black" cx="1435" cy="-209" rx="27" ry="27"/>
</g>
<!-- 2631953383536&#45;&gt;2631953385072 -->
<g id="edge4" class="edge">
<title>2631953383536&#45;&gt;2631953385072</title>
<path fill="none" stroke="black" d="M1353.52,-214.57C1368.27,-213.55 1384.15,-212.45 1397.88,-211.5"/>
<polygon fill="black" stroke="black" points="1398.16,-214.99 1407.9,-210.81 1397.68,-208.01 1398.16,-214.99"/>
</g>
<!-- 2631952719392 -->
<g id="node25" class="node">
<title>2631952719392</title>
<ellipse fill="none" stroke="black" cx="344" cy="-27" rx="27" ry="27"/>
<text text-anchor="start" x="333" y="-18.3" font-family="Times New Roman,serif" font-size="34.00">●</text>
</g>
<!-- 2631952719392&#45;&gt;2631952410848 -->
<g id="edge50" class="edge">
<title>2631952719392&#45;&gt;2631952410848</title>
<path fill="none" stroke="black" d="M371.22,-28.74C379.5,-29.28 389.13,-29.92 399.18,-30.59"/>
<polygon fill="black" stroke="black" points="399.12,-34.09 409.33,-31.26 399.58,-27.1 399.12,-34.09"/>
</g>
<!-- 2631953386032&#45;&gt;2631953387328 -->
<g id="edge22" class="edge">
<title>2631953386032&#45;&gt;2631953387328</title>
<path fill="none" stroke="black" d="M371.22,-209C385.22,-209 403.08,-209 420.31,-209"/>
<polygon fill="black" stroke="black" points="420.35,-212.5 430.35,-209 420.35,-205.5 420.35,-212.5"/>
</g>
<!-- 2631953384256&#45;&gt;2631953386176 -->
<g id="edge23" class="edge">
<title>2631953384256&#45;&gt;2631953386176</title>
<path fill="none" stroke="black" d="M978.82,-217.35C987.06,-220.12 996.59,-223.33 1006.18,-226.56"/>
<polygon fill="black" stroke="black" points="1005.14,-229.9 1015.74,-229.77 1007.38,-223.27 1005.14,-229.9"/>
</g>
<!-- 2631953387232&#45;&gt;2631953386416 -->
<g id="edge24" class="edge">
<title>2631953387232&#45;&gt;2631953386416</title>
<path fill="none" stroke="black" d="M371.22,-281C383.7,-281 399.23,-281 414.65,-281"/>
<polygon fill="black" stroke="black" points="414.74,-284.5 424.74,-281 414.74,-277.5 414.74,-284.5"/>
</g>
<!-- 2631953387040&#45;&gt;2631953386176 -->
<g id="edge25" class="edge">
<title>2631953387040&#45;&gt;2631953386176</title>
<path fill="none" stroke="black" d="M978.82,-272.65C987.06,-269.88 996.59,-266.67 1006.18,-263.44"/>
<polygon fill="black" stroke="black" points="1007.38,-266.73 1015.74,-260.23 1005.14,-260.1 1007.38,-266.73"/>
</g>
<!-- 2631953386944&#45;&gt;2631953384832 -->
<g id="edge26" class="edge">
<title>2631953386944&#45;&gt;2631953384832</title>
<path fill="none" stroke="black" d="M647.07,-281C668.84,-281 700.66,-281 728.32,-281"/>
<polygon fill="black" stroke="black" points="728.68,-284.5 738.68,-281 728.68,-277.5 728.68,-284.5"/>
</g>
<!-- 2631953384592&#45;&gt;2631953383968 -->
<g id="edge28" class="edge">
<title>2631953384592&#45;&gt;2631953383968</title>
<path fill="none" stroke="black" d="M1197.37,-251.05C1205.22,-252.92 1214.3,-255.09 1223.78,-257.35"/>
<polygon fill="black" stroke="black" points="1223.23,-260.81 1233.76,-259.73 1224.85,-254 1223.23,-260.81"/>
</g>
<!-- 2631953384592&#45;&gt;2631953383536 -->
<g id="edge27" class="edge">
<title>2631953384592&#45;&gt;2631953383536</title>
<path fill="none" stroke="black" d="M1197.68,-239.67C1210.49,-237.01 1226.56,-233.67 1242.22,-230.42"/>
<polygon fill="black" stroke="black" points="1243.34,-233.76 1252.42,-228.3 1241.92,-226.9 1243.34,-233.76"/>
</g>
<!-- 2631953385072&#45;&gt;2631953383584 -->
<g id="edge29" class="edge">
<title>2631953385072&#45;&gt;2631953383584</title>
<path fill="none" stroke="black" d="M1462.04,-209C1490.41,-209 1537.16,-209 1577.59,-209"/>
<polygon fill="black" stroke="black" points="1577.72,-212.5 1587.72,-209 1577.72,-205.5 1577.72,-212.5"/>
</g>
<!-- 2631953384976&#45;&gt;2631953106688 -->
<g id="edge30" class="edge">
<title>2631953384976&#45;&gt;2631953106688</title>
<path fill="none" stroke="black" d="M1462.4,-281C1470.39,-281 1479.31,-281 1487.82,-281"/>
<polygon fill="black" stroke="black" points="1487.92,-284.5 1497.92,-281 1487.92,-277.5 1487.92,-284.5"/>
</g>
<!-- 2631953383920&#45;&gt;2631953310528 -->
<g id="edge32" class="edge">
<title>2631953383920&#45;&gt;2631953310528</title>
<path fill="none" stroke="black" d="M3278.24,-310.26C3289.34,-305.8 3302.97,-300.33 3316.34,-294.96"/>
<polygon fill="black" stroke="black" points="3318.01,-298.06 3325.98,-291.08 3315.4,-291.56 3318.01,-298.06"/>
</g>
<!-- 2631953383920&#45;&gt;2631953105104 -->
<g id="edge31" class="edge">
<title>2631953383920&#45;&gt;2631953105104</title>
<path fill="none" stroke="black" d="M3279.97,-322.44C3288.95,-323.29 3299.42,-324.27 3310.01,-325.27"/>
<polygon fill="black" stroke="black" points="3309.87,-328.77 3320.15,-326.22 3310.52,-321.8 3309.87,-328.77"/>
</g>
<!-- 2631953106112&#45;&gt;2631953107408 -->
<g id="edge33" class="edge">
<title>2631953106112&#45;&gt;2631953107408</title>
<path fill="none" stroke="black" d="M1683.36,-285.03C1700.74,-287.74 1725.05,-291.54 1750.55,-295.51"/>
<polygon fill="black" stroke="black" points="1750.34,-299.02 1760.76,-297.1 1751.42,-292.11 1750.34,-299.02"/>
</g>
<!-- 2631953106736&#45;&gt;2631953105728 -->
<g id="edge34" class="edge">
<title>2631953106736&#45;&gt;2631953105728</title>
<path fill="none" stroke="black" d="M3100.4,-320C3108.39,-320 3117.31,-320 3125.82,-320"/>
<polygon fill="black" stroke="black" points="3125.92,-323.5 3135.92,-320 3125.92,-316.5 3125.92,-323.5"/>
</g>
<!-- 2631953106736&#45;&gt;2631953107552 -->
<g id="edge35" class="edge">
<title>2631953106736&#45;&gt;2631953107552</title>
<path fill="none" stroke="black" d="M3096.66,-306.09C3105.96,-300.39 3116.93,-293.66 3127.2,-287.35"/>
<polygon fill="black" stroke="black" points="3129.3,-290.18 3135.99,-281.96 3125.63,-284.21 3129.3,-290.18"/>
</g>
<!-- 2631953108128&#45;&gt;2631953108272 -->
<g id="edge36" class="edge">
<title>2631953108128&#45;&gt;2631953108272</title>
<path fill="none" stroke="black" d="M2082.22,-320C2089.82,-320 2098.55,-320 2107.7,-320"/>
<polygon fill="black" stroke="black" points="2107.76,-323.5 2117.76,-320 2107.76,-316.5 2107.76,-323.5"/>
</g>
<!-- 2631953107888&#45;&gt;2631953105440 -->
<g id="edge37" class="edge">
<title>2631953107888&#45;&gt;2631953105440</title>
<path fill="none" stroke="black" d="M2358.08,-320C2365.88,-320 2374.74,-320 2383.64,-320"/>
<polygon fill="black" stroke="black" points="2383.66,-323.5 2393.66,-320 2383.66,-316.5 2383.66,-323.5"/>
</g>
<!-- 2631953105632&#45;&gt;2631953107744 -->
<g id="edge38" class="edge">
<title>2631953105632&#45;&gt;2631953107744</title>
<path fill="none" stroke="black" d="M2573.19,-320C2580.8,-320 2589.51,-320 2598.52,-320"/>
<polygon fill="black" stroke="black" points="2598.77,-323.5 2608.77,-320 2598.77,-316.5 2598.77,-323.5"/>
</g>
<!-- 2631953108224&#45;&gt;2631953108416 -->
<g id="edge39" class="edge">
<title>2631953108224&#45;&gt;2631953108416</title>
<path fill="none" stroke="black" d="M2824.22,-320C2831.82,-320 2840.55,-320 2849.7,-320"/>
<polygon fill="black" stroke="black" points="2849.76,-323.5 2859.76,-320 2849.76,-316.5 2849.76,-323.5"/>
</g>
<!-- 2631953106160&#45;&gt;2631953313600 -->
<g id="edge40" class="edge">
<title>2631953106160&#45;&gt;2631953313600</title>
<path fill="none" stroke="black" d="M3518.22,-334.26C3526.38,-333.72 3535.86,-333.1 3545.75,-332.44"/>
<polygon fill="black" stroke="black" points="3546.01,-335.93 3555.76,-331.78 3545.55,-328.95 3546.01,-335.93"/>
</g>
<!-- 2631953309952&#45;&gt;2631952401840 -->
<g id="edge41" class="edge">
<title>2631953309952&#45;&gt;2631952401840</title>
<path fill="none" stroke="black" d="M3518.22,-264C3525.82,-264 3534.55,-264 3543.7,-264"/>
<polygon fill="black" stroke="black" points="3543.76,-267.5 3553.76,-264 3543.76,-260.5 3543.76,-267.5"/>
</g>
<!-- 2631952410512&#45;&gt;2631952409120 -->
<g id="edge42" class="edge">
<title>2631952410512&#45;&gt;2631952409120</title>
<path fill="none" stroke="black" d="M646.7,-103.38C654.35,-104.68 663.26,-106.19 672.8,-107.82"/>
<polygon fill="black" stroke="black" points="672.51,-111.32 682.96,-109.55 673.69,-104.42 672.51,-111.32"/>
</g>
<!-- 2631952411760&#45;&gt;2631952410800 -->
<g id="edge43" class="edge">
<title>2631952411760&#45;&gt;2631952410800</title>
<path fill="none" stroke="black" d="M53.14,-145.97C70.76,-140.34 95.17,-132.54 118.18,-125.19"/>
<polygon fill="black" stroke="black" points="119.47,-128.45 127.93,-122.07 117.34,-121.78 119.47,-128.45"/>
</g>
<!-- 2631952411760&#45;&gt;2631952409312 -->
<g id="edge44" class="edge">
<title>2631952411760&#45;&gt;2631952409312</title>
<path fill="none" stroke="black" d="M52.8,-162.71C78.66,-171.8 119.45,-186.14 148.78,-196.45"/>
<polygon fill="black" stroke="black" points="147.66,-199.76 158.25,-199.78 149.98,-193.16 147.66,-199.76"/>
</g>
<!-- 2631952410704&#45;&gt;2631952411184 -->
<g id="edge45" class="edge">
<title>2631952410704&#45;&gt;2631952411184</title>
<path fill="none" stroke="black" d="M371.22,-99C378.82,-99 387.55,-99 396.7,-99"/>
<polygon fill="black" stroke="black" points="396.76,-102.5 406.76,-99 396.76,-95.5 396.76,-102.5"/>
</g>
</g>
</svg>
