<?xml version="1.0" encoding="UTF-8" standalone="no"?>
<!DOCTYPE svg PUBLIC "-//W3C//DTD SVG 1.1//EN"
 "http://www.w3.org/Graphics/SVG/1.1/DTD/svg11.dtd">
<!-- Generated by graphviz version 2.49.0 (20210828.1703)
 -->
<!-- Title: imdf_net_1655279320.5445657 Pages: 1 -->
<svg width="2984pt" height="371pt"
 viewBox="0.00 0.00 2984.00 371.00" xmlns="http://www.w3.org/2000/svg" xmlns:xlink="http://www.w3.org/1999/xlink">
<g id="graph0" class="graph" transform="scale(1 1) rotate(0) translate(4 367)">
<title>imdf_net_1655279320.5445657</title>
<!-- 2631954119936 -->
<g id="node1" class="node">
<title>2631954119936</title>
<polygon fill="none" stroke="black" points="2088,-286 1938,-286 1938,-250 2088,-250 2088,-286"/>
<text text-anchor="middle" x="2013" y="-264.9" font-family="Times New Roman,serif" font-size="12.00">Send_home_insurance_quote</text>
</g>
<!-- 2631954119408 -->
<g id="node32" class="node">
<title>2631954119408</title>
<ellipse fill="none" stroke="black" cx="2151" cy="-295" rx="27" ry="27"/>
</g>
<!-- 2631954119936&#45;&gt;2631954119408 -->
<g id="edge17" class="edge">
<title>2631954119936&#45;&gt;2631954119408</title>
<path fill="none" stroke="black" d="M2088.37,-282.76C2097.34,-284.54 2106.15,-286.3 2114.19,-287.89"/>
<polygon fill="black" stroke="black" points="2113.77,-291.38 2124.26,-289.89 2115.13,-284.51 2113.77,-291.38"/>
</g>
<!-- 2631953947280 -->
<g id="node2" class="node">
<title>2631953947280</title>
<polygon fill="none" stroke="black" points="557,-117 407,-117 407,-81 557,-81 557,-117"/>
<text text-anchor="middle" x="482" y="-95.9" font-family="Times New Roman,serif" font-size="12.00">Receive_updated_application</text>
</g>
<!-- 2631953794672 -->
<g id="node35" class="node">
<title>2631953794672</title>
<ellipse fill="none" stroke="black" cx="620" cy="-99" rx="27" ry="27"/>
</g>
<!-- 2631953947280&#45;&gt;2631953794672 -->
<g id="edge6" class="edge">
<title>2631953947280&#45;&gt;2631953794672</title>
<path fill="none" stroke="black" d="M557.37,-99C566.15,-99 574.79,-99 582.69,-99"/>
<polygon fill="black" stroke="black" points="582.96,-102.5 592.96,-99 582.96,-95.5 582.96,-102.5"/>
</g>
<!-- 2631954117152 -->
<g id="node3" class="node">
<title>2631954117152</title>
<polygon fill="none" stroke="black" points="834,-299 739,-299 739,-263 834,-263 834,-299"/>
<text text-anchor="middle" x="786.5" y="-277.9" font-family="Times New Roman,serif" font-size="12.00">Assess_loan_risk</text>
</g>
<!-- 2631953947664 -->
<g id="node25" class="node">
<title>2631953947664</title>
<ellipse fill="none" stroke="black" cx="953" cy="-281" rx="27" ry="27"/>
</g>
<!-- 2631954117152&#45;&gt;2631953947664 -->
<g id="edge2" class="edge">
<title>2631954117152&#45;&gt;2631953947664</title>
<path fill="none" stroke="black" d="M834.2,-281C860.01,-281 891.62,-281 915.59,-281"/>
<polygon fill="black" stroke="black" points="915.68,-284.5 925.68,-281 915.68,-277.5 915.68,-284.5"/>
</g>
<!-- 2631954119216 -->
<g id="node4" class="node">
<title>2631954119216</title>
<polygon fill="none" stroke="black" points="1729,-299 1498,-299 1498,-263 1729,-263 1729,-299"/>
<text text-anchor="middle" x="1613.5" y="-277.9" font-family="Times New Roman,serif" font-size="12.00">Check_if_home_insurance_quote_is_requested</text>
</g>
<!-- 2631954119024 -->
<g id="node31" class="node">
<title>2631954119024</title>
<ellipse fill="none" stroke="black" cx="1833.5" cy="-281" rx="27" ry="27"/>
</g>
<!-- 2631954119216&#45;&gt;2631954119024 -->
<g id="edge13" class="edge">
<title>2631954119216&#45;&gt;2631954119024</title>
<path fill="none" stroke="black" d="M1729.25,-281C1753.54,-281 1777.45,-281 1796.14,-281"/>
<polygon fill="black" stroke="black" points="1796.22,-284.5 1806.22,-281 1796.22,-277.5 1796.22,-284.5"/>
</g>
<!-- 2631953945648 -->
<g id="node5" class="node">
<title>2631953945648</title>
<polygon fill="none" stroke="black" points="890,-145 683,-145 683,-109 890,-109 890,-145"/>
<text text-anchor="middle" x="786.5" y="-123.9" font-family="Times New Roman,serif" font-size="12.00">Check__application__form_completeness</text>
</g>
<!-- 2631953945312 -->
<g id="node36" class="node">
<title>2631953945312</title>
<ellipse fill="none" stroke="black" cx="27" cy="-154" rx="27" ry="27"/>
</g>
<!-- 2631953945648&#45;&gt;2631953945312 -->
<g id="edge19" class="edge">
<title>2631953945648&#45;&gt;2631953945312</title>
<path fill="none" stroke="black" d="M682.79,-140.74C624.34,-147.41 549.7,-154 483,-154 343,-154 343,-154 343,-154 242.09,-154 123,-154 64.36,-154"/>
<polygon fill="black" stroke="black" points="64.14,-150.5 54.14,-154 64.14,-157.5 64.14,-150.5"/>
</g>
<!-- 2631953946800 -->
<g id="node6" class="node">
<title>2631953946800</title>
<polygon fill="none" stroke="black" points="281,-122 90,-122 90,-86 281,-86 281,-122"/>
<text text-anchor="middle" x="185.5" y="-100.9" font-family="Times New Roman,serif" font-size="12.00">Return_application_back_to_applicant</text>
</g>
<!-- 2631953946512 -->
<g id="node37" class="node">
<title>2631953946512</title>
<ellipse fill="none" stroke="black" cx="344" cy="-99" rx="27" ry="27"/>
</g>
<!-- 2631953946800&#45;&gt;2631953946512 -->
<g id="edge9" class="edge">
<title>2631953946800&#45;&gt;2631953946512</title>
<path fill="none" stroke="black" d="M281.15,-100.98C290.09,-100.69 298.73,-100.41 306.57,-100.16"/>
<polygon fill="black" stroke="black" points="306.85,-103.66 316.73,-99.84 306.63,-96.66 306.85,-103.66"/>
</g>
<!-- 2631953947856 -->
<g id="node7" class="node">
<title>2631953947856</title>
<polygon fill="black" stroke="black" points="212.5,-227 158.5,-227 158.5,-191 212.5,-191 212.5,-227"/>
</g>
<!-- 2631953945744 -->
<g id="node22" class="node">
<title>2631953945744</title>
<ellipse fill="none" stroke="black" cx="344" cy="-209" rx="27" ry="27"/>
</g>
<!-- 2631953947856&#45;&gt;2631953945744 -->
<g id="edge40" class="edge">
<title>2631953947856&#45;&gt;2631953945744</title>
<path fill="none" stroke="black" d="M212.69,-209C238.5,-209 278.13,-209 306.91,-209"/>
<polygon fill="black" stroke="black" points="306.98,-212.5 316.98,-209 306.98,-205.5 306.98,-212.5"/>
</g>
<!-- 2631953947376 -->
<g id="node24" class="node">
<title>2631953947376</title>
<ellipse fill="none" stroke="black" cx="344" cy="-281" rx="27" ry="27"/>
</g>
<!-- 2631953947856&#45;&gt;2631953947376 -->
<g id="edge41" class="edge">
<title>2631953947856&#45;&gt;2631953947376</title>
<path fill="none" stroke="black" d="M212.69,-221.05C239.43,-233.35 281.01,-252.48 309.98,-265.81"/>
<polygon fill="black" stroke="black" points="308.74,-269.09 319.29,-270.09 311.66,-262.73 308.74,-269.09"/>
</g>
<!-- 2631953947088 -->
<g id="node8" class="node">
<title>2631953947088</title>
<polygon fill="none" stroke="black" points="533.5,-227 430.5,-227 430.5,-191 533.5,-191 533.5,-227"/>
<text text-anchor="middle" x="482" y="-205.9" font-family="Times New Roman,serif" font-size="12.00">Appraise_property</text>
</g>
<!-- 2631953946224 -->
<g id="node23" class="node">
<title>2631953946224</title>
<ellipse fill="none" stroke="black" cx="953" cy="-209" rx="27" ry="27"/>
</g>
<!-- 2631953947088&#45;&gt;2631953946224 -->
<g id="edge4" class="edge">
<title>2631953947088&#45;&gt;2631953946224</title>
<path fill="none" stroke="black" d="M533.64,-209C628.94,-209 832.83,-209 915.78,-209"/>
<polygon fill="black" stroke="black" points="915.97,-212.5 925.97,-209 915.97,-205.5 915.97,-212.5"/>
</g>
<!-- 2631954117968 -->
<g id="node9" class="node">
<title>2631954117968</title>
<polygon fill="none" stroke="black" points="1108,-263 1016,-263 1016,-227 1108,-227 1108,-263"/>
<text text-anchor="middle" x="1062" y="-241.9" font-family="Times New Roman,serif" font-size="12.00">Assess_eligibility</text>
</g>
<!-- 2631953945888 -->
<g id="node27" class="node">
<title>2631953945888</title>
<ellipse fill="none" stroke="black" cx="1171" cy="-245" rx="27" ry="27"/>
</g>
<!-- 2631954117968&#45;&gt;2631953945888 -->
<g id="edge7" class="edge">
<title>2631954117968&#45;&gt;2631953945888</title>
<path fill="none" stroke="black" d="M1108.07,-245C1116.66,-245 1125.55,-245 1133.83,-245"/>
<polygon fill="black" stroke="black" points="1133.9,-248.5 1143.9,-245 1133.9,-241.5 1133.9,-248.5"/>
</g>
<!-- 2631954116816 -->
<g id="node10" class="node">
<title>2631954116816</title>
<polygon fill="none" stroke="black" points="1353.5,-236 1252.5,-236 1252.5,-200 1353.5,-200 1353.5,-236"/>
<text text-anchor="middle" x="1303" y="-214.9" font-family="Times New Roman,serif" font-size="12.00">Reject_application</text>
</g>
<!-- 2631954118304 -->
<g id="node28" class="node">
<title>2631954118304</title>
<ellipse fill="none" stroke="black" cx="1435" cy="-209" rx="27" ry="27"/>
</g>
<!-- 2631954116816&#45;&gt;2631954118304 -->
<g id="edge16" class="edge">
<title>2631954116816&#45;&gt;2631954118304</title>
<path fill="none" stroke="black" d="M1353.52,-214.57C1368.27,-213.55 1384.15,-212.45 1397.88,-211.5"/>
<polygon fill="black" stroke="black" points="1398.16,-214.99 1407.9,-210.81 1397.68,-208.01 1398.16,-214.99"/>
</g>
<!-- 2631953942992 -->
<g id="node11" class="node">
<title>2631953942992</title>
<polygon fill="none" stroke="black" points="2878,-282 2728,-282 2728,-246 2878,-246 2878,-282"/>
<text text-anchor="middle" x="2803" y="-260.9" font-family="Times New Roman,serif" font-size="12.00">Loan__application_approved</text>
</g>
<!-- 2631953794528 -->
<g id="node38" class="node">
<title>2631953794528</title>
<ellipse fill="none" stroke="black" cx="2945" cy="-264" rx="27" ry="27"/>
<ellipse fill="none" stroke="black" cx="2945" cy="-264" rx="31" ry="31"/>
<text text-anchor="start" x="2935" y="-255.9" font-family="Times New Roman,serif" font-size="32.00">■</text>
</g>
<!-- 2631953942992&#45;&gt;2631953794528 -->
<g id="edge10" class="edge">
<title>2631953942992&#45;&gt;2631953794528</title>
<path fill="none" stroke="black" d="M2878.1,-264C2886.86,-264 2895.53,-264 2903.56,-264"/>
<polygon fill="black" stroke="black" points="2903.71,-267.5 2913.71,-264 2903.71,-260.5 2903.71,-267.5"/>
</g>
<!-- 2631953794144 -->
<g id="node12" class="node">
<title>2631953794144</title>
<polygon fill="none" stroke="black" points="554.5,-54 409.5,-54 409.5,-18 554.5,-18 554.5,-54"/>
<text text-anchor="middle" x="482" y="-32.9" font-family="Times New Roman,serif" font-size="12.00">Loan__application_received</text>
</g>
<!-- 2631953794144&#45;&gt;2631953794672 -->
<g id="edge11" class="edge">
<title>2631953794144&#45;&gt;2631953794672</title>
<path fill="none" stroke="black" d="M521.97,-54.05C542.12,-63.38 566.44,-74.65 585.7,-83.57"/>
<polygon fill="black" stroke="black" points="584.44,-86.85 594.98,-87.87 587.38,-80.49 584.44,-86.85"/>
</g>
<!-- 2631954119648 -->
<g id="node13" class="node">
<title>2631954119648</title>
<polygon fill="none" stroke="black" points="2075.5,-340 1950.5,-340 1950.5,-304 2075.5,-304 2075.5,-340"/>
<text text-anchor="middle" x="2013" y="-318.9" font-family="Times New Roman,serif" font-size="12.00">Send_acceptance_pack</text>
</g>
<!-- 2631954119648&#45;&gt;2631954119408 -->
<g id="edge5" class="edge">
<title>2631954119648&#45;&gt;2631954119408</title>
<path fill="none" stroke="black" d="M2075.63,-309.76C2088.9,-307.13 2102.49,-304.43 2114.36,-302.08"/>
<polygon fill="black" stroke="black" points="2115.17,-305.48 2124.3,-300.1 2113.81,-298.62 2115.17,-305.48"/>
</g>
<!-- 2631953948528 -->
<g id="node14" class="node">
<title>2631953948528</title>
<polygon fill="none" stroke="black" points="539,-299 425,-299 425,-263 539,-263 539,-299"/>
<text text-anchor="middle" x="482" y="-277.9" font-family="Times New Roman,serif" font-size="12.00">Check_credit_history</text>
</g>
<!-- 2631953948048 -->
<g id="node26" class="node">
<title>2631953948048</title>
<ellipse fill="none" stroke="black" cx="620" cy="-281" rx="27" ry="27"/>
</g>
<!-- 2631953948528&#45;&gt;2631953948048 -->
<g id="edge18" class="edge">
<title>2631953948528&#45;&gt;2631953948048</title>
<path fill="none" stroke="black" d="M539.1,-281C553.77,-281 569.19,-281 582.54,-281"/>
<polygon fill="black" stroke="black" points="582.74,-284.5 592.74,-281 582.74,-277.5 582.74,-284.5"/>
</g>
<!-- 2631954117488 -->
<g id="node15" class="node">
<title>2631954117488</title>
<polygon fill="none" stroke="black" points="1902,-227 1765,-227 1765,-191 1902,-191 1902,-227"/>
<text text-anchor="middle" x="1833.5" y="-205.9" font-family="Times New Roman,serif" font-size="12.00">Loan_application_rejected</text>
</g>
<!-- 2631954117488&#45;&gt;2631953794528 -->
<g id="edge15" class="edge">
<title>2631954117488&#45;&gt;2631953794528</title>
<path fill="none" stroke="black" d="M1902.2,-209C1966.09,-209 2064.55,-209 2150,-209 2150,-209 2150,-209 2666,-209 2761.04,-209 2786.15,-212.58 2878,-237 2887.68,-239.57 2897.83,-243.22 2907.19,-247"/>
<polygon fill="black" stroke="black" points="2906.03,-250.3 2916.61,-250.95 2908.74,-243.85 2906.03,-250.3"/>
</g>
<!-- 2631954118256 -->
<g id="node16" class="node">
<title>2631954118256</title>
<polygon fill="none" stroke="black" points="1372,-294 1234,-294 1234,-258 1372,-258 1372,-294"/>
<text text-anchor="middle" x="1303" y="-272.9" font-family="Times New Roman,serif" font-size="12.00">Prepare_acceptance_pack</text>
</g>
<!-- 2631954117680 -->
<g id="node29" class="node">
<title>2631954117680</title>
<ellipse fill="none" stroke="black" cx="1435" cy="-281" rx="27" ry="27"/>
</g>
<!-- 2631954118256&#45;&gt;2631954117680 -->
<g id="edge3" class="edge">
<title>2631954118256&#45;&gt;2631954117680</title>
<path fill="none" stroke="black" d="M1372.05,-278.62C1380.93,-278.96 1389.74,-279.3 1397.81,-279.61"/>
<polygon fill="black" stroke="black" points="1397.8,-283.11 1407.93,-280 1398.07,-276.12 1397.8,-283.11"/>
</g>
<!-- 2631954120176 -->
<g id="node17" class="node">
<title>2631954120176</title>
<polygon fill="none" stroke="black" points="2364,-313 2214,-313 2214,-277 2364,-277 2364,-313"/>
<text text-anchor="middle" x="2289" y="-291.9" font-family="Times New Roman,serif" font-size="12.00">Verify_repayment_agreement</text>
</g>
<!-- 2631954118496 -->
<g id="node30" class="node">
<title>2631954118496</title>
<ellipse fill="none" stroke="black" cx="2427" cy="-295" rx="27" ry="27"/>
</g>
<!-- 2631954120176&#45;&gt;2631954118496 -->
<g id="edge8" class="edge">
<title>2631954120176&#45;&gt;2631954118496</title>
<path fill="none" stroke="black" d="M2364.37,-295C2373.15,-295 2381.79,-295 2389.69,-295"/>
<polygon fill="black" stroke="black" points="2389.96,-298.5 2399.96,-295 2389.96,-291.5 2389.96,-298.5"/>
</g>
<!-- 2631954120560 -->
<g id="node18" class="node">
<title>2631954120560</title>
<polygon fill="none" stroke="black" points="2597.5,-349 2494.5,-349 2494.5,-313 2597.5,-313 2597.5,-349"/>
<text text-anchor="middle" x="2546" y="-327.9" font-family="Times New Roman,serif" font-size="12.00">Cancel_application</text>
</g>
<!-- 2631954120368 -->
<g id="node33" class="node">
<title>2631954120368</title>
<ellipse fill="none" stroke="black" cx="2665" cy="-336" rx="27" ry="27"/>
</g>
<!-- 2631954120560&#45;&gt;2631954120368 -->
<g id="edge1" class="edge">
<title>2631954120560&#45;&gt;2631954120368</title>
<path fill="none" stroke="black" d="M2597.64,-333.16C2607.69,-333.59 2618.06,-334.04 2627.52,-334.44"/>
<polygon fill="black" stroke="black" points="2627.62,-337.95 2637.76,-334.88 2627.92,-330.95 2627.62,-337.95"/>
</g>
<!-- 2631953940976 -->
<g id="node19" class="node">
<title>2631953940976</title>
<polygon fill="none" stroke="black" points="2876,-345 2730,-345 2730,-309 2876,-309 2876,-345"/>
<text text-anchor="middle" x="2803" y="-323.9" font-family="Times New Roman,serif" font-size="12.00">Loan__application_canceled</text>
</g>
<!-- 2631953940976&#45;&gt;2631953794528 -->
<g id="edge12" class="edge">
<title>2631953940976&#45;&gt;2631953794528</title>
<path fill="none" stroke="black" d="M2844.12,-308.95C2863.98,-300.01 2887.79,-289.3 2907.18,-280.57"/>
<polygon fill="black" stroke="black" points="2908.62,-283.76 2916.31,-276.46 2905.75,-277.37 2908.62,-283.76"/>
</g>
<!-- 2631953942128 -->
<g id="node20" class="node">
<title>2631953942128</title>
<polygon fill="none" stroke="black" points="2602,-291 2490,-291 2490,-255 2602,-255 2602,-291"/>
<text text-anchor="middle" x="2546" y="-269.9" font-family="Times New Roman,serif" font-size="12.00">Approve_application</text>
</g>
<!-- 2631953941552 -->
<g id="node34" class="node">
<title>2631953941552</title>
<ellipse fill="none" stroke="black" cx="2665" cy="-264" rx="27" ry="27"/>
</g>
<!-- 2631953942128&#45;&gt;2631953941552 -->
<g id="edge14" class="edge">
<title>2631953942128&#45;&gt;2631953941552</title>
<path fill="none" stroke="black" d="M2602.07,-268.76C2610.73,-268.1 2619.48,-267.42 2627.58,-266.8"/>
<polygon fill="black" stroke="black" points="2628.07,-270.27 2637.77,-266.02 2627.53,-263.29 2628.07,-270.27"/>
</g>
<!-- 2631953794096 -->
<g id="node21" class="node">
<title>2631953794096</title>
<ellipse fill="none" stroke="black" cx="344" cy="-27" rx="27" ry="27"/>
<text text-anchor="start" x="333" y="-18.3" font-family="Times New Roman,serif" font-size="34.00">●</text>
</g>
<!-- 2631953794096&#45;&gt;2631953794144 -->
<g id="edge42" class="edge">
<title>2631953794096&#45;&gt;2631953794144</title>
<path fill="none" stroke="black" d="M371.22,-28.74C379.5,-29.28 389.13,-29.92 399.18,-30.59"/>
<polygon fill="black" stroke="black" points="399.12,-34.09 409.33,-31.26 399.58,-27.1 399.12,-34.09"/>
</g>
<!-- 2631953945744&#45;&gt;2631953947088 -->
<g id="edge20" class="edge">
<title>2631953945744&#45;&gt;2631953947088</title>
<path fill="none" stroke="black" d="M371.22,-209C385.22,-209 403.08,-209 420.31,-209"/>
<polygon fill="black" stroke="black" points="420.35,-212.5 430.35,-209 420.35,-205.5 420.35,-212.5"/>
</g>
<!-- 2631953946224&#45;&gt;2631954117968 -->
<g id="edge21" class="edge">
<title>2631953946224&#45;&gt;2631954117968</title>
<path fill="none" stroke="black" d="M978.82,-217.35C987.06,-220.12 996.59,-223.33 1006.18,-226.56"/>
<polygon fill="black" stroke="black" points="1005.14,-229.9 1015.74,-229.77 1007.38,-223.27 1005.14,-229.9"/>
</g>
<!-- 2631953947376&#45;&gt;2631953948528 -->
<g id="edge22" class="edge">
<title>2631953947376&#45;&gt;2631953948528</title>
<path fill="none" stroke="black" d="M371.22,-281C383.7,-281 399.23,-281 414.65,-281"/>
<polygon fill="black" stroke="black" points="414.74,-284.5 424.74,-281 414.74,-277.5 414.74,-284.5"/>
</g>
<!-- 2631953947664&#45;&gt;2631954117968 -->
<g id="edge23" class="edge">
<title>2631953947664&#45;&gt;2631954117968</title>
<path fill="none" stroke="black" d="M978.82,-272.65C987.06,-269.88 996.59,-266.67 1006.18,-263.44"/>
<polygon fill="black" stroke="black" points="1007.38,-266.73 1015.74,-260.23 1005.14,-260.1 1007.38,-266.73"/>
</g>
<!-- 2631953948048&#45;&gt;2631954117152 -->
<g id="edge24" class="edge">
<title>2631953948048&#45;&gt;2631954117152</title>
<path fill="none" stroke="black" d="M647.07,-281C668.84,-281 700.66,-281 728.32,-281"/>
<polygon fill="black" stroke="black" points="728.68,-284.5 738.68,-281 728.68,-277.5 728.68,-284.5"/>
</g>
<!-- 2631953945888&#45;&gt;2631954116816 -->
<g id="edge26" class="edge">
<title>2631953945888&#45;&gt;2631954116816</title>
<path fill="none" stroke="black" d="M1197.68,-239.67C1210.49,-237.01 1226.56,-233.67 1242.22,-230.42"/>
<polygon fill="black" stroke="black" points="1243.34,-233.76 1252.42,-228.3 1241.92,-226.9 1243.34,-233.76"/>
</g>
<!-- 2631953945888&#45;&gt;2631954118256 -->
<g id="edge25" class="edge">
<title>2631953945888&#45;&gt;2631954118256</title>
<path fill="none" stroke="black" d="M1197.37,-251.05C1205.22,-252.92 1214.3,-255.09 1223.78,-257.35"/>
<polygon fill="black" stroke="black" points="1223.23,-260.81 1233.76,-259.73 1224.85,-254 1223.23,-260.81"/>
</g>
<!-- 2631954118304&#45;&gt;2631954117488 -->
<g id="edge27" class="edge">
<title>2631954118304&#45;&gt;2631954117488</title>
<path fill="none" stroke="black" d="M1462.02,-209C1520.49,-209 1664.26,-209 1754.53,-209"/>
<polygon fill="black" stroke="black" points="1754.72,-212.5 1764.72,-209 1754.72,-205.5 1754.72,-212.5"/>
</g>
<!-- 2631954117680&#45;&gt;2631954119216 -->
<g id="edge28" class="edge">
<title>2631954117680&#45;&gt;2631954119216</title>
<path fill="none" stroke="black" d="M1462.04,-281C1469.59,-281 1478.37,-281 1487.82,-281"/>
<polygon fill="black" stroke="black" points="1487.89,-284.5 1497.89,-281 1487.89,-277.5 1487.89,-284.5"/>
</g>
<!-- 2631954118496&#45;&gt;2631954120560 -->
<g id="edge29" class="edge">
<title>2631954118496&#45;&gt;2631954120560</title>
<path fill="none" stroke="black" d="M2453.1,-302.72C2462.45,-305.6 2473.51,-309 2484.65,-312.43"/>
<polygon fill="black" stroke="black" points="2483.85,-315.85 2494.43,-315.44 2485.91,-309.16 2483.85,-315.85"/>
</g>
<!-- 2631954118496&#45;&gt;2631953942128 -->
<g id="edge30" class="edge">
<title>2631954118496&#45;&gt;2631953942128</title>
<path fill="none" stroke="black" d="M2453.68,-290.17C2461.48,-288.7 2470.44,-287.02 2479.63,-285.29"/>
<polygon fill="black" stroke="black" points="2480.46,-288.7 2489.64,-283.41 2479.17,-281.82 2480.46,-288.7"/>
</g>
<!-- 2631954119024&#45;&gt;2631954119936 -->
<g id="edge32" class="edge">
<title>2631954119024&#45;&gt;2631954119936</title>
<path fill="none" stroke="black" d="M1860.69,-279.08C1878.57,-277.77 1903.35,-275.96 1927.69,-274.18"/>
<polygon fill="black" stroke="black" points="1927.98,-277.66 1937.7,-273.44 1927.47,-270.68 1927.98,-277.66"/>
</g>
<!-- 2631954119024&#45;&gt;2631954119648 -->
<g id="edge31" class="edge">
<title>2631954119024&#45;&gt;2631954119648</title>
<path fill="none" stroke="black" d="M1859.93,-286.87C1880.94,-291.73 1911.83,-298.86 1940.28,-305.43"/>
<polygon fill="black" stroke="black" points="1939.7,-308.89 1950.23,-307.73 1941.27,-302.07 1939.7,-308.89"/>
</g>
<!-- 2631954119408&#45;&gt;2631954120176 -->
<g id="edge33" class="edge">
<title>2631954119408&#45;&gt;2631954120176</title>
<path fill="none" stroke="black" d="M2178.22,-295C2185.82,-295 2194.55,-295 2203.7,-295"/>
<polygon fill="black" stroke="black" points="2203.76,-298.5 2213.76,-295 2203.76,-291.5 2203.76,-298.5"/>
</g>
<!-- 2631954120368&#45;&gt;2631953940976 -->
<g id="edge34" class="edge">
<title>2631954120368&#45;&gt;2631953940976</title>
<path fill="none" stroke="black" d="M2692.22,-334.26C2700.38,-333.72 2709.86,-333.1 2719.75,-332.44"/>
<polygon fill="black" stroke="black" points="2720.01,-335.93 2729.76,-331.78 2719.55,-328.95 2720.01,-335.93"/>
</g>
<!-- 2631953941552&#45;&gt;2631953942992 -->
<g id="edge35" class="edge">
<title>2631953941552&#45;&gt;2631953942992</title>
<path fill="none" stroke="black" d="M2692.22,-264C2699.82,-264 2708.55,-264 2717.7,-264"/>
<polygon fill="black" stroke="black" points="2717.76,-267.5 2727.76,-264 2717.76,-260.5 2717.76,-267.5"/>
</g>
<!-- 2631953794672&#45;&gt;2631953945648 -->
<g id="edge36" class="edge">
<title>2631953794672&#45;&gt;2631953945648</title>
<path fill="none" stroke="black" d="M646.7,-103.38C654.35,-104.68 663.26,-106.19 672.8,-107.82"/>
<polygon fill="black" stroke="black" points="672.51,-111.32 682.96,-109.55 673.69,-104.42 672.51,-111.32"/>
</g>
<!-- 2631953945312&#45;&gt;2631953946800 -->
<g id="edge37" class="edge">
<title>2631953945312&#45;&gt;2631953946800</title>
<path fill="none" stroke="black" d="M53.14,-145.97C70.76,-140.34 95.17,-132.54 118.18,-125.19"/>
<polygon fill="black" stroke="black" points="119.47,-128.45 127.93,-122.07 117.34,-121.78 119.47,-128.45"/>
</g>
<!-- 2631953945312&#45;&gt;2631953947856 -->
<g id="edge38" class="edge">
<title>2631953945312&#45;&gt;2631953947856</title>
<path fill="none" stroke="black" d="M52.8,-162.71C78.66,-171.8 119.45,-186.14 148.78,-196.45"/>
<polygon fill="black" stroke="black" points="147.66,-199.76 158.25,-199.78 149.98,-193.16 147.66,-199.76"/>
</g>
<!-- 2631953946512&#45;&gt;2631953947280 -->
<g id="edge39" class="edge">
<title>2631953946512&#45;&gt;2631953947280</title>
<path fill="none" stroke="black" d="M371.22,-99C378.82,-99 387.55,-99 396.7,-99"/>
<polygon fill="black" stroke="black" points="396.76,-102.5 406.76,-99 396.76,-95.5 396.76,-102.5"/>
</g>
</g>
</svg>
