<?xml version="1.0" encoding="UTF-8" standalone="no"?>
<!DOCTYPE svg PUBLIC "-//W3C//DTD SVG 1.1//EN"
 "http://www.w3.org/Graphics/SVG/1.1/DTD/svg11.dtd">
<!-- Generated by graphviz version 2.49.0 (20210828.1703)
 -->
<!-- Title: imdf_net_1656686593.7826114 Pages: 1 -->
<svg width="3941pt" height="316pt"
 viewBox="0.00 0.00 3941.00 316.00" xmlns="http://www.w3.org/2000/svg" xmlns:xlink="http://www.w3.org/1999/xlink">
<g id="graph0" class="graph" transform="scale(1 1) rotate(0) translate(4 312)">
<title>imdf_net_1656686593.7826114</title>
<!-- 1487279223808 -->
<g id="node1" class="node">
<title>1487279223808</title>
<polygon fill="none" stroke="black" points="207,-127 0,-127 0,-91 207,-91 207,-127"/>
<text text-anchor="middle" x="103.5" y="-105.9" font-family="Times New Roman,serif" font-size="12.00">Check__application__form_completeness</text>
</g>
<!-- 1487279226784 -->
<g id="node44" class="node">
<title>1487279226784</title>
<ellipse fill="none" stroke="black" cx="270" cy="-137" rx="27" ry="27"/>
</g>
<!-- 1487279223808&#45;&gt;1487279226784 -->
<g id="edge20" class="edge">
<title>1487279223808&#45;&gt;1487279226784</title>
<path fill="none" stroke="black" d="M207.28,-126.49C216.49,-128.06 225.34,-129.57 233.31,-130.93"/>
<polygon fill="black" stroke="black" points="232.8,-134.39 243.25,-132.62 233.98,-127.49 232.8,-134.39"/>
</g>
<!-- 1487278743808 -->
<g id="node2" class="node">
<title>1487278743808</title>
<polygon fill="black" stroke="black" points="455.5,-227 401.5,-227 401.5,-191 455.5,-191 455.5,-227"/>
</g>
<!-- 1487278747120 -->
<g id="node26" class="node">
<title>1487278747120</title>
<ellipse fill="none" stroke="black" cx="587" cy="-281" rx="27" ry="27"/>
</g>
<!-- 1487278743808&#45;&gt;1487278747120 -->
<g id="edge47" class="edge">
<title>1487278743808&#45;&gt;1487278747120</title>
<path fill="none" stroke="black" d="M455.69,-221.05C482.43,-233.35 524.01,-252.48 552.98,-265.81"/>
<polygon fill="black" stroke="black" points="551.74,-269.09 562.29,-270.09 554.66,-262.73 551.74,-269.09"/>
</g>
<!-- 1487279248096 -->
<g id="node28" class="node">
<title>1487279248096</title>
<ellipse fill="none" stroke="black" cx="587" cy="-209" rx="27" ry="27"/>
</g>
<!-- 1487278743808&#45;&gt;1487279248096 -->
<g id="edge48" class="edge">
<title>1487278743808&#45;&gt;1487279248096</title>
<path fill="none" stroke="black" d="M455.69,-209C481.5,-209 521.13,-209 549.91,-209"/>
<polygon fill="black" stroke="black" points="549.98,-212.5 559.98,-209 549.98,-205.5 549.98,-212.5"/>
</g>
<!-- 1487279247616 -->
<g id="node3" class="node">
<title>1487279247616</title>
<polygon fill="none" stroke="black" points="1239,-262 1147,-262 1147,-226 1239,-226 1239,-262"/>
<text text-anchor="middle" x="1193" y="-240.9" font-family="Times New Roman,serif" font-size="12.00">Assess_eligibility</text>
</g>
<!-- 1487278746112 -->
<g id="node31" class="node">
<title>1487278746112</title>
<ellipse fill="none" stroke="black" cx="1302" cy="-244" rx="27" ry="27"/>
</g>
<!-- 1487279247616&#45;&gt;1487278746112 -->
<g id="edge10" class="edge">
<title>1487279247616&#45;&gt;1487278746112</title>
<path fill="none" stroke="black" d="M1239.07,-244C1247.66,-244 1256.55,-244 1264.83,-244"/>
<polygon fill="black" stroke="black" points="1264.9,-247.5 1274.9,-244 1264.9,-240.5 1264.9,-247.5"/>
</g>
<!-- 1487279283456 -->
<g id="node4" class="node">
<title>1487279283456</title>
<polygon fill="none" stroke="black" points="3833,-180 3687,-180 3687,-144 3833,-144 3833,-180"/>
<text text-anchor="middle" x="3760" y="-158.9" font-family="Times New Roman,serif" font-size="12.00">Loan__application_canceled</text>
</g>
<!-- 1487279226304 -->
<g id="node46" class="node">
<title>1487279226304</title>
<ellipse fill="none" stroke="black" cx="3902" cy="-225" rx="27" ry="27"/>
<ellipse fill="none" stroke="black" cx="3902" cy="-225" rx="31" ry="31"/>
<text text-anchor="start" x="3892" y="-216.9" font-family="Times New Roman,serif" font-size="32.00">■</text>
</g>
<!-- 1487279283456&#45;&gt;1487279226304 -->
<g id="edge12" class="edge">
<title>1487279283456&#45;&gt;1487279226304</title>
<path fill="none" stroke="black" d="M3801.12,-180.05C3820.98,-188.99 3844.79,-199.7 3864.18,-208.43"/>
<polygon fill="black" stroke="black" points="3862.75,-211.63 3873.31,-212.54 3865.62,-205.24 3862.75,-211.63"/>
</g>
<!-- 1487279281152 -->
<g id="node5" class="node">
<title>1487279281152</title>
<polygon fill="none" stroke="black" points="3559,-234 3447,-234 3447,-198 3559,-198 3559,-234"/>
<text text-anchor="middle" x="3503" y="-212.9" font-family="Times New Roman,serif" font-size="12.00">Approve_application</text>
</g>
<!-- 1487279282112 -->
<g id="node42" class="node">
<title>1487279282112</title>
<ellipse fill="none" stroke="black" cx="3622" cy="-225" rx="27" ry="27"/>
</g>
<!-- 1487279281152&#45;&gt;1487279282112 -->
<g id="edge13" class="edge">
<title>1487279281152&#45;&gt;1487279282112</title>
<path fill="none" stroke="black" d="M3559.07,-220.24C3567.73,-220.9 3576.48,-221.58 3584.58,-222.2"/>
<polygon fill="black" stroke="black" points="3584.53,-225.71 3594.77,-222.98 3585.07,-218.73 3584.53,-225.71"/>
</g>
<!-- 1487279249680 -->
<g id="node6" class="node">
<title>1487279249680</title>
<polygon fill="none" stroke="black" points="1021,-231 926,-231 926,-195 1021,-195 1021,-231"/>
<text text-anchor="middle" x="973.5" y="-209.9" font-family="Times New Roman,serif" font-size="12.00">Assess_loan_risk</text>
</g>
<!-- 1487279249920 -->
<g id="node29" class="node">
<title>1487279249920</title>
<ellipse fill="none" stroke="black" cx="1084" cy="-217" rx="27" ry="27"/>
</g>
<!-- 1487279249680&#45;&gt;1487279249920 -->
<g id="edge19" class="edge">
<title>1487279249680&#45;&gt;1487279249920</title>
<path fill="none" stroke="black" d="M1021.14,-214.72C1029.61,-215.03 1038.33,-215.35 1046.45,-215.65"/>
<polygon fill="black" stroke="black" points="1046.6,-219.16 1056.72,-216.03 1046.85,-212.16 1046.6,-219.16"/>
</g>
<!-- 1487279045648 -->
<g id="node7" class="node">
<title>1487279045648</title>
<polygon fill="none" stroke="black" points="2865,-187 2740,-187 2740,-151 2865,-151 2865,-187"/>
<text text-anchor="middle" x="2802.5" y="-165.9" font-family="Times New Roman,serif" font-size="12.00">Send_acceptance_pack</text>
</g>
<!-- 1487279043296 -->
<g id="node40" class="node">
<title>1487279043296</title>
<ellipse fill="none" stroke="black" cx="2928" cy="-169" rx="27" ry="27"/>
</g>
<!-- 1487279045648&#45;&gt;1487279043296 -->
<g id="edge7" class="edge">
<title>1487279045648&#45;&gt;1487279043296</title>
<path fill="none" stroke="black" d="M2865.25,-169C2873.97,-169 2882.69,-169 2890.72,-169"/>
<polygon fill="black" stroke="black" points="2890.81,-172.5 2900.81,-169 2890.81,-165.5 2890.81,-172.5"/>
</g>
<!-- 1487278182160 -->
<g id="node8" class="node">
<title>1487278182160</title>
<polygon fill="black" stroke="black" points="3321,-187 3267,-187 3267,-151 3321,-151 3321,-187"/>
</g>
<!-- 1487279249056 -->
<g id="node34" class="node">
<title>1487279249056</title>
<ellipse fill="none" stroke="black" cx="3384" cy="-169" rx="27" ry="27"/>
</g>
<!-- 1487278182160&#45;&gt;1487279249056 -->
<g id="edge46" class="edge">
<title>1487278182160&#45;&gt;1487279249056</title>
<path fill="none" stroke="black" d="M3321.4,-169C3329.39,-169 3338.31,-169 3346.82,-169"/>
<polygon fill="black" stroke="black" points="3346.92,-172.5 3356.92,-169 3346.92,-165.5 3346.92,-172.5"/>
</g>
<!-- 1487279222944 -->
<g id="node9" class="node">
<title>1487279222944</title>
<polygon fill="none" stroke="black" points="797.5,-50 652.5,-50 652.5,-14 797.5,-14 797.5,-50"/>
<text text-anchor="middle" x="725" y="-28.9" font-family="Times New Roman,serif" font-size="12.00">Loan__application_received</text>
</g>
<!-- 1487279223472 -->
<g id="node43" class="node">
<title>1487279223472</title>
<ellipse fill="none" stroke="black" cx="863" cy="-82" rx="27" ry="27"/>
</g>
<!-- 1487279222944&#45;&gt;1487279223472 -->
<g id="edge15" class="edge">
<title>1487279222944&#45;&gt;1487279223472</title>
<path fill="none" stroke="black" d="M775.1,-50.05C792.62,-56.49 811.95,-63.6 827.92,-69.47"/>
<polygon fill="black" stroke="black" points="826.8,-72.79 837.39,-72.95 829.21,-66.22 826.8,-72.79"/>
</g>
<!-- 1487278747168 -->
<g id="node10" class="node">
<title>1487278747168</title>
<polygon fill="none" stroke="black" points="800,-151 650,-151 650,-115 800,-115 800,-151"/>
<text text-anchor="middle" x="725" y="-129.9" font-family="Times New Roman,serif" font-size="12.00">Receive_updated_application</text>
</g>
<!-- 1487278747168&#45;&gt;1487279223472 -->
<g id="edge5" class="edge">
<title>1487278747168&#45;&gt;1487279223472</title>
<path fill="none" stroke="black" d="M774.33,-114.88C792.03,-108.24 811.68,-100.87 827.89,-94.79"/>
<polygon fill="black" stroke="black" points="829.35,-97.98 837.48,-91.2 826.89,-91.43 829.35,-97.98"/>
</g>
<!-- 1487279248672 -->
<g id="node11" class="node">
<title>1487279248672</title>
<polygon fill="none" stroke="black" points="1484.5,-293 1383.5,-293 1383.5,-257 1484.5,-257 1484.5,-293"/>
<text text-anchor="middle" x="1434" y="-271.9" font-family="Times New Roman,serif" font-size="12.00">Reject_application</text>
</g>
<!-- 1487279249200 -->
<g id="node32" class="node">
<title>1487279249200</title>
<ellipse fill="none" stroke="black" cx="1566" cy="-280" rx="27" ry="27"/>
</g>
<!-- 1487279248672&#45;&gt;1487279249200 -->
<g id="edge6" class="edge">
<title>1487279248672&#45;&gt;1487279249200</title>
<path fill="none" stroke="black" d="M1484.52,-276.9C1499.27,-277.47 1515.15,-278.08 1528.88,-278.61"/>
<polygon fill="black" stroke="black" points="1528.77,-282.11 1538.9,-279 1529.04,-275.11 1528.77,-282.11"/>
</g>
<!-- 1487278626848 -->
<g id="node12" class="node">
<title>1487278626848</title>
<polygon fill="none" stroke="black" points="3835,-243 3685,-243 3685,-207 3835,-207 3835,-243"/>
<text text-anchor="middle" x="3760" y="-221.9" font-family="Times New Roman,serif" font-size="12.00">Loan__application_approved</text>
</g>
<!-- 1487278626848&#45;&gt;1487279226304 -->
<g id="edge2" class="edge">
<title>1487278626848&#45;&gt;1487279226304</title>
<path fill="none" stroke="black" d="M3835.1,-225C3843.86,-225 3852.53,-225 3860.56,-225"/>
<polygon fill="black" stroke="black" points="3860.71,-228.5 3870.71,-225 3860.71,-221.5 3860.71,-228.5"/>
</g>
<!-- 1487279224240 -->
<g id="node13" class="node">
<title>1487279224240</title>
<polygon fill="none" stroke="black" points="524,-155 333,-155 333,-119 524,-119 524,-155"/>
<text text-anchor="middle" x="428.5" y="-133.9" font-family="Times New Roman,serif" font-size="12.00">Return_application_back_to_applicant</text>
</g>
<!-- 1487279224672 -->
<g id="node45" class="node">
<title>1487279224672</title>
<ellipse fill="none" stroke="black" cx="587" cy="-137" rx="27" ry="27"/>
</g>
<!-- 1487279224240&#45;&gt;1487279224672 -->
<g id="edge9" class="edge">
<title>1487279224240&#45;&gt;1487279224672</title>
<path fill="none" stroke="black" d="M524.15,-137C533.09,-137 541.73,-137 549.57,-137"/>
<polygon fill="black" stroke="black" points="549.73,-140.5 559.73,-137 549.73,-133.5 549.73,-140.5"/>
</g>
<!-- 1487279248048 -->
<g id="node14" class="node">
<title>1487279248048</title>
<polygon fill="none" stroke="black" points="776.5,-298 673.5,-298 673.5,-262 776.5,-262 776.5,-298"/>
<text text-anchor="middle" x="725" y="-276.9" font-family="Times New Roman,serif" font-size="12.00">Appraise_property</text>
</g>
<!-- 1487278746880 -->
<g id="node27" class="node">
<title>1487278746880</title>
<ellipse fill="none" stroke="black" cx="973.5" cy="-276" rx="27" ry="27"/>
</g>
<!-- 1487279248048&#45;&gt;1487278746880 -->
<g id="edge17" class="edge">
<title>1487279248048&#45;&gt;1487278746880</title>
<path fill="none" stroke="black" d="M776.78,-279.18C824.33,-278.4 894.21,-277.27 936.33,-276.59"/>
<polygon fill="black" stroke="black" points="936.47,-280.09 946.41,-276.42 936.36,-273.09 936.47,-280.09"/>
</g>
<!-- 1487279249584 -->
<g id="node15" class="node">
<title>1487279249584</title>
<polygon fill="none" stroke="black" points="1856,-298 1719,-298 1719,-262 1856,-262 1856,-298"/>
<text text-anchor="middle" x="1787.5" y="-276.9" font-family="Times New Roman,serif" font-size="12.00">Loan_application_rejected</text>
</g>
<!-- 1487279249584&#45;&gt;1487279226304 -->
<g id="edge3" class="edge">
<title>1487279249584&#45;&gt;1487279226304</title>
<path fill="none" stroke="black" d="M1856.2,-280C1935.14,-280 2069.53,-280 2185,-280 2185,-280 2185,-280 3623,-280 3718.04,-280 3743.15,-276.42 3835,-252 3844.68,-249.43 3854.83,-245.78 3864.19,-242"/>
<polygon fill="black" stroke="black" points="3865.74,-245.15 3873.61,-238.05 3863.03,-238.7 3865.74,-245.15"/>
</g>
<!-- 1487279046320 -->
<g id="node16" class="node">
<title>1487279046320</title>
<polygon fill="none" stroke="black" points="3141,-187 2991,-187 2991,-151 3141,-151 3141,-187"/>
<text text-anchor="middle" x="3066" y="-165.9" font-family="Times New Roman,serif" font-size="12.00">Verify_repayment_agreement</text>
</g>
<!-- 1487279043200 -->
<g id="node36" class="node">
<title>1487279043200</title>
<ellipse fill="none" stroke="black" cx="3204" cy="-169" rx="27" ry="27"/>
</g>
<!-- 1487279046320&#45;&gt;1487279043200 -->
<g id="edge16" class="edge">
<title>1487279046320&#45;&gt;1487279043200</title>
<path fill="none" stroke="black" d="M3141.37,-169C3150.15,-169 3158.79,-169 3166.69,-169"/>
<polygon fill="black" stroke="black" points="3166.96,-172.5 3176.96,-169 3166.96,-165.5 3166.96,-172.5"/>
</g>
<!-- 1487279249344 -->
<g id="node17" class="node">
<title>1487279249344</title>
<polygon fill="none" stroke="black" points="782,-228 668,-228 668,-192 782,-192 782,-228"/>
<text text-anchor="middle" x="725" y="-206.9" font-family="Times New Roman,serif" font-size="12.00">Check_credit_history</text>
</g>
<!-- 1487279247712 -->
<g id="node30" class="node">
<title>1487279247712</title>
<ellipse fill="none" stroke="black" cx="863" cy="-212" rx="27" ry="27"/>
</g>
<!-- 1487279249344&#45;&gt;1487279247712 -->
<g id="edge8" class="edge">
<title>1487279249344&#45;&gt;1487279247712</title>
<path fill="none" stroke="black" d="M782.1,-210.83C796.77,-211.04 812.19,-211.27 825.54,-211.46"/>
<polygon fill="black" stroke="black" points="825.69,-214.97 835.74,-211.61 825.79,-207.97 825.69,-214.97"/>
</g>
<!-- 1487279250496 -->
<g id="node18" class="node">
<title>1487279250496</title>
<polygon fill="black" stroke="black" points="1683,-226 1629,-226 1629,-190 1683,-190 1683,-226"/>
</g>
<!-- 1487279250832 -->
<g id="node35" class="node">
<title>1487279250832</title>
<ellipse fill="none" stroke="black" cx="1787.5" cy="-208" rx="27" ry="27"/>
</g>
<!-- 1487279250496&#45;&gt;1487279250832 -->
<g id="edge21" class="edge">
<title>1487279250496&#45;&gt;1487279250832</title>
<path fill="none" stroke="black" d="M1683.21,-208C1702.43,-208 1728.77,-208 1750.04,-208"/>
<polygon fill="black" stroke="black" points="1750.33,-211.5 1760.33,-208 1750.33,-204.5 1750.33,-211.5"/>
</g>
<!-- 1487279044928 -->
<g id="node19" class="node">
<title>1487279044928</title>
<polygon fill="none" stroke="black" points="2399,-187 2249,-187 2249,-151 2399,-151 2399,-187"/>
<text text-anchor="middle" x="2324" y="-165.9" font-family="Times New Roman,serif" font-size="12.00">Send_home_insurance_quote</text>
</g>
<!-- 1487279043248 -->
<g id="node38" class="node">
<title>1487279043248</title>
<ellipse fill="none" stroke="black" cx="2462" cy="-169" rx="27" ry="27"/>
</g>
<!-- 1487279044928&#45;&gt;1487279043248 -->
<g id="edge14" class="edge">
<title>1487279044928&#45;&gt;1487279043248</title>
<path fill="none" stroke="black" d="M2399.37,-169C2408.15,-169 2416.79,-169 2424.69,-169"/>
<polygon fill="black" stroke="black" points="2424.96,-172.5 2434.96,-169 2424.96,-165.5 2424.96,-172.5"/>
</g>
<!-- 1487279045312 -->
<g id="node20" class="node">
<title>1487279045312</title>
<polygon fill="none" stroke="black" points="2614,-187 2525,-187 2525,-151 2614,-151 2614,-187"/>
<text text-anchor="middle" x="2569.5" y="-165.9" font-family="Times New Roman,serif" font-size="12.00">Added_Acitvity</text>
</g>
<!-- 1487279043776 -->
<g id="node39" class="node">
<title>1487279043776</title>
<ellipse fill="none" stroke="black" cx="2677" cy="-169" rx="27" ry="27"/>
</g>
<!-- 1487279045312&#45;&gt;1487279043776 -->
<g id="edge18" class="edge">
<title>1487279045312&#45;&gt;1487279043776</title>
<path fill="none" stroke="black" d="M2614.02,-169C2622.56,-169 2631.43,-169 2639.71,-169"/>
<polygon fill="black" stroke="black" points="2639.8,-172.5 2649.8,-169 2639.8,-165.5 2639.8,-172.5"/>
</g>
<!-- 1487279044160 -->
<g id="node21" class="node">
<title>1487279044160</title>
<polygon fill="black" stroke="black" points="3321,-241 3267,-241 3267,-205 3321,-205 3321,-241"/>
</g>
<!-- 1487279044160&#45;&gt;1487279250832 -->
<g id="edge49" class="edge">
<title>1487279044160&#45;&gt;1487279250832</title>
<path fill="none" stroke="black" d="M3266.9,-223.19C3224.82,-223.48 3139.39,-224 3067,-224 2185,-224 2185,-224 2185,-224 2051.98,-224 1894.05,-214.9 1824.47,-210.42"/>
<polygon fill="black" stroke="black" points="1824.67,-206.93 1814.46,-209.77 1824.22,-213.92 1824.67,-206.93"/>
</g>
<!-- 1487279042768 -->
<g id="node22" class="node">
<title>1487279042768</title>
<polygon fill="none" stroke="black" points="2123,-192 1892,-192 1892,-156 2123,-156 2123,-192"/>
<text text-anchor="middle" x="2007.5" y="-170.9" font-family="Times New Roman,serif" font-size="12.00">Check_if_home_insurance_quote_is_requested</text>
</g>
<!-- 1487279044496 -->
<g id="node37" class="node">
<title>1487279044496</title>
<ellipse fill="none" stroke="black" cx="2186" cy="-169" rx="27" ry="27"/>
</g>
<!-- 1487279042768&#45;&gt;1487279044496 -->
<g id="edge1" class="edge">
<title>1487279042768&#45;&gt;1487279044496</title>
<path fill="none" stroke="black" d="M2123.27,-170.75C2132.32,-170.49 2140.97,-170.25 2148.76,-170.03"/>
<polygon fill="black" stroke="black" points="2148.94,-173.52 2158.84,-169.74 2148.74,-166.53 2148.94,-173.52"/>
</g>
<!-- 1487279281488 -->
<g id="node23" class="node">
<title>1487279281488</title>
<polygon fill="none" stroke="black" points="3554.5,-176 3451.5,-176 3451.5,-140 3554.5,-140 3554.5,-176"/>
<text text-anchor="middle" x="3503" y="-154.9" font-family="Times New Roman,serif" font-size="12.00">Cancel_application</text>
</g>
<!-- 1487279043728 -->
<g id="node41" class="node">
<title>1487279043728</title>
<ellipse fill="none" stroke="black" cx="3622" cy="-153" rx="27" ry="27"/>
</g>
<!-- 1487279281488&#45;&gt;1487279043728 -->
<g id="edge4" class="edge">
<title>1487279281488&#45;&gt;1487279043728</title>
<path fill="none" stroke="black" d="M3554.64,-155.84C3564.69,-155.41 3575.06,-154.96 3584.52,-154.56"/>
<polygon fill="black" stroke="black" points="3584.92,-158.05 3594.76,-154.12 3584.62,-151.05 3584.92,-158.05"/>
</g>
<!-- 1487279250016 -->
<g id="node24" class="node">
<title>1487279250016</title>
<polygon fill="none" stroke="black" points="1503,-235 1365,-235 1365,-199 1503,-199 1503,-235"/>
<text text-anchor="middle" x="1434" y="-213.9" font-family="Times New Roman,serif" font-size="12.00">Prepare_acceptance_pack</text>
</g>
<!-- 1487279249008 -->
<g id="node33" class="node">
<title>1487279249008</title>
<ellipse fill="none" stroke="black" cx="1566" cy="-208" rx="27" ry="27"/>
</g>
<!-- 1487279250016&#45;&gt;1487279249008 -->
<g id="edge11" class="edge">
<title>1487279250016&#45;&gt;1487279249008</title>
<path fill="none" stroke="black" d="M1503.05,-212.29C1511.93,-211.67 1520.74,-211.06 1528.81,-210.51"/>
<polygon fill="black" stroke="black" points="1529.19,-213.99 1538.93,-209.81 1528.71,-207 1529.19,-213.99"/>
</g>
<!-- 1487279225008 -->
<g id="node25" class="node">
<title>1487279225008</title>
<ellipse fill="none" stroke="black" cx="587" cy="-27" rx="27" ry="27"/>
<text text-anchor="start" x="576" y="-18.3" font-family="Times New Roman,serif" font-size="34.00">●</text>
</g>
<!-- 1487279225008&#45;&gt;1487279222944 -->
<g id="edge50" class="edge">
<title>1487279225008&#45;&gt;1487279222944</title>
<path fill="none" stroke="black" d="M614.22,-27.96C622.5,-28.27 632.13,-28.62 642.18,-28.99"/>
<polygon fill="black" stroke="black" points="642.21,-32.5 652.33,-29.37 642.46,-25.5 642.21,-32.5"/>
</g>
<!-- 1487278747120&#45;&gt;1487279248048 -->
<g id="edge22" class="edge">
<title>1487278747120&#45;&gt;1487279248048</title>
<path fill="none" stroke="black" d="M614.22,-280.81C628.22,-280.7 646.08,-280.57 663.31,-280.45"/>
<polygon fill="black" stroke="black" points="663.37,-283.95 673.35,-280.37 663.32,-276.95 663.37,-283.95"/>
</g>
<!-- 1487278746880&#45;&gt;1487279247616 -->
<g id="edge23" class="edge">
<title>1487278746880&#45;&gt;1487279247616</title>
<path fill="none" stroke="black" d="M1000.3,-272.2C1033.81,-267.27 1093.2,-258.54 1137.02,-252.09"/>
<polygon fill="black" stroke="black" points="1137.57,-255.55 1146.95,-250.63 1136.55,-248.62 1137.57,-255.55"/>
</g>
<!-- 1487279248096&#45;&gt;1487279249344 -->
<g id="edge24" class="edge">
<title>1487279248096&#45;&gt;1487279249344</title>
<path fill="none" stroke="black" d="M614.22,-209.19C626.7,-209.28 642.23,-209.4 657.65,-209.51"/>
<polygon fill="black" stroke="black" points="657.71,-213.01 667.74,-209.59 657.76,-206.01 657.71,-213.01"/>
</g>
<!-- 1487279249920&#45;&gt;1487279247616 -->
<g id="edge25" class="edge">
<title>1487279249920&#45;&gt;1487279247616</title>
<path fill="none" stroke="black" d="M1110.36,-223.4C1118.35,-225.41 1127.5,-227.72 1136.73,-230.05"/>
<polygon fill="black" stroke="black" points="1136.17,-233.52 1146.72,-232.57 1137.88,-226.73 1136.17,-233.52"/>
</g>
<!-- 1487279247712&#45;&gt;1487279249680 -->
<g id="edge26" class="edge">
<title>1487279247712&#45;&gt;1487279249680</title>
<path fill="none" stroke="black" d="M890.26,-212.24C898.01,-212.31 906.81,-212.39 915.69,-212.48"/>
<polygon fill="black" stroke="black" points="915.68,-215.98 925.71,-212.57 915.75,-208.98 915.68,-215.98"/>
</g>
<!-- 1487278746112&#45;&gt;1487279248672 -->
<g id="edge27" class="edge">
<title>1487278746112&#45;&gt;1487279248672</title>
<path fill="none" stroke="black" d="M1328.37,-250.05C1341.35,-253.14 1357.72,-257.05 1373.65,-260.85"/>
<polygon fill="black" stroke="black" points="1372.93,-264.27 1383.47,-263.19 1374.55,-257.46 1372.93,-264.27"/>
</g>
<!-- 1487278746112&#45;&gt;1487279250016 -->
<g id="edge28" class="edge">
<title>1487278746112&#45;&gt;1487279250016</title>
<path fill="none" stroke="black" d="M1328.68,-238.67C1336.48,-237.05 1345.49,-235.18 1354.88,-233.23"/>
<polygon fill="black" stroke="black" points="1355.69,-236.63 1364.77,-231.17 1354.26,-229.78 1355.69,-236.63"/>
</g>
<!-- 1487279249200&#45;&gt;1487279249584 -->
<g id="edge29" class="edge">
<title>1487279249200&#45;&gt;1487279249584</title>
<path fill="none" stroke="black" d="M1593.04,-280C1621.41,-280 1668.16,-280 1708.59,-280"/>
<polygon fill="black" stroke="black" points="1708.72,-283.5 1718.72,-280 1708.72,-276.5 1708.72,-283.5"/>
</g>
<!-- 1487279249008&#45;&gt;1487279250496 -->
<g id="edge30" class="edge">
<title>1487279249008&#45;&gt;1487279250496</title>
<path fill="none" stroke="black" d="M1593.4,-208C1601.39,-208 1610.31,-208 1618.82,-208"/>
<polygon fill="black" stroke="black" points="1618.92,-211.5 1628.92,-208 1618.92,-204.5 1618.92,-211.5"/>
</g>
<!-- 1487279249056&#45;&gt;1487279281152 -->
<g id="edge32" class="edge">
<title>1487279249056&#45;&gt;1487279281152</title>
<path fill="none" stroke="black" d="M3409.24,-178.74C3420.34,-183.2 3433.97,-188.67 3447.34,-194.04"/>
<polygon fill="black" stroke="black" points="3446.4,-197.44 3456.98,-197.92 3449.01,-190.94 3446.4,-197.44"/>
</g>
<!-- 1487279249056&#45;&gt;1487279281488 -->
<g id="edge31" class="edge">
<title>1487279249056&#45;&gt;1487279281488</title>
<path fill="none" stroke="black" d="M3410.97,-166.56C3419.95,-165.71 3430.42,-164.73 3441.01,-163.73"/>
<polygon fill="black" stroke="black" points="3441.52,-167.2 3451.15,-162.78 3440.87,-160.23 3441.52,-167.2"/>
</g>
<!-- 1487279250832&#45;&gt;1487279042768 -->
<g id="edge33" class="edge">
<title>1487279250832&#45;&gt;1487279042768</title>
<path fill="none" stroke="black" d="M1814.36,-203.97C1831.74,-201.26 1856.05,-197.46 1881.55,-193.49"/>
<polygon fill="black" stroke="black" points="1882.42,-196.89 1891.76,-191.9 1881.34,-189.98 1882.42,-196.89"/>
</g>
<!-- 1487279043200&#45;&gt;1487278182160 -->
<g id="edge34" class="edge">
<title>1487279043200&#45;&gt;1487278182160</title>
<path fill="none" stroke="black" d="M3231.4,-169C3239.39,-169 3248.31,-169 3256.82,-169"/>
<polygon fill="black" stroke="black" points="3256.92,-172.5 3266.92,-169 3256.92,-165.5 3256.92,-172.5"/>
</g>
<!-- 1487279043200&#45;&gt;1487279044160 -->
<g id="edge35" class="edge">
<title>1487279043200&#45;&gt;1487279044160</title>
<path fill="none" stroke="black" d="M3227.66,-182.91C3236.96,-188.61 3247.93,-195.34 3258.2,-201.65"/>
<polygon fill="black" stroke="black" points="3256.63,-204.79 3266.99,-207.04 3260.3,-198.82 3256.63,-204.79"/>
</g>
<!-- 1487279044496&#45;&gt;1487279044928 -->
<g id="edge36" class="edge">
<title>1487279044496&#45;&gt;1487279044928</title>
<path fill="none" stroke="black" d="M2213.22,-169C2220.82,-169 2229.55,-169 2238.7,-169"/>
<polygon fill="black" stroke="black" points="2238.76,-172.5 2248.76,-169 2238.76,-165.5 2238.76,-172.5"/>
</g>
<!-- 1487279043248&#45;&gt;1487279045312 -->
<g id="edge37" class="edge">
<title>1487279043248&#45;&gt;1487279045312</title>
<path fill="none" stroke="black" d="M2489.08,-169C2496.88,-169 2505.74,-169 2514.64,-169"/>
<polygon fill="black" stroke="black" points="2514.66,-172.5 2524.66,-169 2514.66,-165.5 2514.66,-172.5"/>
</g>
<!-- 1487279043776&#45;&gt;1487279045648 -->
<g id="edge38" class="edge">
<title>1487279043776&#45;&gt;1487279045648</title>
<path fill="none" stroke="black" d="M2704.19,-169C2711.8,-169 2720.51,-169 2729.52,-169"/>
<polygon fill="black" stroke="black" points="2729.77,-172.5 2739.77,-169 2729.77,-165.5 2729.77,-172.5"/>
</g>
<!-- 1487279043296&#45;&gt;1487279046320 -->
<g id="edge39" class="edge">
<title>1487279043296&#45;&gt;1487279046320</title>
<path fill="none" stroke="black" d="M2955.22,-169C2962.82,-169 2971.55,-169 2980.7,-169"/>
<polygon fill="black" stroke="black" points="2980.76,-172.5 2990.76,-169 2980.76,-165.5 2980.76,-172.5"/>
</g>
<!-- 1487279043728&#45;&gt;1487279283456 -->
<g id="edge40" class="edge">
<title>1487279043728&#45;&gt;1487279283456</title>
<path fill="none" stroke="black" d="M3649.22,-154.74C3657.38,-155.28 3666.86,-155.9 3676.75,-156.56"/>
<polygon fill="black" stroke="black" points="3676.55,-160.05 3686.76,-157.22 3677.01,-153.07 3676.55,-160.05"/>
</g>
<!-- 1487279282112&#45;&gt;1487278626848 -->
<g id="edge41" class="edge">
<title>1487279282112&#45;&gt;1487278626848</title>
<path fill="none" stroke="black" d="M3649.22,-225C3656.82,-225 3665.55,-225 3674.7,-225"/>
<polygon fill="black" stroke="black" points="3674.76,-228.5 3684.76,-225 3674.76,-221.5 3674.76,-228.5"/>
</g>
<!-- 1487279223472&#45;&gt;1487279223808 -->
<g id="edge42" class="edge">
<title>1487279223472&#45;&gt;1487279223808</title>
<path fill="none" stroke="black" d="M835.93,-82C787.23,-82 679.1,-82 588,-82 427.5,-82 427.5,-82 427.5,-82 357.54,-82 279.35,-88.37 217.42,-94.92"/>
<polygon fill="black" stroke="black" points="216.8,-91.47 207.23,-96.01 217.55,-98.43 216.8,-91.47"/>
</g>
<!-- 1487279226784&#45;&gt;1487278743808 -->
<g id="edge44" class="edge">
<title>1487279226784&#45;&gt;1487278743808</title>
<path fill="none" stroke="black" d="M294.77,-147.94C320.69,-159.86 362.46,-179.08 392.21,-192.77"/>
<polygon fill="black" stroke="black" points="390.87,-196 401.42,-197 393.79,-189.64 390.87,-196"/>
</g>
<!-- 1487279226784&#45;&gt;1487279224240 -->
<g id="edge43" class="edge">
<title>1487279226784&#45;&gt;1487279224240</title>
<path fill="none" stroke="black" d="M297.19,-137C304.67,-137 313.31,-137 322.51,-137"/>
<polygon fill="black" stroke="black" points="322.68,-140.5 332.68,-137 322.68,-133.5 322.68,-140.5"/>
</g>
<!-- 1487279224672&#45;&gt;1487278747168 -->
<g id="edge45" class="edge">
<title>1487279224672&#45;&gt;1487278747168</title>
<path fill="none" stroke="black" d="M614.22,-136.23C621.82,-136.01 630.55,-135.75 639.7,-135.48"/>
<polygon fill="black" stroke="black" points="639.86,-138.98 649.76,-135.18 639.66,-131.98 639.86,-138.98"/>
</g>
</g>
</svg>
