<?xml version="1.0" encoding="UTF-8" standalone="no"?>
<!DOCTYPE svg PUBLIC "-//W3C//DTD SVG 1.1//EN"
 "http://www.w3.org/Graphics/SVG/1.1/DTD/svg11.dtd">
<!-- Generated by graphviz version 2.49.0 (20210828.1703)
 -->
<!-- Title: imdf_net_1655279321.2402332 Pages: 1 -->
<svg width="4271pt" height="220pt"
 viewBox="0.00 0.00 4271.00 220.00" xmlns="http://www.w3.org/2000/svg" xmlns:xlink="http://www.w3.org/1999/xlink">
<g id="graph0" class="graph" transform="scale(1 1) rotate(0) translate(4 216)">
<title>imdf_net_1655279321.2402332</title>
<!-- 2631953738624 -->
<g id="node1" class="node">
<title>2631953738624</title>
<polygon fill="none" stroke="black" points="240,-36 90,-36 90,0 240,0 240,-36"/>
<text text-anchor="middle" x="165" y="-14.9" font-family="Times New Roman,serif" font-size="12.00">Receive_updated_application</text>
</g>
<!-- 2631952717232 -->
<g id="node43" class="node">
<title>2631952717232</title>
<ellipse fill="none" stroke="black" cx="303" cy="-73" rx="27" ry="27"/>
</g>
<!-- 2631953738624&#45;&gt;2631952717232 -->
<g id="edge1" class="edge">
<title>2631953738624&#45;&gt;2631952717232</title>
<path fill="none" stroke="black" d="M214.7,-36.04C223.16,-39.28 231.86,-42.69 240,-46 249.36,-49.81 259.44,-54.11 268.69,-58.14"/>
<polygon fill="black" stroke="black" points="267.41,-61.4 277.97,-62.21 270.22,-54.99 267.41,-61.4"/>
</g>
<!-- 2631952803584 -->
<g id="node2" class="node">
<title>2631952803584</title>
<polygon fill="none" stroke="black" points="4163,-148 4017,-148 4017,-112 4163,-112 4163,-148"/>
<text text-anchor="middle" x="4090" y="-126.9" font-family="Times New Roman,serif" font-size="12.00">Loan__application_canceled</text>
</g>
<!-- 2631952719584 -->
<g id="node46" class="node">
<title>2631952719584</title>
<ellipse fill="none" stroke="black" cx="4232" cy="-130" rx="27" ry="27"/>
<ellipse fill="none" stroke="black" cx="4232" cy="-130" rx="31" ry="31"/>
<text text-anchor="start" x="4222" y="-121.9" font-family="Times New Roman,serif" font-size="32.00">■</text>
</g>
<!-- 2631952803584&#45;&gt;2631952719584 -->
<g id="edge19" class="edge">
<title>2631952803584&#45;&gt;2631952719584</title>
<path fill="none" stroke="black" d="M4163.05,-130C4172.58,-130 4182.05,-130 4190.77,-130"/>
<polygon fill="black" stroke="black" points="4190.98,-133.5 4200.98,-130 4190.98,-126.5 4190.98,-133.5"/>
</g>
<!-- 2631952716944 -->
<g id="node3" class="node">
<title>2631952716944</title>
<polygon fill="none" stroke="black" points="573,-91 366,-91 366,-55 573,-55 573,-91"/>
<text text-anchor="middle" x="469.5" y="-69.9" font-family="Times New Roman,serif" font-size="12.00">Check__application__form_completeness</text>
</g>
<!-- 2631952719392 -->
<g id="node44" class="node">
<title>2631952719392</title>
<ellipse fill="none" stroke="black" cx="636" cy="-73" rx="27" ry="27"/>
</g>
<!-- 2631952716944&#45;&gt;2631952719392 -->
<g id="edge16" class="edge">
<title>2631952716944&#45;&gt;2631952719392</title>
<path fill="none" stroke="black" d="M573.28,-73C582.3,-73 590.96,-73 598.81,-73"/>
<polygon fill="black" stroke="black" points="598.95,-76.5 608.95,-73 598.95,-69.5 598.95,-76.5"/>
</g>
<!-- 2631953310096 -->
<g id="node4" class="node">
<title>2631953310096</title>
<polygon fill="none" stroke="black" points="1814.5,-198 1713.5,-198 1713.5,-162 1814.5,-162 1814.5,-198"/>
<text text-anchor="middle" x="1764" y="-176.9" font-family="Times New Roman,serif" font-size="12.00">Reject_application</text>
</g>
<!-- 2631953312496 -->
<g id="node32" class="node">
<title>2631953312496</title>
<ellipse fill="none" stroke="black" cx="1896" cy="-185" rx="27" ry="27"/>
</g>
<!-- 2631953310096&#45;&gt;2631953312496 -->
<g id="edge4" class="edge">
<title>2631953310096&#45;&gt;2631953312496</title>
<path fill="none" stroke="black" d="M1814.52,-181.9C1829.27,-182.47 1845.15,-183.08 1858.88,-183.61"/>
<polygon fill="black" stroke="black" points="1858.77,-187.11 1868.9,-184 1859.04,-180.11 1858.77,-187.11"/>
</g>
<!-- 2631953385744 -->
<g id="node5" class="node">
<title>2631953385744</title>
<polygon fill="none" stroke="black" points="3195,-148 3070,-148 3070,-112 3195,-112 3195,-148"/>
<text text-anchor="middle" x="3132.5" y="-126.9" font-family="Times New Roman,serif" font-size="12.00">Send_acceptance_pack</text>
</g>
<!-- 2631953384784 -->
<g id="node40" class="node">
<title>2631953384784</title>
<ellipse fill="none" stroke="black" cx="3258" cy="-130" rx="27" ry="27"/>
</g>
<!-- 2631953385744&#45;&gt;2631953384784 -->
<g id="edge5" class="edge">
<title>2631953385744&#45;&gt;2631953384784</title>
<path fill="none" stroke="black" d="M3195.25,-130C3203.97,-130 3212.69,-130 3220.72,-130"/>
<polygon fill="black" stroke="black" points="3220.81,-133.5 3230.81,-130 3220.81,-126.5 3220.81,-133.5"/>
</g>
<!-- 2631952718240 -->
<g id="node6" class="node">
<title>2631952718240</title>
<polygon fill="none" stroke="black" points="237.5,-91 92.5,-91 92.5,-55 237.5,-55 237.5,-91"/>
<text text-anchor="middle" x="165" y="-69.9" font-family="Times New Roman,serif" font-size="12.00">Loan__application_received</text>
</g>
<!-- 2631952718240&#45;&gt;2631952717232 -->
<g id="edge17" class="edge">
<title>2631952718240&#45;&gt;2631952717232</title>
<path fill="none" stroke="black" d="M237.58,-73C247.32,-73 256.96,-73 265.7,-73"/>
<polygon fill="black" stroke="black" points="265.85,-76.5 275.85,-73 265.85,-69.5 265.85,-76.5"/>
</g>
<!-- 2631953738912 -->
<g id="node7" class="node">
<title>2631953738912</title>
<polygon fill="none" stroke="black" points="890,-82 699,-82 699,-46 890,-46 890,-82"/>
<text text-anchor="middle" x="794.5" y="-60.9" font-family="Times New Roman,serif" font-size="12.00">Return_application_back_to_applicant</text>
</g>
<!-- 2631953736848 -->
<g id="node45" class="node">
<title>2631953736848</title>
<ellipse fill="none" stroke="black" cx="953" cy="-32" rx="27" ry="27"/>
</g>
<!-- 2631953738912&#45;&gt;2631953736848 -->
<g id="edge6" class="edge">
<title>2631953738912&#45;&gt;2631953736848</title>
<path fill="none" stroke="black" d="M883.81,-45.94C895.34,-43.59 906.57,-41.29 916.48,-39.26"/>
<polygon fill="black" stroke="black" points="917.19,-42.69 926.29,-37.26 915.79,-35.83 917.19,-42.69"/>
</g>
<!-- 2631953735840 -->
<g id="node8" class="node">
<title>2631953735840</title>
<polygon fill="none" stroke="black" points="1130,-200 1016,-200 1016,-164 1130,-164 1130,-200"/>
<text text-anchor="middle" x="1073" y="-178.9" font-family="Times New Roman,serif" font-size="12.00">Check_credit_history</text>
</g>
<!-- 2631953736416 -->
<g id="node30" class="node">
<title>2631953736416</title>
<ellipse fill="none" stroke="black" cx="1193" cy="-182" rx="27" ry="27"/>
</g>
<!-- 2631953735840&#45;&gt;2631953736416 -->
<g id="edge10" class="edge">
<title>2631953735840&#45;&gt;2631953736416</title>
<path fill="none" stroke="black" d="M1130.24,-182C1138.9,-182 1147.65,-182 1155.73,-182"/>
<polygon fill="black" stroke="black" points="1155.89,-185.5 1165.89,-182 1155.89,-178.5 1155.89,-185.5"/>
</g>
<!-- 2631953383584 -->
<g id="node9" class="node">
<title>2631953383584</title>
<polygon fill="none" stroke="black" points="2729,-148 2579,-148 2579,-112 2729,-112 2729,-148"/>
<text text-anchor="middle" x="2654" y="-126.9" font-family="Times New Roman,serif" font-size="12.00">Send_home_insurance_quote</text>
</g>
<!-- 2631953383824 -->
<g id="node38" class="node">
<title>2631953383824</title>
<ellipse fill="none" stroke="black" cx="2792" cy="-130" rx="27" ry="27"/>
</g>
<!-- 2631953383584&#45;&gt;2631953383824 -->
<g id="edge15" class="edge">
<title>2631953383584&#45;&gt;2631953383824</title>
<path fill="none" stroke="black" d="M2729.37,-130C2738.15,-130 2746.79,-130 2754.69,-130"/>
<polygon fill="black" stroke="black" points="2754.96,-133.5 2764.96,-130 2754.96,-126.5 2754.96,-133.5"/>
</g>
<!-- 2631953387424 -->
<g id="node10" class="node">
<title>2631953387424</title>
<polygon fill="black" stroke="black" points="3651,-94 3597,-94 3597,-58 3651,-58 3651,-94"/>
</g>
<!-- 2631953387040 -->
<g id="node35" class="node">
<title>2631953387040</title>
<ellipse fill="none" stroke="black" cx="2117.5" cy="-113" rx="27" ry="27"/>
</g>
<!-- 2631953387424&#45;&gt;2631953387040 -->
<g id="edge49" class="edge">
<title>2631953387424&#45;&gt;2631953387040</title>
<path fill="none" stroke="black" d="M3596.9,-75.81C3554.82,-75.52 3469.39,-75 3397,-75 2515,-75 2515,-75 2515,-75 2381.48,-75 2223.81,-96.62 2154.38,-107.24"/>
<polygon fill="black" stroke="black" points="2153.74,-103.8 2144.4,-108.79 2154.81,-110.72 2153.74,-103.8"/>
</g>
<!-- 2631953738288 -->
<g id="node11" class="node">
<title>2631953738288</title>
<polygon fill="black" stroke="black" points="821.5,-136 767.5,-136 767.5,-100 821.5,-100 821.5,-136"/>
</g>
<!-- 2631953736032 -->
<g id="node26" class="node">
<title>2631953736032</title>
<ellipse fill="none" stroke="black" cx="953" cy="-111" rx="27" ry="27"/>
</g>
<!-- 2631953738288&#45;&gt;2631953736032 -->
<g id="edge47" class="edge">
<title>2631953738288&#45;&gt;2631953736032</title>
<path fill="none" stroke="black" d="M821.69,-116.83C847.5,-115.67 887.13,-113.9 915.91,-112.61"/>
<polygon fill="black" stroke="black" points="916.15,-116.11 925.98,-112.16 915.83,-109.11 916.15,-116.11"/>
</g>
<!-- 2631953736512 -->
<g id="node28" class="node">
<title>2631953736512</title>
<ellipse fill="none" stroke="black" cx="953" cy="-183" rx="27" ry="27"/>
</g>
<!-- 2631953738288&#45;&gt;2631953736512 -->
<g id="edge48" class="edge">
<title>2631953738288&#45;&gt;2631953736512</title>
<path fill="none" stroke="black" d="M821.69,-128.88C848.27,-139.92 889.52,-157.05 918.47,-169.07"/>
<polygon fill="black" stroke="black" points="917.2,-172.34 927.78,-172.94 919.89,-165.87 917.2,-172.34"/>
</g>
<!-- 2631953385264 -->
<g id="node12" class="node">
<title>2631953385264</title>
<polygon fill="black" stroke="black" points="2013,-131 1959,-131 1959,-95 2013,-95 2013,-131"/>
</g>
<!-- 2631953385264&#45;&gt;2631953387040 -->
<g id="edge21" class="edge">
<title>2631953385264&#45;&gt;2631953387040</title>
<path fill="none" stroke="black" d="M2013.21,-113C2032.43,-113 2058.77,-113 2080.04,-113"/>
<polygon fill="black" stroke="black" points="2080.33,-116.5 2090.33,-113 2080.33,-109.5 2080.33,-116.5"/>
</g>
<!-- 2631953386416 -->
<g id="node13" class="node">
<title>2631953386416</title>
<polygon fill="none" stroke="black" points="3471,-148 3321,-148 3321,-112 3471,-112 3471,-148"/>
<text text-anchor="middle" x="3396" y="-126.9" font-family="Times New Roman,serif" font-size="12.00">Verify_repayment_agreement</text>
</g>
<!-- 2631953384976 -->
<g id="node36" class="node">
<title>2631953384976</title>
<ellipse fill="none" stroke="black" cx="3534" cy="-130" rx="27" ry="27"/>
</g>
<!-- 2631953386416&#45;&gt;2631953384976 -->
<g id="edge8" class="edge">
<title>2631953386416&#45;&gt;2631953384976</title>
<path fill="none" stroke="black" d="M3471.37,-130C3480.15,-130 3488.79,-130 3496.69,-130"/>
<polygon fill="black" stroke="black" points="3496.96,-133.5 3506.96,-130 3496.96,-126.5 3496.96,-133.5"/>
</g>
<!-- 2631953735744 -->
<g id="node14" class="node">
<title>2631953735744</title>
<polygon fill="none" stroke="black" points="1124.5,-133 1021.5,-133 1021.5,-97 1124.5,-97 1124.5,-133"/>
<text text-anchor="middle" x="1073" y="-111.9" font-family="Times New Roman,serif" font-size="12.00">Appraise_property</text>
</g>
<!-- 2631953735984 -->
<g id="node27" class="node">
<title>2631953735984</title>
<ellipse fill="none" stroke="black" cx="1303.5" cy="-118" rx="27" ry="27"/>
</g>
<!-- 2631953735744&#45;&gt;2631953735984 -->
<g id="edge9" class="edge">
<title>2631953735744&#45;&gt;2631953735984</title>
<path fill="none" stroke="black" d="M1124.71,-115.67C1167.62,-116.23 1228.05,-117.02 1266.24,-117.52"/>
<polygon fill="black" stroke="black" points="1266.34,-121.03 1276.39,-117.66 1266.44,-114.03 1266.34,-121.03"/>
</g>
<!-- 2631953313216 -->
<g id="node15" class="node">
<title>2631953313216</title>
<polygon fill="none" stroke="black" points="1569,-167 1477,-167 1477,-131 1569,-131 1569,-167"/>
<text text-anchor="middle" x="1523" y="-145.9" font-family="Times New Roman,serif" font-size="12.00">Assess_eligibility</text>
</g>
<!-- 2631953737184 -->
<g id="node31" class="node">
<title>2631953737184</title>
<ellipse fill="none" stroke="black" cx="1632" cy="-149" rx="27" ry="27"/>
</g>
<!-- 2631953313216&#45;&gt;2631953737184 -->
<g id="edge7" class="edge">
<title>2631953313216&#45;&gt;2631953737184</title>
<path fill="none" stroke="black" d="M1569.07,-149C1577.66,-149 1586.55,-149 1594.83,-149"/>
<polygon fill="black" stroke="black" points="1594.9,-152.5 1604.9,-149 1594.9,-145.5 1594.9,-152.5"/>
</g>
<!-- 2631952802624 -->
<g id="node16" class="node">
<title>2631952802624</title>
<polygon fill="none" stroke="black" points="3889,-85 3777,-85 3777,-49 3889,-49 3889,-85"/>
<text text-anchor="middle" x="3833" y="-63.9" font-family="Times New Roman,serif" font-size="12.00">Approve_application</text>
</g>
<!-- 2631953385216 -->
<g id="node41" class="node">
<title>2631953385216</title>
<ellipse fill="none" stroke="black" cx="3952" cy="-58" rx="27" ry="27"/>
</g>
<!-- 2631952802624&#45;&gt;2631953385216 -->
<g id="edge2" class="edge">
<title>2631952802624&#45;&gt;2631953385216</title>
<path fill="none" stroke="black" d="M3889.07,-62.76C3897.73,-62.1 3906.48,-61.42 3914.58,-60.8"/>
<polygon fill="black" stroke="black" points="3915.07,-64.27 3924.77,-60.02 3914.53,-57.29 3915.07,-64.27"/>
</g>
<!-- 2631953384016 -->
<g id="node17" class="node">
<title>2631953384016</title>
<polygon fill="none" stroke="black" points="2453,-143 2222,-143 2222,-107 2453,-107 2453,-143"/>
<text text-anchor="middle" x="2337.5" y="-121.9" font-family="Times New Roman,serif" font-size="12.00">Check_if_home_insurance_quote_is_requested</text>
</g>
<!-- 2631953384544 -->
<g id="node37" class="node">
<title>2631953384544</title>
<ellipse fill="none" stroke="black" cx="2516" cy="-130" rx="27" ry="27"/>
</g>
<!-- 2631953384016&#45;&gt;2631953384544 -->
<g id="edge14" class="edge">
<title>2631953384016&#45;&gt;2631953384544</title>
<path fill="none" stroke="black" d="M2453.27,-128.25C2462.32,-128.51 2470.97,-128.75 2478.76,-128.97"/>
<polygon fill="black" stroke="black" points="2478.74,-132.47 2488.84,-129.26 2478.94,-125.48 2478.74,-132.47"/>
</g>
<!-- 2631952802000 -->
<g id="node18" class="node">
<title>2631952802000</title>
<polygon fill="black" stroke="black" points="3651,-148 3597,-148 3597,-112 3651,-112 3651,-148"/>
</g>
<!-- 2631953386656 -->
<g id="node34" class="node">
<title>2631953386656</title>
<ellipse fill="none" stroke="black" cx="3714" cy="-130" rx="27" ry="27"/>
</g>
<!-- 2631952802000&#45;&gt;2631953386656 -->
<g id="edge46" class="edge">
<title>2631952802000&#45;&gt;2631953386656</title>
<path fill="none" stroke="black" d="M3651.4,-130C3659.39,-130 3668.31,-130 3676.82,-130"/>
<polygon fill="black" stroke="black" points="3676.92,-133.5 3686.92,-130 3676.92,-126.5 3676.92,-133.5"/>
</g>
<!-- 2631953739488 -->
<g id="node19" class="node">
<title>2631953739488</title>
<polygon fill="none" stroke="black" points="1351,-200 1256,-200 1256,-164 1351,-164 1351,-200"/>
<text text-anchor="middle" x="1303.5" y="-178.9" font-family="Times New Roman,serif" font-size="12.00">Assess_loan_risk</text>
</g>
<!-- 2631953738048 -->
<g id="node29" class="node">
<title>2631953738048</title>
<ellipse fill="none" stroke="black" cx="1414" cy="-179" rx="27" ry="27"/>
</g>
<!-- 2631953739488&#45;&gt;2631953738048 -->
<g id="edge20" class="edge">
<title>2631953739488&#45;&gt;2631953738048</title>
<path fill="none" stroke="black" d="M1351.14,-180.71C1359.61,-180.48 1368.33,-180.24 1376.45,-180.01"/>
<polygon fill="black" stroke="black" points="1376.82,-183.5 1386.72,-179.73 1376.62,-176.5 1376.82,-183.5"/>
</g>
<!-- 2631953310816 -->
<g id="node20" class="node">
<title>2631953310816</title>
<polygon fill="none" stroke="black" points="1833,-140 1695,-140 1695,-104 1833,-104 1833,-140"/>
<text text-anchor="middle" x="1764" y="-118.9" font-family="Times New Roman,serif" font-size="12.00">Prepare_acceptance_pack</text>
</g>
<!-- 2631953311632 -->
<g id="node33" class="node">
<title>2631953311632</title>
<ellipse fill="none" stroke="black" cx="1896" cy="-113" rx="27" ry="27"/>
</g>
<!-- 2631953310816&#45;&gt;2631953311632 -->
<g id="edge12" class="edge">
<title>2631953310816&#45;&gt;2631953311632</title>
<path fill="none" stroke="black" d="M1833.05,-117.29C1841.93,-116.67 1850.74,-116.06 1858.81,-115.51"/>
<polygon fill="black" stroke="black" points="1859.19,-118.99 1868.93,-114.81 1858.71,-112 1859.19,-118.99"/>
</g>
<!-- 2631952802912 -->
<g id="node21" class="node">
<title>2631952802912</title>
<polygon fill="none" stroke="black" points="4165,-85 4015,-85 4015,-49 4165,-49 4165,-85"/>
<text text-anchor="middle" x="4090" y="-63.9" font-family="Times New Roman,serif" font-size="12.00">Loan__application_approved</text>
</g>
<!-- 2631952802912&#45;&gt;2631952719584 -->
<g id="edge18" class="edge">
<title>2631952802912&#45;&gt;2631952719584</title>
<path fill="none" stroke="black" d="M4131.12,-85.05C4150.98,-93.99 4174.79,-104.7 4194.18,-113.43"/>
<polygon fill="black" stroke="black" points="4192.75,-116.63 4203.31,-117.54 4195.62,-110.24 4192.75,-116.63"/>
</g>
<!-- 2631952803296 -->
<g id="node22" class="node">
<title>2631952803296</title>
<polygon fill="none" stroke="black" points="3884.5,-148 3781.5,-148 3781.5,-112 3884.5,-112 3884.5,-148"/>
<text text-anchor="middle" x="3833" y="-126.9" font-family="Times New Roman,serif" font-size="12.00">Cancel_application</text>
</g>
<!-- 2631952803104 -->
<g id="node42" class="node">
<title>2631952803104</title>
<ellipse fill="none" stroke="black" cx="3952" cy="-130" rx="27" ry="27"/>
</g>
<!-- 2631952803296&#45;&gt;2631952803104 -->
<g id="edge13" class="edge">
<title>2631952803296&#45;&gt;2631952803104</title>
<path fill="none" stroke="black" d="M3884.64,-130C3894.69,-130 3905.06,-130 3914.52,-130"/>
<polygon fill="black" stroke="black" points="3914.76,-133.5 3924.76,-130 3914.76,-126.5 3914.76,-133.5"/>
</g>
<!-- 2631953309808 -->
<g id="node23" class="node">
<title>2631953309808</title>
<polygon fill="none" stroke="black" points="2186,-203 2049,-203 2049,-167 2186,-167 2186,-203"/>
<text text-anchor="middle" x="2117.5" y="-181.9" font-family="Times New Roman,serif" font-size="12.00">Loan_application_rejected</text>
</g>
<!-- 2631953309808&#45;&gt;2631952719584 -->
<g id="edge3" class="edge">
<title>2631953309808&#45;&gt;2631952719584</title>
<path fill="none" stroke="black" d="M2186.2,-185C2265.14,-185 2399.53,-185 2515,-185 2515,-185 2515,-185 3953,-185 4048.04,-185 4073.15,-181.42 4165,-157 4174.68,-154.43 4184.83,-150.78 4194.19,-147"/>
<polygon fill="black" stroke="black" points="4195.74,-150.15 4203.61,-143.05 4193.03,-143.7 4195.74,-150.15"/>
</g>
<!-- 2631953383536 -->
<g id="node24" class="node">
<title>2631953383536</title>
<polygon fill="none" stroke="black" points="2944,-148 2855,-148 2855,-112 2944,-112 2944,-148"/>
<text text-anchor="middle" x="2899.5" y="-126.9" font-family="Times New Roman,serif" font-size="12.00">Added_Acitvity</text>
</g>
<!-- 2631953384064 -->
<g id="node39" class="node">
<title>2631953384064</title>
<ellipse fill="none" stroke="black" cx="3007" cy="-130" rx="27" ry="27"/>
</g>
<!-- 2631953383536&#45;&gt;2631953384064 -->
<g id="edge11" class="edge">
<title>2631953383536&#45;&gt;2631953384064</title>
<path fill="none" stroke="black" d="M2944.02,-130C2952.56,-130 2961.43,-130 2969.71,-130"/>
<polygon fill="black" stroke="black" points="2969.8,-133.5 2979.8,-130 2969.8,-126.5 2969.8,-133.5"/>
</g>
<!-- 2631952717760 -->
<g id="node25" class="node">
<title>2631952717760</title>
<ellipse fill="none" stroke="black" cx="27" cy="-73" rx="27" ry="27"/>
<text text-anchor="start" x="16" y="-64.3" font-family="Times New Roman,serif" font-size="34.00">●</text>
</g>
<!-- 2631952717760&#45;&gt;2631952718240 -->
<g id="edge50" class="edge">
<title>2631952717760&#45;&gt;2631952718240</title>
<path fill="none" stroke="black" d="M54.22,-73C62.5,-73 72.13,-73 82.18,-73"/>
<polygon fill="black" stroke="black" points="82.33,-76.5 92.33,-73 82.33,-69.5 82.33,-76.5"/>
</g>
<!-- 2631953736032&#45;&gt;2631953735744 -->
<g id="edge22" class="edge">
<title>2631953736032&#45;&gt;2631953735744</title>
<path fill="none" stroke="black" d="M980.19,-111.89C989.44,-112.2 1000.27,-112.57 1011.19,-112.94"/>
<polygon fill="black" stroke="black" points="1011.08,-116.44 1021.19,-113.28 1011.32,-109.44 1011.08,-116.44"/>
</g>
<!-- 2631953735984&#45;&gt;2631953313216 -->
<g id="edge23" class="edge">
<title>2631953735984&#45;&gt;2631953313216</title>
<path fill="none" stroke="black" d="M1330.3,-121.68C1363.81,-126.45 1423.2,-134.92 1467.02,-141.16"/>
<polygon fill="black" stroke="black" points="1466.56,-144.63 1476.95,-142.58 1467.55,-137.7 1466.56,-144.63"/>
</g>
<!-- 2631953736512&#45;&gt;2631953735840 -->
<g id="edge24" class="edge">
<title>2631953736512&#45;&gt;2631953735840</title>
<path fill="none" stroke="black" d="M980.19,-182.78C987.88,-182.71 996.67,-182.64 1005.69,-182.56"/>
<polygon fill="black" stroke="black" points="1005.96,-186.06 1015.93,-182.48 1005.9,-179.06 1005.96,-186.06"/>
</g>
<!-- 2631953738048&#45;&gt;2631953313216 -->
<g id="edge25" class="edge">
<title>2631953738048&#45;&gt;2631953313216</title>
<path fill="none" stroke="black" d="M1440.09,-171.97C1448.25,-169.68 1457.65,-167.04 1467.11,-164.39"/>
<polygon fill="black" stroke="black" points="1468.26,-167.7 1476.94,-161.63 1466.37,-160.96 1468.26,-167.7"/>
</g>
<!-- 2631953736416&#45;&gt;2631953739488 -->
<g id="edge26" class="edge">
<title>2631953736416&#45;&gt;2631953739488</title>
<path fill="none" stroke="black" d="M1220.26,-182C1228.01,-182 1236.81,-182 1245.69,-182"/>
<polygon fill="black" stroke="black" points="1245.71,-185.5 1255.71,-182 1245.71,-178.5 1245.71,-185.5"/>
</g>
<!-- 2631953737184&#45;&gt;2631953310096 -->
<g id="edge27" class="edge">
<title>2631953737184&#45;&gt;2631953310096</title>
<path fill="none" stroke="black" d="M1658.37,-155.05C1671.35,-158.14 1687.72,-162.05 1703.65,-165.85"/>
<polygon fill="black" stroke="black" points="1702.93,-169.27 1713.47,-168.19 1704.55,-162.46 1702.93,-169.27"/>
</g>
<!-- 2631953737184&#45;&gt;2631953310816 -->
<g id="edge28" class="edge">
<title>2631953737184&#45;&gt;2631953310816</title>
<path fill="none" stroke="black" d="M1658.68,-143.67C1666.48,-142.05 1675.49,-140.18 1684.88,-138.23"/>
<polygon fill="black" stroke="black" points="1685.69,-141.63 1694.77,-136.17 1684.26,-134.78 1685.69,-141.63"/>
</g>
<!-- 2631953312496&#45;&gt;2631953309808 -->
<g id="edge29" class="edge">
<title>2631953312496&#45;&gt;2631953309808</title>
<path fill="none" stroke="black" d="M1923.04,-185C1951.41,-185 1998.16,-185 2038.59,-185"/>
<polygon fill="black" stroke="black" points="2038.72,-188.5 2048.72,-185 2038.72,-181.5 2038.72,-188.5"/>
</g>
<!-- 2631953311632&#45;&gt;2631953385264 -->
<g id="edge30" class="edge">
<title>2631953311632&#45;&gt;2631953385264</title>
<path fill="none" stroke="black" d="M1923.4,-113C1931.39,-113 1940.31,-113 1948.82,-113"/>
<polygon fill="black" stroke="black" points="1948.92,-116.5 1958.92,-113 1948.92,-109.5 1948.92,-116.5"/>
</g>
<!-- 2631953386656&#45;&gt;2631952802624 -->
<g id="edge31" class="edge">
<title>2631953386656&#45;&gt;2631952802624</title>
<path fill="none" stroke="black" d="M3738.12,-117.55C3752.75,-109.67 3772.11,-99.25 3789.45,-89.91"/>
<polygon fill="black" stroke="black" points="3791.15,-92.97 3798.29,-85.15 3787.83,-86.81 3791.15,-92.97"/>
</g>
<!-- 2631953386656&#45;&gt;2631952803296 -->
<g id="edge32" class="edge">
<title>2631953386656&#45;&gt;2631952803296</title>
<path fill="none" stroke="black" d="M3741.26,-130C3750.24,-130 3760.71,-130 3771.26,-130"/>
<polygon fill="black" stroke="black" points="3771.37,-133.5 3781.37,-130 3771.37,-126.5 3771.37,-133.5"/>
</g>
<!-- 2631953387040&#45;&gt;2631953384016 -->
<g id="edge33" class="edge">
<title>2631953387040&#45;&gt;2631953384016</title>
<path fill="none" stroke="black" d="M2144.8,-114.45C2162.19,-115.41 2186.4,-116.74 2211.78,-118.13"/>
<polygon fill="black" stroke="black" points="2211.75,-121.64 2221.93,-118.69 2212.14,-114.65 2211.75,-121.64"/>
</g>
<!-- 2631953384976&#45;&gt;2631953387424 -->
<g id="edge35" class="edge">
<title>2631953384976&#45;&gt;2631953387424</title>
<path fill="none" stroke="black" d="M3557.66,-116.09C3566.96,-110.39 3577.93,-103.66 3588.2,-97.35"/>
<polygon fill="black" stroke="black" points="3590.3,-100.18 3596.99,-91.96 3586.63,-94.21 3590.3,-100.18"/>
</g>
<!-- 2631953384976&#45;&gt;2631952802000 -->
<g id="edge34" class="edge">
<title>2631953384976&#45;&gt;2631952802000</title>
<path fill="none" stroke="black" d="M3561.4,-130C3569.39,-130 3578.31,-130 3586.82,-130"/>
<polygon fill="black" stroke="black" points="3586.92,-133.5 3596.92,-130 3586.92,-126.5 3586.92,-133.5"/>
</g>
<!-- 2631953384544&#45;&gt;2631953383584 -->
<g id="edge36" class="edge">
<title>2631953384544&#45;&gt;2631953383584</title>
<path fill="none" stroke="black" d="M2543.22,-130C2550.82,-130 2559.55,-130 2568.7,-130"/>
<polygon fill="black" stroke="black" points="2568.76,-133.5 2578.76,-130 2568.76,-126.5 2568.76,-133.5"/>
</g>
<!-- 2631953383824&#45;&gt;2631953383536 -->
<g id="edge37" class="edge">
<title>2631953383824&#45;&gt;2631953383536</title>
<path fill="none" stroke="black" d="M2819.08,-130C2826.88,-130 2835.74,-130 2844.64,-130"/>
<polygon fill="black" stroke="black" points="2844.66,-133.5 2854.66,-130 2844.66,-126.5 2844.66,-133.5"/>
</g>
<!-- 2631953384064&#45;&gt;2631953385744 -->
<g id="edge38" class="edge">
<title>2631953384064&#45;&gt;2631953385744</title>
<path fill="none" stroke="black" d="M3034.19,-130C3041.8,-130 3050.51,-130 3059.52,-130"/>
<polygon fill="black" stroke="black" points="3059.77,-133.5 3069.77,-130 3059.77,-126.5 3059.77,-133.5"/>
</g>
<!-- 2631953384784&#45;&gt;2631953386416 -->
<g id="edge39" class="edge">
<title>2631953384784&#45;&gt;2631953386416</title>
<path fill="none" stroke="black" d="M3285.22,-130C3292.82,-130 3301.55,-130 3310.7,-130"/>
<polygon fill="black" stroke="black" points="3310.76,-133.5 3320.76,-130 3310.76,-126.5 3310.76,-133.5"/>
</g>
<!-- 2631953385216&#45;&gt;2631952802912 -->
<g id="edge40" class="edge">
<title>2631953385216&#45;&gt;2631952802912</title>
<path fill="none" stroke="black" d="M3979.22,-59.74C3986.82,-60.24 3995.55,-60.82 4004.7,-61.42"/>
<polygon fill="black" stroke="black" points="4004.55,-64.92 4014.76,-62.09 4005.01,-57.93 4004.55,-64.92"/>
</g>
<!-- 2631952803104&#45;&gt;2631952803584 -->
<g id="edge41" class="edge">
<title>2631952803104&#45;&gt;2631952803584</title>
<path fill="none" stroke="black" d="M3979.22,-130C3987.38,-130 3996.86,-130 4006.75,-130"/>
<polygon fill="black" stroke="black" points="4006.76,-133.5 4016.76,-130 4006.76,-126.5 4006.76,-133.5"/>
</g>
<!-- 2631952717232&#45;&gt;2631952716944 -->
<g id="edge42" class="edge">
<title>2631952717232&#45;&gt;2631952716944</title>
<path fill="none" stroke="black" d="M330.07,-73C337.66,-73 346.49,-73 355.93,-73"/>
<polygon fill="black" stroke="black" points="355.97,-76.5 365.97,-73 355.97,-69.5 355.97,-76.5"/>
</g>
<!-- 2631952719392&#45;&gt;2631953738912 -->
<g id="edge43" class="edge">
<title>2631952719392&#45;&gt;2631953738912</title>
<path fill="none" stroke="black" d="M663.19,-71.49C670.67,-71.06 679.31,-70.57 688.51,-70.04"/>
<polygon fill="black" stroke="black" points="688.89,-73.52 698.68,-69.45 688.49,-66.53 688.89,-73.52"/>
</g>
<!-- 2631952719392&#45;&gt;2631953738288 -->
<g id="edge44" class="edge">
<title>2631952719392&#45;&gt;2631953738288</title>
<path fill="none" stroke="black" d="M662.03,-80.29C673.32,-83.58 686.83,-87.49 699,-91 718.33,-96.57 739.89,-102.73 757.53,-107.76"/>
<polygon fill="black" stroke="black" points="756.84,-111.21 767.42,-110.58 758.76,-104.47 756.84,-111.21"/>
</g>
<!-- 2631953736848&#45;&gt;2631953738624 -->
<g id="edge45" class="edge">
<title>2631953736848&#45;&gt;2631953738624</title>
<path fill="none" stroke="black" d="M925.88,-30.05C871.94,-26.21 744.29,-18 637,-18 468.5,-18 468.5,-18 468.5,-18 394.9,-18 311.23,-18 250.57,-18"/>
<polygon fill="black" stroke="black" points="250.28,-14.5 240.28,-18 250.28,-21.5 250.28,-14.5"/>
</g>
</g>
</svg>
