<?xml version="1.0" encoding="UTF-8" standalone="no"?>
<!DOCTYPE svg PUBLIC "-//W3C//DTD SVG 1.1//EN"
 "http://www.w3.org/Graphics/SVG/1.1/DTD/svg11.dtd">
<!-- Generated by graphviz version 2.49.0 (20210828.1703)
 -->
<!-- Title: imdf_net_1655279249.8198109 Pages: 1 -->
<svg width="4222pt" height="344pt"
 viewBox="0.00 0.00 4222.00 344.00" xmlns="http://www.w3.org/2000/svg" xmlns:xlink="http://www.w3.org/1999/xlink">
<g id="graph0" class="graph" transform="scale(1 1) rotate(0) translate(4 340)">
<title>imdf_net_1655279249.8198109</title>
<!-- 2146547144064 -->
<g id="node1" class="node">
<title>2146547144064</title>
<polygon fill="none" stroke="black" points="240,-36 90,-36 90,0 240,0 240,-36"/>
<text text-anchor="middle" x="165" y="-14.9" font-family="Times New Roman,serif" font-size="12.00">Receive_updated_application</text>
</g>
<!-- 2146547104928 -->
<g id="node45" class="node">
<title>2146547104928</title>
<ellipse fill="none" stroke="black" cx="303" cy="-73" rx="27" ry="27"/>
</g>
<!-- 2146547144064&#45;&gt;2146547104928 -->
<g id="edge19" class="edge">
<title>2146547144064&#45;&gt;2146547104928</title>
<path fill="none" stroke="black" d="M214.7,-36.04C223.16,-39.28 231.86,-42.69 240,-46 249.36,-49.81 259.44,-54.11 268.69,-58.14"/>
<polygon fill="black" stroke="black" points="267.41,-61.4 277.97,-62.21 270.22,-54.99 267.41,-61.4"/>
</g>
<!-- 2146547144832 -->
<g id="node2" class="node">
<title>2146547144832</title>
<polygon fill="none" stroke="black" points="1351,-200 1256,-200 1256,-164 1351,-164 1351,-200"/>
<text text-anchor="middle" x="1303.5" y="-178.9" font-family="Times New Roman,serif" font-size="12.00">Assess_loan_risk</text>
</g>
<!-- 2146547146224 -->
<g id="node30" class="node">
<title>2146547146224</title>
<ellipse fill="none" stroke="black" cx="1414" cy="-179" rx="27" ry="27"/>
</g>
<!-- 2146547144832&#45;&gt;2146547146224 -->
<g id="edge10" class="edge">
<title>2146547144832&#45;&gt;2146547146224</title>
<path fill="none" stroke="black" d="M1351.14,-180.71C1359.61,-180.48 1368.33,-180.24 1376.45,-180.01"/>
<polygon fill="black" stroke="black" points="1376.82,-183.5 1386.72,-179.73 1376.62,-176.5 1376.82,-183.5"/>
</g>
<!-- 2146546968320 -->
<g id="node3" class="node">
<title>2146546968320</title>
<polygon fill="none" stroke="black" points="2363,-131 2226,-131 2226,-95 2363,-95 2363,-131"/>
<text text-anchor="middle" x="2294.5" y="-109.9" font-family="Times New Roman,serif" font-size="12.00">Loan_application_rejected</text>
</g>
<!-- 2146547103728 -->
<g id="node48" class="node">
<title>2146547103728</title>
<ellipse fill="none" stroke="black" cx="4183" cy="-213" rx="27" ry="27"/>
<ellipse fill="none" stroke="black" cx="4183" cy="-213" rx="31" ry="31"/>
<text text-anchor="start" x="4173" y="-204.9" font-family="Times New Roman,serif" font-size="32.00">■</text>
</g>
<!-- 2146546968320&#45;&gt;2146547103728 -->
<g id="edge3" class="edge">
<title>2146546968320&#45;&gt;2146547103728</title>
<path fill="none" stroke="black" d="M2363.2,-113C2427.09,-113 2525.55,-113 2611,-113 2611,-113 2611,-113 3904,-113 3998.6,-113 4032.45,-87.63 4116,-132 4135.24,-142.22 4150.95,-160.67 4162.21,-177.38"/>
<polygon fill="black" stroke="black" points="4159.34,-179.39 4167.69,-185.91 4165.23,-175.61 4159.34,-179.39"/>
</g>
<!-- 2146546910592 -->
<g id="node4" class="node">
<title>2146546910592</title>
<polygon fill="none" stroke="black" points="2536.5,-190 2411.5,-190 2411.5,-154 2536.5,-154 2536.5,-190"/>
<text text-anchor="middle" x="2474" y="-168.9" font-family="Times New Roman,serif" font-size="12.00">Send_acceptance_pack</text>
</g>
<!-- 2146546967408 -->
<g id="node36" class="node">
<title>2146546967408</title>
<ellipse fill="none" stroke="black" cx="2612" cy="-212" rx="27" ry="27"/>
</g>
<!-- 2146546910592&#45;&gt;2146546967408 -->
<g id="edge16" class="edge">
<title>2146546910592&#45;&gt;2146546967408</title>
<path fill="none" stroke="black" d="M2536.24,-190.01C2549.9,-194.03 2563.92,-198.15 2576.09,-201.73"/>
<polygon fill="black" stroke="black" points="2575.23,-205.13 2585.81,-204.59 2577.21,-198.41 2575.23,-205.13"/>
</g>
<!-- 2146547143056 -->
<g id="node5" class="node">
<title>2146547143056</title>
<polygon fill="none" stroke="black" points="890,-82 699,-82 699,-46 890,-46 890,-82"/>
<text text-anchor="middle" x="794.5" y="-60.9" font-family="Times New Roman,serif" font-size="12.00">Return_application_back_to_applicant</text>
</g>
<!-- 2146547142768 -->
<g id="node47" class="node">
<title>2146547142768</title>
<ellipse fill="none" stroke="black" cx="953" cy="-32" rx="27" ry="27"/>
</g>
<!-- 2146547143056&#45;&gt;2146547142768 -->
<g id="edge7" class="edge">
<title>2146547143056&#45;&gt;2146547142768</title>
<path fill="none" stroke="black" d="M883.81,-45.94C895.34,-43.59 906.57,-41.29 916.48,-39.26"/>
<polygon fill="black" stroke="black" points="917.19,-42.69 926.29,-37.26 915.79,-35.83 917.19,-42.69"/>
</g>
<!-- 2146547145744 -->
<g id="node6" class="node">
<title>2146547145744</title>
<polygon fill="none" stroke="black" points="1569,-167 1477,-167 1477,-131 1569,-131 1569,-167"/>
<text text-anchor="middle" x="1523" y="-145.9" font-family="Times New Roman,serif" font-size="12.00">Assess_eligibility</text>
</g>
<!-- 2146547143584 -->
<g id="node32" class="node">
<title>2146547143584</title>
<ellipse fill="none" stroke="black" cx="1632" cy="-149" rx="27" ry="27"/>
</g>
<!-- 2146547145744&#45;&gt;2146547143584 -->
<g id="edge15" class="edge">
<title>2146547145744&#45;&gt;2146547143584</title>
<path fill="none" stroke="black" d="M1569.07,-149C1577.66,-149 1586.55,-149 1594.83,-149"/>
<polygon fill="black" stroke="black" points="1594.9,-152.5 1604.9,-149 1594.9,-145.5 1594.9,-152.5"/>
</g>
<!-- 2146547318544 -->
<g id="node7" class="node">
<title>2146547318544</title>
<polygon fill="none" stroke="black" points="3840,-336 3694,-336 3694,-300 3840,-300 3840,-336"/>
<text text-anchor="middle" x="3767" y="-314.9" font-family="Times New Roman,serif" font-size="12.00">Loan__application_canceled</text>
</g>
<!-- 2146547318544&#45;&gt;2146547103728 -->
<g id="edge4" class="edge">
<title>2146547318544&#45;&gt;2146547103728</title>
<path fill="none" stroke="black" d="M3840.24,-305.48C3911.28,-292.31 4022.38,-269.41 4116,-240 4125.55,-237 4135.66,-233.2 4145.02,-229.4"/>
<polygon fill="black" stroke="black" points="4146.55,-232.55 4154.44,-225.48 4143.86,-226.09 4146.55,-232.55"/>
</g>
<!-- 2146547103776 -->
<g id="node8" class="node">
<title>2146547103776</title>
<polygon fill="none" stroke="black" points="237.5,-91 92.5,-91 92.5,-55 237.5,-55 237.5,-91"/>
<text text-anchor="middle" x="165" y="-69.9" font-family="Times New Roman,serif" font-size="12.00">Loan__application_received</text>
</g>
<!-- 2146547103776&#45;&gt;2146547104928 -->
<g id="edge18" class="edge">
<title>2146547103776&#45;&gt;2146547104928</title>
<path fill="none" stroke="black" d="M237.58,-73C247.32,-73 256.96,-73 265.7,-73"/>
<polygon fill="black" stroke="black" points="265.85,-76.5 275.85,-73 265.85,-69.5 265.85,-76.5"/>
</g>
<!-- 2146547143968 -->
<g id="node9" class="node">
<title>2146547143968</title>
<polygon fill="none" stroke="black" points="1130,-200 1016,-200 1016,-164 1130,-164 1130,-200"/>
<text text-anchor="middle" x="1073" y="-178.9" font-family="Times New Roman,serif" font-size="12.00">Check_credit_history</text>
</g>
<!-- 2146547143392 -->
<g id="node31" class="node">
<title>2146547143392</title>
<ellipse fill="none" stroke="black" cx="1193" cy="-182" rx="27" ry="27"/>
</g>
<!-- 2146547143968&#45;&gt;2146547143392 -->
<g id="edge9" class="edge">
<title>2146547143968&#45;&gt;2146547143392</title>
<path fill="none" stroke="black" d="M1130.24,-182C1138.9,-182 1147.65,-182 1155.73,-182"/>
<polygon fill="black" stroke="black" points="1155.89,-185.5 1165.89,-182 1155.89,-178.5 1155.89,-185.5"/>
</g>
<!-- 2146546967456 -->
<g id="node10" class="node">
<title>2146546967456</title>
<polygon fill="none" stroke="black" points="2549,-244 2399,-244 2399,-208 2549,-208 2549,-244"/>
<text text-anchor="middle" x="2474" y="-222.9" font-family="Times New Roman,serif" font-size="12.00">Send_home_insurance_quote</text>
</g>
<!-- 2146546967456&#45;&gt;2146546967408 -->
<g id="edge5" class="edge">
<title>2146546967456&#45;&gt;2146546967408</title>
<path fill="none" stroke="black" d="M2549.37,-218.34C2558.25,-217.43 2566.99,-216.53 2574.96,-215.71"/>
<polygon fill="black" stroke="black" points="2575.37,-219.19 2584.96,-214.68 2574.65,-212.22 2575.37,-219.19"/>
</g>
<!-- 2146547316000 -->
<g id="node11" class="node">
<title>2146547316000</title>
<polygon fill="none" stroke="black" points="3562,-299 3424,-299 3424,-263 3562,-263 3562,-299"/>
<text text-anchor="middle" x="3493" y="-277.9" font-family="Times New Roman,serif" font-size="12.00">Prepare_acceptance_pack</text>
</g>
<!-- 2146547315712 -->
<g id="node41" class="node">
<title>2146547315712</title>
<ellipse fill="none" stroke="black" cx="3631" cy="-281" rx="27" ry="27"/>
</g>
<!-- 2146547316000&#45;&gt;2146547315712 -->
<g id="edge21" class="edge">
<title>2146547316000&#45;&gt;2146547315712</title>
<path fill="none" stroke="black" d="M3562.4,-281C3573.28,-281 3584.15,-281 3593.89,-281"/>
<polygon fill="black" stroke="black" points="3593.96,-284.5 3603.96,-281 3593.96,-277.5 3593.96,-284.5"/>
</g>
<!-- 2146546967984 -->
<g id="node12" class="node">
<title>2146546967984</title>
<polygon fill="none" stroke="black" points="2190,-203 1959,-203 1959,-167 2190,-167 2190,-203"/>
<text text-anchor="middle" x="2074.5" y="-181.9" font-family="Times New Roman,serif" font-size="12.00">Check_if_home_insurance_quote_is_requested</text>
</g>
<!-- 2146546968656 -->
<g id="node35" class="node">
<title>2146546968656</title>
<ellipse fill="none" stroke="black" cx="2294.5" cy="-185" rx="27" ry="27"/>
</g>
<!-- 2146546967984&#45;&gt;2146546968656 -->
<g id="edge6" class="edge">
<title>2146546967984&#45;&gt;2146546968656</title>
<path fill="none" stroke="black" d="M2190.25,-185C2214.54,-185 2238.45,-185 2257.14,-185"/>
<polygon fill="black" stroke="black" points="2257.22,-188.5 2267.22,-185 2257.22,-181.5 2257.22,-188.5"/>
</g>
<!-- 2146546109744 -->
<g id="node13" class="node">
<title>2146546109744</title>
<polygon fill="none" stroke="black" points="4116,-231 3966,-231 3966,-195 4116,-195 4116,-231"/>
<text text-anchor="middle" x="4041" y="-209.9" font-family="Times New Roman,serif" font-size="12.00">Loan__application_approved</text>
</g>
<!-- 2146546109744&#45;&gt;2146547103728 -->
<g id="edge20" class="edge">
<title>2146546109744&#45;&gt;2146547103728</title>
<path fill="none" stroke="black" d="M4116.1,-213C4124.86,-213 4133.53,-213 4141.56,-213"/>
<polygon fill="black" stroke="black" points="4141.71,-216.5 4151.71,-213 4141.71,-209.5 4141.71,-216.5"/>
</g>
<!-- 2146547144640 -->
<g id="node14" class="node">
<title>2146547144640</title>
<polygon fill="black" stroke="black" points="821.5,-136 767.5,-136 767.5,-100 821.5,-100 821.5,-136"/>
</g>
<!-- 2146547143632 -->
<g id="node27" class="node">
<title>2146547143632</title>
<ellipse fill="none" stroke="black" cx="953" cy="-111" rx="27" ry="27"/>
</g>
<!-- 2146547144640&#45;&gt;2146547143632 -->
<g id="edge52" class="edge">
<title>2146547144640&#45;&gt;2146547143632</title>
<path fill="none" stroke="black" d="M821.69,-116.83C847.5,-115.67 887.13,-113.9 915.91,-112.61"/>
<polygon fill="black" stroke="black" points="916.15,-116.11 925.98,-112.16 915.83,-109.11 916.15,-116.11"/>
</g>
<!-- 2146547145648 -->
<g id="node29" class="node">
<title>2146547145648</title>
<ellipse fill="none" stroke="black" cx="953" cy="-183" rx="27" ry="27"/>
</g>
<!-- 2146547144640&#45;&gt;2146547145648 -->
<g id="edge53" class="edge">
<title>2146547144640&#45;&gt;2146547145648</title>
<path fill="none" stroke="black" d="M821.69,-128.88C848.27,-139.92 889.52,-157.05 918.47,-169.07"/>
<polygon fill="black" stroke="black" points="917.2,-172.34 927.78,-172.94 919.89,-165.87 917.2,-172.34"/>
</g>
<!-- 2146546968128 -->
<g id="node15" class="node">
<title>2146546968128</title>
<polygon fill="none" stroke="black" points="1833,-198 1695,-198 1695,-162 1833,-162 1833,-198"/>
<text text-anchor="middle" x="1764" y="-176.9" font-family="Times New Roman,serif" font-size="12.00">Prepare_acceptance_pack</text>
</g>
<!-- 2146546968464 -->
<g id="node34" class="node">
<title>2146546968464</title>
<ellipse fill="none" stroke="black" cx="1896" cy="-185" rx="27" ry="27"/>
</g>
<!-- 2146546968128&#45;&gt;2146546968464 -->
<g id="edge1" class="edge">
<title>2146546968128&#45;&gt;2146546968464</title>
<path fill="none" stroke="black" d="M1833.05,-182.62C1841.93,-182.96 1850.74,-183.3 1858.81,-183.61"/>
<polygon fill="black" stroke="black" points="1858.8,-187.11 1868.93,-184 1859.07,-180.12 1858.8,-187.11"/>
</g>
<!-- 2146546788672 -->
<g id="node16" class="node">
<title>2146546788672</title>
<polygon fill="none" stroke="black" points="2825,-230 2675,-230 2675,-194 2825,-194 2825,-230"/>
<text text-anchor="middle" x="2750" y="-208.9" font-family="Times New Roman,serif" font-size="12.00">Verify_repayment_agreement</text>
</g>
<!-- 2146546967744 -->
<g id="node37" class="node">
<title>2146546967744</title>
<ellipse fill="none" stroke="black" cx="2888" cy="-212" rx="27" ry="27"/>
</g>
<!-- 2146546788672&#45;&gt;2146546967744 -->
<g id="edge8" class="edge">
<title>2146546788672&#45;&gt;2146546967744</title>
<path fill="none" stroke="black" d="M2825.37,-212C2834.15,-212 2842.79,-212 2850.69,-212"/>
<polygon fill="black" stroke="black" points="2850.96,-215.5 2860.96,-212 2850.96,-208.5 2850.96,-215.5"/>
</g>
<!-- 2146547316672 -->
<g id="node17" class="node">
<title>2146547316672</title>
<polygon fill="none" stroke="black" points="3568,-227 3418,-227 3418,-191 3568,-191 3568,-227"/>
<text text-anchor="middle" x="3493" y="-205.9" font-family="Times New Roman,serif" font-size="12.00">Verify_repayment_agreement</text>
</g>
<!-- 2146547316384 -->
<g id="node43" class="node">
<title>2146547316384</title>
<ellipse fill="none" stroke="black" cx="3631" cy="-209" rx="27" ry="27"/>
</g>
<!-- 2146547316672&#45;&gt;2146547316384 -->
<g id="edge11" class="edge">
<title>2146547316672&#45;&gt;2146547316384</title>
<path fill="none" stroke="black" d="M3568.37,-209C3577.15,-209 3585.79,-209 3593.69,-209"/>
<polygon fill="black" stroke="black" points="3593.96,-212.5 3603.96,-209 3593.96,-205.5 3593.96,-212.5"/>
</g>
<!-- 2146547143248 -->
<g id="node18" class="node">
<title>2146547143248</title>
<polygon fill="none" stroke="black" points="1814.5,-140 1713.5,-140 1713.5,-104 1814.5,-104 1814.5,-140"/>
<text text-anchor="middle" x="1764" y="-118.9" font-family="Times New Roman,serif" font-size="12.00">Reject_application</text>
</g>
<!-- 2146547146560 -->
<g id="node33" class="node">
<title>2146547146560</title>
<ellipse fill="none" stroke="black" cx="1896" cy="-113" rx="27" ry="27"/>
</g>
<!-- 2146547143248&#45;&gt;2146547146560 -->
<g id="edge14" class="edge">
<title>2146547143248&#45;&gt;2146547146560</title>
<path fill="none" stroke="black" d="M1814.52,-118.57C1829.27,-117.55 1845.15,-116.45 1858.88,-115.5"/>
<polygon fill="black" stroke="black" points="1859.16,-118.99 1868.9,-114.81 1858.68,-112.01 1859.16,-118.99"/>
</g>
<!-- 2146547316816 -->
<g id="node19" class="node">
<title>2146547316816</title>
<polygon fill="none" stroke="black" points="3811.5,-229 3722.5,-229 3722.5,-193 3811.5,-193 3811.5,-229"/>
<text text-anchor="middle" x="3767" y="-207.9" font-family="Times New Roman,serif" font-size="12.00">Added_Acitvity</text>
</g>
<!-- 2146546106864 -->
<g id="node39" class="node">
<title>2146546106864</title>
<ellipse fill="none" stroke="black" cx="3903" cy="-211" rx="27" ry="27"/>
</g>
<!-- 2146547316816&#45;&gt;2146546106864 -->
<g id="edge23" class="edge">
<title>2146547316816&#45;&gt;2146546106864</title>
<path fill="none" stroke="black" d="M3811.51,-211C3828.93,-211 3848.79,-211 3865.45,-211"/>
<polygon fill="black" stroke="black" points="3865.88,-214.5 3875.88,-211 3865.88,-207.5 3865.88,-214.5"/>
</g>
<!-- 2146546109408 -->
<g id="node20" class="node">
<title>2146546109408</title>
<polygon fill="black" stroke="black" points="3029.5,-229 2975.5,-229 2975.5,-193 3029.5,-193 3029.5,-229"/>
</g>
<!-- 2146546110176 -->
<g id="node38" class="node">
<title>2146546110176</title>
<ellipse fill="none" stroke="black" cx="3117" cy="-211" rx="27" ry="27"/>
</g>
<!-- 2146546109408&#45;&gt;2146546110176 -->
<g id="edge24" class="edge">
<title>2146546109408&#45;&gt;2146546110176</title>
<path fill="none" stroke="black" d="M3029.59,-211C3044.39,-211 3063.15,-211 3079.41,-211"/>
<polygon fill="black" stroke="black" points="3079.66,-214.5 3089.66,-211 3079.66,-207.5 3079.66,-214.5"/>
</g>
<!-- 2146547105648 -->
<g id="node21" class="node">
<title>2146547105648</title>
<polygon fill="none" stroke="black" points="573,-91 366,-91 366,-55 573,-55 573,-91"/>
<text text-anchor="middle" x="469.5" y="-69.9" font-family="Times New Roman,serif" font-size="12.00">Check__application__form_completeness</text>
</g>
<!-- 2146547105456 -->
<g id="node46" class="node">
<title>2146547105456</title>
<ellipse fill="none" stroke="black" cx="636" cy="-73" rx="27" ry="27"/>
</g>
<!-- 2146547105648&#45;&gt;2146547105456 -->
<g id="edge17" class="edge">
<title>2146547105648&#45;&gt;2146547105456</title>
<path fill="none" stroke="black" d="M573.28,-73C582.3,-73 590.96,-73 598.81,-73"/>
<polygon fill="black" stroke="black" points="598.95,-76.5 608.95,-73 598.95,-69.5 598.95,-76.5"/>
</g>
<!-- 2146547145072 -->
<g id="node22" class="node">
<title>2146547145072</title>
<polygon fill="none" stroke="black" points="1124.5,-133 1021.5,-133 1021.5,-97 1124.5,-97 1124.5,-133"/>
<text text-anchor="middle" x="1073" y="-111.9" font-family="Times New Roman,serif" font-size="12.00">Appraise_property</text>
</g>
<!-- 2146547144208 -->
<g id="node28" class="node">
<title>2146547144208</title>
<ellipse fill="none" stroke="black" cx="1303.5" cy="-118" rx="27" ry="27"/>
</g>
<!-- 2146547145072&#45;&gt;2146547144208 -->
<g id="edge22" class="edge">
<title>2146547145072&#45;&gt;2146547144208</title>
<path fill="none" stroke="black" d="M1124.71,-115.67C1167.62,-116.23 1228.05,-117.02 1266.24,-117.52"/>
<polygon fill="black" stroke="black" points="1266.34,-121.03 1276.39,-117.66 1266.44,-114.03 1266.34,-121.03"/>
</g>
<!-- 2146546550384 -->
<g id="node23" class="node">
<title>2146546550384</title>
<polygon fill="none" stroke="black" points="3292,-229 3180,-229 3180,-193 3292,-193 3292,-229"/>
<text text-anchor="middle" x="3236" y="-207.9" font-family="Times New Roman,serif" font-size="12.00">Approve_application</text>
</g>
<!-- 2146547315520 -->
<g id="node40" class="node">
<title>2146547315520</title>
<ellipse fill="none" stroke="black" cx="3355" cy="-281" rx="27" ry="27"/>
</g>
<!-- 2146546550384&#45;&gt;2146547315520 -->
<g id="edge12" class="edge">
<title>2146546550384&#45;&gt;2146547315520</title>
<path fill="none" stroke="black" d="M3267.13,-229.03C3284.2,-239.24 3305.51,-251.99 3322.76,-262.31"/>
<polygon fill="black" stroke="black" points="3320.98,-265.33 3331.36,-267.46 3324.58,-259.32 3320.98,-265.33"/>
</g>
<!-- 2146547316192 -->
<g id="node42" class="node">
<title>2146547316192</title>
<ellipse fill="none" stroke="black" cx="3355" cy="-209" rx="27" ry="27"/>
</g>
<!-- 2146546550384&#45;&gt;2146547316192 -->
<g id="edge13" class="edge">
<title>2146546550384&#45;&gt;2146547316192</title>
<path fill="none" stroke="black" d="M3292.07,-210.06C3300.73,-209.91 3309.48,-209.76 3317.58,-209.62"/>
<polygon fill="black" stroke="black" points="3317.83,-213.12 3327.77,-209.45 3317.71,-206.12 3317.83,-213.12"/>
</g>
<!-- 2146547317104 -->
<g id="node24" class="node">
<title>2146547317104</title>
<polygon fill="black" stroke="black" points="4068,-177 4014,-177 4014,-141 4068,-141 4068,-177"/>
</g>
<!-- 2146547317104&#45;&gt;2146546110176 -->
<g id="edge51" class="edge">
<title>2146547317104&#45;&gt;2146546110176</title>
<path fill="none" stroke="black" d="M4013.75,-158.2C3965.22,-156.78 3858.21,-154 3768,-154 3354,-154 3354,-154 3354,-154 3275.53,-154 3255.18,-161.51 3180,-184 3170.23,-186.92 3159.96,-190.97 3150.64,-195.04"/>
<polygon fill="black" stroke="black" points="3149.02,-191.94 3141.35,-199.25 3151.9,-198.31 3149.02,-191.94"/>
</g>
<!-- 2146547318256 -->
<g id="node25" class="node">
<title>2146547318256</title>
<polygon fill="none" stroke="black" points="3054,-305 2951,-305 2951,-269 3054,-269 3054,-305"/>
<text text-anchor="middle" x="3002.5" y="-283.9" font-family="Times New Roman,serif" font-size="12.00">Cancel_application</text>
</g>
<!-- 2146546788192 -->
<g id="node44" class="node">
<title>2146546788192</title>
<ellipse fill="none" stroke="black" cx="3117" cy="-309" rx="27" ry="27"/>
</g>
<!-- 2146547318256&#45;&gt;2146546788192 -->
<g id="edge2" class="edge">
<title>2146547318256&#45;&gt;2146546788192</title>
<path fill="none" stroke="black" d="M3054.16,-296.91C3062.93,-298.62 3071.89,-300.37 3080.17,-301.99"/>
<polygon fill="black" stroke="black" points="3079.73,-305.47 3090.22,-303.96 3081.08,-298.6 3079.73,-305.47"/>
</g>
<!-- 2146547103680 -->
<g id="node26" class="node">
<title>2146547103680</title>
<ellipse fill="none" stroke="black" cx="27" cy="-73" rx="27" ry="27"/>
<text text-anchor="start" x="16" y="-64.3" font-family="Times New Roman,serif" font-size="34.00">●</text>
</g>
<!-- 2146547103680&#45;&gt;2146547103776 -->
<g id="edge54" class="edge">
<title>2146547103680&#45;&gt;2146547103776</title>
<path fill="none" stroke="black" d="M54.22,-73C62.5,-73 72.13,-73 82.18,-73"/>
<polygon fill="black" stroke="black" points="82.33,-76.5 92.33,-73 82.33,-69.5 82.33,-76.5"/>
</g>
<!-- 2146547143632&#45;&gt;2146547145072 -->
<g id="edge25" class="edge">
<title>2146547143632&#45;&gt;2146547145072</title>
<path fill="none" stroke="black" d="M980.19,-111.89C989.44,-112.2 1000.27,-112.57 1011.19,-112.94"/>
<polygon fill="black" stroke="black" points="1011.08,-116.44 1021.19,-113.28 1011.32,-109.44 1011.08,-116.44"/>
</g>
<!-- 2146547144208&#45;&gt;2146547145744 -->
<g id="edge26" class="edge">
<title>2146547144208&#45;&gt;2146547145744</title>
<path fill="none" stroke="black" d="M1330.3,-121.68C1363.81,-126.45 1423.2,-134.92 1467.02,-141.16"/>
<polygon fill="black" stroke="black" points="1466.56,-144.63 1476.95,-142.58 1467.55,-137.7 1466.56,-144.63"/>
</g>
<!-- 2146547145648&#45;&gt;2146547143968 -->
<g id="edge27" class="edge">
<title>2146547145648&#45;&gt;2146547143968</title>
<path fill="none" stroke="black" d="M980.19,-182.78C987.88,-182.71 996.67,-182.64 1005.69,-182.56"/>
<polygon fill="black" stroke="black" points="1005.96,-186.06 1015.93,-182.48 1005.9,-179.06 1005.96,-186.06"/>
</g>
<!-- 2146547146224&#45;&gt;2146547145744 -->
<g id="edge28" class="edge">
<title>2146547146224&#45;&gt;2146547145744</title>
<path fill="none" stroke="black" d="M1440.09,-171.97C1448.25,-169.68 1457.65,-167.04 1467.11,-164.39"/>
<polygon fill="black" stroke="black" points="1468.26,-167.7 1476.94,-161.63 1466.37,-160.96 1468.26,-167.7"/>
</g>
<!-- 2146547143392&#45;&gt;2146547144832 -->
<g id="edge29" class="edge">
<title>2146547143392&#45;&gt;2146547144832</title>
<path fill="none" stroke="black" d="M1220.26,-182C1228.01,-182 1236.81,-182 1245.69,-182"/>
<polygon fill="black" stroke="black" points="1245.71,-185.5 1255.71,-182 1245.71,-178.5 1245.71,-185.5"/>
</g>
<!-- 2146547143584&#45;&gt;2146546968128 -->
<g id="edge30" class="edge">
<title>2146547143584&#45;&gt;2146546968128</title>
<path fill="none" stroke="black" d="M1658.37,-155.05C1666.22,-156.92 1675.3,-159.09 1684.78,-161.35"/>
<polygon fill="black" stroke="black" points="1684.23,-164.81 1694.76,-163.73 1685.85,-158 1684.23,-164.81"/>
</g>
<!-- 2146547143584&#45;&gt;2146547143248 -->
<g id="edge31" class="edge">
<title>2146547143584&#45;&gt;2146547143248</title>
<path fill="none" stroke="black" d="M1658.68,-143.67C1671.49,-141.01 1687.56,-137.67 1703.22,-134.42"/>
<polygon fill="black" stroke="black" points="1704.34,-137.76 1713.42,-132.3 1702.92,-130.9 1704.34,-137.76"/>
</g>
<!-- 2146547146560&#45;&gt;2146546968320 -->
<g id="edge32" class="edge">
<title>2146547146560&#45;&gt;2146546968320</title>
<path fill="none" stroke="black" d="M1923.02,-113C1981.49,-113 2125.26,-113 2215.53,-113"/>
<polygon fill="black" stroke="black" points="2215.72,-116.5 2225.72,-113 2215.72,-109.5 2215.72,-116.5"/>
</g>
<!-- 2146546968464&#45;&gt;2146546967984 -->
<g id="edge33" class="edge">
<title>2146546968464&#45;&gt;2146546967984</title>
<path fill="none" stroke="black" d="M1923.04,-185C1930.59,-185 1939.37,-185 1948.82,-185"/>
<polygon fill="black" stroke="black" points="1948.89,-188.5 1958.89,-185 1948.89,-181.5 1948.89,-188.5"/>
</g>
<!-- 2146546968656&#45;&gt;2146546910592 -->
<g id="edge35" class="edge">
<title>2146546968656&#45;&gt;2146546910592</title>
<path fill="none" stroke="black" d="M2321.69,-183.08C2342.65,-181.55 2373.07,-179.32 2401.15,-177.26"/>
<polygon fill="black" stroke="black" points="2401.65,-180.73 2411.37,-176.51 2401.14,-173.75 2401.65,-180.73"/>
</g>
<!-- 2146546968656&#45;&gt;2146546967456 -->
<g id="edge34" class="edge">
<title>2146546968656&#45;&gt;2146546967456</title>
<path fill="none" stroke="black" d="M2320.93,-190.87C2338.96,-195.04 2364.25,-200.88 2389.05,-206.61"/>
<polygon fill="black" stroke="black" points="2388.35,-210.04 2398.88,-208.88 2389.92,-203.22 2388.35,-210.04"/>
</g>
<!-- 2146546967408&#45;&gt;2146546788672 -->
<g id="edge36" class="edge">
<title>2146546967408&#45;&gt;2146546788672</title>
<path fill="none" stroke="black" d="M2639.22,-212C2646.82,-212 2655.55,-212 2664.7,-212"/>
<polygon fill="black" stroke="black" points="2664.76,-215.5 2674.76,-212 2664.76,-208.5 2664.76,-215.5"/>
</g>
<!-- 2146546967744&#45;&gt;2146546109408 -->
<g id="edge38" class="edge">
<title>2146546967744&#45;&gt;2146546109408</title>
<path fill="none" stroke="black" d="M2915.09,-211.77C2929.89,-211.64 2948.65,-211.47 2964.91,-211.33"/>
<polygon fill="black" stroke="black" points="2965.19,-214.82 2975.16,-211.23 2965.13,-207.82 2965.19,-214.82"/>
</g>
<!-- 2146546967744&#45;&gt;2146547318256 -->
<g id="edge37" class="edge">
<title>2146546967744&#45;&gt;2146547318256</title>
<path fill="none" stroke="black" d="M2910.96,-226.64C2926.56,-237.04 2947.87,-251.24 2965.89,-263.26"/>
<polygon fill="black" stroke="black" points="2964.17,-266.32 2974.43,-268.95 2968.05,-260.49 2964.17,-266.32"/>
</g>
<!-- 2146546110176&#45;&gt;2146546550384 -->
<g id="edge39" class="edge">
<title>2146546110176&#45;&gt;2146546550384</title>
<path fill="none" stroke="black" d="M3144.26,-211C3151.89,-211 3160.6,-211 3169.52,-211"/>
<polygon fill="black" stroke="black" points="3169.64,-214.5 3179.64,-211 3169.64,-207.5 3169.64,-214.5"/>
</g>
<!-- 2146546106864&#45;&gt;2146546109744 -->
<g id="edge40" class="edge">
<title>2146546106864&#45;&gt;2146546109744</title>
<path fill="none" stroke="black" d="M3930.22,-211.39C3937.82,-211.5 3946.55,-211.63 3955.7,-211.76"/>
<polygon fill="black" stroke="black" points="3955.71,-215.26 3965.76,-211.91 3955.81,-208.26 3955.71,-215.26"/>
</g>
<!-- 2146546106864&#45;&gt;2146547317104 -->
<g id="edge41" class="edge">
<title>2146546106864&#45;&gt;2146547317104</title>
<path fill="none" stroke="black" d="M3928.37,-200.96C3939.76,-196.31 3953.54,-190.78 3966,-186 3978.49,-181.2 3992.24,-176.13 4004.47,-171.69"/>
<polygon fill="black" stroke="black" points="4005.68,-174.98 4013.89,-168.28 4003.3,-168.39 4005.68,-174.98"/>
</g>
<!-- 2146547315520&#45;&gt;2146547316000 -->
<g id="edge42" class="edge">
<title>2146547315520&#45;&gt;2146547316000</title>
<path fill="none" stroke="black" d="M3382.22,-281C3391.48,-281 3402.41,-281 3413.74,-281"/>
<polygon fill="black" stroke="black" points="3413.76,-284.5 3423.76,-281 3413.76,-277.5 3413.76,-284.5"/>
</g>
<!-- 2146547315712&#45;&gt;2146547316816 -->
<g id="edge43" class="edge">
<title>2146547315712&#45;&gt;2146547316816</title>
<path fill="none" stroke="black" d="M3655.34,-268.81C3673.79,-259.17 3700.07,-245.44 3722.39,-233.78"/>
<polygon fill="black" stroke="black" points="3724.12,-236.83 3731.36,-229.1 3720.88,-230.62 3724.12,-236.83"/>
</g>
<!-- 2146547316192&#45;&gt;2146547316672 -->
<g id="edge44" class="edge">
<title>2146547316192&#45;&gt;2146547316672</title>
<path fill="none" stroke="black" d="M3382.22,-209C3389.82,-209 3398.55,-209 3407.7,-209"/>
<polygon fill="black" stroke="black" points="3407.76,-212.5 3417.76,-209 3407.76,-205.5 3407.76,-212.5"/>
</g>
<!-- 2146547316384&#45;&gt;2146547316816 -->
<g id="edge45" class="edge">
<title>2146547316384&#45;&gt;2146547316816</title>
<path fill="none" stroke="black" d="M3658.15,-209.39C3673.51,-209.62 3693.5,-209.92 3712.09,-210.2"/>
<polygon fill="black" stroke="black" points="3712.19,-213.7 3722.24,-210.35 3712.29,-206.7 3712.19,-213.7"/>
</g>
<!-- 2146546788192&#45;&gt;2146547318544 -->
<g id="edge46" class="edge">
<title>2146546788192&#45;&gt;2146547318544</title>
<path fill="none" stroke="black" d="M3143.73,-313.89C3186.99,-321.67 3277.09,-336 3354,-336 3354,-336 3354,-336 3494,-336 3557.8,-336 3629.83,-331.01 3683.74,-326.28"/>
<polygon fill="black" stroke="black" points="3684.28,-329.75 3693.93,-325.37 3683.66,-322.78 3684.28,-329.75"/>
</g>
<!-- 2146547104928&#45;&gt;2146547105648 -->
<g id="edge47" class="edge">
<title>2146547104928&#45;&gt;2146547105648</title>
<path fill="none" stroke="black" d="M330.07,-73C337.66,-73 346.49,-73 355.93,-73"/>
<polygon fill="black" stroke="black" points="355.97,-76.5 365.97,-73 355.97,-69.5 355.97,-76.5"/>
</g>
<!-- 2146547105456&#45;&gt;2146547143056 -->
<g id="edge48" class="edge">
<title>2146547105456&#45;&gt;2146547143056</title>
<path fill="none" stroke="black" d="M663.19,-71.49C670.67,-71.06 679.31,-70.57 688.51,-70.04"/>
<polygon fill="black" stroke="black" points="688.89,-73.52 698.68,-69.45 688.49,-66.53 688.89,-73.52"/>
</g>
<!-- 2146547105456&#45;&gt;2146547144640 -->
<g id="edge49" class="edge">
<title>2146547105456&#45;&gt;2146547144640</title>
<path fill="none" stroke="black" d="M662.03,-80.29C673.32,-83.58 686.83,-87.49 699,-91 718.33,-96.57 739.89,-102.73 757.53,-107.76"/>
<polygon fill="black" stroke="black" points="756.84,-111.21 767.42,-110.58 758.76,-104.47 756.84,-111.21"/>
</g>
<!-- 2146547142768&#45;&gt;2146547144064 -->
<g id="edge50" class="edge">
<title>2146547142768&#45;&gt;2146547144064</title>
<path fill="none" stroke="black" d="M925.88,-30.05C871.94,-26.21 744.29,-18 637,-18 468.5,-18 468.5,-18 468.5,-18 394.9,-18 311.23,-18 250.57,-18"/>
<polygon fill="black" stroke="black" points="250.28,-14.5 240.28,-18 250.28,-21.5 250.28,-14.5"/>
</g>
</g>
</svg>
